<svg width="20" height="20" viewBox="0 0 20 20" fill="none" xmlns="http://www.w3.org/2000/svg">
<path d="M17.1427 1.36012H2.85708C1.60602 1.36012 0.588135 2.37929 0.588135 3.63212V16.7869C0.588135 17.4744 0.947899 18.0816 1.55037 18.4113C1.8319 18.5654 2.13578 18.642 2.43872 18.6419C2.78284 18.6419 3.12578 18.5429 3.43296 18.3464L5.77296 16.8481H17.1428C18.3939 16.8481 19.4118 15.8289 19.4118 14.5761V3.632C19.4118 2.37929 18.394 1.36 17.1428 1.36L17.1427 1.36012ZM18.2352 14.576C18.2352 15.1801 17.7451 15.6715 17.1427 15.6715H5.42861L2.79849 17.3554C2.49625 17.5488 2.2199 17.4364 2.11496 17.3791C1.89555 17.2589 1.76449 17.0376 1.76449 16.7868V3.632C1.76449 3.02788 2.25461 2.53647 2.85696 2.53647H17.1427C17.7451 2.53647 18.2352 3.02788 18.2352 3.632V14.576Z" fill="#949495"/>
<path d="M9.64024 6.48082C9.31541 6.48082 9.052 6.74411 9.052 7.06905V9.44964C9.052 9.77458 9.31541 10.0379 9.64024 10.0379C9.96506 10.0379 10.2285 9.77458 10.2285 9.44964V7.06905C10.2285 6.74411 9.96506 6.48082 9.64024 6.48082Z" fill="#949495"/>
<path d="M9.64024 10.6531C9.31541 10.6531 9.052 10.9164 9.052 11.2413V11.2922C9.052 11.6172 9.31541 11.8805 9.64024 11.8805C9.96506 11.8805 10.2285 11.6172 10.2285 11.2922V11.2413C10.2285 10.9164 9.96506 10.6531 9.64024 10.6531Z" fill="#949495"/>
<path d="M11.0361 4.79942C10.7447 4.29471 10.2228 3.9933 9.64 3.9933C9.05718 3.9933 8.53529 4.29471 8.244 4.79942L4.47588 11.3261C4.18447 11.8308 4.18447 12.4334 4.47588 12.9382C4.76729 13.4428 5.28918 13.7442 5.87188 13.7442H13.4082C13.9911 13.7442 14.5129 13.4428 14.8042 12.9382C15.0956 12.4334 15.0956 11.8308 14.8042 11.3261L11.0361 4.79942ZM13.7854 12.3499C13.7476 12.4154 13.6352 12.5678 13.4082 12.5678H5.87188C5.64494 12.5678 5.53247 12.4154 5.49471 12.3499C5.45694 12.2844 5.38118 12.1109 5.49471 11.9144L9.26282 5.38765C9.37635 5.19107 9.56435 5.16977 9.64 5.16977C9.71565 5.16977 9.90377 5.19107 10.0173 5.38765L13.7854 11.9144C13.8989 12.1109 13.8232 12.2845 13.7854 12.3499Z" fill="#949495"/>
</svg>
