<svg width="16" height="13" viewBox="0 0 16 13" fill="none" xmlns="http://www.w3.org/2000/svg">
<path d="M8.21839 8.39646C8.18562 8.01017 8.01428 7.64876 7.73597 7.37888C7.57972 7.21286 7.36565 6.98591 6.81839 6.98591C6.71017 6.98333 6.60292 7.00683 6.5057 7.05442C6.40848 7.10201 6.32414 7.1723 6.25979 7.25935C6.05433 7.53747 6.07151 7.93786 6.13362 8.13904C6.16214 8.23279 6.22229 8.42771 6.96565 8.6406C7.09378 8.67693 7.48089 8.78044 7.76409 8.78044C8.03753 8.79333 8.24026 8.62419 8.21839 8.39724V8.39646ZM6.68206 7.91013C6.66956 7.81403 6.68206 7.67575 6.73089 7.60661C6.74183 7.59216 6.75667 7.57185 6.81839 7.57185C7.11292 7.57185 7.18284 7.64607 7.30979 7.78083C7.4263 7.89225 7.51674 8.02804 7.57464 8.17849C7.2844 8.132 6.83792 8.0031 6.68206 7.91013Z" fill="#239B41"/>
<path d="M11.8723 7.80432H8.53988C8.15277 7.81721 8.15121 8.37659 8.53988 8.39026H11.8723C12.2594 8.37698 12.261 7.8176 11.8723 7.80432Z" fill="#239B41"/>
<path d="M11.4805 8.58826H8.93167C8.54456 8.60115 8.54339 9.16052 8.93167 9.17419H11.4805C11.8676 9.16091 11.8688 8.60154 11.4805 8.58826Z" fill="#239B41"/>
<path d="M13.5938 6.98597C13.0469 6.98597 12.8321 7.21292 12.6758 7.37894C12.3975 7.64875 12.2263 8.01023 12.1938 8.39652C12.1805 8.54886 12.2719 8.72269 12.5012 8.76761C12.7875 8.82073 13.293 8.68245 13.4465 8.63948C14.1887 8.42698 14.2496 8.23206 14.2786 8.13831C14.4137 7.69886 14.2426 6.98362 13.5938 6.98597ZM13.7297 7.91019C13.5735 8.00316 13.1274 8.13206 12.8372 8.17855C12.895 8.0281 12.9855 7.8923 13.102 7.78089C13.2289 7.64612 13.2973 7.57191 13.5934 7.57191C13.6551 7.57191 13.6715 7.59222 13.6809 7.60667C13.7297 7.67425 13.7422 7.81409 13.7297 7.91019Z" fill="#239B41"/>
<path d="M14.6864 5.41914C14.4219 5.41914 14.2176 5.52578 14.1004 5.71328L13.4364 4.3332C13.2707 3.98867 12.8457 3.87734 12.7196 3.85117C12.0782 3.71953 11.4305 3.70508 10.2047 3.70508C8.97893 3.70508 8.32972 3.71953 7.69026 3.85117C7.56409 3.87734 7.13909 3.98867 6.97347 4.3332L6.3094 5.71328C6.19222 5.52578 5.9887 5.41914 5.72347 5.41914C4.41136 5.46094 4.58089 6.82031 5.83909 6.73516C5.72575 6.95961 5.59157 7.17292 5.43831 7.37227C5.33093 7.50811 5.25295 7.66479 5.20931 7.83236C5.16567 7.99993 5.15732 8.17474 5.18479 8.3457C5.30198 9.05156 5.31409 9.72578 5.31604 10.3027C5.31649 10.4309 5.35571 10.5559 5.42854 10.6613V11.4688C5.42844 11.5432 5.44303 11.617 5.47146 11.6859C5.4999 11.7548 5.54164 11.8173 5.59428 11.87C5.64692 11.9228 5.70944 11.9646 5.77826 11.9931C5.84707 12.0216 5.92084 12.0363 5.99534 12.0363H6.88597C6.96038 12.0362 7.03404 12.0215 7.10275 11.9929C7.17146 11.9643 7.23386 11.9225 7.28638 11.8697C7.33891 11.817 7.38054 11.7545 7.40889 11.6857C7.43723 11.6169 7.45174 11.5432 7.45159 11.4688V10.9387H12.9594V11.4688C12.9596 11.6188 13.0193 11.7627 13.1254 11.8688C13.2315 11.9749 13.3754 12.0346 13.5254 12.0348H14.4172C14.5673 12.0346 14.7111 11.9749 14.8172 11.8688C14.9233 11.7627 14.983 11.6188 14.9832 11.4688V10.6613C15.0561 10.5561 15.0953 10.4312 15.0957 10.3031C15.0981 9.6832 15.1153 9.01719 15.227 8.3457C15.2545 8.17474 15.2461 7.99993 15.2025 7.83236C15.1588 7.66479 15.0808 7.50811 14.9735 7.37227C14.8202 7.17292 14.686 6.95961 14.5727 6.73516C15.8321 6.82031 16.0004 5.46055 14.6864 5.41914ZM7.50276 4.58711C7.75393 4.26523 9.20979 4.30273 10.2059 4.29102C11.2032 4.30313 12.6551 4.26484 12.9094 4.58711L13.5344 5.88281H6.87933L7.50276 4.58711ZM5.42542 6.07812C5.51667 6.02594 5.62077 6.0005 5.72581 6.00469C5.7387 6.00469 5.80393 6.00469 5.81643 6.02578C5.83454 6.06336 5.84313 6.10481 5.84143 6.14648C5.80249 6.15021 5.76337 6.15191 5.72425 6.15156C5.61975 6.15527 5.51629 6.12985 5.42542 6.07812ZM6.86565 11.45H6.01487V10.9383H6.86565V11.45ZM7.37854 10.3523C7.54261 10.1754 7.65198 10.0832 7.82386 10.0832H12.5895C12.7606 10.0832 12.8707 10.1754 13.0348 10.3523H7.37854ZM13.5461 11.45V10.9383H14.3973V11.45H13.5461ZM14.6489 8.24922C14.5317 8.96172 14.5121 9.65547 14.5098 10.3008C14.5097 10.3076 14.5083 10.3143 14.5057 10.3206C14.503 10.3269 14.4992 10.3326 14.4943 10.3374C14.4894 10.3422 14.4837 10.346 14.4774 10.3485C14.471 10.3511 14.4643 10.3524 14.4574 10.3523H13.8582C13.4453 10.0199 13.2489 9.50781 12.5883 9.49727H7.82268C7.16175 9.50781 6.96604 10.0199 6.55276 10.3523H5.95628C5.9424 10.3523 5.92908 10.3468 5.91927 10.337C5.90945 10.3272 5.90393 10.3139 5.90393 10.3C5.90159 9.65664 5.88323 8.9625 5.76487 8.24922C5.75072 8.15861 5.7555 8.06604 5.77889 7.97737C5.80229 7.88869 5.8438 7.80582 5.90081 7.73398C6.15159 7.41211 6.38597 6.99688 6.6094 6.46875H13.8028C14.0262 6.99531 14.2594 7.41055 14.5125 7.7332C14.5699 7.80508 14.6116 7.88813 14.6351 7.97704C14.6586 8.06595 14.6633 8.15878 14.6489 8.24961V8.24922ZM14.6879 6.15156C14.6488 6.15192 14.6097 6.15023 14.5707 6.14648C14.5688 6.10479 14.5774 6.06329 14.5957 6.02578C14.6094 6.00547 14.6739 6.00469 14.6864 6.00469C14.7914 6.0005 14.8955 6.02594 14.9867 6.07812C14.8955 6.13026 14.7914 6.15584 14.6864 6.15195L14.6879 6.15156Z" fill="#239B41"/>
<path d="M2.07074 9.62456C2.22065 9.62435 2.36436 9.56468 2.47033 9.45864C2.5763 9.3526 2.63587 9.20885 2.63597 9.05894V8.5273H4.60902C4.68672 8.5273 4.76124 8.49643 4.81618 8.44149C4.87112 8.38654 4.90199 8.31203 4.90199 8.23433C4.90199 8.15663 4.87112 8.08211 4.81618 8.02717C4.76124 7.97222 4.68672 7.94136 4.60902 7.94136H2.56331C2.72738 7.76401 2.83675 7.67222 3.00863 7.67222H4.61019C4.68789 7.67222 4.76241 7.64135 4.81735 7.58641C4.87229 7.53147 4.90316 7.45695 4.90316 7.37925C4.90316 7.30155 4.87229 7.22703 4.81735 7.17209C4.76241 7.11715 4.68789 7.08628 4.61019 7.08628H3.00863C2.34769 7.09683 2.15199 7.60855 1.73871 7.94136H1.13949C1.1256 7.94136 1.11229 7.93584 1.10247 7.92603C1.09266 7.91621 1.08714 7.9029 1.08714 7.88901C1.0848 7.24526 1.06644 6.55151 0.94808 5.83823C0.933876 5.74756 0.938623 5.65492 0.96202 5.56618C0.985417 5.47743 1.02696 5.39449 1.08402 5.32261C1.33753 5.00034 1.57074 4.58511 1.79417 4.05815H6.58363C6.66133 4.05815 6.73584 4.02729 6.79079 3.97235C6.84573 3.9174 6.8766 3.84289 6.8766 3.76519C6.8766 3.68748 6.84573 3.61297 6.79079 3.55802C6.73584 3.50308 6.66133 3.47222 6.58363 3.47222H2.0641L2.6891 2.17534C2.94066 1.85386 4.39574 1.89097 5.39261 1.87964C6.38988 1.89136 7.84144 1.85308 8.09574 2.17534L8.51331 3.04409C8.54698 3.11413 8.6071 3.16792 8.68043 3.19363C8.75376 3.21934 8.8343 3.21487 8.90433 3.1812C8.97436 3.14753 9.02815 3.08742 9.05387 3.01409C9.07958 2.94076 9.07511 2.86022 9.04144 2.79019L8.62386 1.92144C8.45824 1.57729 8.03324 1.46558 7.90706 1.43979C7.26566 1.30815 6.618 1.2937 5.39261 1.2937C4.16722 1.2937 3.51761 1.30815 2.87777 1.43979C2.7516 1.46558 2.3266 1.57729 2.16097 1.92144L1.49691 3.3019C1.37972 3.1144 1.17581 3.00737 0.910971 3.00737C-0.403482 3.04917 -0.233951 4.40972 1.02464 4.32378C0.911215 4.54806 0.777036 4.76123 0.623862 4.9605C0.516485 5.09635 0.438505 5.25302 0.394864 5.42059C0.351223 5.58816 0.342874 5.76297 0.370346 5.93394C0.487533 6.63979 0.499643 7.3144 0.501596 7.89097C0.501985 8.01924 0.541206 8.1444 0.614096 8.24995V9.05894C0.614303 9.20895 0.674015 9.35276 0.78013 9.4588C0.886245 9.56484 1.03009 9.62446 1.18011 9.62456H2.07074ZM0.61019 3.66675C0.701516 3.61474 0.805562 3.58931 0.91058 3.59331C0.923471 3.59331 0.988705 3.59331 1.00121 3.6144C1.01948 3.65206 1.02808 3.69368 1.02621 3.7355C0.987249 3.73906 0.948135 3.74063 0.909018 3.74019C0.804525 3.7439 0.70106 3.71847 0.61019 3.66675ZM2.05003 9.03862H1.19964V8.5273H2.05003V9.03862Z" fill="#239B41"/>
<path d="M2.95277 5.00076C2.76371 4.80545 2.5848 4.58123 2.00316 4.57459C1.35472 4.57225 1.18285 5.28709 1.3184 5.72693C1.3473 5.82068 1.40707 6.01561 2.15043 6.22811C2.30394 6.27108 2.80941 6.40936 3.09574 6.35623C3.3266 6.31092 3.41644 6.13748 3.40316 5.98514C3.37267 5.61446 3.21332 5.26618 2.95277 5.00076ZM1.86683 5.49881C1.85472 5.40233 1.86683 5.26443 1.91566 5.19529C1.9266 5.18045 1.94144 5.16053 2.00316 5.16053C2.29769 5.16053 2.36762 5.23475 2.49457 5.36912C2.61093 5.4802 2.70136 5.61558 2.75941 5.76561C2.46918 5.72068 2.02269 5.59178 1.86683 5.49881Z" fill="#239B41"/>
<path d="M11.7766 0.374975C11.159 0.228882 10.5266 0.205444 9.25355 0.205444C8.41983 0.211961 7.58718 0.26674 6.7598 0.369507C6.68277 0.379867 6.61301 0.420401 6.56587 0.482193C6.51873 0.543985 6.49807 0.621972 6.50843 0.698999C6.51879 0.776026 6.55932 0.845782 6.62112 0.892923C6.68291 0.940063 6.7609 0.960726 6.83792 0.950366C7.64001 0.851823 8.44703 0.798743 9.25511 0.791382C10.4805 0.791382 11.0828 0.812866 11.6438 0.945288C11.7645 0.973804 11.9121 1.04802 11.9524 1.14373L12.7778 3.12224C12.7922 3.15828 12.8137 3.19108 12.8409 3.21875C12.8682 3.24642 12.9006 3.2684 12.9364 3.28341C12.9722 3.29842 13.0107 3.30616 13.0495 3.30618C13.0883 3.30621 13.1268 3.29852 13.1626 3.28356C13.1984 3.26859 13.2309 3.24666 13.2582 3.21903C13.2855 3.1914 13.307 3.15862 13.3215 3.1226C13.336 3.08658 13.3432 3.04804 13.3426 3.00922C13.3421 2.9704 13.3339 2.93207 13.3184 2.89646L12.493 0.917944C12.3313 0.531226 11.9047 0.403882 11.7766 0.374975Z" fill="#239B41"/>
</svg>
