<svg width="24" height="24" viewBox="0 0 24 24" fill="none" xmlns="http://www.w3.org/2000/svg">
<g clip-path="url(#clip0_2795_730)">
<path d="M11.9999 0C5.37253 0 0 5.37253 0 11.9999C0 18.6273 5.37253 24.0001 11.9999 24.0001C18.6273 24.0001 24.0001 18.6273 24.0001 11.9999C23.9926 5.37561 18.6245 0.00747067 11.9999 0ZM11.9999 22.7999C6.03523 22.7999 1.19993 17.9646 1.19993 11.9999C1.19993 6.03523 6.03523 1.19993 11.9999 1.19993C17.9646 1.19993 22.7999 6.03523 22.7999 11.9999C22.7931 17.9618 17.9618 22.7931 11.9999 22.7999Z" fill="black"/>
<path d="M10.595 7.34832C10.3454 7.13013 9.96635 7.15562 9.74816 7.40501C9.53019 7.65461 9.55568 8.03364 9.80507 8.25183L14.0889 11.9999L9.80485 15.7482C9.55524 15.9664 9.52997 16.3455 9.74794 16.5948C9.96613 16.8445 10.3452 16.8699 10.5948 16.6518L15.3947 12.4517C15.525 12.3379 15.5997 12.1731 15.5997 11.9999C15.5997 11.8268 15.525 11.6622 15.3947 11.5482L10.595 7.34832Z" fill="black"/>
</g>
<defs>
<clipPath id="clip0_2795_730">
<rect width="24" height="24" fill="white"/>
</clipPath>
</defs>
</svg>
