<svg width="18" height="18" viewBox="0 0 18 18" fill="none" xmlns="http://www.w3.org/2000/svg">
<g clip-path="url(#clip0_3190_1577)">
<path fill-rule="evenodd" clip-rule="evenodd" d="M15.6902 7.53239C14.9656 4.0172 11.7177 1.50415 8.04685 1.78989C4.06751 2.09964 1.08823 5.58186 1.39797 9.5612C1.70771 13.5406 5.18993 16.5198 9.16928 16.2101C11.7801 16.0069 13.9602 14.438 15.0638 12.2593C15.1629 12.0636 15.4021 11.9852 15.5978 12.0843C15.7935 12.1834 15.8718 12.4227 15.7727 12.6183C14.5481 15.0362 12.1283 16.7769 9.23097 17.0024C4.8143 17.3462 0.949452 14.0395 0.605652 9.62286C0.261887 5.20622 3.56852 1.34138 7.98519 0.997577C12.0701 0.679612 15.6829 3.48436 16.4747 7.40176L16.7042 7.09704C16.8361 6.92184 17.0855 6.88672 17.2607 7.01868C17.4358 7.15061 17.4709 7.39996 17.339 7.57513L16.5317 8.64698C16.401 8.82055 16.1551 8.85694 15.9798 8.72868L14.8966 7.93661C14.7196 7.80715 14.681 7.55833 14.8104 7.38133C14.9399 7.20429 15.1887 7.16568 15.3657 7.29511L15.6902 7.53239ZM6.58158 9.24789H2.51955C2.36369 9.24789 2.23719 9.12136 2.23719 8.96554C2.23719 8.80968 2.36369 8.68319 2.51955 8.68319H6.80164L8.18376 5.13606C8.26102 4.93774 8.45295 4.80797 8.66577 4.81012C8.87859 4.81227 9.06784 4.94593 9.14108 5.14576L10.4374 8.68319H14.0957C14.2516 8.68319 14.3781 8.80968 14.3781 8.96554C14.3781 9.12136 14.2516 9.24789 14.0957 9.24789H10.6444L11.6134 11.8921C11.6779 12.0683 11.8352 12.194 12.0213 12.2181C12.2074 12.2423 12.3915 12.1609 12.499 12.007L13.6326 10.3832C13.8306 10.0996 14.1545 9.93073 14.5003 9.93073H15.2891C15.445 9.93073 15.5715 10.0572 15.5715 10.2131C15.5715 10.3689 15.445 10.4954 15.2891 10.4954H14.5003C14.3391 10.4954 14.188 10.5742 14.0957 10.7064L12.962 12.3303C12.7341 12.6568 12.3435 12.8294 11.9486 12.7781C11.5537 12.7269 11.2201 12.4603 11.0832 12.0864L10.0429 9.24789H7.18765L5.94533 12.4362C5.82759 12.7384 5.54736 12.9466 5.22403 12.9721C4.9007 12.9977 4.59124 12.836 4.42751 12.556L3.2453 10.5344C3.16663 10.3999 3.21198 10.2268 3.34652 10.1481C3.48103 10.0694 3.65411 10.1148 3.73278 10.2493L4.91499 12.271C4.96938 12.364 5.07216 12.4177 5.17956 12.4092C5.28696 12.4007 5.38006 12.3315 5.41917 12.2312L6.58158 9.24789ZM9.83598 8.68319L8.65906 5.4716L7.40768 8.68319H9.83598Z" fill="black"/>
</g>
<defs>
<clipPath id="clip0_3190_1577">
<rect width="18" height="18" fill="white"/>
</clipPath>
</defs>
</svg>
