<svg width="14" height="14" viewBox="0 0 14 14" fill="none" xmlns="http://www.w3.org/2000/svg">
<path d="M2.70813 9.88314C2.74195 9.92978 2.78464 9.96927 2.83377 9.99936C2.88289 10.0295 2.93747 10.0496 2.99438 10.0585C3.05129 10.0674 3.10941 10.0651 3.16539 10.0515C3.22138 10.0379 3.27413 10.0134 3.32063 9.97939L6.125 7.95376V12.6875C6.12514 12.765 6.14587 12.8411 6.18507 12.908C6.22428 12.9749 6.28055 13.0302 6.34813 13.0681C6.41351 13.1052 6.48734 13.1248 6.5625 13.125C6.64103 13.125 6.7181 13.1038 6.78563 13.0638L11.1606 10.4388C11.2231 10.4019 11.2754 10.3501 11.3129 10.2879C11.3504 10.2258 11.3718 10.1554 11.3753 10.0829C11.3788 10.0104 11.3642 9.93824 11.3328 9.87282C11.3014 9.8074 11.2543 9.75081 11.1956 9.70814L7.4375 7.00002L11.1869 4.29189C11.2456 4.24922 11.2927 4.19263 11.3241 4.12721C11.3554 4.06179 11.37 3.9896 11.3666 3.91713C11.3631 3.84467 11.3416 3.7742 11.3042 3.71208C11.2667 3.64996 11.2144 3.59813 11.1519 3.56127L6.77688 0.936265C6.71068 0.899049 6.63594 0.879705 6.56 0.880134C6.48406 0.880563 6.40954 0.900751 6.34377 0.938713C6.278 0.976675 6.22324 1.0311 6.18488 1.09664C6.14653 1.16218 6.12589 1.23658 6.125 1.31252V6.04627L3.32063 4.02064C3.22664 3.95218 3.10931 3.92386 2.99444 3.94191C2.87958 3.95996 2.77659 4.0229 2.70813 4.11689C2.63967 4.21088 2.61135 4.32821 2.6294 4.44307C2.64745 4.55794 2.71039 4.66093 2.80438 4.72939L5.95 7.00002L2.80438 9.27064C2.75774 9.30446 2.71824 9.34716 2.68815 9.39628C2.65806 9.4454 2.63796 9.49999 2.62902 9.5569C2.62008 9.61381 2.62246 9.67192 2.63604 9.72791C2.64961 9.78389 2.67411 9.83665 2.70813 9.88314ZM7 2.08689L10.1456 3.97252L7 6.24314V2.08689ZM7 7.77439L10.1456 10.045L7 11.9131V7.77439Z" fill="black"/>
</svg>
