<svg width="24" height="24" viewBox="0 0 24 24" fill="none" xmlns="http://www.w3.org/2000/svg">
<path d="M23.25 8.4375C23.25 4.50879 20.0537 1.3125 16.125 1.3125C12.1963 1.3125 9 4.50879 9 8.4375C9 8.57263 9.00385 8.70392 9.0119 8.83521C9.02454 9.04211 9.20618 9.20544 9.40887 9.18677C9.6156 9.17432 9.77307 8.99652 9.76044 8.78979C9.75348 8.67352 9.75 8.55725 9.75 8.4375C9.75 4.92224 12.6097 2.0625 16.125 2.0625C19.6403 2.0625 22.5 4.92224 22.5 8.4375C22.5 10.0435 21.895 11.5798 20.8209 12.7452C20.8181 12.7349 20.8134 12.7253 20.8105 12.715C20.7612 12.5405 20.7016 12.37 20.6332 12.2031C20.6181 12.1664 20.6015 12.1305 20.5855 12.0941C20.5191 11.9428 20.4458 11.7947 20.3638 11.6508C20.3525 11.6309 20.3428 11.6103 20.3312 11.5906C20.2392 11.4345 20.136 11.2845 20.0259 11.1384C19.9998 11.1037 19.9728 11.0697 19.9456 11.0356C19.8296 10.8899 19.7078 10.7477 19.5738 10.6137C18.6544 9.69397 17.4294 9.1875 16.125 9.1875C16.0056 9.1875 15.8899 9.19153 15.7744 9.2027C15.7302 9.20352 15.6881 9.2092 15.6454 9.21375C15.61 9.21721 15.5746 9.22028 15.5394 9.22449C15.4751 9.2317 15.4109 9.23898 15.3448 9.25049C15.2723 9.26257 15.2 9.27502 15.1479 9.28784C15.1335 9.29054 15.1206 9.29414 15.1065 9.29688C15.0748 9.30363 15.0432 9.31016 15.0116 9.31757C14.9908 9.32238 14.9689 9.3259 14.9482 9.33142L14.9035 9.34277C14.8519 9.35541 14.8013 9.36859 14.777 9.3783C14.713 9.39661 14.6488 9.41803 14.5846 9.43922C14.5569 9.44847 14.5292 9.45728 14.5016 9.46703C14.4386 9.48905 14.3771 9.51299 14.3254 9.53467C14.2334 9.56662 14.1419 9.60732 14.0533 9.65051C14.0467 9.65364 14.0397 9.65565 14.033 9.65881C14.0326 9.659 14.0324 9.65941 14.032 9.65959C14.0301 9.66055 14.028 9.66115 14.0261 9.66211C14.0029 9.67369 13.987 9.69253 13.9674 9.70791C13.9488 9.72249 13.9271 9.73382 13.9118 9.75126C13.8949 9.77074 13.8856 9.79445 13.8731 9.81667C13.862 9.8364 13.8474 9.854 13.84 9.87536C13.8318 9.89921 13.8321 9.92466 13.8287 9.94975C13.8257 9.97245 13.8187 9.99422 13.82 10.0174C13.8213 10.0432 13.8321 10.0681 13.839 10.0937C13.8447 10.1153 13.8451 10.1374 13.855 10.1583C13.8556 10.1595 13.8567 10.1601 13.8573 10.1613C13.8579 10.1626 13.8577 10.164 13.8583 10.1653C13.8701 10.1889 13.8892 10.2052 13.905 10.2251C13.9193 10.2432 13.9303 10.2645 13.9473 10.2794C13.968 10.2975 13.9931 10.3076 14.0169 10.3206C14.0352 10.3307 14.0514 10.3445 14.0712 10.3514C14.097 10.3603 14.1246 10.3604 14.1518 10.3636C14.1725 10.366 14.1922 10.3727 14.2132 10.3716C14.24 10.3702 14.266 10.3592 14.2925 10.3518C14.3132 10.3461 14.3345 10.3459 14.3546 10.3363C14.4887 10.2727 14.6253 10.2174 14.7637 10.1689C14.7787 10.164 14.7947 10.1588 14.81 10.1537C14.9398 10.1099 15.0711 10.0719 15.2041 10.0415C15.2151 10.0391 15.228 10.0364 15.24 10.0339C15.3685 10.0057 15.4986 9.98444 15.6298 9.96874C15.6409 9.96748 15.6503 9.9659 15.6617 9.9646C15.6827 9.96197 15.7038 9.96091 15.7249 9.9594C15.8573 9.94668 15.9904 9.9375 16.125 9.9375C17.2291 9.9375 18.2657 10.366 19.0435 11.144C19.1227 11.2231 19.1977 11.305 19.2695 11.3891C19.2934 11.417 19.3148 11.4465 19.3378 11.475C19.3841 11.5321 19.4303 11.5892 19.4732 11.6484C19.4988 11.6837 19.5219 11.7204 19.5463 11.7563C19.5831 11.8106 19.62 11.8649 19.654 11.9208C19.6781 11.9603 19.6999 12.0009 19.7226 12.0412C19.7532 12.0956 19.7838 12.1501 19.8118 12.2059C19.833 12.2481 19.8525 12.2913 19.8722 12.3342C19.8978 12.3899 19.9229 12.4458 19.9459 12.5026C19.9639 12.547 19.9804 12.592 19.9968 12.637C20.0176 12.6941 20.0375 12.7516 20.0557 12.8098C20.0702 12.856 20.0836 12.9025 20.0964 12.9493C20.1126 13.0081 20.1273 13.0673 20.1409 13.127C20.1516 13.1744 20.1618 13.222 20.1708 13.2699C20.1758 13.2959 20.1792 13.3224 20.1837 13.3485C19.5191 13.9005 18.7383 14.317 17.9136 14.5576C17.7149 14.6157 17.6006 14.8239 17.6587 15.0227C17.7065 15.1864 17.8561 15.2928 18.0185 15.2928C18.0533 15.2928 18.0886 15.2878 18.1238 15.2776C19.1183 14.9874 20.0556 14.4689 20.8343 13.7785C20.8344 13.7784 20.8345 13.7784 20.8347 13.7783C20.8349 13.7781 20.835 13.7779 20.8353 13.7777C20.8356 13.7774 20.836 13.7772 20.8363 13.7769C20.8367 13.7765 20.8369 13.7761 20.8372 13.7758C22.3705 12.4297 23.25 10.4843 23.25 8.4375Z" fill="black"/>
<path d="M16.125 8.0625C17.3657 8.0625 18.375 7.05322 18.375 5.8125C18.375 4.57178 17.3657 3.5625 16.125 3.5625C14.8843 3.5625 13.875 4.57178 13.875 5.8125C13.875 7.05322 14.8843 8.0625 16.125 8.0625ZM16.125 4.3125C16.9521 4.3125 17.625 4.98541 17.625 5.8125C17.625 6.63959 16.9521 7.3125 16.125 7.3125C15.2979 7.3125 14.625 6.63959 14.625 5.8125C14.625 4.98541 15.2979 4.3125 16.125 4.3125Z" fill="black"/>
<path d="M16.4348 15.0483L14.5433 14.5063L13.2773 10.7053C13.1206 10.246 12.6918 9.9375 12.21 9.9375H5.78998C5.30823 9.9375 4.87939 10.246 4.72174 10.7078L3.45667 14.5065L1.56793 15.0474C1.08636 15.182 0.75 15.6266 0.75 16.1288V18.9375C0.75 19.5579 1.25464 20.0625 1.875 20.0625H3V21.5625C3 22.1829 3.50464 22.6875 4.125 22.6875H6.375C6.99536 22.6875 7.5 22.1829 7.5 21.5625V20.0625H10.5V21.5625C10.5 22.1829 11.0046 22.6875 11.625 22.6875H13.875C14.4954 22.6875 15 22.1829 15 21.5625V20.0625H16.125C16.7454 20.0625 17.25 19.5579 17.25 18.9375V16.1288C17.25 15.6266 16.9136 15.182 16.4348 15.0483ZM6.75 21.5625C6.75 21.7692 6.58173 21.9375 6.375 21.9375H4.125C3.91827 21.9375 3.75 21.7692 3.75 21.5625V20.0625H6.75V21.5625ZM14.25 21.5625C14.25 21.7692 14.0817 21.9375 13.875 21.9375H11.625C11.4183 21.9375 11.25 21.7692 11.25 21.5625V20.0625H14.25V21.5625ZM16.5 18.9375C16.5 19.1442 16.3317 19.3125 16.125 19.3125H14.625H10.875H7.125H3.375H1.875C1.66827 19.3125 1.5 19.1442 1.5 18.9375V16.1288C1.5 15.9619 1.61096 15.8143 1.77209 15.7692L3.85327 15.173C3.97229 15.139 4.06677 15.0483 4.10577 14.931L5.43237 10.9473C5.48547 10.7919 5.62921 10.6875 5.78998 10.6875H12.21C12.3708 10.6875 12.5145 10.7919 12.5665 10.9446L13.8942 14.931C13.9334 15.0485 14.0279 15.139 14.1469 15.173L16.2303 15.77C16.389 15.8143 16.5 15.9619 16.5 16.1288V18.9375Z" fill="black"/>
<path d="M12.9715 15.0319C13.042 14.9341 13.0613 14.8085 13.0232 14.6942L12.0258 11.6942C11.9749 11.541 11.8315 11.4375 11.67 11.4375H6.32994C6.16844 11.4375 6.02507 11.541 5.97417 11.6942L4.97661 14.6942C4.93852 14.8085 4.95775 14.9341 5.02824 15.0319C5.09874 15.1296 5.2119 15.1875 5.33238 15.1875H12.6674C12.7879 15.1875 12.901 15.1296 12.9715 15.0319ZM5.85222 14.4375L6.60039 12.1875H11.3996L12.1476 14.4375H5.85222Z" fill="black"/>
<path d="M13.125 15.5625C12.2979 15.5625 11.625 16.2354 11.625 17.0625C11.625 17.8896 12.2979 18.5625 13.125 18.5625C13.9521 18.5625 14.625 17.8896 14.625 17.0625C14.625 16.2354 13.9521 15.5625 13.125 15.5625ZM13.125 17.8125C12.7114 17.8125 12.375 17.4761 12.375 17.0625C12.375 16.6489 12.7114 16.3125 13.125 16.3125C13.5386 16.3125 13.875 16.6489 13.875 17.0625C13.875 17.4761 13.5386 17.8125 13.125 17.8125Z" fill="black"/>
<path d="M4.875 15.5625C4.04791 15.5625 3.375 16.2354 3.375 17.0625C3.375 17.8896 4.04791 18.5625 4.875 18.5625C5.70209 18.5625 6.375 17.8896 6.375 17.0625C6.375 16.2354 5.70209 15.5625 4.875 15.5625ZM4.875 17.8125C4.46136 17.8125 4.125 17.4761 4.125 17.0625C4.125 16.6489 4.46136 16.3125 4.875 16.3125C5.28864 16.3125 5.625 16.6489 5.625 17.0625C5.625 17.4761 5.28864 17.8125 4.875 17.8125Z" fill="black"/>
</svg>
