<svg width="26" height="26" viewBox="0 0 26 26" fill="none" xmlns="http://www.w3.org/2000/svg">
<g clip-path="url(#clip0_0_111)">
<path d="M13 25.1875C10.5895 25.1875 8.23322 24.4727 6.22899 23.1335C4.22477 21.7944 2.66267 19.8909 1.74022 17.664C0.817781 15.437 0.576427 12.9865 1.04668 10.6223C1.51694 8.2582 2.67769 6.08659 4.38214 4.38214C6.08659 2.67769 8.2582 1.51694 10.6223 1.04668C12.9865 0.576427 15.437 0.817781 17.664 1.74022C19.8909 2.66267 21.7944 4.22477 23.1335 6.22899C24.4727 8.23322 25.1875 10.5895 25.1875 13C25.1838 16.2312 23.8986 19.329 21.6138 21.6138C19.329 23.8986 16.2312 25.1838 13 25.1875ZM13 1.62501C10.7502 1.62501 8.551 2.29214 6.68039 3.54204C4.80978 4.79194 3.35182 6.56847 2.49088 8.64698C1.62993 10.7255 1.40467 13.0126 1.84357 15.2192C2.28248 17.4257 3.36584 19.4525 4.95667 21.0433C6.54749 22.6342 8.57432 23.7175 10.7809 24.1564C12.9874 24.5953 15.2745 24.3701 17.353 23.5091C19.4315 22.6482 21.2081 21.1902 22.458 19.3196C23.7079 17.449 24.375 15.2498 24.375 13C24.3716 9.98422 23.172 7.09295 21.0395 4.96047C18.9071 2.82799 16.0158 1.62845 13 1.62501Z" fill="black"/>
<path d="M12.1875 3.28209C12.0797 3.2863 11.9747 3.24752 11.8956 3.17431C11.8164 3.10109 11.7696 2.99943 11.7654 2.89169C11.7612 2.78394 11.8 2.67894 11.8732 2.59978C11.9464 2.52063 12.048 2.4738 12.1558 2.46959C12.4353 2.44887 12.7197 2.4375 13 2.4375C13.1077 2.4375 13.2111 2.4803 13.2872 2.55649C13.3634 2.63267 13.4062 2.73601 13.4062 2.84375C13.4062 2.95149 13.3634 3.05483 13.2872 3.13101C13.2111 3.2072 13.1077 3.25 13 3.25C12.7408 3.25 12.4779 3.26016 12.2196 3.28088L12.1875 3.28209Z" fill="black"/>
<path d="M2.84376 13.4062C2.73602 13.4062 2.63269 13.3634 2.5565 13.2873C2.48031 13.2111 2.43751 13.1077 2.43751 13C2.43383 10.6386 3.22301 8.34431 4.67857 6.48486C6.13414 4.6254 8.17181 3.30844 10.465 2.74502C10.5697 2.71916 10.6803 2.73594 10.7726 2.79167C10.8649 2.8474 10.9313 2.93752 10.9572 3.04219C10.983 3.14687 10.9663 3.25752 10.9105 3.34982C10.8548 3.44212 10.7647 3.50851 10.66 3.53436C8.54337 4.05457 6.6626 5.2702 5.31904 6.98648C3.97547 8.70276 3.24689 10.8204 3.25001 13C3.25001 13.1077 3.20721 13.2111 3.13102 13.2873C3.05484 13.3634 2.95151 13.4062 2.84376 13.4062Z" fill="black"/>
<path d="M18.2812 15.8438V12.1875C18.2791 11.0124 17.8855 9.87145 17.1625 8.94504C16.4395 8.01864 15.4284 7.35957 14.289 7.072C14.5056 6.79175 14.6237 6.44791 14.625 6.09375C14.625 5.66277 14.4538 5.24945 14.149 4.9447C13.8443 4.63995 13.431 4.46875 13 4.46875C12.569 4.46875 12.1557 4.63995 11.851 4.9447C11.5462 5.24945 11.375 5.66277 11.375 6.09375C11.3763 6.44791 11.4944 6.79175 11.711 7.072C10.5716 7.35957 9.56048 8.01864 8.8375 8.94504C8.11452 9.87145 7.72086 11.0124 7.71875 12.1875V15.8438C7.39552 15.8438 7.08552 15.9722 6.85696 16.2007C6.6284 16.4293 6.5 16.7393 6.5 17.0625C6.5 17.3857 6.6284 17.6957 6.85696 17.9243C7.08552 18.1528 7.39552 18.2812 7.71875 18.2812H10.1888C10.2859 18.9576 10.6236 19.5763 11.14 20.0238C11.6563 20.4713 12.3167 20.7176 13 20.7176C13.6833 20.7176 14.3437 20.4713 14.86 20.0238C15.3764 19.5763 15.7141 18.9576 15.8112 18.2812H18.2812C18.6045 18.2812 18.9145 18.1528 19.143 17.9243C19.3716 17.6957 19.5 17.3857 19.5 17.0625C19.5 16.7393 19.3716 16.4293 19.143 16.2007C18.9145 15.9722 18.6045 15.8438 18.2812 15.8438ZM12.1875 6.09375C12.1875 5.93305 12.2352 5.77596 12.3244 5.64235C12.4137 5.50873 12.5406 5.40459 12.6891 5.3431C12.8375 5.2816 13.0009 5.26551 13.1585 5.29686C13.3161 5.32821 13.4609 5.4056 13.5745 5.51923C13.6882 5.63286 13.7655 5.77763 13.7969 5.93524C13.8282 6.09285 13.8121 6.25622 13.7507 6.40468C13.6892 6.55315 13.585 6.68004 13.4514 6.76932C13.3178 6.8586 13.1607 6.90625 13 6.90625C12.7845 6.90625 12.5778 6.82065 12.4255 6.66827C12.2731 6.5159 12.1875 6.30924 12.1875 6.09375ZM13 19.9062C12.5319 19.9057 12.0783 19.7437 11.7157 19.4477C11.3531 19.1517 11.1037 18.7397 11.0094 18.2812H14.9906C14.8963 18.7397 14.6469 19.1517 14.2843 19.4477C13.9217 19.7437 13.4681 19.9057 13 19.9062ZM18.2812 17.4688H7.71875C7.61101 17.4688 7.50767 17.4259 7.43149 17.3498C7.3553 17.2736 7.3125 17.1702 7.3125 17.0625C7.3125 16.9548 7.3553 16.8514 7.43149 16.7752C7.50767 16.6991 7.61101 16.6562 7.71875 16.6562C7.93424 16.6562 8.1409 16.5706 8.29327 16.4183C8.44565 16.2659 8.53125 16.0592 8.53125 15.8438V12.1875C8.53125 11.0023 9.00206 9.86567 9.84012 9.02762C10.6782 8.18956 11.8148 7.71875 13 7.71875C14.1852 7.71875 15.3218 8.18956 16.1599 9.02762C16.9979 9.86567 17.4688 11.0023 17.4688 12.1875V15.8438C17.4688 16.0592 17.5544 16.2659 17.7067 16.4183C17.8591 16.5706 18.0658 16.6562 18.2812 16.6562C18.389 16.6562 18.4923 16.6991 18.5685 16.7752C18.6447 16.8514 18.6875 16.9548 18.6875 17.0625C18.6875 17.1702 18.6447 17.2736 18.5685 17.3498C18.4923 17.4259 18.389 17.4688 18.2812 17.4688Z" fill="black"/>
</g>
<defs>
<clipPath id="clip0_0_111">
<rect width="26" height="26" fill="white"/>
</clipPath>
</defs>
</svg>
