<svg width="24" height="24" viewBox="0 0 24 24" fill="none" xmlns="http://www.w3.org/2000/svg">
<g clip-path="url(#clip0_0_90)">
<path d="M20.4853 3.51469C18.2188 1.24819 15.2053 0 12 0C9.56109 0 7.21289 0.728203 5.20931 2.10581C4.99598 2.25248 4.94198 2.54433 5.08866 2.75766C5.23537 2.97094 5.52712 3.02494 5.7405 2.87831C7.58709 1.60861 9.75159 0.9375 12 0.9375C18.0999 0.9375 23.0625 5.90011 23.0625 12C23.0625 18.0999 18.0999 23.0625 12 23.0625C5.90011 23.0625 0.9375 18.0999 0.9375 12C0.9375 9.75131 1.60856 7.58691 2.87808 5.74083C3.02475 5.5275 2.97075 5.23566 2.75747 5.08898C2.54414 4.94236 2.25234 4.99627 2.10562 5.20959C0.728109 7.2127 0 9.56081 0 12C0 15.2053 1.24819 18.2188 3.51469 20.4853C5.78123 22.7518 8.79469 24 12 24C15.2053 24 18.2188 22.7518 20.4853 20.4853C22.7518 18.2188 24 15.2053 24 12C24 8.79469 22.7518 5.78123 20.4853 3.51469Z" fill="black"/>
<path d="M12 21.6562C17.3245 21.6562 21.6562 17.3245 21.6562 12C21.6562 10.8936 21.4687 9.83034 21.1245 8.83964C21.1236 8.83706 21.1228 8.83439 21.1218 8.83186C19.8076 5.05884 16.2152 2.34375 12 2.34375C6.67556 2.34375 2.34375 6.67552 2.34375 12C2.34375 17.3245 6.67556 21.6562 12 21.6562ZM20.7188 12C20.7188 12.2243 20.7102 12.4467 20.6935 12.6667C20.2014 12.6924 19.7218 12.7655 19.2586 12.8809C19.4108 11.5973 19.2194 10.2805 18.7104 9.09652C19.2509 9.18886 19.7893 9.29236 20.325 9.40692C20.5808 10.2264 20.7188 11.0974 20.7188 12ZM17.5821 8.92022C18.2946 10.2125 18.5379 11.7498 18.2608 13.2048C16.1212 14.0683 14.4621 15.8792 13.806 18.1151C12.6328 18.4604 11.3671 18.4604 10.194 18.1151C9.53794 15.8792 7.87884 14.0683 5.73919 13.2048C5.46206 11.75 5.70553 10.2123 6.41789 8.92027C8.26641 8.6587 10.1343 8.52586 12 8.52586C13.8657 8.52586 15.7335 8.65866 17.5821 8.92022ZM4.74131 12.8809C4.27819 12.7656 3.79856 12.6924 3.30652 12.6667C3.28978 12.4467 3.28125 12.2243 3.28125 12C3.28125 11.0974 3.41916 10.2264 3.67495 9.40692C4.21073 9.29236 4.74909 9.18886 5.28961 9.09652C4.78073 10.2804 4.5892 11.5974 4.74131 12.8809ZM3.43172 13.6144C6.8573 13.8832 9.5625 16.7565 9.5625 20.25C9.5625 20.2903 9.56175 20.3307 9.561 20.3711C6.44142 19.4607 4.04002 16.8501 3.43172 13.6144ZM10.4921 20.5879C10.4971 20.475 10.5 20.3622 10.5 20.25C10.5 19.873 10.472 19.5026 10.4187 19.1402C10.938 19.2544 11.4689 19.3117 12 19.3117C12.531 19.3117 13.062 19.2544 13.5813 19.1402C13.528 19.5026 13.5 19.873 13.5 20.25C13.5 20.3622 13.5029 20.4751 13.5079 20.5879C13.0179 20.6737 12.5142 20.7188 12 20.7188C11.4859 20.7188 10.9821 20.6737 10.4921 20.5879ZM14.439 20.3711C14.4383 20.3307 14.4375 20.2902 14.4375 20.25C14.4375 16.7566 17.1427 13.8832 20.5683 13.6145C19.96 16.8501 17.5586 19.4607 14.439 20.3711ZM12 3.28125C15.5118 3.28125 18.5449 5.3685 19.925 8.36737C17.3186 7.85081 14.6571 7.58841 12 7.58841C9.3428 7.58841 6.68123 7.85086 4.07498 8.36742C5.45512 5.36845 8.48822 3.28125 12 3.28125Z" fill="black"/>
<path d="M9.65625 12C9.65625 13.2923 10.7077 14.3438 12 14.3438C13.2923 14.3438 14.3438 13.2923 14.3438 12C14.3438 10.7077 13.2923 9.65625 12 9.65625C10.7077 9.65625 9.65625 10.7077 9.65625 12ZM12 10.5938C12.7754 10.5938 13.4062 11.2246 13.4062 12C13.4062 12.7754 12.7754 13.4062 12 13.4062C11.2246 13.4062 10.5938 12.7754 10.5938 12C10.5938 11.2246 11.2246 10.5938 12 10.5938Z" fill="black"/>
<path d="M3.846 4.31496C3.96604 4.31496 4.08609 4.26912 4.17764 4.17757C4.36068 3.99452 4.36068 3.69771 4.17764 3.51467C3.99459 3.33162 3.69782 3.33162 3.51473 3.51467L3.5145 3.5149C3.33145 3.69795 3.33154 3.99462 3.51459 4.17767C3.60609 4.26926 3.72604 4.31496 3.846 4.31496Z" fill="black"/>
</g>
<defs>
<clipPath id="clip0_0_90">
<rect width="24" height="24" fill="white"/>
</clipPath>
</defs>
</svg>
