<svg width="30" height="30" viewBox="0 0 30 30" fill="none" xmlns="http://www.w3.org/2000/svg">
<path d="M20 0.625C19.3101 0.625 18.6392 0.705 17.9912 0.84715C17.6789 0.7042 17.3403 0.625 17 0.625H3C1.69045 0.625 0.625 1.69045 0.625 3V27C0.625 28.3095 1.69045 29.375 3 29.375H17C18.3095 29.375 19.375 28.3095 19.375 27V19.3433C19.5825 19.3571 19.789 19.375 20 19.375C25.1694 19.375 29.375 15.1694 29.375 10C29.375 4.83055 25.1694 0.625 20 0.625ZM18.625 27C18.625 27.896 17.896 28.625 17 28.625H3C2.104 28.625 1.375 27.896 1.375 27V3C1.375 2.104 2.104 1.375 3 1.375H16.3292C15.5725 1.69825 14.8712 2.1238 14.2318 2.625H3C2.79295 2.625 2.625 2.79295 2.625 3V26C2.625 26.2071 2.79295 26.375 3 26.375H17C17.2071 26.375 17.375 26.2071 17.375 26V18.994C17.7806 19.1126 18.1987 19.1995 18.625 19.2626V27ZM9 9.375H10.6567C10.6429 9.5825 10.625 9.78905 10.625 10C10.625 10.2109 10.6429 10.4175 10.6567 10.625H3.375V9.375H7C7.20705 9.375 7.375 9.20705 7.375 9V3.375H8.625V9C8.625 9.20705 8.79295 9.375 9 9.375ZM6.625 8.625H3.375V3.375H6.625V8.625ZM3.375 22.2414L11.625 18.4922V25.625H3.375V22.2414ZM16.625 18.7364V25.625H14.375V17.4822C15.0593 17.998 15.8138 18.4219 16.625 18.7364ZM13.625 25.625H12.375V17.9099C12.375 17.7824 12.3103 17.6635 12.2031 17.5947C12.0964 17.5256 11.9609 17.5161 11.8449 17.5686L3.375 21.4177V20.2414L12.1551 16.2512C12.2891 16.1904 12.375 16.0569 12.375 15.9099V15.4342C12.7433 15.9494 13.1625 16.4237 13.625 16.8542V25.625ZM11.625 15.6684L3.375 19.4178V11.375H10.7374C10.8851 12.3729 11.188 13.3188 11.625 14.189V15.6684ZM10.7374 8.625H9.375V3.375H13.373C11.9835 4.7649 11.0384 6.59145 10.7374 8.625ZM20 18.625C15.2442 18.625 11.375 14.7558 11.375 10C11.375 5.24415 15.2442 1.375 20 1.375C24.7558 1.375 28.625 5.24415 28.625 10C28.625 14.7558 24.7558 18.625 20 18.625ZM22.5259 6.1946L15.753 8.84475C15.3382 9.0071 15.0928 9.39895 15.1282 9.84305C15.1636 10.2872 15.4678 10.635 15.9031 10.7297L18.6689 11.331L19.2703 14.0969C19.365 14.5322 19.7129 14.8364 20.1569 14.8718C20.1852 14.874 20.2134 14.8752 20.2414 14.8752C20.6501 14.8752 21.0031 14.6355 21.1552 14.2471L23.8053 7.4741C23.9506 7.103 23.8659 6.6975 23.5842 6.41575C23.3027 6.134 22.8979 6.0486 22.5259 6.1946ZM23.1072 7.2007L20.4571 13.9736C20.399 14.1221 20.2706 14.1292 20.2166 14.1243C20.1636 14.1199 20.0371 14.0933 20.0032 13.9378L19.3505 10.9363C19.3193 10.7928 19.2073 10.6807 19.0637 10.6495L16.0623 9.9969C15.9067 9.96295 15.8801 9.8365 15.8757 9.7835C15.8716 9.7305 15.8779 9.60115 16.0264 9.543L22.7994 6.89285C22.8321 6.88015 22.8621 6.87505 22.8895 6.87505C22.9718 6.87505 23.0291 6.92145 23.054 6.9461C23.087 6.97905 23.1583 7.07005 23.1072 7.2007Z" fill="black"/>
</svg>
