<?xml version="1.0" encoding="UTF-8"?>
<svg id="Layer_1" data-name="Layer 1" xmlns="http://www.w3.org/2000/svg" viewBox="0 0 23.75 40">
  <defs>
    <style>
      .cls-1 {
        fill: red;
        fill-rule: evenodd;
      }
    </style>
  </defs>
  <polygon points="9.03 2.09 17.09 2.09 20.37 3.96 20.65 34.66 16.81 38.73 9.36 39.16 4.77 36.63 3.36 33.49 3.36 5.41 3.99 3.62 6.27 2.11 9.03 2.09"/>
  <path class="cls-1" d="M23.72,16.05c.22-1-.86-2.12-2.47-2.3V5.63c0-1.25-1.12-2.64-1.68-2.97-.64-.57-1.09-.87-2.64-1.26-.16-.2-.48-.43-.72-.53-1.12-.46-2.34-.86-4.34-.86s-3.22.4-4.34.86c-.24.1-.56.33-.72.53-1.55.39-2,.69-2.64,1.26-.56.33-1.68,1.72-1.68,2.97v8.12c-1.61.18-2.69,1.3-2.47,2.3.04.18.25.24.42.17.59-.25,1.59-.46,2.06-.53v17.74c0,2.52,1.56,5.63,2.81,5.94,1.74.43,3.44.63,6.56.63s4.82-.19,6.56-.63c1.25-.31,2.81-3.42,2.81-5.94V15.69c.47.07,1.47.28,2.06.53.17.07.38.01.42-.17ZM19.38,3.75c.63.85.63,1.88.63,2.5-.94-1.48-2.08-2.73-3.75-3.75,1.25,0,2.4.65,3.13,1.25ZM20,33.12v-9.38c-.07.05-.13.11-.2.16-.3.25-.55.46-1.05.47,0,3.28,0,5.31.31,8.13.06.05.13.1.19.14h0c.23.18.44.34.75.48ZM20,15.62v7.5c-.31.31-.77.64-1.25.62,0-6.25.63-7.5,1.25-8.12ZM4.38,3.75c-.63.85-.63,1.88-.63,2.5.94-1.48,2.08-2.73,3.75-3.75-1.25,0-2.4.65-3.13,1.25ZM3.75,23.75v9.38c.31-.14.52-.3.75-.48.06-.05.12-.1.19-.14.31-2.81.31-4.84.31-8.13-.51-.01-.76-.22-1.05-.47-.06-.05-.13-.11-.2-.16ZM11.88,11.25c3.13,0,4.73.42,6.49,1.08.27.1.42.38.38.66l-.72,4.61c-.05.33-.36.56-.69.52-.66-.09-1.2-.18-1.69-.27-1.12-.19-2.2-.35-3.77-.35s-2.65.16-3.77.35c-.49.09-1.03.18-1.69.27-.33.04-.64-.19-.69-.52l-.72-4.61c-.04-.28.11-.56.38-.66,1.76-.66,3.36-1.08,6.49-1.08ZM17.5,33c.01-.41-.36-.72-.76-.66-3.48.29-6.58.28-9.72,0-.4-.06-.78.25-.76.66l.14,3.74c.02.5.33.94.79,1.11,3.16,1.18,6.29,1.18,9.4,0,.46-.17.77-.61.79-1.11l.14-3.74ZM3.75,23.12v-7.5c.63.63,1.25,1.88,1.25,8.12-.48.02-.94-.31-1.25-.62Z"/>
</svg>