<svg width="25" height="41" viewBox="0 0 25 41" fill="none" xmlns="http://www.w3.org/2000/svg">
<g clip-path="url(#clip0_0_654)">
<path fill-rule="evenodd" clip-rule="evenodd" d="M18.8978 39.4341C20.1446 39.1069 21.6714 35.9806 21.6419 33.4578L21.4344 15.7184C21.9042 15.782 22.9027 15.9812 23.4981 16.2214C23.6661 16.2885 23.8763 16.2316 23.9141 16.0457C24.1169 15.0399 23.0278 13.9329 21.4153 13.7736L21.3204 5.6527C21.3057 4.40222 20.1699 3.0267 19.6062 2.70245C18.9634 2.13917 18.5019 1.84645 16.9523 1.47192C16.7901 1.27386 16.4675 1.04495 16.2264 0.949611C15.1013 0.497409 13.8826 0.11538 11.8832 0.138762C9.88393 0.162143 8.67443 0.572571 7.56025 1.05096C7.32148 1.15191 7.00431 1.3883 6.8467 1.59011C5.30637 2.00077 4.85183 2.3042 4.22236 2.88236C3.66642 3.2197 2.56308 4.62505 2.57766 5.87189L2.67268 13.9964C1.06436 14.1897 -0.00213701 15.3256 0.227704 16.3263C0.269859 16.5113 0.481376 16.567 0.647741 16.4923C1.23374 16.2382 2.23093 16.0157 2.69906 15.9411L2.90652 33.6805C2.93598 36.1997 4.53547 39.2931 5.78961 39.5911C7.5323 40.007 9.23575 40.1761 12.3583 40.1396C15.4809 40.1031 17.1799 39.8941 18.9124 39.4376L18.8978 39.4341Z" fill="url(#paint0_linear_0_654)"/>
<path fill-rule="evenodd" clip-rule="evenodd" d="M23.9066 16.0494C24.1093 15.0436 23.0202 13.9366 21.4078 13.7773L21.3128 5.65276C21.2982 4.40228 20.1623 3.02676 19.5986 2.70251C18.9558 2.13923 18.4943 1.84651 16.9448 1.47198C16.7825 1.27392 16.4599 1.04501 16.2188 0.949672C15.0938 0.49747 13.875 0.115441 11.872 0.138865C9.86909 0.162289 8.66323 0.572674 7.54905 1.05106C7.31028 1.15202 6.99311 1.38841 6.83551 1.59021C5.29517 2.00087 4.84063 2.30431 4.21116 2.88246C3.65522 3.2198 2.55188 4.62515 2.56646 5.872L2.66148 13.9965C1.05316 14.1898 -0.0133367 15.3257 0.216504 16.3264C0.258659 16.5114 0.470177 16.5671 0.636542 16.4924C1.22254 16.2383 2.21973 16.0158 2.68786 15.9412L2.89532 33.6807C2.92478 36.1998 4.52427 39.2932 5.77841 39.5912C7.5211 40.0071 9.22455 40.1762 12.3471 40.1397C15.4697 40.1032 17.1687 39.8942 18.9012 39.4377C20.148 39.1105 21.6748 35.9841 21.6453 33.4614L21.4378 15.722C21.9076 15.7856 22.906 15.9847 23.5015 16.225C23.6695 16.2921 23.8797 16.2351 23.9175 16.0493L23.9066 16.0494ZM19.4188 3.80257C20.054 4.64587 20.066 5.67098 20.0733 6.29622C19.1109 4.82778 17.9585 3.59424 16.278 2.58865C17.5285 2.57402 18.6812 3.21495 19.4188 3.80257ZM20.3839 33.1671L20.2743 23.7921C20.2058 23.8474 20.141 23.8991 20.0798 23.9544C19.7883 24.205 19.5363 24.4152 19.0311 24.432C19.0695 27.7145 19.0932 29.7429 19.4387 32.5528C19.5047 32.5993 19.5671 32.6459 19.6258 32.6924C19.8605 32.8678 20.0733 33.0289 20.3839 33.1635L20.3839 33.1671ZM20.1793 15.6676L20.267 23.1669C19.958 23.4831 19.5038 23.8157 19.0238 23.8031C18.9507 17.5543 19.5613 16.3002 20.1793 15.6676ZM4.41666 3.97802C3.80136 4.83595 3.81335 5.86105 3.82066 6.48629C4.74849 4.99574 5.87171 3.73559 7.52824 2.69097C6.27776 2.7056 5.14035 3.37331 4.41666 3.97802ZM4.02528 23.9821L4.13491 33.3571C4.44229 33.2154 4.65121 33.0493 4.87814 32.8685C4.93938 32.8206 5.00063 32.7726 5.06547 32.7209C5.34518 29.9037 5.32146 27.8753 5.28307 24.5928C4.77766 24.5878 4.52074 24.3799 4.22344 24.1398C4.16105 24.0896 4.09498 24.0359 4.02528 23.9821ZM12.0036 11.3896C15.1298 11.353 16.7378 11.7523 18.5049 12.3897C18.7751 12.4883 18.931 12.7628 18.8907 13.0469L18.2249 17.6682C18.1779 17.9996 17.8752 18.2322 17.5402 18.1925C16.874 18.1094 16.3385 18.0248 15.8468 17.9433C14.7213 17.7638 13.6398 17.6164 12.0767 17.6347C10.5136 17.653 9.43211 17.822 8.31479 18.0314C7.82144 18.1244 7.28814 18.2215 6.62397 18.3202C6.29368 18.3677 5.98202 18.1423 5.92726 17.8121L5.15356 13.2075C5.10662 12.9245 5.2597 12.6464 5.52387 12.5415C7.27553 11.8593 8.87378 11.4262 12 11.3896L12.0036 11.3896ZM17.8851 33.0654C17.8948 32.6545 17.5167 32.3463 17.114 32.4164C13.6422 32.7479 10.5377 32.7733 7.39367 32.5301C6.9894 32.4694 6.61868 32.79 6.63798 33.197L6.81991 36.9395C6.84386 37.4337 7.15799 37.8699 7.62169 38.039C10.7981 39.1835 13.9279 39.1468 17.0221 37.9291C17.4817 37.7492 17.7856 37.3057 17.798 36.8111L17.8923 33.0654L17.8851 33.0654ZM4.01796 23.3569L3.93026 15.8576C4.56281 16.4756 5.20268 17.7187 5.27572 23.9639C4.79609 23.9877 4.33424 23.6659 4.01796 23.3569Z" fill="#E23226"/>
</g>
<defs>
<linearGradient id="paint0_linear_0_654" x1="2.76397" y1="20.2486" x2="14.2219" y2="20.1146" gradientUnits="userSpaceOnUse">
<stop/>
<stop offset="0.97" stop-color="#4B4749"/>
<stop offset="1" stop-color="#4E4A4C"/>
</linearGradient>
<clipPath id="clip0_0_654">
<rect width="40" height="23.7499" fill="white" transform="translate(23.7483) rotate(89.33)"/>
</clipPath>
</defs>
</svg>
