<svg width="16" height="12" viewBox="0 0 16 12" fill="none" xmlns="http://www.w3.org/2000/svg">
<g clip-path="url(#clip0_2449_275)">
<path d="M7.21676 9.48132H4.24507C4.08878 9.48132 3.96194 9.60816 3.96194 9.76445C3.96194 9.92073 4.08878 10.0476 4.24507 10.0476H7.21676C7.37304 10.0476 7.49988 9.92073 7.49988 9.76445C7.49988 9.60816 7.37304 9.48132 7.21676 9.48132Z" fill="black"/>
<path d="M10.6134 6.50964C9.13069 6.50964 7.9248 7.71599 7.9248 9.19821C7.9248 10.6804 9.13115 11.8868 10.6134 11.8868C12.0956 11.8868 13.3019 10.6804 13.3019 9.19821C13.3019 7.71599 12.0956 6.50964 10.6134 6.50964ZM10.6134 11.3205C9.44281 11.3205 8.4906 10.3683 8.4906 9.19775C8.4906 8.0272 9.44281 7.07499 10.6134 7.07499C11.7839 7.07499 12.7361 8.0272 12.7361 9.19775C12.7361 10.3683 11.7839 11.3205 10.6134 11.3205Z" fill="black"/>
<path d="M10.6134 7.92438C9.91121 7.92438 9.33997 8.49561 9.33997 9.19776C9.33997 9.89992 9.91121 10.4711 10.6134 10.4711C11.3155 10.4711 11.8867 9.89992 11.8867 9.19776C11.8867 8.49561 11.3155 7.92438 10.6134 7.92438ZM10.6134 9.9058C10.2233 9.9058 9.90577 9.58825 9.90577 9.19822C9.90577 8.80818 10.2233 8.49063 10.6134 8.49063C11.0034 8.49063 11.3209 8.80818 11.3209 9.19822C11.3209 9.58825 11.0034 9.9058 10.6134 9.9058Z" fill="black"/>
<path d="M5.94337 4.67C5.94337 4.82629 6.07021 4.95313 6.2265 4.95313H10.3302C10.4467 4.95313 10.5513 4.88201 10.5939 4.77329C10.6365 4.66502 10.6079 4.54135 10.5228 4.46253L8.01359 2.13954C7.79388 1.92255 7.24711 1.61315 5.09037 1.40885C3.93341 1.29922 2.84711 1.27476 2.83624 1.27431C2.6795 1.27068 2.5504 1.39481 2.54722 1.55109C2.54405 1.70738 2.66772 1.83694 2.82401 1.84011C2.83488 1.84011 3.90306 1.86457 5.04009 1.97238C7.09626 2.16763 7.53296 2.45936 7.61767 2.54407C7.62038 2.54679 7.62265 2.54905 7.62537 2.55177L9.60815 4.38779H6.2265C6.07021 4.38779 5.94337 4.51463 5.94337 4.67091V4.67Z" fill="black"/>
<path d="M15.9556 8.1735L15.3019 5.55968C15.1764 5.05821 14.4811 4.72254 13.7477 4.43488C13.7454 4.43397 13.7427 4.43307 13.7404 4.43216L11.8496 3.74994C11.4668 3.59819 11.0759 3.21178 10.7311 2.87112C10.622 2.76331 10.5187 2.66138 10.4163 2.56625L8.57984 0.865685C8.36013 0.648698 7.81336 0.339298 5.65662 0.134994C4.49966 0.0249151 3.41336 0 3.40249 0C3.40022 0 3.39841 0 3.39615 0H2.2641C2.10781 0 1.98097 0.12684 1.98097 0.283126C1.98097 0.439411 2.10781 0.566251 2.2641 0.566251H3.39298C3.45549 0.56761 4.49558 0.593431 5.60317 0.698075C7.66206 0.893318 8.09875 1.18505 8.18346 1.26976C8.18618 1.27248 8.18845 1.27475 8.19116 1.27746L10.0313 2.9812C10.1273 3.06999 10.227 3.16874 10.333 3.27339C10.7176 3.65345 11.1538 4.08471 11.6458 4.27814C11.648 4.27905 11.6507 4.27995 11.653 4.28086L12.7357 4.67135V5.20951C12.7357 5.92661 13.3187 6.50963 14.0358 6.50963H14.1508C14.3071 6.50963 14.434 6.38279 14.434 6.2265C14.434 6.07021 14.3071 5.94337 14.1508 5.94337H14.0358C13.6308 5.94337 13.3019 5.61404 13.3019 5.20951V4.87565L13.5443 4.96308C14.5332 5.35176 14.7257 5.59003 14.7524 5.69694L15.4061 8.31076C15.4858 8.62967 15.3912 8.97259 15.1583 9.20498C14.9803 9.38301 14.7438 9.48086 14.4924 9.48086H14.0091C13.8528 9.48086 13.7259 9.6077 13.7259 9.76399C13.7259 9.92027 13.8528 10.0471 14.0091 10.0471H14.4924C14.8951 10.0471 15.2738 9.89037 15.5588 9.60544C15.9311 9.23307 16.0829 8.68448 15.9551 8.1735H15.9556Z" fill="black"/>
<path d="M5.23579 6.36784C5.23579 6.21156 5.10895 6.08472 4.95266 6.08472H0.990714C0.834429 6.08472 0.707588 6.21156 0.707588 6.36784C0.707588 6.52413 0.834429 6.65097 0.990714 6.65097H4.95311C5.1094 6.65097 5.23624 6.52413 5.23624 6.36784H5.23579Z" fill="black"/>
<path d="M5.23579 4.66997C5.23579 4.51368 5.10895 4.38684 4.95266 4.38684H0.283126C0.12684 4.38684 0 4.51368 0 4.66997C0 4.82625 0.12684 4.95309 0.283126 4.95309H4.95311C5.1094 4.95309 5.23624 4.82625 5.23624 4.66997H5.23579Z" fill="black"/>
<path d="M5.23579 8.06615C5.23579 7.90986 5.10895 7.78302 4.95266 7.78302H1.83964C1.68335 7.78302 1.55651 7.90986 1.55651 8.06615C1.55651 8.22243 1.68335 8.34927 1.83964 8.34927H4.95266C5.10895 8.34927 5.23579 8.22243 5.23579 8.06615Z" fill="black"/>
</g>
<defs>
<clipPath id="clip0_2449_275">
<rect width="16" height="11.8867" fill="white"/>
</clipPath>
</defs>
</svg>
