<svg width="16" height="8" viewBox="0 0 16 8" fill="none" xmlns="http://www.w3.org/2000/svg">
<g clip-path="url(#clip0_2449_161)">
<path fill-rule="evenodd" clip-rule="evenodd" d="M9.055 1.17626C9.15469 0.785636 8.65187 0.534386 8.39937 0.848761L5.61156 4.32064C5.41437 4.56595 5.58906 4.93032 5.90406 4.93032H7.26781L6.83156 6.85032C6.74344 7.23751 7.23906 7.47814 7.48875 7.16939L10.3878 3.58501C10.6022 3.32001 10.3806 2.9297 10.0431 2.97782L8.54062 3.19251L9.05531 1.17626H9.055ZM6.16437 4.43032L8.42781 1.61189L8.00969 3.25001C7.94375 3.50876 8.16156 3.75189 8.42594 3.71407L9.79844 3.51814L7.4375 6.43689L7.78937 4.88876C7.84281 4.65407 7.66437 4.43064 7.42375 4.43064H6.16437V4.43032Z" fill="black"/>
<path d="M16 5.59999V2.39999C16 2.2528 15.8806 2.13342 15.7334 2.13342H14.6669C14.5197 2.13342 14.4003 2.2528 14.4003 2.39999V5.59999C14.4003 5.74717 14.5197 5.86655 14.6669 5.86655H15.7334C15.8806 5.86655 16 5.74717 16 5.59999ZM14.9334 5.33342V2.66686H15.4669V5.33342H14.9334Z" fill="black"/>
<path d="M14.9334 6.97844V1.02156C14.9334 0.458125 14.475 0 13.9119 0H1.02156C0.458437 0 0 0.45875 0 1.02156V6.97844C0 7.54156 0.458437 8 1.02156 8H13.9116C14.4747 8 14.9331 7.54156 14.9331 6.97844H14.9334ZM1.02156 7.46625C0.752187 7.46625 0.533437 7.24719 0.533437 6.97813V1.02125C0.533437 0.751875 0.7525 0.533125 1.02156 0.533125H13.9116C14.1809 0.533125 14.3997 0.752187 14.3997 1.02125V6.97813C14.3997 7.2475 14.1806 7.46625 13.9116 7.46625H1.02156Z" fill="black"/>
</g>
<defs>
<clipPath id="clip0_2449_161">
<rect width="16" height="8" fill="white"/>
</clipPath>
</defs>
</svg>
