<svg width="40" height="40" viewBox="0 0 40 40" fill="none" xmlns="http://www.w3.org/2000/svg">
<g clip-path="url(#clip0_2831_635)">
<circle cx="20" cy="20" r="20" fill="white"/>
<path d="M26.2501 24.425L21.7626 20L26.2501 15.575C26.375 15.4581 26.4745 15.3167 26.5426 15.1598C26.6107 15.0028 26.6458 14.8336 26.6458 14.6625C26.6458 14.4914 26.6107 14.3222 26.5426 14.1652C26.4745 14.0082 26.375 13.8669 26.2501 13.75C26.1333 13.6341 25.9948 13.5425 25.8425 13.4803C25.6902 13.4181 25.5271 13.3865 25.3626 13.3875C25.0347 13.3889 24.7204 13.5191 24.4876 13.75L20.0001 18.2375L15.5751 13.75C15.3423 13.5191 15.028 13.3889 14.7001 13.3875C14.5356 13.3865 14.3725 13.4181 14.2202 13.4803C14.0679 13.5425 13.9294 13.6341 13.8126 13.75C13.5798 13.9842 13.4491 14.301 13.4491 14.6312C13.4491 14.9615 13.5798 15.2783 13.8126 15.5125L18.2376 20L13.8126 24.425C13.6078 24.6641 13.5008 24.9717 13.5129 25.2863C13.5251 25.6009 13.6555 25.8993 13.8781 26.1219C14.1007 26.3446 14.3992 26.475 14.7138 26.4871C15.0284 26.4993 15.336 26.3923 15.5751 26.1875L20.0001 21.7625L24.4251 26.1875C24.5408 26.3073 24.679 26.4032 24.8318 26.4696C24.9846 26.536 25.1489 26.5717 25.3155 26.5746C25.482 26.5775 25.6476 26.5476 25.8025 26.4865C25.9575 26.4255 26.099 26.3345 26.2188 26.2187C26.3387 26.103 26.4345 25.9648 26.5009 25.812C26.5674 25.6593 26.6031 25.4949 26.606 25.3283C26.6089 25.1618 26.5789 24.9963 26.5179 24.8413C26.4568 24.6863 26.3658 24.5448 26.2501 24.425ZM32.3751 7.62499C29.9276 5.17775 26.8094 3.51122 23.4148 2.83612C20.0201 2.16102 16.5016 2.50768 13.304 3.83227C10.1064 5.15685 7.37335 7.39988 5.4505 10.2777C3.52765 13.1555 2.50134 16.5389 2.50134 20C2.50134 23.4611 3.52765 26.8445 5.4505 29.7223C7.37335 32.6001 10.1064 34.8431 13.304 36.1677C16.5016 37.4923 20.0201 37.839 23.4148 37.1639C26.8094 36.4888 29.9276 34.8222 32.3751 32.375C34.0003 30.7499 35.2895 28.8207 36.1691 26.6974C37.0486 24.574 37.5013 22.2983 37.5013 20C37.5013 17.7017 37.0486 15.4259 36.1691 13.3026C35.2895 11.1793 34.0003 9.25004 32.3751 7.62499ZM30.6126 30.6125C28.5127 32.7051 25.8399 34.1285 22.9316 34.7031C20.0233 35.2776 17.01 34.9775 14.2721 33.8407C11.5343 32.7039 9.19467 30.7812 7.54875 28.3156C5.90283 25.85 5.02441 22.952 5.02441 19.9875C5.02441 17.023 5.90283 14.125 7.54875 11.6593C9.19467 9.19374 11.5343 7.27113 14.2721 6.13428C17.01 4.99744 20.0233 4.69735 22.9316 5.27191C25.8399 5.84647 28.5127 7.26991 30.6126 9.36249C32.011 10.756 33.1205 12.4119 33.8776 14.2352C34.6347 16.0585 35.0244 18.0133 35.0244 19.9875C35.0244 21.9617 34.6347 23.9165 33.8776 25.7398C33.1205 27.563 32.011 29.2189 30.6126 30.6125Z" fill="black"/>
</g>
<defs>
<clipPath id="clip0_2831_635">
<rect width="40" height="40" fill="white" transform="matrix(1 0 0 -1 0 40)"/>
</clipPath>
</defs>
</svg>
