<svg width="26" height="26" viewBox="0 0 26 26" fill="none" xmlns="http://www.w3.org/2000/svg">
<path d="M17.3751 16.0975L14.2338 13L17.3751 9.9025C17.4625 9.82065 17.5322 9.72173 17.5798 9.61186C17.6275 9.50199 17.6521 9.38351 17.6521 9.26375C17.6521 9.144 17.6275 9.02551 17.5798 8.91564C17.5322 8.80577 17.4625 8.70685 17.3751 8.625C17.2933 8.54391 17.1964 8.47975 17.0898 8.4362C16.9832 8.39266 16.869 8.37059 16.7538 8.37125C16.5243 8.37222 16.3043 8.46335 16.1413 8.625L13.0001 11.7663L9.90259 8.625C9.73961 8.46335 9.51964 8.37222 9.29009 8.37125C9.17494 8.37059 9.06078 8.39266 8.95417 8.4362C8.84757 8.47975 8.7506 8.54391 8.66884 8.625C8.50587 8.78894 8.4144 9.01072 8.4144 9.24188C8.4144 9.47304 8.50587 9.69481 8.66884 9.85875L11.7663 13L8.66884 16.0975C8.5255 16.2649 8.45059 16.4802 8.4591 16.7004C8.4676 16.9206 8.55889 17.1295 8.71473 17.2854C8.87056 17.4412 9.07945 17.5325 9.29967 17.541C9.51989 17.5495 9.7352 17.4746 9.90259 17.3313L13.0001 14.2338L16.0976 17.3313C16.1786 17.4151 16.2753 17.4822 16.3823 17.5287C16.4892 17.5752 16.6043 17.6002 16.7209 17.6022C16.8375 17.6043 16.9533 17.5833 17.0618 17.5406C17.1703 17.4978 17.2693 17.4341 17.3532 17.3531C17.4371 17.2721 17.5042 17.1754 17.5507 17.0684C17.5972 16.9615 17.6222 16.8464 17.6242 16.7298C17.6262 16.6132 17.6053 16.4974 17.5625 16.3889C17.5198 16.2804 17.4561 16.1814 17.3751 16.0975ZM21.6626 4.3375C19.9493 2.62444 17.7666 1.45786 15.3904 0.985292C13.0141 0.512724 10.5511 0.755386 8.31282 1.6826C6.07449 2.60981 4.16138 4.17992 2.81539 6.1944C1.46939 8.20887 0.750977 10.5772 0.750977 13C0.750977 15.4228 1.46939 17.7911 2.81539 19.8056C4.16138 21.8201 6.07449 23.3902 8.31282 24.3174C10.5511 25.2446 13.0141 25.4873 15.3904 25.0147C17.7666 24.5421 19.9493 23.3756 21.6626 21.6625C22.8002 20.525 23.7027 19.1745 24.3184 17.6882C24.9341 16.2018 25.251 14.6088 25.251 13C25.251 11.3912 24.9341 9.79816 24.3184 8.31184C23.7027 6.82552 22.8002 5.47504 21.6626 4.3375ZM20.4288 20.4288C18.9589 21.8936 17.088 22.89 15.0522 23.2922C13.0164 23.6943 10.907 23.4843 8.99053 22.6885C7.07403 21.8927 5.4363 20.5469 4.28416 18.821C3.13202 17.095 2.51712 15.0664 2.51712 12.9913C2.51712 10.9161 3.13202 8.88748 4.28416 7.16155C5.4363 5.43563 7.07403 4.0898 8.99053 3.29401C10.907 2.49822 13.0164 2.28816 15.0522 2.69035C17.088 3.09254 18.9589 4.08895 20.4288 5.55375C21.4077 6.52924 22.1844 7.68836 22.7144 8.96466C23.2443 10.2409 23.5171 11.6093 23.5171 12.9913C23.5171 14.3732 23.2443 15.7416 22.7144 17.0178C22.1844 18.2941 21.4077 19.4533 20.4288 20.4288Z" fill="white"/>
</svg>
