<svg width="14" height="16" viewBox="0 0 14 16" fill="none" xmlns="http://www.w3.org/2000/svg">
<path d="M10.5 0C10.438 0 4.5 0 4.5 0C3.44199 0 2.50001 0.970507 2.50001 2.00001L1.922 2.01351C0.864501 2.01351 0 2.9705 0 4V14C0 15.0295 0.942004 16 2.00001 16H9.50001C10.558 16 11.5 15.0295 11.5 14H12C13.058 14 14 13.0295 14 12V4.01201L10.5 0ZM9.50001 15H2.00001C1.47501 15 1.00002 14.5095 1.00002 14V4C1.00002 3.49051 1.42752 3.0165 1.95252 3.0165L2.50001 3.00001V12C2.50001 13.0295 3.44199 14 4.5 14H10.5C10.5 14.5095 10.025 15 9.50001 15ZM13 12C13 12.5095 12.525 13 12 13H4.5C3.975 13 3.5 12.5095 3.5 12V2.00001C3.5 1.49052 3.975 1.00002 4.5 1.00002H9.50001C9.49199 2.15152 9.50001 3.01252 9.50001 3.01252C9.50001 4.05152 10.435 5.00002 11.5 5.00002C11.5 5.00002 12.031 5.00002 13 5.00002V12ZM11.5 4C10.9675 4 10.5 3.03251 10.5 2.51351C10.5 2.51351 10.5 1.9875 10.5 1.0155V1.0145L13 4H11.5ZM10.5 7.00902H6.00001C5.72401 7.00902 5.50001 7.23252 5.50001 7.50851C5.50001 7.78451 5.72401 8.00801 6.00001 8.00801H10.5C10.776 8.00801 11 7.78449 11 7.50851C11 7.23252 10.776 7.00902 10.5 7.00902ZM10.5 9.50651H6.00001C5.72401 9.50651 5.50001 9.73001 5.50001 10.006C5.50001 10.282 5.72401 10.5055 6.00001 10.5055H10.5C10.776 10.5055 11 10.282 11 10.006C11 9.73001 10.776 9.50651 10.5 9.50651Z" fill="#949495"/>
</svg>
