<svg width="22" height="22" viewBox="0 0 22 22" fill="none" xmlns="http://www.w3.org/2000/svg">
<g clip-path="url(#clip0_2031_721)">
<path d="M19.5938 2.75H17.875V2.0625C17.875 1.69783 17.7301 1.34809 17.4723 1.09023C17.2144 0.832366 16.8647 0.6875 16.5 0.6875C16.1353 0.6875 15.7856 0.832366 15.5277 1.09023C15.2699 1.34809 15.125 1.69783 15.125 2.0625V2.75H12.375V2.0625C12.375 1.69783 12.2301 1.34809 11.9723 1.09023C11.7144 0.832366 11.3647 0.6875 11 0.6875C10.6353 0.6875 10.2856 0.832366 10.0277 1.09023C9.76987 1.34809 9.625 1.69783 9.625 2.0625V2.75H6.875V2.0625C6.875 1.69783 6.73013 1.34809 6.47227 1.09023C6.21441 0.832366 5.86467 0.6875 5.5 0.6875C5.13533 0.6875 4.78559 0.832366 4.52773 1.09023C4.26987 1.34809 4.125 1.69783 4.125 2.0625V2.75H2.40625C1.95041 2.75 1.51324 2.93108 1.19091 3.25341C0.868582 3.57574 0.6875 4.01291 0.6875 4.46875V18.2188C0.6875 18.6746 0.868582 19.1118 1.19091 19.4341C1.51324 19.7564 1.95041 19.9375 2.40625 19.9375H12.0312C12.1224 19.9375 12.2099 19.9013 12.2743 19.8368C12.3388 19.7724 12.375 19.6849 12.375 19.5938C12.375 19.5026 12.3388 19.4151 12.2743 19.3507C12.2099 19.2862 12.1224 19.25 12.0312 19.25H2.40625C2.133 19.2492 1.87117 19.1403 1.67795 18.9471C1.48473 18.7538 1.37582 18.492 1.375 18.2188V7.5625H20.625V13.4062C20.625 13.4974 20.6612 13.5849 20.7257 13.6493C20.7901 13.7138 20.8776 13.75 20.9688 13.75C21.0599 13.75 21.1474 13.7138 21.2118 13.6493C21.2763 13.5849 21.3125 13.4974 21.3125 13.4062V4.46875C21.3125 4.01291 21.1314 3.57574 20.8091 3.25341C20.4868 2.93108 20.0496 2.75 19.5938 2.75ZM15.8125 2.0625C15.8125 1.88016 15.8849 1.7053 16.0139 1.57636C16.1428 1.44743 16.3177 1.375 16.5 1.375C16.6823 1.375 16.8572 1.44743 16.9861 1.57636C17.1151 1.7053 17.1875 1.88016 17.1875 2.0625V4.125C17.1875 4.30734 17.1151 4.4822 16.9861 4.61114C16.8572 4.74007 16.6823 4.8125 16.5 4.8125C16.3177 4.8125 16.1428 4.74007 16.0139 4.61114C15.8849 4.4822 15.8125 4.30734 15.8125 4.125V2.0625ZM10.3125 2.0625C10.3125 1.88016 10.3849 1.7053 10.5139 1.57636C10.6428 1.44743 10.8177 1.375 11 1.375C11.1823 1.375 11.3572 1.44743 11.4861 1.57636C11.6151 1.7053 11.6875 1.88016 11.6875 2.0625V4.125C11.6875 4.30734 11.6151 4.4822 11.4861 4.61114C11.3572 4.74007 11.1823 4.8125 11 4.8125C10.8177 4.8125 10.6428 4.74007 10.5139 4.61114C10.3849 4.4822 10.3125 4.30734 10.3125 4.125V2.0625ZM4.8125 2.0625C4.8125 1.88016 4.88493 1.7053 5.01386 1.57636C5.1428 1.44743 5.31766 1.375 5.5 1.375C5.68234 1.375 5.8572 1.44743 5.98614 1.57636C6.11507 1.7053 6.1875 1.88016 6.1875 2.0625V4.125C6.1875 4.30734 6.11507 4.4822 5.98614 4.61114C5.8572 4.74007 5.68234 4.8125 5.5 4.8125C5.31766 4.8125 5.1428 4.74007 5.01386 4.61114C4.88493 4.4822 4.8125 4.30734 4.8125 4.125V2.0625ZM20.625 6.875H1.375V4.46875C1.37582 4.1955 1.48473 3.93367 1.67795 3.74045C1.87117 3.54723 2.133 3.43832 2.40625 3.4375H4.125V4.125C4.125 4.48967 4.26987 4.83941 4.52773 5.09727C4.78559 5.35513 5.13533 5.5 5.5 5.5C5.86467 5.5 6.21441 5.35513 6.47227 5.09727C6.73013 4.83941 6.875 4.48967 6.875 4.125V3.4375H9.625V4.125C9.625 4.48967 9.76987 4.83941 10.0277 5.09727C10.2856 5.35513 10.6353 5.5 11 5.5C11.3647 5.5 11.7144 5.35513 11.9723 5.09727C12.2301 4.83941 12.375 4.48967 12.375 4.125V3.4375H15.125V4.125C15.125 4.48967 15.2699 4.83941 15.5277 5.09727C15.7856 5.35513 16.1353 5.5 16.5 5.5C16.8647 5.5 17.2144 5.35513 17.4723 5.09727C17.7301 4.83941 17.875 4.48967 17.875 4.125V3.4375H19.5938C19.867 3.43832 20.1288 3.54723 20.3221 3.74045C20.5153 3.93367 20.6242 4.1955 20.625 4.46875V6.875Z" fill="#949495"/>
<path d="M10.3125 9.96875C10.3125 9.78641 10.2401 9.61155 10.1111 9.48261C9.9822 9.35368 9.80734 9.28125 9.625 9.28125H8.25C8.06766 9.28125 7.8928 9.35368 7.76386 9.48261C7.63493 9.61155 7.5625 9.78641 7.5625 9.96875V11C7.5625 11.1823 7.63493 11.3572 7.76386 11.4861C7.8928 11.6151 8.06766 11.6875 8.25 11.6875H9.625C9.80734 11.6875 9.9822 11.6151 10.1111 11.4861C10.2401 11.3572 10.3125 11.1823 10.3125 11V9.96875ZM8.25 11V9.96875H9.625V11H8.25Z" fill="#949495"/>
<path d="M6.1875 9.96875C6.1875 9.78641 6.11507 9.61155 5.98614 9.48261C5.8572 9.35368 5.68234 9.28125 5.5 9.28125H4.125C3.94266 9.28125 3.7678 9.35368 3.63886 9.48261C3.50993 9.61155 3.4375 9.78641 3.4375 9.96875V11C3.4375 11.1823 3.50993 11.3572 3.63886 11.4861C3.7678 11.6151 3.94266 11.6875 4.125 11.6875H5.5C5.68234 11.6875 5.8572 11.6151 5.98614 11.4861C6.11507 11.3572 6.1875 11.1823 6.1875 11V9.96875ZM4.125 11V9.96875H5.5V11H4.125Z" fill="#949495"/>
<path d="M17.875 11.6875C18.0573 11.6875 18.2322 11.6151 18.3611 11.4861C18.4901 11.3572 18.5625 11.1823 18.5625 11V9.96875C18.5625 9.78641 18.4901 9.61155 18.3611 9.48261C18.2322 9.35368 18.0573 9.28125 17.875 9.28125H16.5C16.3177 9.28125 16.1428 9.35368 16.0139 9.48261C15.8849 9.61155 15.8125 9.78641 15.8125 9.96875V11C15.8125 11.1823 15.8849 11.3572 16.0139 11.4861C16.1428 11.6151 16.3177 11.6875 16.5 11.6875H17.875ZM16.5 9.96875H17.875V11H16.5V9.96875Z" fill="#949495"/>
<path d="M10.3125 13.0625C10.3125 12.8802 10.2401 12.7053 10.1111 12.5764C9.9822 12.4474 9.80734 12.375 9.625 12.375H8.25C8.06766 12.375 7.8928 12.4474 7.76386 12.5764C7.63493 12.7053 7.5625 12.8802 7.5625 13.0625V14.0938C7.5625 14.2761 7.63493 14.451 7.76386 14.5799C7.8928 14.7088 8.06766 14.7812 8.25 14.7812H9.625C9.80734 14.7812 9.9822 14.7088 10.1111 14.5799C10.2401 14.451 10.3125 14.2761 10.3125 14.0938V13.0625ZM8.25 14.0938V13.0625H9.625V14.0938H8.25Z" fill="#949495"/>
<path d="M6.1875 13.0625C6.1875 12.8802 6.11507 12.7053 5.98614 12.5764C5.8572 12.4474 5.68234 12.375 5.5 12.375H4.125C3.94266 12.375 3.7678 12.4474 3.63886 12.5764C3.50993 12.7053 3.4375 12.8802 3.4375 13.0625V14.0938C3.4375 14.2761 3.50993 14.451 3.63886 14.5799C3.7678 14.7088 3.94266 14.7812 4.125 14.7812H5.5C5.68234 14.7812 5.8572 14.7088 5.98614 14.5799C6.11507 14.451 6.1875 14.2761 6.1875 14.0938V13.0625ZM4.125 14.0938V13.0625H5.5V14.0938H4.125Z" fill="#949495"/>
<path d="M9.625 15.4688H8.25C8.06766 15.4688 7.8928 15.5412 7.76386 15.6701C7.63493 15.799 7.5625 15.9739 7.5625 16.1562V17.1875C7.5625 17.3698 7.63493 17.5447 7.76386 17.6736C7.8928 17.8026 8.06766 17.875 8.25 17.875H9.625C9.80734 17.875 9.9822 17.8026 10.1111 17.6736C10.2401 17.5447 10.3125 17.3698 10.3125 17.1875V16.1562C10.3125 15.9739 10.2401 15.799 10.1111 15.6701C9.9822 15.5412 9.80734 15.4688 9.625 15.4688ZM8.25 17.1875V16.1562H9.625V17.1875H8.25Z" fill="#949495"/>
<path d="M12.375 11.6875H13.75C13.9323 11.6875 14.1072 11.6151 14.2361 11.4861C14.3651 11.3572 14.4375 11.1823 14.4375 11V9.96875C14.4375 9.78641 14.3651 9.61155 14.2361 9.48261C14.1072 9.35368 13.9323 9.28125 13.75 9.28125H12.375C12.1927 9.28125 12.0178 9.35368 11.8889 9.48261C11.7599 9.61155 11.6875 9.78641 11.6875 9.96875V11C11.6875 11.1823 11.7599 11.3572 11.8889 11.4861C12.0178 11.6151 12.1927 11.6875 12.375 11.6875ZM12.375 9.96875H13.75V11H12.375V9.96875Z" fill="#949495"/>
<path d="M11.6875 14.0938C11.6875 14.2761 11.7599 14.451 11.8889 14.5799C12.0178 14.7088 12.1927 14.7812 12.375 14.7812C12.4662 14.7812 12.5536 14.745 12.6181 14.6806C12.6825 14.6161 12.7188 14.5287 12.7188 14.4375C12.7188 14.3463 12.6825 14.2589 12.6181 14.1944C12.5536 14.13 12.4662 14.0938 12.375 14.0938V13.0625H13.75C13.8412 13.0625 13.9286 13.0263 13.9931 12.9618C14.0575 12.8974 14.0938 12.8099 14.0938 12.7188C14.0938 12.6276 14.0575 12.5401 13.9931 12.4757C13.9286 12.4112 13.8412 12.375 13.75 12.375H12.375C12.1927 12.375 12.0178 12.4474 11.8889 12.5764C11.7599 12.7053 11.6875 12.8802 11.6875 13.0625V14.0938Z" fill="#949495"/>
<path d="M5.5 15.4688H4.125C3.94266 15.4688 3.7678 15.5412 3.63886 15.6701C3.50993 15.799 3.4375 15.9739 3.4375 16.1562V17.1875C3.4375 17.3698 3.50993 17.5447 3.63886 17.6736C3.7678 17.8026 3.94266 17.875 4.125 17.875H5.5C5.68234 17.875 5.8572 17.8026 5.98614 17.6736C6.11507 17.5447 6.1875 17.3698 6.1875 17.1875V16.1562C6.1875 15.9739 6.11507 15.799 5.98614 15.6701C5.8572 15.5412 5.68234 15.4688 5.5 15.4688ZM4.125 17.1875V16.1562H5.5V17.1875H4.125Z" fill="#949495"/>
<path d="M16.8438 12.375C15.9599 12.375 15.0959 12.6371 14.361 13.1281C13.6262 13.6192 13.0534 14.3171 12.7152 15.1336C12.3769 15.9502 12.2884 16.8487 12.4609 17.7156C12.6333 18.5824 13.0589 19.3787 13.6839 20.0036C14.3088 20.6286 15.1051 21.0542 15.9719 21.2266C16.8388 21.3991 17.7373 21.3106 18.5539 20.9723C19.3704 20.6341 20.0683 20.0613 20.5594 19.3265C21.0504 18.5916 21.3125 17.7276 21.3125 16.8438C21.3111 15.659 20.8399 14.5231 20.0021 13.6854C19.1644 12.8476 18.0285 12.3764 16.8438 12.375ZM16.8438 20.625C16.0959 20.625 15.3648 20.4032 14.743 19.9877C14.1212 19.5723 13.6365 18.9817 13.3503 18.2908C13.0641 17.5998 12.9893 16.8396 13.1352 16.1061C13.2811 15.3726 13.6412 14.6988 14.17 14.17C14.6988 13.6412 15.3726 13.2811 16.1061 13.1352C16.8396 12.9893 17.5998 13.0641 18.2908 13.3503C18.9817 13.6365 19.5723 14.1212 19.9877 14.743C20.4032 15.3648 20.625 16.0959 20.625 16.8438C20.6238 17.8462 20.2251 18.8073 19.5162 19.5162C18.8073 20.2251 17.8462 20.6238 16.8438 20.625Z" fill="#949495"/>
<path d="M18.8299 15.4028L16.1562 18.0764L14.9411 16.8609C14.8762 16.7983 14.7894 16.7637 14.6993 16.7645C14.6092 16.7652 14.5229 16.8014 14.4592 16.8651C14.3955 16.9289 14.3593 17.0151 14.3585 17.1052C14.3578 17.1953 14.3924 17.2822 14.455 17.347L15.9132 18.8055C15.9777 18.87 16.0651 18.9062 16.1562 18.9062C16.2474 18.9062 16.3348 18.87 16.3993 18.8055L19.316 15.8888C19.3786 15.824 19.4132 15.7372 19.4125 15.647C19.4117 15.5569 19.3755 15.4707 19.3118 15.4069C19.2481 15.3432 19.1618 15.3071 19.0717 15.3063C18.9816 15.3055 18.8948 15.3401 18.8299 15.4028Z" fill="#949495"/>
</g>
<defs>
<clipPath id="clip0_2031_721">
<rect width="22" height="22" fill="white"/>
</clipPath>
</defs>
</svg>
