<?xml version="1.0" encoding="UTF-8"?>
<svg id="Layer_1" data-name="Layer 1" xmlns="http://www.w3.org/2000/svg" viewBox="0 0 39 39">
  <defs>
    <style>
      .cls-1 {
        fill: #d9e821;
      }

      .cls-2 {
        stroke: #d9e821;
        stroke-miterlimit: 10;
      }
    </style>
  </defs>
  <circle class="cls-2" cx="19.5" cy="19.5" r="19"/>
  <g>
    <rect class="cls-1" x="24.09" y="12.86" width="2.64" height="1.47" transform="translate(-2.17 21.95) rotate(-45)"/>
    <rect class="cls-1" x="22.21" y="10.41" width="1.47" height="2.64"/>
    <rect class="cls-1" x="25.97" y="15.35" width="2.64" height="1.47"/>
    <rect class="cls-1" x="12.07" y="24.88" width="2.64" height="1.47" transform="translate(-14.19 16.97) rotate(-45)"/>
    <rect class="cls-1" x="10.2" y="22.42" width="2.64" height="1.47"/>
    <rect class="cls-1" x="15.14" y="26.18" width="1.47" height="2.64"/>
    <path class="cls-1" d="M17.72,14.12c.06,0,.14.01.21.08l2.71,2.71,1.87-1.87-2.71-2.71c-.57-.57-1.32-.85-2.07-.85s-1.5.28-2.07.85l-.73.73-3.51-3.51c-.51-.51-1.35-.51-1.86,0-.52.52-.52,1.35,0,1.87l3.51,3.51-.93.93c-1.14,1.14-1.14,3.01,0,4.15l2.71,2.71,1.86-1.87-2.71-2.71c-.07-.07-.08-.15-.08-.21s.01-.14.08-.21l.93-.93.84.84c.51.52,1.35.52,1.86,0s.52-1.35,0-1.86l-.84-.84.73-.73c.07-.07.15-.08.21-.08Z"/>
    <path class="cls-1" d="M29.45,27.58l-3.52-3.52.73-.73c1.14-1.14,1.14-3.01,0-4.15l-2.69-2.69-1.87,1.87,2.69,2.69c.11.11.11.3,0,.41l-.73.73-.83-.83c-.52-.52-1.35-.52-1.86,0-.52.51-.52,1.35,0,1.86l.83.83-.93.93c-.07.07-.15.08-.21.08s-.14-.01-.21-.08l-2.69-2.69-1.87,1.87,2.69,2.69c.57.57,1.32.85,2.07.85s1.5-.29,2.07-.85l.93-.93,3.52,3.52c.52.52,1.35.52,1.87,0,.51-.51.51-1.35,0-1.86Z"/>
  </g>
</svg>