<svg width="40" height="40" viewBox="0 0 40 40" fill="none" xmlns="http://www.w3.org/2000/svg">
<circle cx="20" cy="20" r="19.5" fill="black" stroke="#D9E821"/>
<g clip-path="url(#clip0_3361_792)">
<path d="M26.7269 12.1698L24.7419 14.1548L25.8449 15.2578L27.8299 13.2728L26.7269 12.1698Z" fill="#D9E821"/>
<path d="M24.4412 10.3237H22.881V13.1315H24.4412V10.3237Z" fill="#D9E821"/>
<path d="M29.6986 15.5808H26.8903V17.1407H29.6986V15.5808Z" fill="#D9E821"/>
<path d="M13.9328 24.9638L11.9467 26.9497L13.0498 28.053L15.036 26.0671L13.9328 24.9638Z" fill="#D9E821"/>
<path d="M12.9106 23.1035H10.1028V24.6634H12.9106V23.1035Z" fill="#D9E821"/>
<path d="M16.9199 27.1118H15.3597V29.9202H16.9199V27.1118Z" fill="#D9E821"/>
<path d="M18.1095 14.2717C18.1697 14.2717 18.2574 14.287 18.3298 14.3594L21.2131 17.2427L23.1985 15.2572L20.3152 12.3739C19.7087 11.7675 18.9088 11.464 18.1095 11.464C17.3099 11.464 16.51 11.7672 15.9036 12.3737L15.1311 13.1462L11.3964 9.41108C10.8483 8.86297 9.95945 8.86297 9.41134 9.41108C8.86289 9.95954 8.86289 10.8483 9.41134 11.3965L13.1463 15.1315L12.1533 16.1242C10.9397 17.3378 10.9397 19.3232 12.153 20.5365L15.0363 23.4198L17.0214 21.4343L14.1381 18.5511C14.066 18.4786 14.0507 18.3913 14.0507 18.3305C14.0507 18.2697 14.066 18.182 14.1384 18.1093L15.1311 17.1166L16.0293 18.0148C16.5774 18.5633 17.4659 18.5633 18.0144 18.0148C18.5628 17.4663 18.5628 16.5778 18.0144 16.0297L17.1162 15.1316L17.8886 14.3594C17.961 14.287 18.0487 14.2717 18.1095 14.2717Z" fill="#D9E821"/>
<path d="M30.589 28.604L26.8384 24.8537L27.6106 24.0816C28.8242 22.8679 28.8242 20.8829 27.6109 19.6693L24.7429 16.8013L22.7575 18.7867L25.6251 21.6544C25.7427 21.772 25.7427 21.9782 25.6251 22.0958L24.8529 22.868L23.9707 21.9857C23.4222 21.4373 22.5337 21.4373 21.9856 21.9857C21.4371 22.5338 21.4371 23.4223 21.9856 23.9708L22.8679 24.8531L21.8746 25.8464C21.8022 25.9188 21.7146 25.9341 21.654 25.9341C21.5938 25.9341 21.5061 25.9188 21.4338 25.8464L18.5661 22.9784L16.5807 24.9638L19.4484 27.8318C20.0548 28.4382 20.8547 28.7418 21.654 28.7418C22.4536 28.7418 23.2535 28.4382 23.86 27.8318L24.8533 26.8385L28.6036 30.5887C29.152 31.1372 30.0409 31.1372 30.589 30.5887C31.1371 30.0406 31.1371 29.1518 30.589 28.604Z" fill="#D9E821"/>
</g>
<defs>
<clipPath id="clip0_3361_792">
<rect width="22" height="22" fill="white" transform="translate(9 9)"/>
</clipPath>
</defs>
</svg>
