<svg width="32" height="32" viewBox="0 0 32 32" fill="none" xmlns="http://www.w3.org/2000/svg">
<path d="M31.9812 16.0187V17.9C26.0625 16.875 19.8812 23.6375 15.8875 27.4312C13.175 26.9437 10.6312 26.5187 7.98749 25.2375C6.38124 24.475 5.58124 23.9937 3.97499 22.6375C2.41874 21.3187 1.61874 20.5 0.0187378 18.325V16.9C2.21249 19.7437 4.68749 21.8812 7.69374 23.275C10.45 24.6187 13.1062 25.0437 15.9437 25.5625C16.0562 25.575 16.1687 25.5375 16.25 25.4687C17.6937 24.0625 18.7125 23.0375 20.3125 21.5937C23.4125 18.8125 27.7687 15.2 31.9812 16.0187ZM28.3312 15.5937C29.5625 15.225 30.3875 15.1 31.5312 15.2437C30.2687 13.575 29.4812 12.7812 28.175 11.6687C26.8812 12.0812 26.0937 12.4812 24.8687 13.2937C26.1437 13.9187 26.9562 14.4437 28.3312 15.5937ZM27.5375 15.85C26.3 14.8375 25.5125 14.375 24.1937 13.7375C22.8812 14.6 22.05 14.625 20.7937 15.5937C22.0812 16.1062 22.9 17.0125 24.1437 17.6437C25.4875 16.7375 26.3 16.275 27.5375 15.85ZM23.4937 18.0937C22.3187 17.4375 21.4687 16.5125 20.175 16.1312C18.8062 17.4187 17.9937 18.8937 16.7062 20.2812C17.875 20.4812 18.6812 20.6312 19.9812 20.95C21.3562 19.7125 22.175 19.0125 23.4937 18.0937ZM19.3562 21.5187C18.2 21.2437 17.275 21.0812 16.1187 20.8812C14.8937 22.0812 13.9125 23.05 12.6437 24.2062C13.8062 24.4812 14.7312 24.6312 15.8875 24.8375C17.1125 23.6437 18.0937 22.675 19.3562 21.5187ZM15.3562 20.65C14.075 20.05 13.2687 18.0625 12.0125 17.5437C10.6625 18.8937 9.84999 21.5687 8.48124 22.875C9.73124 23.4437 10.5187 23.6812 11.8187 24.0062C13.2125 22.75 14.1 21.8812 15.3562 20.65ZM16.1187 16.1625C15.2375 16.9562 14.5312 16.9062 13.9062 16.8562C13.475 16.825 13.0875 16.7937 12.625 17.0562C13.8312 17.7125 14.65 19.675 15.9 20.1125C17.25 18.75 18.025 17.3312 19.3437 15.9687C18.1625 15.9125 17.3875 16.35 16.1187 16.1625ZM23.4875 13.3562C22.3 12.6187 21.475 11.2312 20.1812 10.775C18.825 12.0875 18.0125 14.05 16.7375 15.5062C17.9125 15.4937 18.6875 15.075 19.9875 15.35C21.3687 14.15 22.1375 14.125 23.4875 13.3562ZM20.725 10.2437C22.075 10.8625 22.85 12.2312 24.1437 12.9312C25.5 12.0125 26.325 11.55 27.5937 11.1125C26.3812 9.8687 25.5375 7.3437 24.1937 6.4687C22.8062 7.4937 21.9812 9.01245 20.725 10.2437ZM19.9875 9.98745C21.25 8.81245 22.0625 7.37495 23.325 6.26245C22.3 6.49995 21.4625 7.8062 20.175 7.5687C18.8187 8.74995 18.0437 7.9812 16.7687 8.7187C17.9875 9.07495 18.75 9.6437 19.9875 9.98745ZM15.8812 8.5312C17.275 7.22495 18.05 8.02495 19.3812 7.2937C18.175 6.67495 17.3687 4.97495 16.1187 4.57495C14.775 6.01245 14 8.36245 12.7312 9.89995C13.8 9.54995 14.5562 8.3937 15.8812 8.5312ZM11.8312 13.6C13.1312 12.3625 13.9437 10.7125 15.125 9.32495C14.1062 9.7562 13.3375 10.8312 12.025 10.6187C10.5625 11.7625 9.74999 10.1812 8.61249 10.0437C9.75624 10.9312 10.575 13.05 11.8312 13.6ZM12.5812 13.8437C13.8 14.2937 14.6062 15.1187 15.8875 15.4C17.275 13.9687 18.0625 12.0062 19.4187 10.55C18.2062 10.1437 17.4062 9.5437 16.125 9.27495C14.7312 10.6875 13.95 12.4062 12.5812 13.8437ZM8.60624 14.8062C9.73749 15.4625 10.5812 16.3875 11.8375 16.7562C12.6812 16.0687 13.3562 16.1187 13.9562 16.1625C14.4062 16.2 14.7812 16.225 15.2375 15.9562C14.0187 15.5375 13.2375 14.75 12 14.3937C10.625 15.525 9.86874 14.575 8.60624 14.8062ZM4.38124 20.3812C5.66874 21.4375 6.45624 21.9062 7.79999 22.5562C9.17499 21.4125 10.0062 18.7125 11.2875 17.3062C9.96249 16.7937 9.14374 15.8437 7.87499 15.2C6.56874 16.2937 5.76249 19.4062 4.38124 20.3812ZM5.69374 15.05C6.24999 14.6187 6.93124 14.0812 7.80624 14.3937C8.61874 13.9125 9.26874 14.0437 9.84374 14.1687C10.325 14.2687 10.725 14.35 11.225 14.075C9.91249 13.2812 9.14999 11.1812 7.87499 10.375C6.59374 11.475 5.79374 14.5562 4.46874 15.6C4.84999 15.6812 5.19999 15.4437 5.69374 15.05ZM3.81874 19.9062C5.09999 19.1375 5.91249 16.225 7.03749 15.0437C5.97499 15.4125 5.14374 17.0062 3.68124 15.9875C2.44374 16.3625 1.62499 16.4875 0.474988 16.3437C1.73124 18.0062 2.51249 18.7937 3.81874 19.9062Z" fill="#D9E821"/>
</svg>
