<svg width="20" height="20" viewBox="0 0 20 20" fill="none" xmlns="http://www.w3.org/2000/svg">
<g clip-path="url(#clip0_3190_1508)">
<path d="M4.91281 6.01172C2.2089 6.01172 0.00909424 8.21153 0.00909424 10.9154C0.00909424 12.5942 0.807689 14.3992 2.38273 16.2803C2.61676 16.5598 2.84996 16.8188 3.07375 17.0551C2.05679 17.3327 1.44621 17.8314 1.44621 18.4135C1.44621 19.4439 3.23222 19.9999 4.91266 19.9999C6.59313 19.9999 8.37911 19.4439 8.37911 18.4135C8.37911 17.8319 7.76872 17.333 6.75243 17.0553C7.15844 16.6267 7.59532 16.1224 8.00985 15.5599C8.10594 15.4295 8.07813 15.2459 7.94774 15.1498C7.81743 15.0538 7.63376 15.0816 7.53766 15.212C7.03719 15.8912 6.49547 16.488 6.02278 16.9621C5.9686 16.9898 5.92328 17.0337 5.89489 17.089C5.47145 17.5052 5.11512 17.8139 4.91293 17.9826C4.71297 17.8155 4.36207 17.511 3.94406 17.1003C3.91406 17.0346 3.86137 16.983 3.79707 16.9542C2.46867 15.6181 0.595619 13.3097 0.595619 10.9155C0.595619 8.53504 2.5323 6.59836 4.91278 6.59836C7.29325 6.59836 9.22993 8.53504 9.22993 10.9155C9.22993 11.9551 8.87571 13.0777 8.17712 14.2523C8.09434 14.3916 8.14005 14.5715 8.27927 14.6543C8.41848 14.7371 8.59848 14.6914 8.68126 14.5522C9.43454 13.2856 9.81649 12.0621 9.81649 10.9155C9.81653 8.21153 7.61672 6.01172 4.91281 6.01172ZM4.73332 18.5926C4.78613 18.6335 4.84949 18.6539 4.91281 18.6539C4.97613 18.6539 5.03945 18.6335 5.09231 18.5926C5.12828 18.5647 5.61836 18.1825 6.27161 17.5438C7.26075 17.7455 7.79262 18.1339 7.79262 18.4135C7.79262 18.6223 7.50645 18.8686 7.04579 19.0563C6.48079 19.2866 5.72325 19.4134 4.9127 19.4134C3.15465 19.4134 2.03277 18.8212 2.03277 18.4135C2.03277 18.1335 2.5648 17.7453 3.55449 17.5436C4.21137 18.1861 4.70215 18.5684 4.73332 18.5926Z" fill="black"/>
<path d="M4.91284 8.78345C4.44897 8.78345 4.00787 8.92989 3.63725 9.20696C3.50756 9.30396 3.481 9.48775 3.57795 9.61747C3.67498 9.74716 3.85877 9.77368 3.98846 9.67677C4.25686 9.47611 4.57651 9.37001 4.9128 9.37001C5.76503 9.37001 6.45835 10.0633 6.45835 10.9156C6.45835 11.7678 5.76503 12.4611 4.9128 12.4611C4.06057 12.4611 3.36725 11.7678 3.36725 10.9156C3.36725 10.7702 3.38736 10.6264 3.42701 10.4883C3.4717 10.3327 3.38174 10.1702 3.22608 10.1255C3.07045 10.081 2.90799 10.1708 2.86326 10.3265C2.80854 10.5172 2.78076 10.7154 2.78076 10.9156C2.78076 12.0912 3.73721 13.0477 4.91288 13.0477C6.0885 13.0477 7.04499 12.0913 7.04499 10.9156C7.04495 9.73993 6.08846 8.78345 4.91284 8.78345Z" fill="black"/>
<path d="M17.6937 8.52037C17.8429 8.36025 17.9966 8.18775 18.1508 8.00361C19.3718 6.54529 19.9909 5.14337 19.9909 3.83669C19.9909 1.72118 18.2698 0 16.1542 0C14.6088 0 13.2211 0.919768 12.6192 2.34321C12.556 2.49239 12.6258 2.6645 12.775 2.72754C12.9241 2.79059 13.0963 2.72087 13.1593 2.57172C13.6694 1.36578 14.8449 0.586525 16.1542 0.586525C17.9464 0.586525 19.4044 2.04457 19.4044 3.83673C19.4044 6.26029 16.8599 8.58221 16.1541 9.17951C15.9985 9.04807 15.7537 8.83291 15.4666 8.5515C15.438 8.49474 15.3917 8.44974 15.3362 8.42189C14.3236 7.40232 12.904 5.6497 12.904 3.83673C12.904 3.67473 12.7728 3.54344 12.6108 3.54344C12.4488 3.54344 12.3175 3.67473 12.3175 3.83673C12.3175 5.14337 12.9366 6.54529 14.1576 8.00365C14.3117 8.18767 14.4653 8.3601 14.6145 8.52017C13.8585 8.74732 13.422 9.13396 13.422 9.59955C13.422 9.99221 13.7405 10.3383 14.319 10.5739C14.8139 10.7756 15.4656 10.8867 16.1542 10.8867C16.8426 10.8867 17.4944 10.7756 17.9894 10.5739C18.5677 10.3382 18.8862 9.99217 18.8862 9.59951C18.8862 9.13478 18.4494 8.74779 17.6937 8.52037ZM16.1541 10.3001C14.7659 10.3001 14.0086 9.83729 14.0086 9.59947C14.0086 9.44455 14.3531 9.16104 15.0887 9.00463C15.5837 9.48623 15.951 9.7724 15.9747 9.7908C16.0276 9.8317 16.0909 9.85213 16.1542 9.85213C16.2176 9.85213 16.2808 9.8317 16.3337 9.7908C16.3574 9.77248 16.7247 9.48627 17.2197 9.00471C17.5474 9.07459 17.8314 9.17697 18.03 9.29791C18.1989 9.4008 18.2997 9.51354 18.2997 9.59947C18.2996 9.83729 17.5423 10.3001 16.1541 10.3001Z" fill="black"/>
<path d="M16.1542 2.13013C15.2132 2.13013 14.4476 2.89568 14.4476 3.83673C14.4476 4.77771 15.2132 5.54326 16.1542 5.54326C17.0952 5.54326 17.8608 4.77775 17.8608 3.83673C17.8608 2.89571 17.0952 2.13013 16.1542 2.13013ZM16.1542 4.9567C15.5366 4.9567 15.0342 4.45427 15.0342 3.83669C15.0342 3.21911 15.5366 2.71665 16.1542 2.71665C16.7718 2.71665 17.2743 3.21907 17.2743 3.83669C17.2742 4.45427 16.7718 4.9567 16.1542 4.9567Z" fill="black"/>
<path d="M12.3499 9.30615H12.216C12.1185 9.30615 12.0205 9.3126 11.9247 9.32537C11.7642 9.34674 11.6513 9.49416 11.6726 9.65479C11.6923 9.80225 11.8182 9.90943 11.963 9.90943C11.9759 9.90943 11.9889 9.90861 12.002 9.90686C12.0723 9.89752 12.1443 9.89279 12.216 9.89279H12.3499V9.89276C12.5119 9.89276 12.6432 9.7615 12.6432 9.59947C12.6432 9.43744 12.5119 9.30615 12.3499 9.30615Z" fill="black"/>
<path d="M11.3803 18.1055C11.3799 18.1055 11.3794 18.1055 11.379 18.1055L10.9916 18.1072C10.8297 18.108 10.699 18.2399 10.6997 18.4018C10.7004 18.5634 10.8316 18.6938 10.9929 18.6938C10.9934 18.6938 10.9938 18.6938 10.9943 18.6938L11.3816 18.692C11.5436 18.6913 11.6743 18.5594 11.6736 18.3974C11.6729 18.2359 11.5417 18.1055 11.3803 18.1055Z" fill="black"/>
<path d="M12.6979 13.105H12.3106C12.1486 13.105 12.0173 13.2363 12.0173 13.3983C12.0173 13.5603 12.1486 13.6915 12.3106 13.6915H12.6979C12.8599 13.6915 12.9912 13.5603 12.9912 13.3983C12.9912 13.2363 12.86 13.105 12.6979 13.105Z" fill="black"/>
<path d="M11.1439 9.90371C11.0341 9.78472 10.8487 9.77722 10.7295 9.88699C10.6202 9.98781 10.5207 10.1002 10.4339 10.2211C10.3394 10.3527 10.3695 10.5359 10.5011 10.6304C10.5528 10.6676 10.6127 10.6855 10.6719 10.6855C10.7632 10.6855 10.8531 10.643 10.9104 10.5632C10.9741 10.4746 11.047 10.3921 11.1272 10.3181C11.2463 10.2083 11.2537 10.0228 11.1439 9.90371Z" fill="black"/>
<path d="M12.9298 18.0981C12.9293 18.0981 12.9289 18.0981 12.9284 18.0981L12.5411 18.0999C12.3792 18.1006 12.2485 18.2326 12.2492 18.3945C12.2499 18.556 12.3811 18.6865 12.5424 18.6865C12.5429 18.6865 12.5433 18.6865 12.5438 18.6865L12.9311 18.6847C13.093 18.684 13.2238 18.5521 13.223 18.3901C13.2223 18.2286 13.0911 18.0981 12.9298 18.0981Z" fill="black"/>
<path d="M9.83091 18.1123C9.83044 18.1123 9.83001 18.1123 9.82954 18.1123L9.44219 18.1141C9.28024 18.1148 9.14954 18.2467 9.15024 18.4087C9.15098 18.5702 9.28208 18.7006 9.44348 18.7006C9.44395 18.7006 9.44438 18.7006 9.44485 18.7006L9.83219 18.6989C9.99415 18.6981 10.1249 18.5662 10.1241 18.4043C10.1234 18.2427 9.99227 18.1123 9.83091 18.1123Z" fill="black"/>
<path d="M11.3605 12.8585C11.2684 12.8004 11.1817 12.7325 11.103 12.6568C10.9862 12.5445 10.8005 12.5482 10.6883 12.6649C10.576 12.7816 10.5796 12.9673 10.6963 13.0795C10.8037 13.1828 10.9219 13.2753 11.0476 13.3546C11.0962 13.3853 11.1503 13.3999 11.2038 13.3999C11.3011 13.3999 11.3963 13.3515 11.4521 13.263C11.5386 13.1261 11.4975 12.9449 11.3605 12.8585Z" fill="black"/>
<path d="M10.6396 11.8081C10.6199 11.7071 10.6099 11.6031 10.6099 11.499L10.61 11.4827C10.6119 11.3208 10.4821 11.1879 10.3201 11.1861C10.319 11.186 10.3178 11.186 10.3167 11.186C10.1563 11.186 10.0253 11.3151 10.0235 11.4759L10.0233 11.499C10.0233 11.6407 10.037 11.7824 10.0639 11.9204C10.0911 12.0604 10.2139 12.1576 10.3514 12.1576C10.3699 12.1576 10.3889 12.1558 10.4078 12.1521C10.5668 12.1211 10.6705 11.9671 10.6396 11.8081Z" fill="black"/>
<path d="M14.2474 13.105H13.8601C13.6981 13.105 13.5668 13.2363 13.5668 13.3983C13.5668 13.5603 13.6981 13.6915 13.8601 13.6915H14.2474C14.4094 13.6915 14.5407 13.5603 14.5407 13.3983C14.5407 13.2363 14.4094 13.105 14.2474 13.105Z" fill="black"/>
<path d="M18.9561 13.7021C18.843 13.6129 18.7223 13.5319 18.597 13.4614C18.456 13.3819 18.2771 13.4318 18.1975 13.573C18.118 13.7141 18.168 13.893 18.3091 13.9724C18.4079 14.0282 18.5033 14.0921 18.5925 14.1625C18.6464 14.205 18.7104 14.2256 18.7741 14.2256C18.8607 14.2256 18.9466 14.1874 19.0045 14.1141C19.1048 13.9869 19.0832 13.8025 18.9561 13.7021Z" fill="black"/>
<path d="M17.8674 18.3084C17.8452 18.148 17.6969 18.0357 17.5368 18.058C17.4407 18.0713 17.3423 18.0783 17.2443 18.0787L17.1894 18.0789C17.0274 18.0798 16.8967 18.2117 16.8975 18.3736C16.8983 18.5351 17.0294 18.6655 17.1907 18.6655C17.1912 18.6655 17.1917 18.6655 17.1922 18.6655L17.2469 18.6652C17.3708 18.6647 17.4953 18.6559 17.617 18.6391C17.7775 18.6169 17.8896 18.4688 17.8674 18.3084Z" fill="black"/>
<path d="M19.1618 17.4836C19.05 17.3663 18.8643 17.3618 18.7472 17.4735C18.6649 17.5519 18.5758 17.6245 18.4824 17.6893C18.3493 17.7815 18.3162 17.9643 18.4084 18.0974C18.4654 18.1796 18.5568 18.2237 18.6497 18.2237C18.7074 18.2237 18.7656 18.2067 18.8166 18.1714C18.9348 18.0894 19.0475 17.9975 19.1517 17.8983C19.269 17.7865 19.2735 17.6008 19.1618 17.4836Z" fill="black"/>
<path d="M19.7325 16.0593C19.5736 16.0294 19.4201 16.134 19.3901 16.2932C19.369 16.4048 19.3391 16.5156 19.301 16.6224C19.2466 16.775 19.3262 16.9428 19.4788 16.9972C19.5113 17.0088 19.5446 17.0143 19.5773 17.0143C19.6978 17.0143 19.8107 16.9394 19.8535 16.8194C19.9019 16.6839 19.9399 16.5434 19.9666 16.4018C19.9964 16.2426 19.8917 16.0892 19.7325 16.0593Z" fill="black"/>
<path d="M19.9068 15.1165C19.867 14.978 19.816 14.8416 19.755 14.7109C19.6864 14.5641 19.5121 14.5006 19.3652 14.5691C19.2184 14.6376 19.1549 14.8121 19.2234 14.9589C19.2714 15.0618 19.3117 15.1693 19.343 15.2783C19.3799 15.4069 19.4972 15.4907 19.6247 15.4907C19.6516 15.4907 19.6788 15.487 19.7058 15.4793C19.8614 15.4346 19.9514 15.2721 19.9068 15.1165Z" fill="black"/>
<path d="M15.7969 13.105H15.4095C15.2475 13.105 15.1162 13.2363 15.1162 13.3983C15.1162 13.5603 15.2475 13.6915 15.4095 13.6915H15.7969C15.9589 13.6915 16.0901 13.5603 16.0901 13.3983C16.0901 13.2363 15.9589 13.105 15.7969 13.105Z" fill="black"/>
<path d="M14.4793 18.0913C14.4788 18.0913 14.4784 18.0913 14.4779 18.0913L14.0905 18.0931C13.9286 18.0938 13.7979 18.2257 13.7986 18.3877C13.7993 18.5492 13.9305 18.6796 14.0918 18.6796C14.0923 18.6796 14.0927 18.6796 14.0932 18.6796L14.4805 18.6779C14.6425 18.6771 14.7732 18.5452 14.7725 18.3833C14.7718 18.2217 14.6406 18.0913 14.4793 18.0913Z" fill="black"/>
<path d="M17.3592 13.108C17.3177 13.1061 17.2757 13.1052 17.2344 13.1052H16.9589C16.7969 13.1052 16.6656 13.2366 16.6656 13.3985C16.6656 13.5605 16.7969 13.6918 16.9589 13.6918H17.2344V13.6917C17.2675 13.6917 17.3005 13.6925 17.3333 13.6939C17.3377 13.6942 17.3421 13.6942 17.3465 13.6942C17.5024 13.6942 17.6323 13.5714 17.6392 13.414C17.6464 13.2521 17.521 13.1151 17.3592 13.108Z" fill="black"/>
<path d="M16.0287 18.0842C16.0282 18.0842 16.0278 18.0842 16.0273 18.0842L15.6399 18.086C15.478 18.0867 15.3473 18.2186 15.348 18.3806C15.3487 18.5421 15.4799 18.6726 15.6412 18.6726C15.6417 18.6726 15.6422 18.6726 15.6426 18.6726L16.0299 18.6708C16.1919 18.6701 16.3226 18.5381 16.3219 18.3762C16.3212 18.2146 16.19 18.0842 16.0287 18.0842Z" fill="black"/>
</g>
<defs>
<clipPath id="clip0_3190_1508">
<rect width="20" height="20" fill="white"/>
</clipPath>
</defs>
</svg>
