<svg width="53" height="19" viewBox="0 0 53 19" fill="none" xmlns="http://www.w3.org/2000/svg">
<g clip-path="url(#clip0_4356_1035)">
<path d="M53 19H0C4.01447 19 7.57609 16.4204 8.93057 12.5739C11.5171 5.24224 18.4078 0 26.498 0C34.5881 0 41.4788 5.24224 44.0694 12.5739C45.4239 16.4204 48.9855 19 53 19Z" fill="black"/>
<g clip-path="url(#clip1_4356_1035)">
<path d="M19.2398 9.98562L25.9211 16.6668C26.0755 16.8212 26.2814 16.906 26.5056 16.906C26.7254 16.906 26.9314 16.8212 27.0855 16.6668L33.7606 9.99196C33.915 9.83745 34 9.63148 34 9.41172C34 9.19197 33.9151 8.98587 33.7606 8.83148L33.269 8.3399C33.1146 8.18551 32.9085 8.10026 32.6888 8.10026C32.469 8.10026 32.2631 8.18551 32.1085 8.3399L26.5033 13.9451L20.8919 8.33344C20.7375 8.17917 20.5315 8.09405 20.3116 8.09405C20.0919 8.09405 19.886 8.17917 19.7315 8.33344L19.2398 8.82526C18.9201 9.14514 18.9201 9.66575 19.2398 9.98562Z" fill="#D9E821"/>
</g>
</g>
<defs>
<clipPath id="clip0_4356_1035">
<rect width="53" height="19" fill="white"/>
</clipPath>
<clipPath id="clip1_4356_1035">
<rect width="15" height="15" fill="white" transform="translate(34 20) rotate(180)"/>
</clipPath>
</defs>
</svg>
