<svg width="38" height="25" viewBox="0 0 38 25" fill="none" xmlns="http://www.w3.org/2000/svg">
<path d="M37.8144 11.4331L36.5478 10.1831C36.429 10.0659 36.268 10 36.1 10H34.2C33.8502 10 33.5667 10.2798 33.5667 10.625V13.75H32.3V9.375C32.3 9.02984 32.0164 8.75 31.6667 8.75H27.5722L25.2288 5.27812C25.111 5.10375 24.9124 4.99937 24.7 5H20.9V3.75H25.3333C25.6831 3.75 25.9667 3.47016 25.9667 3.125V0.625C25.9667 0.279844 25.6831 0 25.3333 0H12.6667C12.3169 0 12.0333 0.279844 12.0333 0.625V3.125C12.0333 3.47016 12.3169 3.75 12.6667 3.75H17.1V5H13.3C13.0883 5 12.8905 5.1043 12.7731 5.27812L10.4278 8.75H6.96667C6.61691 8.75 6.33333 9.02984 6.33333 9.375V13.125H5.06667V9.375C5.06667 9.02984 4.78309 8.75 4.43333 8.75H1.9C1.68831 8.75 1.49055 8.8543 1.37307 9.02812L0.1064 10.9031C0.0372083 11.0059 0.0002375 11.1266 0 11.25V13.125C0.0002375 13.2484 0.0372083 13.3691 0.1064 13.4719L1.26667 15.1875V20.625C1.26667 20.9702 1.55024 21.25 1.9 21.25H4.43333C4.78309 21.25 5.06667 20.9702 5.06667 20.625V16.875H6.33333V20.625C6.33333 20.9702 6.61691 21.25 6.96667 21.25H10.4278L12.7712 24.7219C12.889 24.8962 13.0876 25.0006 13.3 25H31.6667C32.0164 25 32.3 24.7202 32.3 24.375V18.75H33.5667V23.125C33.5667 23.4702 33.8502 23.75 34.2 23.75H36.1C36.268 23.75 36.429 23.6841 36.5478 23.5669L37.8144 22.3169C37.9332 22.1997 38 22.0408 38 21.875V11.875C38 11.7092 37.9332 11.5503 37.8144 11.4331ZM3.8 20H2.53333V15C2.5331 14.8766 2.49612 14.7559 2.42693 14.6531L1.26667 12.9375V11.4375L2.23883 10H3.8V20ZM6.33333 15.625H5.06667V14.375H6.33333V15.625ZM13.3 2.5V1.25H24.7V2.5H13.3ZM19.6333 3.75V5H18.3667V3.75H19.6333ZM28.5 23.75H13.6388L11.2955 20.2781C11.1776 20.1037 10.9791 19.9994 10.7667 20H7.6V10H10.7667C10.9784 10 11.1761 9.8957 11.2936 9.72187L13.6388 6.25H24.3612L26.7045 9.72187C26.8224 9.89625 27.0209 10.0006 27.2333 10H28.5V23.75ZM31.0333 23.75H29.7667V10H31.0333V23.75ZM33.5667 17.5H32.3V15H33.5667V17.5ZM36.7333 21.6162L35.8378 22.5H34.8333V11.25H35.8378L36.7333 12.1337V21.6162Z" fill="#E92E19"/>
<path d="M24.5335 13.9526C24.4135 13.8234 24.2442 13.75 24.0667 13.75H21.0564L22.1515 8.88562C22.2273 8.54867 22.0121 8.21484 21.6706 8.13992C21.4687 8.09562 21.2577 8.15141 21.1052 8.28937L13.5052 15.1644C13.2474 15.3977 13.2301 15.793 13.4665 16.0474C13.5865 16.1766 13.7558 16.25 13.9333 16.25H16.9436L15.8485 21.1144C15.7727 21.4513 15.9879 21.7852 16.3294 21.8601C16.5313 21.9044 16.7423 21.8486 16.8948 21.7106L24.4948 14.8356C24.7526 14.6023 24.7699 14.207 24.5335 13.9526ZM17.5212 19.4481L18.3515 15.7606C18.4274 15.4237 18.2121 15.0898 17.8707 15.0149C17.8256 15.005 17.7796 15 17.7333 15H15.5616L20.4788 10.5519L19.6485 14.2394C19.5726 14.5763 19.7879 14.9102 20.1293 14.9851C20.1744 14.995 20.2204 14.9999 20.2667 15H22.4384L17.5212 19.4481Z" fill="#E92E19"/>
<path d="M10.1333 13.75H8.86667V18.75H10.1333V13.75Z" fill="#E92E19"/>
<path d="M10.1333 11.25H8.86667V12.5H10.1333V11.25Z" fill="#E92E19"/>
</svg>
