<svg width="16" height="13" viewBox="0 0 16 13" fill="none" xmlns="http://www.w3.org/2000/svg">
<path fill-rule="evenodd" clip-rule="evenodd" d="M5.66816 1.43605V0.453488C5.66816 0.202936 5.47552 0 5.23767 0H2.29596C2.05812 0 1.86547 0.202936 1.86547 0.453488V1.43605H0.430493C0.192646 1.43605 0 1.63898 0 1.88953V3.77907C0 4.02962 0.192646 4.23256 0.430493 4.23256H0.789238V12.5465C0.789238 12.7971 0.981883 13 1.21973 13H14.9238C15.1616 13 15.3543 12.7971 15.3543 12.5465V4.23256H15.5695C15.8074 4.23256 16 4.02962 16 3.77907V1.88953C16 1.63898 15.8074 1.43605 15.5695 1.43605H14.1345V0.453488C14.1345 0.202936 13.9419 0 13.704 0H10.8341C10.5962 0 10.4036 0.202936 10.4036 0.453488V1.43605H5.66816ZM2.43946 0.604651V1.43605H5.09417V0.604651H2.43946ZM1.36323 12.3953V4.23256H2.15247C2.31103 4.23256 2.43946 4.09727 2.43946 3.93023C2.43946 3.7632 2.31103 3.62791 2.15247 3.62791H0.573991V2.0407H15.426V3.62791H13.8475C13.689 3.62791 13.5605 3.7632 13.5605 3.93023C13.5605 4.09727 13.689 4.23256 13.8475 4.23256H14.7803V12.3953H1.36323ZM10.9776 1.43605H13.5605V0.604651H10.9776V1.43605Z" fill="black"/>
</svg>
