<svg width="25" height="25" viewBox="0 0 30 30" fill="none" xmlns="http://www.w3.org/2000/svg">
<path d="M15 10.172C12.3363 10.172 10.1721 12.3363 10.1721 15C10.1721 17.6637 12.3363 19.8279 15 19.8279C17.6637 19.8279 19.828 17.6637 19.828 15C19.828 12.3363 17.6637 10.172 15 10.172ZM14.6338 13.5682C14.0344 13.5682 13.535 14.0677 13.535 14.667H11.9368C11.9701 13.1687 13.1687 11.97 14.6338 11.97V13.5682Z" fill="white"/>
<path d="M29.6504 14.0012C28.0189 11.9701 22.192 5.34412 15 5.34412C7.80799 5.34412 1.98113 11.9701 0.349612 14.0012C-0.116537 14.5672 -0.116537 15.3996 0.349612 15.9989C1.98113 18.03 7.80799 24.656 15 24.656C22.192 24.656 28.0189 18.03 29.6504 15.9989C30.1165 15.4329 30.1165 14.6005 29.6504 14.0012ZM15 21.9923C11.1376 21.9923 8.00777 18.8624 8.00777 15.0001C8.00777 11.1377 11.1376 8.00782 15 8.00782C18.8624 8.00782 21.9922 11.1377 21.9922 15.0001C21.9922 18.8624 18.8624 21.9923 15 21.9923Z" fill="white"/>
</svg>
