<svg width="26" height="19" viewBox="0 0 26 19" fill="none" xmlns="http://www.w3.org/2000/svg">
<path d="M21.314 17.3139L4.68518 0.685588L4.68162 0.681526C4.59159 0.592232 4.48486 0.521545 4.36752 0.4735C4.25017 0.425456 4.12451 0.400994 3.99771 0.401513C3.87091 0.402031 3.74546 0.42752 3.62851 0.476523C3.51156 0.525526 3.40541 0.597085 3.31611 0.687112C3.22682 0.777139 3.15613 0.883873 3.10809 1.00122C3.06004 1.11856 3.03558 1.24422 3.0361 1.37102C3.03715 1.6271 3.13988 1.87228 3.3217 2.05262L4.7776 3.50852C3.01199 4.71775 1.49224 6.25146 0.299199 8.02805C0.104377 8.31569 0.000244141 8.65513 0.000244141 9.00254C0.000244141 9.34995 0.104377 9.68939 0.299199 9.97703C3.34455 14.4844 8.17233 17.125 13.0001 17.092C14.5639 17.0977 16.1173 16.8373 17.5938 16.3222L19.9505 18.6789C20.1321 18.8546 20.3754 18.9521 20.6281 18.9504C20.8807 18.9487 21.1227 18.8479 21.3018 18.6697C21.481 18.4915 21.5831 18.2502 21.5863 17.9975C21.5894 17.7449 21.4933 17.501 21.3186 17.3185L21.314 17.3139ZM13.0001 14.4712C12.0854 14.4708 11.1854 14.2413 10.3823 13.8035C9.57925 13.3656 8.89869 12.7335 8.40286 11.9649C7.90703 11.1963 7.61173 10.3157 7.54396 9.4035C7.47619 8.49134 7.6381 7.57674 8.0149 6.74328L9.5358 8.26418C9.41329 8.84146 9.43697 9.4402 9.60467 10.006C9.77237 10.5718 10.0788 11.0867 10.4961 11.504C10.9134 11.9213 11.4283 12.2277 11.9941 12.3954C12.5599 12.5631 13.1586 12.5868 13.7359 12.4643L15.2568 13.9852C14.548 14.3066 13.7784 14.4723 13.0001 14.4712Z" fill="#D9E821"/>
<path d="M25.7011 8.02551C22.6557 3.51562 17.8279 0.874998 13.0002 0.908005C11.4364 0.902341 9.883 1.16267 8.40649 1.67785L10.7424 4.01379C11.7561 3.55507 12.8854 3.41617 13.98 3.61559C15.0746 3.81502 16.0824 4.34329 16.8691 5.13002C17.6559 5.91675 18.1841 6.92455 18.3836 8.01914C18.583 9.11372 18.4441 10.2431 17.9854 11.2567L21.2222 14.4935C22.9881 13.2845 24.508 11.7507 25.7011 9.97398C25.8958 9.68639 25.9998 9.34705 25.9998 8.99974C25.9998 8.65244 25.8958 8.3131 25.7011 8.02551Z" fill="#D9E821"/>
<path d="M13 5.45851C12.7527 5.45854 12.5061 5.48441 12.2642 5.5357L16.4643 9.73531C16.5738 9.21932 16.5667 8.68539 16.4434 8.17251C16.3202 7.65963 16.0839 7.18076 15.7519 6.77087C15.4199 6.36099 15.0005 6.03045 14.5244 5.8034C14.0483 5.57634 13.5275 5.45851 13 5.45851Z" fill="#D9E821"/>
</svg>
