<svg width="23" height="20" viewBox="0 0 23 20" fill="none" xmlns="http://www.w3.org/2000/svg">
<g clip-path="url(#clip0_4638_287)">
<path fill-rule="evenodd" clip-rule="evenodd" d="M12.1555 14.4644C11.753 14.4644 11.385 14.1748 11.3045 13.7464C11.224 13.2715 11.5345 12.8199 11.9945 12.7388C13.1215 12.5304 14.0185 11.6271 14.214 10.4922C14.2945 10.0173 14.743 9.70467 15.2145 9.78573C15.686 9.8668 15.9965 10.3184 15.916 10.7933C15.5825 12.6346 14.1335 14.1054 12.305 14.4412C12.2475 14.4412 12.2015 14.4528 12.144 14.4528L12.1555 14.4644Z" fill="#D9E821"/>
<path fill-rule="evenodd" clip-rule="evenodd" d="M11.5001 19.3283C10.4191 19.3283 9.34956 19.1546 8.31456 18.8072C7.86606 18.6566 7.61306 18.1587 7.76256 17.707C7.91206 17.2554 8.39506 17.0122 8.85506 17.1511C9.71756 17.4406 10.6031 17.5912 11.5001 17.5912C15.4446 17.5912 19.0441 14.7655 21.1946 10.0058C20.6656 8.84771 20.0561 7.80544 19.3776 6.89056C19.0901 6.50839 19.1706 5.9641 19.5501 5.67458C19.9296 5.38506 20.4701 5.46612 20.7576 5.84829C21.5856 6.96004 22.3216 8.24551 22.9311 9.66994C23.0231 9.88998 23.0231 10.1448 22.9311 10.3648C20.5161 15.993 16.2496 19.3515 11.5001 19.3515V19.3283Z" fill="#D9E821"/>
<path fill-rule="evenodd" clip-rule="evenodd" d="M8.92394 13.4569C8.70544 13.4569 8.48694 13.3758 8.31444 13.2021C7.46344 12.3451 6.99194 11.2102 6.99194 10.0058C6.99194 7.50434 9.01594 5.46613 11.4884 5.46613C12.6844 5.46613 13.8459 5.95252 14.6739 6.79791C15.0074 7.14534 15.0074 7.68963 14.6739 8.02548C14.3289 8.36132 13.7884 8.36132 13.4549 8.02548C12.9489 7.50434 12.2359 7.21482 11.4999 7.21482C9.97044 7.21482 8.72844 8.46555 8.72844 10.0174C8.72844 10.7585 9.01594 11.4534 9.53344 11.9861C9.86694 12.3219 9.86694 12.8778 9.53344 13.2137C9.36094 13.3874 9.14244 13.4684 8.92394 13.4684V13.4569Z" fill="white"/>
<path fill-rule="evenodd" clip-rule="evenodd" d="M5.3475 17.0469C5.1635 17.0469 4.9795 16.989 4.8185 16.8616C2.875 15.3214 1.2305 13.0747 0.069 10.3416C-0.023 10.1216 -0.023 9.8784 0.069 9.65837C1.242 6.92531 2.898 4.65547 4.853 3.10365C8.8435 -0.0694824 14.145 -0.0810632 18.17 3.12681C18.5495 3.42791 18.607 3.97221 18.308 4.34279C18.009 4.71338 17.4685 4.78286 17.1005 4.48176C13.685 1.76028 9.292 1.77186 5.9225 4.4586C4.2665 5.76723 2.852 7.67806 1.8055 9.99421C2.8405 12.2988 4.2435 14.198 5.888 15.4835C6.2675 15.7846 6.325 16.3289 6.0375 16.6995C5.865 16.9195 5.612 17.0353 5.359 17.0353L5.3475 17.0469Z" fill="white"/>
<path fill-rule="evenodd" clip-rule="evenodd" d="M2.42652 20C2.20802 20 1.98952 19.9189 1.81702 19.7452C1.48352 19.4094 1.48352 18.8535 1.81702 18.5176L19.964 0.254751C20.2975 -0.081092 20.8495 -0.081092 21.183 0.254751C21.5165 0.590593 21.5165 1.14647 21.183 1.48231L3.03602 19.7452C2.86352 19.9189 2.64502 20 2.42652 20Z" fill="white"/>
</g>
<defs>
<clipPath id="clip0_4638_287">
<rect width="23" height="20" fill="white"/>
</clipPath>
</defs>
</svg>
