<svg width="20" height="20" viewBox="0 0 20 20" fill="none" xmlns="http://www.w3.org/2000/svg">
<g clip-path="url(#clip0_2307_172)">
<path d="M8.25086 3.53366C8.82452 3.39938 9.41185 3.33225 10.001 3.33364C15.8348 3.33364 19.1685 10.0009 19.1685 10.0009C18.6626 10.9473 18.0592 11.8383 17.3683 12.6594M11.7678 11.7677C11.5389 12.0133 11.2629 12.2104 10.9562 12.347C10.6495 12.4837 10.3185 12.5571 9.98275 12.5631C9.64704 12.569 9.31359 12.5072 9.00227 12.3815C8.69094 12.2557 8.40814 12.0686 8.17072 11.8312C7.93331 11.5937 7.74614 11.3109 7.6204 10.9996C7.49465 10.6883 7.43289 10.3548 7.43882 10.0191C7.44474 9.68343 7.51822 9.35236 7.65487 9.04567C7.79152 8.73898 7.98855 8.46295 8.23419 8.23406M14.9514 14.9513C13.5268 16.0372 11.7921 16.6388 10.001 16.6681C4.16718 16.6681 0.833557 10.0009 0.833557 10.0009C1.87022 8.06896 3.30805 6.38107 5.05058 5.05045L14.9514 14.9513Z" stroke="#9F9EA2" stroke-width="1.66678" stroke-linecap="round" stroke-linejoin="round"/>
<path d="M0.833557 0.833374L19.1685 19.1683" stroke="#9F9EA2" stroke-width="1.66678" stroke-linecap="round" stroke-linejoin="round"/>
</g>
<defs>
<clipPath id="clip0_2307_172">
<rect width="20.0017" height="20.0017" fill="white"/>
</clipPath>
</defs>
</svg>
