<svg width="30" height="30" viewBox="0 0 30 30" fill="none" xmlns="http://www.w3.org/2000/svg">
<g clip-path="url(#clip0_3968_788)">
<path d="M30 15.0004C30 6.71544 23.2842 0.000183106 15.0002 0.000183106C6.71581 0.000122641 0 6.71532 0 15.0004C0 23.2841 6.7158 29.9999 15.0002 29.9999C23.2842 29.9998 30 23.2841 30 15.0004Z" fill="#D9E821"/>
<path d="M24.1575 14.4721L17.0718 10.1212C16.8784 10.0024 16.6238 9.9972 16.4257 10.1081C16.2241 10.2209 16.0989 10.4345 16.0989 10.6655V19.3329C16.0989 19.5636 16.2237 19.777 16.4248 19.8899C16.5201 19.9435 16.6283 19.9717 16.7377 19.9717C16.855 19.9717 16.9699 19.9395 17.0699 19.8786L24.1557 15.5619C24.3443 15.4471 24.4617 15.2385 24.462 15.0176C24.4624 14.7966 24.3457 14.5876 24.1575 14.4721Z" fill="black"/>
<path d="M14.9271 14.4721L7.84141 10.1212C7.64798 10.0024 7.39342 9.9972 7.1954 10.1081C6.99375 10.2209 6.86853 10.4345 6.86853 10.6655V19.3329C6.86853 19.5636 6.99333 19.777 7.19443 19.8899C7.28973 19.9435 7.3979 19.9717 7.50734 19.9717C7.62458 19.9717 7.73952 19.9395 7.83959 19.8786L14.9253 15.5619C15.1139 15.4471 15.2313 15.2385 15.2317 15.0176C15.2321 14.7966 15.1154 14.5876 14.9271 14.4721Z" fill="black"/>
</g>
<defs>
<clipPath id="clip0_3968_788">
<rect width="30" height="30" fill="white"/>
</clipPath>
</defs>
</svg>
