<svg width="12" height="12" viewBox="0 0 12 12" fill="none" xmlns="http://www.w3.org/2000/svg">
<path d="M10.5843 0H1.22622C0.988653 0.00018708 0.756246 0.0693263 0.557207 0.199027C0.358167 0.328727 0.201053 0.513412 0.104933 0.730667C0.00881267 0.947922 -0.0221813 1.18841 0.0157128 1.42293C0.0536069 1.65746 0.15876 1.87595 0.318409 2.05187L4.37403 6.51219V10.7188C4.37407 10.801 4.39728 10.8815 4.441 10.9512C4.48472 11.0208 4.54718 11.0767 4.62122 11.1125C4.6804 11.1417 4.74556 11.1567 4.81153 11.1562C4.91097 11.1562 5.00741 11.1222 5.08497 11.06L5.90528 10.4038L7.27247 9.31C7.32363 9.26904 7.36494 9.21711 7.39333 9.15804C7.42173 9.09898 7.43649 9.03429 7.43653 8.96875V6.51219L11.4922 2.05187C11.6518 1.87595 11.757 1.65746 11.7949 1.42293C11.8328 1.18841 11.8018 0.947922 11.7056 0.730667C11.6095 0.513412 11.4524 0.328727 11.2534 0.199027C11.0543 0.0693263 10.8219 0.00018708 10.5843 0Z" fill="#D9E821"/>
</svg>
