<svg width="16" height="16" viewBox="0 0 16 16" fill="none" xmlns="http://www.w3.org/2000/svg">
<g clip-path="url(#clip0_4576_5507)">
<path d="M2.00002 0C1.27288 0 0.666687 0.606196 0.666687 1.33333V15.3333C0.666726 15.7015 0.96518 16 1.33335 16H9.33335C9.70153 16 9.99998 15.7015 10 15.3333V12.3333C10 12.1492 10.1493 12 10.3334 12H10.6667C11.0428 12 11.3334 12.2906 11.3334 12.6667V13.3333C11.3334 14.43 12.2367 15.3333 13.3334 15.3333C14.43 15.3333 15.3334 14.43 15.3334 13.3333V4.66667C15.3334 4.03774 15.037 3.44377 14.5339 3.06641L12.3998 1.46615C12.074 1.22191 11.6577 1.34005 11.4662 1.60026C11.2478 1.89693 11.3053 2.31316 11.6003 2.53385L12.3998 3.13281C12.5679 3.25875 12.6668 3.45659 12.6667 3.66667V5.33333C12.6667 5.94825 13.0981 6.47568 13.6706 6.625C13.8483 6.67135 14 6.81591 14 7V13.3333C14 13.7094 13.7094 14 13.3334 14C12.9573 14 12.6667 13.7094 12.6667 13.3333V12.6667C12.6667 11.57 11.7634 10.6667 10.6667 10.6667H10.3334C10.1493 10.6667 10 10.5174 10 10.3333V1.33333C10 0.606196 9.39382 2e-08 8.66669 2e-08L2.00002 0ZM2.33335 1.33333H8.33335C8.51802 1.33333 8.66669 1.482 8.66669 1.66667V6.33333C8.66669 6.518 8.51802 6.66667 8.33335 6.66667H2.33335C2.14869 6.66667 2.00002 6.518 2.00002 6.33333V1.66667C2.00002 1.482 2.14869 1.33333 2.33335 1.33333Z" fill="#1A73E9"/>
</g>
<defs>
<clipPath id="clip0_4576_5507">
<rect width="16" height="16" fill="white"/>
</clipPath>
</defs>
</svg>
