<svg width="21" height="20" viewBox="0 0 21 20" fill="none" xmlns="http://www.w3.org/2000/svg">
<path d="M10.5001 10.5251C10.209 10.5207 9.92322 10.4364 9.66765 10.2795C9.41208 10.1226 9.19442 9.89786 9.03356 9.62485C8.87271 9.35183 8.77352 9.03877 8.74462 8.71284C8.71572 8.38691 8.75798 8.05797 8.86772 7.75458C8.88598 7.70631 8.91253 7.66257 8.94584 7.62586C8.97916 7.58916 9.01859 7.56022 9.06187 7.54071C9.10515 7.52119 9.15143 7.51148 9.19806 7.51213C9.24468 7.51279 9.29074 7.52379 9.33357 7.54452C9.37641 7.56524 9.41518 7.59528 9.44767 7.63291C9.48017 7.67053 9.50573 7.71501 9.52291 7.76378C9.54009 7.81255 9.54854 7.86466 9.54777 7.91711C9.54701 7.96956 9.53704 8.02133 9.51845 8.06944C9.42874 8.31206 9.4125 8.58116 9.47224 8.8352C9.53197 9.08924 9.66438 9.31409 9.849 9.47506C10.0336 9.63603 10.2602 9.72415 10.4938 9.72584C10.7273 9.72752 10.9549 9.64267 11.1414 9.48438C11.3278 9.3261 11.4628 9.10317 11.5254 8.85001C11.588 8.59685 11.5748 8.32754 11.4879 8.08365C11.401 7.83975 11.2451 7.63483 11.0443 7.50051C10.8436 7.36619 10.6091 7.30994 10.3771 7.34045C10.3308 7.3466 10.284 7.34242 10.2392 7.32816C10.1943 7.3139 10.1525 7.28983 10.1159 7.25734C10.0794 7.22485 10.0489 7.18457 10.0262 7.13881C10.0035 7.09304 9.98909 7.0427 9.98373 6.99065C9.97836 6.9386 9.98217 6.88587 9.99494 6.83548C10.0077 6.78509 10.0292 6.73803 10.0581 6.69699C10.0871 6.65595 10.123 6.62173 10.1637 6.5963C10.2044 6.57088 10.2492 6.55474 10.2955 6.5488C10.5353 6.51748 10.7783 6.5416 11.0096 6.61969C11.2409 6.69777 11.4555 6.82818 11.6404 7.00292C11.8253 7.17766 11.9765 7.39304 12.0848 7.63586C12.1931 7.87867 12.2561 8.14382 12.2701 8.41502C12.284 8.68622 12.2486 8.95778 12.166 9.21303C12.0833 9.46829 11.9552 9.70186 11.7895 9.89944C11.6238 10.097 11.4239 10.2544 11.2022 10.362C10.9805 10.4696 10.7416 10.5251 10.5001 10.5251ZM10.817 14.8383L11.6756 12.8806C12.5894 12.5675 13.3752 11.9004 13.8936 10.9977C14.4119 10.095 14.6295 9.01493 14.5076 7.94899C14.3761 6.80348 13.8619 5.75724 13.0695 5.02284C12.2771 4.28845 11.2659 3.92097 10.2413 3.99508C9.21679 4.06918 8.25575 4.57931 7.55346 5.42182C6.85116 6.26433 6.46029 7.37602 6.46026 8.53105C6.45372 9.50161 6.72754 10.4483 7.24052 11.2287C7.7535 12.009 8.47788 12.5809 9.30466 12.8581L10.1832 14.8384C10.2126 14.9046 10.2578 14.9603 10.3138 14.9993C10.3698 15.0382 10.4343 15.0588 10.5001 15.0588C10.5659 15.0588 10.6304 15.0382 10.6864 14.9993C10.7424 14.9603 10.7876 14.9046 10.817 14.8383ZM10.8806 4.80692C11.6189 4.90429 12.3073 5.27581 12.8369 5.86271C13.3664 6.44961 13.707 7.2184 13.8046 8.04746C13.9055 8.92698 13.7264 9.81829 13.2989 10.5634C12.8715 11.3085 12.2234 11.8593 11.4694 12.1182C11.3819 12.1478 11.3005 12.1972 11.2304 12.2632C11.1603 12.3293 11.1029 12.4107 11.0616 12.5025L10.5001 13.7678L9.9386 12.5021C9.8973 12.4104 9.83988 12.3292 9.76983 12.2632C9.69978 12.1972 9.61855 12.148 9.53107 12.1184C8.76718 11.857 8.1121 11.2958 7.68506 10.5368C7.25802 9.77783 7.08741 8.87157 7.20429 7.98298C7.32117 7.0944 7.71777 6.28257 8.32189 5.69527C8.92601 5.10796 9.6975 4.78422 10.4959 4.78298C10.6245 4.78296 10.7529 4.79096 10.8806 4.80692ZM21 14.7311C21 12.7031 18.8866 10.9533 15.3465 10.0501C15.3011 10.0385 15.2541 10.0371 15.2083 10.0459C15.1624 10.0547 15.1185 10.0736 15.0791 10.1015C15.0397 10.1294 15.0056 10.1658 14.9788 10.2086C14.9519 10.2513 14.9328 10.2996 14.9225 10.3507C14.9122 10.4018 14.911 10.4546 14.9189 10.5062C14.9268 10.5578 14.9436 10.6072 14.9685 10.6514C14.9933 10.6957 15.0257 10.734 15.0637 10.7642C15.1018 10.7944 15.1447 10.8159 15.1901 10.8274C18.2891 11.6182 20.2915 13.1505 20.2915 14.7311C20.2915 17.1551 15.8076 19.2029 10.5001 19.2029C5.19253 19.2029 0.708505 17.1551 0.708505 14.7311C0.708505 13.1447 2.71641 11.6108 5.82389 10.8237C5.86927 10.8122 5.9122 10.7907 5.95022 10.7606C5.98824 10.7304 6.0206 10.6921 6.04547 10.6479C6.07033 10.6036 6.08721 10.5543 6.09513 10.5027C6.10306 10.4512 6.10187 10.3983 6.09165 10.3473C6.08143 10.2962 6.06237 10.2479 6.03556 10.2051C6.00874 10.1624 5.97471 10.126 5.93539 10.098C5.89607 10.07 5.85223 10.051 5.80639 10.0421C5.76055 10.0332 5.7136 10.0345 5.66821 10.046C2.17187 10.9317 0 12.7269 0 14.7311C0 17.6856 4.6122 20 10.5001 20C16.3878 20 21 17.6856 21 14.7311ZM15.5644 6.86699C15.6742 6.4797 15.7036 6.06925 15.6502 5.6672C15.5969 5.26515 15.4623 4.88223 15.2567 4.54791C15.0512 4.21359 14.7802 3.93677 14.4646 3.73876C14.1491 3.54076 13.7973 3.42684 13.4365 3.40577C13.343 3.40168 13.2518 3.43875 13.1823 3.50909C13.1127 3.57944 13.0702 3.67753 13.0639 3.78252C13.0615 3.83481 13.0682 3.88713 13.0837 3.93649C13.0992 3.98586 13.1232 4.0313 13.1544 4.07022C13.1855 4.10915 13.2231 4.14079 13.2651 4.16335C13.3071 4.18591 13.3527 4.19894 13.3991 4.2017C13.6518 4.21632 13.8981 4.29599 14.1191 4.43457C14.3401 4.57315 14.5299 4.76695 14.6739 5.00104C14.8178 5.23513 14.9121 5.50327 14.9494 5.7848C14.9867 6.06633 14.9661 6.35374 14.8891 6.6249C14.8606 6.72565 14.8688 6.83502 14.912 6.92896C14.9551 7.0229 15.0297 7.09371 15.1192 7.12581C15.2088 7.15791 15.306 7.14868 15.3895 7.10014C15.473 7.0516 15.5359 6.96774 15.5644 6.86699ZM17.0441 7.18127C17.1875 6.57833 17.2137 5.9477 17.1208 5.33235C17.028 4.717 16.8183 4.1314 16.5061 3.61547C16.1939 3.09954 15.7864 2.66541 15.3116 2.34266C14.8367 2.01991 14.3056 1.81613 13.7544 1.74522C13.6612 1.73341 13.5676 1.76369 13.4942 1.82941C13.4208 1.89513 13.3735 1.99094 13.3628 2.09581C13.3521 2.20068 13.3788 2.30605 13.437 2.38881C13.4952 2.47156 13.5803 2.52495 13.6735 2.53726C14.1236 2.59501 14.5573 2.7613 14.9451 3.02478C15.3329 3.28825 15.6657 3.64272 15.9206 4.06401C16.1756 4.4853 16.3468 4.96349 16.4226 5.46598C16.4984 5.96847 16.477 6.48344 16.3598 6.97577C16.3477 7.02637 16.3445 7.07916 16.3506 7.13111C16.3566 7.18307 16.3717 7.23318 16.395 7.27857C16.4183 7.32395 16.4493 7.36373 16.4862 7.39561C16.5232 7.4275 16.5654 7.45087 16.6104 7.46438C16.6554 7.4779 16.7023 7.48129 16.7485 7.47437C16.7946 7.46745 16.8391 7.45035 16.8794 7.42405C16.9197 7.39775 16.955 7.36277 16.9832 7.32111C17.0115 7.27945 17.0322 7.23193 17.0441 7.18127ZM18.5929 7.52261C18.7748 6.6921 18.7998 5.8279 18.6663 4.98584C18.5328 4.14378 18.2438 3.34259 17.818 2.63401C17.3921 1.92544 16.8389 1.32525 16.194 0.872216C15.5491 0.419179 14.8269 0.123373 14.0741 0.0039053C14.028 -0.00340371 13.9811 -0.000433141 13.9361 0.0126475C13.891 0.0257282 13.8487 0.0486628 13.8116 0.0801418C13.7744 0.111621 13.7431 0.151028 13.7195 0.196112C13.6958 0.241197 13.6803 0.291077 13.6738 0.342904C13.6673 0.394731 13.67 0.44749 13.6816 0.498169C13.6932 0.548848 13.7136 0.596454 13.7416 0.63827C13.7696 0.680085 13.8046 0.715291 13.8447 0.741877C13.8847 0.768463 13.9291 0.785908 13.9752 0.793217C14.6299 0.89706 15.258 1.15427 15.8188 1.54824C16.3797 1.94221 16.8608 2.46416 17.2312 3.08039C17.6016 3.69661 17.8529 4.39339 17.969 5.12572C18.0851 5.85804 18.0633 6.60962 17.9051 7.33189C17.8827 7.43452 17.8973 7.54299 17.9459 7.63346C17.9945 7.72392 18.073 7.78898 18.1643 7.81432C18.1921 7.82195 18.2207 7.8258 18.2494 7.8258C18.3285 7.82568 18.4053 7.79576 18.4676 7.74082C18.5298 7.68587 18.5739 7.60904 18.5929 7.52261Z" fill="black"/>
</svg>
