<svg width="28" height="22" viewBox="0 0 28 22" fill="none" xmlns="http://www.w3.org/2000/svg">
<path d="M14 0.9375C9.89898 0.9375 6.5625 4.27398 6.5625 8.375C6.5625 12.3541 13.3744 20.5583 13.6642 20.9055C13.7053 20.9547 13.7566 20.9943 13.8147 21.0214C13.8727 21.0485 13.9359 21.0626 14 21.0626C14.0641 21.0626 14.1273 21.0485 14.1853 21.0214C14.2434 20.9943 14.2947 20.9547 14.3358 20.9055C14.6256 20.5583 21.4375 12.3541 21.4375 8.375C21.4375 4.27398 18.101 0.9375 14 0.9375ZM14 19.9327C13.4094 19.1998 12.127 17.5691 10.8582 15.6982C8.62039 12.3989 7.4375 9.86687 7.4375 8.375C7.4375 6.63452 8.1289 4.96532 9.35961 3.73461C10.5903 2.5039 12.2595 1.8125 14 1.8125C15.7405 1.8125 17.4097 2.5039 18.6404 3.73461C19.8711 4.96532 20.5625 6.63452 20.5625 8.375C20.5625 9.86687 19.3796 12.3989 17.1418 15.6982C15.873 17.5691 14.5906 19.1998 14 19.9327Z" fill="white"/>
<path d="M14 3.125C13.0482 3.125 12.1177 3.40725 11.3263 3.93605C10.5349 4.46486 9.91808 5.21647 9.55383 6.09584C9.18959 6.97521 9.09428 7.94284 9.27997 8.87637C9.46566 9.80991 9.92401 10.6674 10.5971 11.3405C11.2701 12.0135 12.1276 12.4718 13.0611 12.6575C13.9947 12.8432 14.9623 12.7479 15.8417 12.3837C16.721 12.0194 17.4726 11.4026 18.0014 10.6112C18.5303 9.81977 18.8125 8.88932 18.8125 7.9375C18.8111 6.66159 18.3036 5.43835 17.4014 4.53615C16.4991 3.63394 15.2759 3.12645 14 3.125ZM14 11.875C13.2212 11.875 12.46 11.6441 11.8124 11.2114C11.1649 10.7788 10.6602 10.1638 10.3622 9.44432C10.0642 8.72483 9.98623 7.93313 10.1382 7.16933C10.2901 6.40553 10.6651 5.70394 11.2158 5.15327C11.7664 4.6026 12.468 4.22759 13.2318 4.07566C13.9956 3.92373 14.7873 4.0017 15.5068 4.29972C16.2263 4.59774 16.8413 5.10242 17.2739 5.74994C17.7066 6.39746 17.9375 7.15874 17.9375 7.9375C17.9363 8.98143 17.5211 9.98227 16.7829 10.7204C16.0448 11.4586 15.0439 11.8738 14 11.875Z" fill="white"/>
<path d="M5.50364 2.52707C5.45392 2.49829 5.39901 2.47957 5.34205 2.47201C5.28509 2.46444 5.22721 2.46817 5.17169 2.48298C5.11617 2.49779 5.06412 2.52339 5.0185 2.55831C4.97287 2.59324 4.93458 2.63681 4.9058 2.68654C3.98482 4.2833 3.5 6.0942 3.5 7.93752C3.5 9.78085 3.98482 11.5918 4.9058 13.1885C4.96394 13.2889 5.0596 13.3621 5.17173 13.392C5.28386 13.4219 5.40327 13.4061 5.5037 13.3479C5.60412 13.2898 5.67734 13.1941 5.70723 13.082C5.73713 12.9699 5.72126 12.8505 5.66311 12.75C4.81926 11.2865 4.37507 9.62687 4.37507 7.93752C4.37507 6.24818 4.81926 4.58852 5.66311 3.12502C5.69191 3.07529 5.71064 3.02038 5.71821 2.96341C5.72579 2.90644 5.72206 2.84854 5.70725 2.79301C5.69244 2.73748 5.66684 2.68542 5.6319 2.63979C5.59697 2.59415 5.55338 2.55585 5.50364 2.52707Z" fill="white"/>
<path d="M22.4963 2.52704C22.4466 2.55582 22.403 2.59412 22.3681 2.63975C22.3331 2.68538 22.3075 2.73745 22.2927 2.79298C22.2779 2.84851 22.2742 2.90641 22.2818 2.96338C22.2893 3.02034 22.3081 3.07526 22.3369 3.12499C23.1807 4.58849 23.6249 6.24814 23.6249 7.93749C23.6249 9.62684 23.1807 11.2865 22.3369 12.75C22.2787 12.8504 22.2629 12.9698 22.2928 13.0819C22.3227 13.1941 22.3959 13.2897 22.4963 13.3478C22.5968 13.406 22.7162 13.4218 22.8283 13.3919C22.9404 13.362 23.0361 13.2888 23.0942 13.1884C24.0152 11.5916 24.5 9.78071 24.5 7.93738C24.5 6.09406 24.0152 4.28316 23.0942 2.6864C23.0654 2.63668 23.0271 2.59312 22.9815 2.5582C22.9358 2.52329 22.8838 2.4977 22.8283 2.4829C22.7728 2.4681 22.7149 2.46438 22.6579 2.47196C22.601 2.47953 22.5461 2.49825 22.4963 2.52704Z" fill="white"/>
<path d="M2.8501 0.995185C2.74966 0.937096 2.63027 0.92128 2.51817 0.951216C2.40608 0.981153 2.31046 1.05439 2.25236 1.15482C1.06337 3.21755 0.4375 5.55659 0.4375 7.93746C0.4375 10.3183 1.06337 12.6574 2.25236 14.7201C2.31112 14.8192 2.4066 14.8912 2.51808 14.9203C2.62956 14.9494 2.74803 14.9334 2.84777 14.8757C2.94751 14.818 3.02047 14.7233 3.05079 14.6122C3.08111 14.501 3.06636 14.3824 3.00973 14.282C1.89779 12.3524 1.3125 10.1645 1.3125 7.93749C1.3125 5.71046 1.89779 3.52255 3.00973 1.59297C3.0385 1.54324 3.05719 1.48833 3.06474 1.43137C3.07229 1.37441 3.06855 1.31653 3.05372 1.26102C3.0389 1.20551 3.01329 1.15346 2.97835 1.10785C2.94341 1.06224 2.89983 1.02395 2.8501 0.995185Z" fill="white"/>
<path d="M25.7477 1.15484C25.7191 1.10468 25.6809 1.06066 25.6353 1.02532C25.5897 0.989979 25.5375 0.964017 25.4818 0.948929C25.4261 0.933842 25.3679 0.929925 25.3107 0.937407C25.2535 0.944889 25.1983 0.963621 25.1483 0.992523C25.0984 1.02142 25.0546 1.05993 25.0196 1.10581C24.9846 1.15169 24.959 1.20405 24.9443 1.25986C24.9296 1.31568 24.9261 1.37385 24.934 1.43103C24.9419 1.4882 24.961 1.54325 24.9903 1.593C26.1022 3.52257 26.6875 5.71049 26.6875 7.93751C26.6875 10.1645 26.1022 12.3525 24.9903 14.282C24.9608 14.3318 24.9415 14.3869 24.9334 14.4442C24.9253 14.5015 24.9287 14.5598 24.9434 14.6157C24.958 14.6717 24.9836 14.7242 25.0186 14.7702C25.0537 14.8163 25.0975 14.8549 25.1476 14.8838C25.1976 14.9128 25.253 14.9315 25.3103 14.939C25.3677 14.9464 25.426 14.9424 25.4818 14.9272C25.5376 14.912 25.5898 14.8858 25.6355 14.8503C25.6811 14.8147 25.7192 14.7705 25.7477 14.7201C26.9366 12.6574 27.5625 10.3184 27.5625 7.93749C27.5625 5.55661 26.9366 3.21757 25.7477 1.15484Z" fill="white"/>
</svg>
