<svg width="20" height="20" viewBox="0 0 20 20" fill="none" xmlns="http://www.w3.org/2000/svg">
<g clip-path="url(#clip0_4574_4672)">
<path d="M17.6003 2.39944C16.0529 0.852185 13.9918 0 11.798 0V1.49157C13.5936 1.49157 15.2802 2.18863 16.5457 3.45398C17.8111 4.71934 18.5083 6.40531 18.5083 8.20116H20C20 6.00706 19.1477 3.9467 17.6003 2.39944Z" fill="black"/>
<path d="M15.49 4.50952C14.506 3.52458 13.1948 2.98215 11.798 2.98215V4.47372C12.796 4.47372 13.7323 4.86103 14.4354 5.56406C15.1385 6.26709 15.5258 7.2028 15.5258 8.20116H17.0176C17.0176 6.80455 16.4746 5.49346 15.49 4.50952Z" fill="black"/>
<path d="M9.68773 11.3658L10.8493 10.2043C11.1511 10.3465 11.4698 10.438 11.7975 10.438C12.3708 10.438 12.9437 10.2202 13.3797 9.78371C14.2524 8.91114 14.2524 7.49216 13.3797 6.61959C12.5071 5.74702 11.088 5.74702 10.2153 6.61959C9.52961 7.30522 9.40281 8.31949 9.79464 9.1498L8.63308 10.3112L2.29476 3.97354L1.7836 4.69148C-0.737908 8.228 -0.558404 13.0637 2.14857 16.4103V16.4113C5.3687 20.3694 11.1521 21.1773 15.308 18.2146L16.0265 17.7025L9.68872 11.3653L9.68773 11.3658Z" fill="black"/>
</g>
<defs>
<clipPath id="clip0_4574_4672">
<rect width="20" height="20" fill="white"/>
</clipPath>
</defs>
</svg>
