<svg width="30" height="30" viewBox="0 0 30 30" fill="none" xmlns="http://www.w3.org/2000/svg">
<g clip-path="url(#clip0_3968_782)">
<path d="M25.5392 4.47188C22.7308 1.66406 18.9972 0.117188 15.0257 0.117188C11.0542 0.117188 7.32007 1.66406 4.51167 4.47188C1.70386 7.28027 0.156982 11.0145 0.156982 14.9859C0.156982 18.9574 1.70386 22.6916 4.51167 25.4994C7.32007 28.3078 11.0537 29.8541 15.0251 29.8541C18.9966 29.8541 22.7308 28.3072 25.5386 25.4994C28.347 22.691 29.8933 18.9574 29.8933 14.9859C29.8933 11.0145 28.3464 7.28086 25.5386 4.47246L25.5392 4.47188ZM21.8753 16.1168L12.6011 21.6721C12.3925 21.7969 12.1582 21.8596 11.9238 21.8596C11.6894 21.8596 11.4755 21.8027 11.274 21.6885C10.8609 21.4541 10.6054 21.0164 10.6054 20.5412V9.43066C10.6054 8.95605 10.8609 8.51777 11.274 8.2834C11.6871 8.04902 12.1939 8.05547 12.6011 8.29922L21.8753 13.8545C22.2732 14.0924 22.5164 14.5219 22.5164 14.9854C22.5164 15.4488 22.2732 15.8783 21.8753 16.1162V16.1168Z" fill="#D9E821"/>
</g>
<defs>
<clipPath id="clip0_3968_782">
<rect width="30" height="30" fill="white"/>
</clipPath>
</defs>
</svg>
