<svg width="30" height="30" viewBox="0 0 30 30" fill="none" xmlns="http://www.w3.org/2000/svg">
<path d="M15 0C6.71602 0 0 6.71602 0 15C0 23.284 6.71602 30 15 30C23.284 30 30 23.284 30 15C30 6.71602 23.284 0 15 0ZM14.2324 20.0449C14.2324 20.724 13.6816 21.2754 13.002 21.2754H11.1387C10.459 21.2754 9.9082 20.724 9.9082 20.0449V9.95508C9.9082 9.27598 10.459 8.72461 11.1387 8.72461H13.002C13.6816 8.72461 14.2324 9.27598 14.2324 9.95508V20.0449ZM20.0918 20.0449C20.0918 20.724 19.541 21.2754 18.8613 21.2754H16.998C16.3184 21.2754 15.7676 20.724 15.7676 20.0449V9.95508C15.7676 9.27598 16.3184 8.72461 16.998 8.72461H18.8613C19.541 8.72461 20.0918 9.27598 20.0918 9.95508V20.0449Z" fill="#D9E821"/>
</svg>
