<svg width="30" height="30" viewBox="0 0 30 30" fill="none" xmlns="http://www.w3.org/2000/svg">
<g clip-path="url(#clip0_4638_282)">
<path d="M2.87307 6.15177L2.20532 7.14813L27.1255 23.8501L27.7932 22.8537L2.87307 6.15177Z" fill="#D9E821"/>
<path d="M15 0C6.71589 0 0 6.71606 0 15.0004C0 23.2847 6.71589 30 15 30C23.2841 30 30 23.2847 30 15.0004C30 6.71606 23.2841 0 15 0ZM14.9993 28.7878C7.38531 28.7878 1.21214 22.6153 1.21214 15.0011C1.21214 7.38699 7.38531 1.21367 14.9993 1.21367C22.6132 1.21367 28.7864 7.38624 28.7864 15.0011C28.7864 22.616 22.6132 28.7878 14.9993 28.7878Z" fill="#D9E821"/>
<path fill-rule="evenodd" clip-rule="evenodd" d="M14.9999 6.2168C19.8507 6.2168 23.7833 10.1494 23.7833 15.0004C23.7833 19.8513 19.8507 23.784 14.9999 23.784C10.1491 23.784 6.21655 19.8513 6.21655 15.0004C6.21655 10.1494 10.1491 6.2168 14.9999 6.2168ZM11.787 11.4208C11.5854 11.4208 11.4212 11.585 11.4212 11.7867V18.2133C11.4212 18.415 11.5854 18.5792 11.787 18.5792H18.2136C18.4152 18.5792 18.5794 18.415 18.5794 18.2133V11.7867C18.5794 11.585 18.4152 11.4208 18.2136 11.4208H11.787Z" fill="#D9E821"/>
</g>
<defs>
<clipPath id="clip0_4638_282">
<rect width="30" height="30" fill="white"/>
</clipPath>
</defs>
</svg>
