<svg width="30" height="30" viewBox="0 0 30 30" fill="none" xmlns="http://www.w3.org/2000/svg">
<g clip-path="url(#clip0_4638_271)">
<path d="M27.7939 22.8529L27.7856 22.8469C29.1897 20.5642 30 17.8768 30 15.0004C30 6.71606 23.2841 0 15 0C10.0225 0 5.61244 2.4251 2.88381 6.15757L2.87406 6.15083L2.61844 6.5324C2.56522 6.61036 2.51199 6.68907 2.46027 6.76853L2.20615 7.14785L2.21514 7.15385C0.810345 9.43652 0 12.1232 0 15.0004C0 23.2847 6.71589 30 15 30C19.9775 30 24.3883 27.5749 27.1169 23.8424L27.1267 23.8492L27.3711 23.4841C27.4355 23.3904 27.4985 23.2959 27.5615 23.2007L27.7946 22.8529H27.7939ZM14.9993 1.21367C22.6132 1.21367 28.7864 7.38624 28.7864 15.0011C28.7864 17.6271 28.0517 20.0822 26.7774 22.1707L18.8636 16.867L21.3561 7.52118C21.4528 6.97019 21.0795 6.62685 20.53 6.77303C17.8456 8.70936 15.1574 10.6419 12.4775 12.5873L3.89205 6.83375C6.4018 3.42512 10.4423 1.21367 14.9993 1.21367ZM8.77961 16.7995L12.5262 14.0641L17.3403 17.2905L16.2001 21.7472L16.0322 21.6512L14.06 17.0289C14.0195 16.9629 13.8096 16.7995 13.7646 16.7995H8.77961ZM13.5577 13.3114L19.461 9.00172L17.6559 16.0581L13.5577 13.3114ZM14.9993 28.7878C7.38531 28.7878 1.21214 22.6153 1.21214 15.0011C1.21214 12.3736 1.94753 9.91854 3.22264 7.82853L11.4438 13.3384C10.1109 14.3085 8.78036 15.2815 7.45427 16.2613C7.22639 16.4292 6.3988 16.915 6.33883 17.0949C6.2084 17.4869 6.32609 17.8588 6.71964 17.9974L13.1904 17.936L15.8486 24.125C16.3253 24.5066 16.9085 24.251 17.0465 23.6798L18.5367 18.0919L26.1087 23.1662C23.599 26.5749 19.5577 28.7878 15 28.7878H14.9993Z" fill="#D9E821"/>
</g>
<defs>
<clipPath id="clip0_4638_271">
<rect width="30" height="30" fill="white"/>
</clipPath>
</defs>
</svg>
