<svg width="18" height="17" viewBox="0 0 18 17" fill="none" xmlns="http://www.w3.org/2000/svg">
<path fill-rule="evenodd" clip-rule="evenodd" d="M3.59704 3.28606H0.754207H0.182927C0.0821707 3.28606 0 3.36907 0 3.47085V4.15159C0 4.25336 0.0821341 4.33637 0.182927 4.33637H0.754207V15.7749H0.182927C0.0821707 15.7749 0 15.8579 0 15.9596V16.8152C0 16.917 0.0821707 17 0.182927 17H0.754207H17.2458H17.8171C17.9178 17 18 16.917 18 16.8152V15.9596C18 15.8578 17.9178 15.7748 17.8171 15.7748H17.2458V5.07546H14.403V15.7749H13.6713V1.7894H4.32874V15.7749H3.59704V4.33633V3.28606ZM9.55833 10.6625H11.4167C11.5175 10.6625 11.5996 10.7456 11.5996 10.8473V15.7749H9.55836V10.6625H9.55833ZM8.82658 15.7749H6.7853V10.8473C6.7853 10.7456 6.86748 10.6625 6.96823 10.6625H8.82658V15.7749ZM3.93713 0H14.0629C14.1637 0 14.2458 0.0830043 14.2458 0.184783V0.865522C14.2458 0.9673 14.1637 1.0503 14.0629 1.0503H3.93713C3.83638 1.0503 3.75421 0.9673 3.75421 0.865522V0.184783C3.75421 0.0830043 3.83638 0 3.93713 0ZM9.73028 2.90105C9.831 2.90105 9.91321 2.98405 9.91321 3.08583V4.2884H11.1037C11.2045 4.2884 11.2866 4.3714 11.2866 4.47318V5.94852C11.2866 6.0503 11.2045 6.1333 11.1037 6.1333H9.91321V7.33587C9.91321 7.43765 9.83104 7.52065 9.73028 7.52065H8.26976C8.169 7.52065 8.08683 7.43765 8.08683 7.33587V6.1333H6.89634C6.79559 6.1333 6.71341 6.0503 6.71341 5.94852V4.47318C6.71341 4.3714 6.79559 4.2884 6.89634 4.2884H8.08683V3.08583C8.08683 2.98409 8.169 2.90105 8.26976 2.90105H9.73028ZM14.403 4.33633V3.28606H17.8171C17.9178 3.28606 18 3.36907 18 3.47085V4.15159C18 4.25336 17.9178 4.33637 17.8171 4.33637H14.403V4.33633Z" fill="#1A73E9"/>
</svg>
