<svg width="14" height="16" viewBox="0 0 14 16" fill="none" xmlns="http://www.w3.org/2000/svg">
<path d="M7 16C3.58856 16 0.813156 13.219 0.813156 9.80059C0.813156 8.37753 1.30544 6.99013 2.20012 5.88881C2.20603 5.87925 2.21253 5.86994 2.21956 5.86094L6.67328 0.169125C6.75741 0.0615938 6.88387 0 7.02034 0C7.02069 0 7.021 0 7.02134 0C7.15822 0.0003125 7.28484 0.0625312 7.36866 0.170719L9.25631 2.60656C9.36203 2.743 9.33716 2.93928 9.20072 3.045C9.06428 3.15069 8.86803 3.12581 8.76231 2.98941L7.01962 0.740656L2.73837 6.21212C2.73012 6.22612 2.72075 6.23956 2.71022 6.25234C1.88991 7.24738 1.43816 8.50753 1.43816 9.80059C1.43816 12.8743 3.93319 15.375 7 15.375C10.0668 15.375 12.5618 12.8743 12.5618 9.80059C12.5618 8.52128 12.1184 7.27144 11.3132 6.28137C11.3086 6.27581 11.3043 6.27012 11.3003 6.26431L10.2943 4.96622C10.1886 4.82981 10.2135 4.6335 10.3499 4.52778C10.4862 4.42206 10.6826 4.44694 10.7883 4.58337L11.803 5.89275C11.8044 5.89459 11.8058 5.89641 11.8072 5.89825C12.697 6.99763 13.1868 8.38288 13.1868 9.80056C13.1868 13.219 10.4114 16 7 16Z" fill="black"/>
<path d="M5.40594 12.3125C5.3531 12.3125 5.29953 12.2991 5.25041 12.2709C5.10081 12.1848 5.04928 11.9938 5.13535 11.8442L8.19785 6.52021C8.28388 6.37058 8.47491 6.31908 8.62453 6.40514C8.77413 6.49121 8.82566 6.68224 8.7396 6.83186L5.6771 12.1558C5.61931 12.2563 5.51413 12.3125 5.40594 12.3125Z" fill="black"/>
<path d="M8.89244 12.3125C8.22944 12.3125 7.69003 11.7731 7.69003 11.11C7.69003 10.447 8.22944 9.90759 8.89244 9.90759C9.55547 9.90759 10.0949 10.447 10.0949 11.11C10.0949 11.7731 9.55544 12.3125 8.89244 12.3125ZM8.89244 10.5326C8.57406 10.5326 8.31503 10.7917 8.31503 11.1101C8.31503 11.4285 8.57403 11.6875 8.89244 11.6875C9.21085 11.6875 9.46988 11.4284 9.46988 11.11C9.46988 10.7916 9.21081 10.5326 8.89244 10.5326Z" fill="black"/>
<path d="M5.10756 8.5296C4.44453 8.5296 3.90512 7.99019 3.90512 7.32719C3.90512 6.66416 4.44453 6.12476 5.10756 6.12476C5.77056 6.12476 6.30996 6.66416 6.30996 7.32719C6.30996 7.99022 5.77056 8.5296 5.10756 8.5296ZM5.10756 6.74979C4.78918 6.74979 4.53012 7.00882 4.53012 7.32722C4.53012 7.64563 4.78915 7.90463 5.10756 7.90463C5.42596 7.90463 5.68496 7.6456 5.68496 7.32722C5.68496 7.00885 5.42596 6.74979 5.10756 6.74979Z" fill="black"/>
<path d="M9.7825 4.09375C9.69997 4.09375 9.61934 4.06031 9.56125 4.00219C9.50313 3.94406 9.47 3.86344 9.47 3.78125C9.47 3.69906 9.50313 3.61844 9.56125 3.56031C9.61934 3.50219 9.69997 3.46875 9.7825 3.46875C9.86469 3.46875 9.945 3.50219 10.0034 3.56031C10.0615 3.61844 10.095 3.69906 10.095 3.78125C10.095 3.86344 10.0616 3.94406 10.0034 4.00219C9.945 4.06031 9.86469 4.09375 9.7825 4.09375Z" fill="black"/>
</svg>
