<svg width="18" height="12" viewBox="0 0 18 12" fill="none" xmlns="http://www.w3.org/2000/svg">
<path d="M0.28771 1.57268L0.877325 0.978964C1.06289 0.793548 1.30977 0.691401 1.57362 0.691401C1.83733 0.691401 2.08451 0.793548 2.27007 0.978964L8.99598 7.70516L15.7296 0.971499C15.9149 0.786083 16.1621 0.684082 16.4258 0.684082C16.6895 0.684082 16.9368 0.786083 17.1222 0.971499L17.712 1.56155C18.096 1.94526 18.096 2.57029 17.712 2.954L9.69476 11.0001C9.50949 11.1853 9.26261 11.3159 8.99656 11.3159L8.99349 11.3159C8.72963 11.3159 8.48275 11.1852 8.29748 11.0001L0.28771 2.97581C0.102148 2.79054 0.000293894 2.5362 1.38863e-07 2.27249C1.15796e-07 2.00863 0.102148 1.7578 0.28771 1.57268Z" fill="#D9E821"/>
</svg>
