<svg width="18" height="12" viewBox="0 0 18 12" fill="none" xmlns="http://www.w3.org/2000/svg">
<path d="M17.7123 10.4273L17.1227 11.021C16.9371 11.2064 16.6902 11.3086 16.4264 11.3086C16.1627 11.3086 15.9155 11.2064 15.7299 11.021L9.00402 4.29481L2.27036 11.0285C2.08509 11.2139 1.83792 11.3159 1.57421 11.3159C1.3105 11.3159 1.06318 11.2139 0.877763 11.0285L0.288002 10.4384C-0.0960008 10.0547 -0.0960008 9.42968 0.288002 9.04597L8.30524 0.999909C8.49051 0.81464 8.73739 0.684101 9.00344 0.684101H9.00651C9.27037 0.684101 9.51725 0.814786 9.70252 0.999909L17.7123 9.02417C17.8979 9.20944 17.9997 9.46378 18 9.72749C18 9.99135 17.8979 10.2422 17.7123 10.4273Z" fill="#D9E821"/>
</svg>
