<svg width="53" height="19" viewBox="0 0 53 19" fill="none" xmlns="http://www.w3.org/2000/svg">
<g clip-path="url(#clip0_4311_1975)">
<path d="M53 19H0C4.01447 19 7.57609 16.4204 8.93057 12.5739C11.5171 5.24224 18.4078 0 26.498 0C34.5881 0 41.4788 5.24224 44.0694 12.5739C45.4239 16.4204 48.9855 19 53 19Z" fill="white"/>
<g clip-path="url(#clip1_4311_1975)">
<path d="M19.2398 10.9856L25.9211 17.6668C26.0755 17.8212 26.2814 17.906 26.5056 17.906C26.7254 17.906 26.9314 17.8212 27.0855 17.6668L33.7606 10.992C33.915 10.8375 34 10.6315 34 10.4117C34 10.192 33.9151 9.98587 33.7606 9.83148L33.269 9.3399C33.1146 9.18551 32.9085 9.10026 32.6888 9.10026C32.469 9.10026 32.2631 9.18551 32.1085 9.3399L26.5033 14.9451L20.8919 9.33344C20.7375 9.17917 20.5315 9.09405 20.3116 9.09405C20.0919 9.09405 19.886 9.17917 19.7315 9.33344L19.2398 9.82526C18.9201 10.1451 18.9201 10.6657 19.2398 10.9856Z" fill="#1A73E9"/>
</g>
</g>
<defs>
<clipPath id="clip0_4311_1975">
<rect width="53" height="19" fill="white"/>
</clipPath>
<clipPath id="clip1_4311_1975">
<rect width="15" height="15" fill="white" transform="translate(34 21) rotate(180)"/>
</clipPath>
</defs>
</svg>
