<svg width="25" height="28" viewBox="0 0 25 28" fill="none" xmlns="http://www.w3.org/2000/svg">
<path d="M9.87427 14C9.87427 15.332 10.9579 16.4156 12.2899 16.4156C13.6218 16.4156 14.7055 15.332 14.7055 14C14.7055 12.668 13.6218 11.5844 12.2898 11.5844C10.9578 11.5844 9.87427 12.668 9.87427 14ZM12.2898 12.4045C13.1696 12.4045 13.8854 13.1202 13.8854 14C13.8854 14.8798 13.1696 15.5956 12.2898 15.5956C11.41 15.5956 10.6943 14.8798 10.6943 14C10.6943 13.1203 11.41 12.4045 12.2898 12.4045Z" fill="#949495"/>
<path d="M23.9637 19.3189L22.894 18.7013L23.3803 18.589C23.7006 18.515 23.9729 18.3208 24.1471 18.042C24.3213 17.7632 24.3764 17.4333 24.3025 17.113C24.2286 16.7927 24.0343 16.5204 23.7555 16.3462C23.4767 16.172 23.1467 16.1168 22.8265 16.1908L19.7686 16.8968L16.709 15.1303C16.8035 14.7612 16.8513 14.3822 16.8513 14C16.8513 13.6177 16.8035 13.2388 16.709 12.8696L19.7686 11.1032L22.8265 11.8092C23.1466 11.8832 23.4767 11.8281 23.7555 11.6538C24.0343 11.4796 24.2286 11.2073 24.3025 10.887C24.3765 10.5667 24.3213 10.2368 24.1471 9.95796C23.973 9.67917 23.7006 9.48492 23.3803 9.41098L22.894 9.29871L23.9637 8.68117C24.2484 8.51684 24.452 8.25144 24.5371 7.93387C24.6222 7.6163 24.5786 7.28467 24.4142 6.99997C24.0749 6.41224 23.3208 6.21017 22.733 6.54951L21.6633 7.16704L21.8092 6.68973C21.9053 6.37533 21.8732 6.04239 21.7189 5.75211C21.5645 5.46183 21.3064 5.2491 20.9921 5.15301C20.6777 5.05687 20.3447 5.08897 20.0545 5.2433C19.7643 5.39763 19.5515 5.65581 19.4554 5.97015L18.538 8.9714L15.4774 10.7385C14.9302 10.2047 14.2526 9.81293 13.5205 9.60709V8.76337C13.5205 8.53691 13.3369 8.35338 13.1105 8.35338C12.8841 8.35338 12.7005 8.53696 12.7005 8.76337V9.92985C12.7005 10.1252 12.8384 10.2934 13.0299 10.3319C13.8227 10.4908 14.5564 10.915 15.0956 11.5262C15.2248 11.6725 15.4391 11.7075 15.6081 11.61L19.0879 9.60085C19.1778 9.54896 19.2447 9.4649 19.275 9.36564L20.2397 6.2099C20.2718 6.10501 20.3428 6.01888 20.4397 5.96742C20.5366 5.9159 20.6476 5.90529 20.7525 5.93728C20.8574 5.96933 20.9435 6.04031 20.995 6.13717C21.0465 6.23402 21.0572 6.34514 21.0252 6.45003L20.575 7.92266C20.5257 8.08371 20.58 8.25855 20.7119 8.36338C20.8437 8.46822 21.0262 8.48184 21.1721 8.39756L23.1432 7.25957C23.3392 7.14637 23.5909 7.21374 23.7042 7.40991C23.759 7.5049 23.7736 7.61553 23.7452 7.72152C23.7168 7.82745 23.6488 7.91599 23.5538 7.97084L21.5828 9.10883C21.4369 9.19305 21.3574 9.35793 21.3824 9.52451C21.4072 9.69109 21.5315 9.82551 21.6956 9.86341L23.196 10.2099C23.3029 10.2346 23.3938 10.2994 23.4519 10.3923C23.51 10.4854 23.5284 10.5955 23.5037 10.7024C23.4791 10.8092 23.4142 10.9001 23.3212 10.9582C23.2282 11.0163 23.1181 11.0348 23.0112 11.01L19.796 10.2677C19.6949 10.2443 19.5887 10.2602 19.4987 10.3121L16.0196 12.3207C15.8505 12.4184 15.7738 12.6215 15.836 12.8065C15.9657 13.1922 16.0315 13.5937 16.0315 13.9998C16.0315 14.4059 15.9657 14.8074 15.836 15.1931C15.7738 15.3781 15.8506 15.5813 16.0196 15.6789L19.4987 17.6876C19.5887 17.7396 19.6949 17.7554 19.796 17.732L23.0112 16.9896C23.118 16.9649 23.2282 16.9832 23.3212 17.0414C23.4143 17.0996 23.4791 17.1904 23.5037 17.2973C23.5285 17.4042 23.51 17.5142 23.4519 17.6072C23.3938 17.7003 23.3029 17.7651 23.196 17.7898L21.6956 18.1363C21.5315 18.1742 21.4072 18.3086 21.3824 18.4752C21.3575 18.6417 21.437 18.8066 21.5828 18.8908L23.5539 20.0288C23.6489 20.0837 23.7168 20.1722 23.7452 20.2782C23.7736 20.3841 23.7591 20.4948 23.7042 20.5898C23.6494 20.6848 23.5608 20.7527 23.4548 20.7811C23.349 20.8095 23.2382 20.7949 23.1432 20.7401L21.1722 19.6022C21.0263 19.5179 20.8438 19.5315 20.7119 19.6363C20.5801 19.7412 20.5258 19.916 20.5751 20.0771L21.0252 21.5497C21.0573 21.6546 21.0466 21.7657 20.9951 21.8625C20.9436 21.9594 20.8575 22.0303 20.7525 22.0624C20.6476 22.0945 20.5365 22.0838 20.4397 22.0323C20.3429 21.9808 20.2719 21.8947 20.2398 21.7898L19.2751 18.6341C19.2447 18.5348 19.1778 18.4508 19.088 18.3989L15.6081 16.3898C15.4391 16.2922 15.2248 16.3273 15.0957 16.4735C14.5564 17.0847 13.8228 17.5088 13.03 17.6679C12.8385 17.7063 12.7007 17.8745 12.7007 18.0699V22.0866C12.7007 22.1904 12.74 22.2903 12.8108 22.3663L15.0614 24.7796C15.1362 24.8598 15.1753 24.9644 15.1715 25.074C15.1677 25.1836 15.1214 25.2851 15.0412 25.36C14.9609 25.4348 14.8565 25.4744 14.7468 25.47C14.6372 25.4662 14.5356 25.4199 14.4608 25.3397L13.4106 24.2135C13.2957 24.0903 13.117 24.0499 12.9604 24.1117C12.8037 24.1734 12.7007 24.3248 12.7007 24.4932V26.7691C12.7007 26.9956 12.5165 27.1798 12.29 27.1798C12.0635 27.1798 11.8794 26.9956 11.8794 26.7691V24.4932C11.8794 24.3248 11.7763 24.1734 11.6197 24.1117C11.4629 24.05 11.2844 24.0904 11.1695 24.2135L10.1192 25.3397C10.0444 25.4199 9.94288 25.4662 9.83323 25.47C9.72402 25.4736 9.61913 25.4347 9.53885 25.3599C9.45862 25.2851 9.4123 25.1835 9.40853 25.0739C9.4047 24.9643 9.4438 24.8597 9.51861 24.7795L11.7692 22.3662C11.84 22.2903 11.8794 22.1904 11.8794 22.0866V18.0698C11.8794 17.8744 11.7415 17.7062 11.55 17.6678C10.7572 17.5088 10.0236 17.0846 9.48432 16.4735C9.35526 16.3271 9.14088 16.2921 8.9719 16.3897L5.49203 18.3988C5.40212 18.4507 5.33529 18.5348 5.30494 18.634L5.03243 19.5255C4.96621 19.7421 5.08816 19.9713 5.30467 20.0375C5.52117 20.1036 5.75042 19.9818 5.8166 19.7653L6.04191 19.0282L9.1026 17.2611C9.64981 17.7949 10.3273 18.1866 11.0594 18.3925V21.925L8.91896 24.2202C8.69474 24.4606 8.5776 24.7739 8.58903 25.1025C8.60046 25.431 8.7392 25.7354 8.97961 25.9595C9.21996 26.1838 9.53343 26.3009 9.86189 26.2895C10.1904 26.2781 10.4948 26.1393 10.719 25.8989L11.0594 25.5339V26.769C11.0591 27.4479 11.6112 28 12.2898 28C12.9684 28 13.5205 27.4479 13.5205 26.7693V25.5342L13.8609 25.8992C14.0851 26.1396 14.3895 26.2782 14.718 26.2897C15.0468 26.3015 15.3598 26.184 15.6002 25.9599C15.8407 25.7356 15.9794 25.4312 15.9908 25.1027C16.0023 24.7742 15.8851 24.4608 15.6609 24.2204L13.5205 21.9252V18.3927C14.2525 18.1869 14.93 17.7951 15.4773 17.2613L18.5379 19.0284L19.4554 22.0296C19.5515 22.344 19.7642 22.6021 20.0545 22.7565C20.3447 22.9109 20.6777 22.943 20.992 22.8468C21.3064 22.7507 21.5646 22.538 21.7189 22.2477C21.8732 21.9574 21.9053 21.6245 21.8092 21.3101L21.6633 20.8328L22.733 21.4504C23.0176 21.6147 23.3492 21.6584 23.6668 21.5733C23.9843 21.4882 24.2497 21.2846 24.4141 20.9999C24.5785 20.7153 24.6222 20.3836 24.5371 20.066C24.452 19.7486 24.2484 19.4832 23.9637 19.3189Z" fill="#949495"/>
<path d="M5.00384 21.0207C4.78722 20.9545 4.55808 21.0765 4.49191 21.293L4.33999 21.79C4.30794 21.8948 4.2369 21.981 4.1401 22.0325C4.0432 22.084 3.93213 22.0947 3.82718 22.0626C3.72229 22.0306 3.63616 21.9595 3.58464 21.8627C3.53313 21.7659 3.52246 21.6548 3.55451 21.5499L4.0047 20.0773C4.05397 19.9162 3.99967 19.7414 3.86781 19.6365C3.73596 19.5317 3.55347 19.5181 3.40756 19.6024L1.43652 20.7403C1.34153 20.7952 1.23078 20.8097 1.12491 20.7813C1.01898 20.7529 0.930439 20.685 0.875588 20.59C0.820736 20.495 0.806134 20.3843 0.834572 20.2783C0.862955 20.1724 0.930931 20.0839 1.02592 20.029L2.99697 18.891C3.14288 18.8068 3.22239 18.6419 3.19745 18.4753C3.17257 18.3088 3.04832 18.1744 2.8842 18.1365L1.3838 17.79C1.27688 17.7652 1.18605 17.7004 1.12786 17.6074C1.06973 17.5144 1.0513 17.4043 1.07602 17.2974C1.10074 17.1906 1.16554 17.0997 1.25856 17.0416C1.35153 16.9834 1.46162 16.9649 1.56853 16.9897L4.78378 17.7321C4.88489 17.7555 4.9911 17.7396 5.08106 17.6877L8.56017 15.6791C8.7292 15.5815 8.80599 15.3783 8.74375 15.1933C8.61403 14.8076 8.54824 14.4061 8.54824 13.9999C8.54824 13.5938 8.61403 13.1923 8.74375 12.8067C8.80599 12.6217 8.72915 12.4184 8.56017 12.3209L5.08106 10.3122C4.9911 10.2602 4.88489 10.2444 4.78378 10.2678L1.56853 11.0102C1.46167 11.035 1.35159 11.0165 1.25856 10.9584C1.16554 10.9003 1.10074 10.8094 1.07602 10.7025C1.05135 10.5956 1.06973 10.4855 1.12786 10.3925C1.18599 10.2995 1.27683 10.2347 1.3838 10.21L2.8842 9.86355C3.04832 9.82565 3.17257 9.69123 3.19745 9.52465C3.22234 9.35807 3.14282 9.19319 2.99697 9.10897L1.02592 7.97098C0.930931 7.91612 0.863009 7.82759 0.834572 7.72166C0.806189 7.61567 0.820736 7.50504 0.875588 7.41005C0.930439 7.31505 1.01898 7.24713 1.12496 7.21869C1.23095 7.19031 1.34158 7.20491 1.43657 7.25971L3.40756 8.3977C3.55342 8.48192 3.73596 8.46841 3.86781 8.36352C3.99967 8.25869 4.05397 8.08385 4.0047 7.9228L3.55451 6.45017C3.48834 6.23361 3.61062 6.00354 3.82718 5.93737C3.93207 5.90537 4.0432 5.91598 4.14005 5.9675C4.2369 6.01902 4.30788 6.10515 4.33993 6.21004L5.30456 9.36573C5.33492 9.46498 5.40174 9.54904 5.49165 9.60094L8.97152 11.61C9.14056 11.7076 9.35488 11.6726 9.48395 11.5263C10.0232 10.9151 10.7569 10.491 11.5496 10.3319C11.7412 10.2936 11.879 10.1253 11.879 9.92994V5.91314C11.879 5.80934 11.8396 5.70943 11.7688 5.63347L9.51824 3.22016C9.44342 3.13994 9.40432 3.03537 9.40815 2.92578C9.41198 2.81619 9.45824 2.71463 9.53852 2.63977C9.61875 2.56495 9.7232 2.5258 9.83291 2.52968C9.9425 2.53351 10.0441 2.57977 10.1189 2.66L11.1691 3.78618C11.284 3.90939 11.4624 3.9497 11.6193 3.88801C11.776 3.82627 11.879 3.67495 11.879 3.50651V1.23069C11.879 1.00423 12.0632 0.820039 12.2896 0.820039C12.5161 0.820039 12.7003 1.00428 12.7003 1.23069V3.50662C12.7003 3.67505 12.8034 3.82637 12.96 3.88812C13.1167 3.94986 13.2953 3.9095 13.4102 3.78629L14.4605 2.66011C14.6149 2.49452 14.8753 2.48538 15.0409 2.63993C15.1211 2.71474 15.1673 2.8163 15.1712 2.92589C15.175 3.03554 15.1359 3.1401 15.0611 3.22027L12.8105 5.63358C12.7397 5.70948 12.7003 5.80945 12.7003 5.91325V6.86574C12.7003 7.0922 12.8839 7.27573 13.1103 7.27573C13.3367 7.27573 13.5203 7.09215 13.5203 6.86574V6.07469L15.6607 3.77951C15.885 3.5391 16.0021 3.2258 15.9907 2.89723C15.9792 2.56867 15.8405 2.26428 15.6001 2.04012C15.1039 1.5773 14.3236 1.60453 13.8607 2.10077L13.5203 2.46575V1.23069C13.5205 0.55207 12.9684 0 12.2898 0C11.6112 0 11.0591 0.55207 11.0591 1.23069V2.4658L10.7188 2.10087C10.4946 1.86041 10.1902 1.72167 9.86162 1.71024C9.53273 1.69925 9.21975 1.81601 8.9794 2.04017C8.73899 2.26439 8.60025 2.56878 8.58877 2.89729C8.57728 3.22585 8.69448 3.53916 8.9187 3.77956L11.0591 6.07474V9.60723C10.327 9.81307 9.64949 10.2049 9.10234 10.7387L6.04164 8.97154L5.1242 5.97029C5.02812 5.65589 4.81533 5.39777 4.5251 5.24344C4.23488 5.08911 3.90188 5.05701 3.58754 5.15315C2.93862 5.35144 2.57199 6.04078 2.77035 6.68981L2.91625 7.16712L1.84662 6.54959C1.56192 6.3852 1.23018 6.34162 0.91272 6.42666C0.595205 6.51175 0.329806 6.71535 0.165416 7.00005C0.00102508 7.2847 -0.0426156 7.61638 0.0424781 7.93395C0.127572 8.25147 0.331173 8.51687 0.615877 8.6812L1.68551 9.29879L1.19928 9.41106C0.878978 9.485 0.60658 9.67925 0.4324 9.95805C0.25822 10.2368 0.203041 10.5668 0.277033 10.8871C0.35097 11.2074 0.545275 11.4797 0.824017 11.6539C1.10281 11.828 1.43274 11.8833 1.75305 11.8093L4.8109 11.1032L7.87056 12.8697C7.776 13.2388 7.7282 13.6177 7.7282 14C7.7282 14.3823 7.776 14.7611 7.87056 15.1303L4.8109 16.8968L1.75305 16.1907C1.4328 16.1167 1.10281 16.1719 0.824017 16.3461C0.54522 16.5203 0.35097 16.7927 0.277033 17.1129C0.203041 17.4332 0.25822 17.7632 0.432455 18.042C0.606634 18.3207 0.878978 18.515 1.19928 18.589L1.68556 18.7013L0.615931 19.3188C0.331228 19.4831 0.127572 19.7486 0.0424781 20.0661C-0.0426156 20.3836 0.00102508 20.7153 0.165416 20.9999C0.329752 21.2846 0.59515 21.4883 0.91272 21.5734C1.23029 21.6585 1.56192 21.6149 1.84662 21.4505L2.91625 20.8329L2.77035 21.3101C2.6742 21.6245 2.70631 21.9575 2.86063 22.2477C3.01496 22.538 3.27314 22.7508 3.58749 22.8468C3.70638 22.8832 3.82795 22.9012 3.94886 22.9012C4.1476 22.9012 4.34463 22.8525 4.5251 22.7566C4.81533 22.6022 5.02812 22.3441 5.1242 22.0297L5.27613 21.5327C5.3423 21.3161 5.2204 21.087 5.00384 21.0207Z" fill="#949495"/>
</svg>
