<svg width="12" height="18" viewBox="0 0 12 18" fill="none" xmlns="http://www.w3.org/2000/svg">
<path d="M10.4273 0.28771L11.021 0.877325C11.2065 1.06289 11.3086 1.30977 11.3086 1.57362C11.3086 1.83733 11.2065 2.08451 11.021 2.27007L4.29484 8.99598L11.0285 15.7296C11.2139 15.9149 11.3159 16.1621 11.3159 16.4258C11.3159 16.6895 11.2139 16.9368 11.0285 17.1222L10.4384 17.712C10.0547 18.096 9.42971 18.096 9.046 17.712L0.999932 9.69476C0.814663 9.50949 0.684124 9.26261 0.684124 8.99656L0.684124 8.99349C0.684124 8.72963 0.814809 8.48275 0.999932 8.29748L9.02419 0.28771C9.20946 0.102148 9.46381 0.00029371 9.72752 -1.89415e-08C9.99137 -1.57951e-08 10.2422 0.102148 10.4273 0.28771Z" fill="#D9E821"/>
</svg>
