<svg width="20" height="20" viewBox="0 0 20 20" fill="none" xmlns="http://www.w3.org/2000/svg">
<path fill-rule="evenodd" clip-rule="evenodd" d="M9.89769 15.6667C9.51767 15.6667 9.20887 15.3579 9.20887 14.9784C9.20887 14.5984 9.51767 14.2896 9.89769 14.2896C10.277 14.2896 10.586 14.5984 10.586 14.9784C10.586 15.3579 10.277 15.6667 9.89769 15.6667ZM9.89769 13.7227C9.20505 13.7227 8.64171 14.2857 8.64171 14.9784C8.64171 15.6706 9.20505 16.2339 9.89769 16.2339C10.5899 16.2339 11.1529 15.6706 11.1529 14.9784C11.1529 14.2857 10.5898 13.7227 9.89769 13.7227ZM10.8317 8.36849L10.3819 12.6299C10.3769 12.6765 10.3391 12.7102 10.2925 12.7102H9.50262C9.45576 12.7102 9.41827 12.6765 9.41325 12.6299L8.96322 8.36849C8.95746 8.31424 8.99794 8.26954 9.05263 8.26954H10.7426C10.7972 8.26954 10.8375 8.31437 10.8317 8.36849ZM10.7425 7.70238H9.05254C8.66094 7.70238 8.358 8.03858 8.39958 8.42825L8.84939 12.6895C8.88477 13.0248 9.16536 13.2772 9.50257 13.2772H10.2925C10.6295 13.2772 10.9104 13.0248 10.9459 12.6895L11.3958 8.42825C11.4368 8.03889 11.134 7.70238 10.7425 7.70238ZM4.18046 1.66848L4.49115 0.829095C4.5454 0.682091 4.70842 0.606807 4.85564 0.661807C5.00216 0.716059 5.07745 0.879079 5.02293 1.02582L4.71177 1.86543C4.65663 2.01437 4.49273 2.08679 4.34753 2.03271C4.20075 1.97846 4.12595 1.81544 4.18046 1.66848ZM2.17974 3.19594C2.14348 3.35056 1.98856 3.44269 1.83892 3.40697L0.967497 3.20166C0.814993 3.1658 0.720613 3.01308 0.756429 2.86062C0.792509 2.70838 0.945233 2.61395 1.09747 2.64981L1.96889 2.85512C2.12118 2.89098 2.21582 3.0437 2.17974 3.19594ZM2.70748 2.1773L2.31095 1.43854C2.23685 1.30064 2.28895 1.12904 2.42711 1.05495C2.56501 0.980851 2.73661 1.03246 2.8107 1.17062L3.20723 1.90912C3.30909 2.09924 3.16926 2.3269 2.95749 2.3269C2.85637 2.32694 2.75861 2.27243 2.70748 2.1773ZM19.0152 3.47847L18.0848 3.63308C17.9491 3.63308 17.8293 3.53558 17.8057 3.3972C17.7794 3.2428 17.8831 3.09628 18.0373 3.06975L18.9202 2.91918C19.0743 2.89313 19.2211 2.99684 19.2471 3.15124C19.2733 3.30563 19.1694 3.45193 19.0152 3.47847ZM15.1029 1.05398C15.058 0.904379 15.1431 0.745891 15.2932 0.700967C15.4428 0.656043 15.6008 0.740655 15.6462 0.890739L15.9041 1.74803C15.9597 1.93209 15.82 2.11345 15.6326 2.11345C15.5109 2.11345 15.3981 2.03434 15.361 1.91149L15.1029 1.05398ZM17.7839 1.63526L17.3424 2.34775C17.2592 2.48217 17.0845 2.52125 16.9519 2.43927C16.819 2.35682 16.7779 2.18209 16.8603 2.04899L17.302 1.33655C17.3845 1.20318 17.5589 1.16231 17.6921 1.24476C17.8254 1.32717 17.8663 1.50212 17.7839 1.63526ZM9.85321 17.0336C12.6467 17.0336 14.9189 14.7614 14.9189 11.9681C14.9189 9.17488 12.6467 6.90219 9.85321 6.90219C7.06022 6.90219 4.78775 9.17488 4.78775 11.9681C4.78775 14.7614 7.06022 17.0336 9.85321 17.0336ZM9.85321 6.33525C6.7476 6.33525 4.22081 8.86226 4.22081 11.9681C4.22081 15.074 6.74756 17.6007 9.85321 17.6007C12.9593 17.6007 15.486 15.074 15.486 11.9681C15.4861 8.86226 12.9593 6.33525 9.85321 6.33525ZM16.8706 5.21458L14.206 3.67655C14.6911 3.105 15.5212 2.95751 16.1785 3.33692C16.8417 3.71959 17.1182 4.51788 16.8706 5.21458ZM14.7413 6.43302C14.5877 6.29728 14.4289 6.1677 14.265 6.0449L14.9923 4.78536L15.5174 5.08843L14.7413 6.43302ZM9.85321 18.7893C13.6147 18.7893 16.6744 15.7291 16.6744 11.9681C16.6744 8.20666 13.6147 5.14695 9.85321 5.14695C6.092 5.14695 3.03224 8.20671 3.03224 11.9681C3.03228 15.7291 6.092 18.7893 9.85321 18.7893ZM4.50954 5.08838L5.03512 4.78531L5.6685 5.88258C5.50073 5.99874 5.33749 6.12111 5.18019 6.25016L4.50954 5.08838ZM3.15632 5.21506C2.79455 4.20086 3.55316 3.12638 4.62786 3.12638C5.08665 3.12638 5.5248 3.32764 5.82096 3.67655L3.15632 5.21506ZM9.5174 3.1288H10.1895V4.58793H9.5174V3.1288ZM7.65893 1.89002H12.0478V2.56164H7.65893V1.89002ZM16.4619 2.84557C15.4424 2.25764 14.1429 2.60357 13.5513 3.62591C13.4725 3.76165 13.5191 3.9347 13.6548 4.01285L14.5012 4.5016L13.7961 5.72242C12.8953 5.15192 11.8633 4.77048 10.7564 4.63518V3.1288H12.3312C12.4878 3.1288 12.615 3.00212 12.615 2.84535V1.60631C12.615 1.44998 12.4878 1.32286 12.3312 1.32286H7.37548C7.21893 1.32286 7.09203 1.45002 7.09203 1.60631V2.84531C7.09203 3.00208 7.21893 3.12875 7.37548 3.12875H8.95029V4.63518C7.93952 4.75874 6.99092 5.08763 6.14748 5.57828L5.52607 4.50155L6.37215 4.0128C6.50789 3.93466 6.55427 3.76161 6.47612 3.62587C5.88784 2.60551 4.58452 2.25729 3.56504 2.84553C2.54485 3.43416 2.19646 4.73726 2.78518 5.75683C2.86421 5.89371 3.03792 5.93807 3.17212 5.86054L4.01868 5.37179L4.74692 6.63371C3.34156 7.97953 2.46512 9.87294 2.46512 11.968C2.46512 16.0417 5.77943 19.3562 9.85325 19.3562C13.9273 19.3562 17.2416 16.0417 17.2416 11.968C17.2416 9.97621 16.4493 8.16623 15.1632 6.83637L16.0086 5.37174L16.8549 5.86049C16.9888 5.93802 17.1632 5.89371 17.2423 5.75679C17.8297 4.7392 17.4796 3.4335 16.4619 2.84557Z" fill="black"/>
</svg>
