<svg width="28" height="28" viewBox="0 0 28 28" fill="none" xmlns="http://www.w3.org/2000/svg">
<g clip-path="url(#clip0_1409_439)">
<path d="M22.75 22.1667H16.9167C16.5947 22.1667 16.3334 21.9054 16.3334 21.5834C16.3334 21.2614 16.5947 21.0001 16.9167 21.0001H22.75C23.7149 21.0001 24.5 20.2149 24.5 19.2501V18.0834C24.5 17.7614 24.7614 17.5001 25.0834 17.5001H26.2395C26.5615 17.5001 26.8229 17.2387 26.8229 16.9167V9.91675C26.8229 9.59475 26.5615 9.33341 26.2395 9.33341H25.0834C24.7614 9.33341 24.5 9.07208 24.5 8.75008V7.58341C24.5 6.61858 23.7149 5.83341 22.75 5.83341H19.25C18.928 5.83341 18.6667 5.57208 18.6667 5.25008C18.6667 4.92808 18.928 4.66675 19.25 4.66675H22.75C24.3577 4.66675 25.6667 5.97575 25.6667 7.58341V8.16675H26.2395C27.2044 8.16675 27.9895 8.95191 27.9895 9.91675V16.9167C27.9895 17.8816 27.2044 18.6667 26.2395 18.6667H25.6667V19.2501C25.6667 20.8577 24.3577 22.1667 22.75 22.1667Z" fill="#949495"/>
<path d="M7.58333 22.1667H2.91667C1.309 22.1667 0 20.8577 0 19.2501V7.58341C0 5.97575 1.309 4.66675 2.91667 4.66675H11.0833C11.4053 4.66675 11.6667 4.92808 11.6667 5.25008C11.6667 5.57208 11.4053 5.83341 11.0833 5.83341H2.91667C1.95183 5.83341 1.16667 6.61858 1.16667 7.58341V19.2501C1.16667 20.2149 1.95183 21.0001 2.91667 21.0001H7.58333C7.90533 21.0001 8.16667 21.2614 8.16667 21.5834C8.16667 21.9054 7.90533 22.1667 7.58333 22.1667Z" fill="#949495"/>
<path d="M10.8535 24.5001C10.7613 24.5001 10.6668 24.4779 10.5805 24.4324C10.3296 24.2994 10.2106 24.0043 10.3005 23.7336L12.7435 16.3334H8.16664C7.94964 16.3334 7.75131 16.2133 7.64981 16.0208C7.54948 15.8283 7.56348 15.5961 7.68714 15.4176L15.7675 3.75095C15.9261 3.52228 16.2283 3.44061 16.4803 3.54795C16.7358 3.65995 16.877 3.93645 16.8175 4.20828L15.1748 11.6668H19.8333C20.055 11.6668 20.258 11.7928 20.3571 11.9923C20.4551 12.1918 20.4306 12.4298 20.2953 12.6059L11.3155 24.2726C11.2023 24.4208 11.0296 24.5001 10.8535 24.5001ZM9.28081 15.1668H13.5508C13.7386 15.1668 13.9136 15.2566 14.0233 15.4083C14.133 15.5599 14.1633 15.7548 14.1038 15.9333L12.4821 20.8438L18.648 12.8334H14.4491C14.273 12.8334 14.105 12.7529 13.9941 12.6153C13.8833 12.4776 13.8413 12.2968 13.8786 12.1241L15.0406 6.84961L9.28081 15.1668Z" fill="#949495"/>
</g>
<defs>
<clipPath id="clip0_1409_439">
<rect width="28" height="28" fill="white"/>
</clipPath>
</defs>
</svg>
