<svg width="22" height="22" viewBox="0 0 22 22" fill="none" xmlns="http://www.w3.org/2000/svg">
<path d="M14.75 13.655L12.0575 11L14.75 8.345C14.8249 8.27484 14.8846 8.19005 14.9255 8.09588C14.9663 8.0017 14.9874 7.90014 14.9874 7.79749C14.9874 7.69485 14.9663 7.59329 14.9255 7.49912C14.8846 7.40494 14.8249 7.32015 14.75 7.25C14.6799 7.18048 14.5968 7.12549 14.5054 7.08817C14.414 7.05084 14.3162 7.03192 14.2175 7.0325C14.0207 7.03332 13.8322 7.11144 13.6925 7.25L11 9.9425L8.34497 7.25C8.20528 7.11144 8.01673 7.03332 7.81997 7.0325C7.72127 7.03192 7.62342 7.05084 7.53205 7.08817C7.44067 7.12549 7.35756 7.18048 7.28748 7.25C7.14779 7.39052 7.06938 7.58061 7.06938 7.77875C7.06938 7.97688 7.14779 8.16697 7.28748 8.3075L9.94248 11L7.28748 13.655C7.16461 13.7985 7.1004 13.983 7.10769 14.1718C7.11498 14.3605 7.19323 14.5396 7.3268 14.6732C7.46037 14.8067 7.63943 14.885 7.82819 14.8923C8.01694 14.8996 8.2015 14.8354 8.34497 14.7125L11 12.0575L13.655 14.7125C13.7244 14.7844 13.8073 14.8419 13.899 14.8818C13.9907 14.9216 14.0893 14.943 14.1892 14.9448C14.2892 14.9465 14.3885 14.9285 14.4815 14.8919C14.5745 14.8553 14.6593 14.8007 14.7312 14.7312C14.8031 14.6618 14.8606 14.5789 14.9005 14.4872C14.9403 14.3956 14.9618 14.2969 14.9635 14.197C14.9652 14.0971 14.9473 13.9978 14.9106 13.9048C14.874 13.8118 14.8194 13.7269 14.75 13.655ZM18.425 3.575C16.9565 2.10665 15.0856 1.10673 13.0488 0.701672C11.012 0.296614 8.90087 0.50461 6.98231 1.29936C5.06375 2.09411 3.42393 3.43993 2.27023 5.16662C1.11652 6.89331 0.500732 8.92334 0.500732 11C0.500732 13.0767 1.11652 15.1067 2.27023 16.8334C3.42393 18.5601 5.06375 19.9059 6.98231 20.7006C8.90087 21.4954 11.012 21.7034 13.0488 21.2983C15.0856 20.8933 16.9565 19.8933 18.425 18.425C19.4001 17.45 20.1736 16.2924 20.7014 15.0184C21.2291 13.7444 21.5007 12.379 21.5007 11C21.5007 9.62103 21.2291 8.25556 20.7014 6.98157C20.1736 5.70758 19.4001 4.55003 18.425 3.575ZM17.3675 17.3675C16.1076 18.623 14.5039 19.4771 12.7589 19.8218C11.0139 20.1666 9.20592 19.9865 7.5632 19.3044C5.92049 18.6223 4.51673 17.4687 3.52918 15.9894C2.54162 14.51 2.01457 12.7712 2.01457 10.9925C2.01457 9.21379 2.54162 7.47498 3.52918 5.99561C4.51673 4.51625 5.92049 3.36268 7.5632 2.68057C9.20592 1.99847 11.0139 1.81841 12.7589 2.16315C14.5039 2.50788 16.1076 3.36195 17.3675 4.6175C18.2065 5.45363 18.8722 6.44716 19.3265 7.54113C19.7807 8.63509 20.0146 9.80797 20.0146 10.9925C20.0146 12.177 19.7807 13.3499 19.3265 14.4439C18.8722 15.5378 18.2065 16.5314 17.3675 17.3675Z" fill="#949495"/>
</svg>
