<svg width="16" height="16" viewBox="0 0 16 16" fill="none" xmlns="http://www.w3.org/2000/svg">
<path fill-rule="evenodd" clip-rule="evenodd" d="M11.1259 2.86507C10.5452 2.67501 9.75438 2.66661 7.99998 2.66661C7.05898 2.66661 6.38661 2.66697 5.85674 2.70313C5.33285 2.73887 4.99714 2.80736 4.72437 2.92035C3.90761 3.25866 3.25869 3.90757 2.92038 4.72433C2.80739 4.99711 2.73891 5.33282 2.70316 5.8567C2.66701 6.38657 2.66665 7.05895 2.66665 7.99995C2.66665 8.94095 2.66701 9.61335 2.70316 10.1432C2.73891 10.6671 2.80739 11.0028 2.92038 11.2755C3.25869 12.0923 3.90761 12.7412 4.72437 13.0795C4.99714 13.1925 5.33285 13.261 5.85674 13.2967C6.38661 13.3329 7.05898 13.3333 7.99998 13.3333C8.94098 13.3333 9.61338 13.3329 10.1432 13.2967C10.6671 13.261 11.0028 13.1925 11.2756 13.0795C12.0924 12.7412 12.7412 12.0923 13.0796 11.2755C13.1926 11.0028 13.261 10.6671 13.2968 10.1432C13.333 9.61335 13.3333 8.94095 13.3333 7.99995C13.3333 7.48941 13.3333 7.05581 13.3272 6.67735C13.3212 6.30921 13.6149 6.00596 13.983 6.00003C14.3512 5.9941 14.6544 6.28773 14.6604 6.65587C14.6666 7.04621 14.6666 7.49015 14.6666 7.99568V8.02448C14.6666 8.93561 14.6666 9.65335 14.627 10.2339C14.5866 10.8257 14.5029 11.3235 14.3114 11.7858C13.8378 12.9293 12.9293 13.8377 11.7858 14.3114C11.3235 14.5029 10.8258 14.5866 10.234 14.627C9.65338 14.6666 8.93565 14.6666 8.02458 14.6666H7.97538C7.06431 14.6666 6.34655 14.6666 5.76598 14.627C5.17421 14.5866 4.67644 14.5029 4.21413 14.3114C3.07066 13.8377 2.16218 12.9293 1.68854 11.7858C1.49705 11.3235 1.41329 10.8257 1.37292 10.2339C1.33331 9.65335 1.33331 8.93561 1.33331 8.02448V7.97541C1.33331 7.06428 1.33331 6.34651 1.37292 5.76594C1.41329 5.17417 1.49705 4.6764 1.68854 4.21409C2.16218 3.07063 3.07066 2.16215 4.21413 1.68851C4.67644 1.49701 5.17421 1.41326 5.76597 1.37289C6.34655 1.33327 7.06431 1.33327 7.97545 1.33328H7.99998C8.04825 1.33328 8.09605 1.33327 8.14331 1.33327C9.70971 1.33303 10.731 1.33287 11.5407 1.59789C11.8906 1.71241 12.0814 2.08893 11.9669 2.43885C11.8524 2.78877 11.4758 2.9796 11.1259 2.86507ZM14.5758 3.33063C14.7613 3.64867 14.6539 4.05687 14.3358 4.24239L14.1881 4.32859C11.7915 5.7266 9.86598 7.80721 8.65745 10.3047C8.56345 10.4989 8.38131 10.6356 8.16858 10.6716C7.95585 10.7076 7.73885 10.6385 7.58618 10.4859L4.91054 7.81315C4.65005 7.55295 4.64983 7.13088 4.91004 6.87035C5.17025 6.60987 5.59236 6.60965 5.85285 6.86988L7.88651 8.90141C9.21685 6.53069 11.1584 4.55226 13.5162 3.17689L13.664 3.09069C13.982 2.90517 14.3902 3.01259 14.5758 3.33063Z" fill="#239B41"/>
</svg>
