<svg width="24" height="24" viewBox="0 0 24 24" fill="none" xmlns="http://www.w3.org/2000/svg">
<g clip-path="url(#clip0_1409_158)">
<path d="M23.6709 2.72364C23.1395 1.66066 22.0705 1 20.8813 1H11.1923C9.337 1 7.56621 1.79491 6.33358 3.18166L1.63849 8.46292C0.579254 9.65383 -0.00387128 11.1875 1.93438e-05 12.8457L0.836082 19.2989H0.836551C0.956176 20.2237 1.38546 21.0963 2.04522 21.7559C2.84758 22.5582 3.91418 23.0001 5.04911 23.0001H21.9996C23.1029 23 24 22.103 24 21V4.11817C24 3.63672 23.8863 3.15433 23.6709 2.72364ZM23.0001 21H23C23 21.5513 22.5513 22 22.0001 22H5.05225C4.18507 22 3.36916 21.6621 2.75585 21.0488C2.25147 20.5444 1.92335 19.8774 1.83203 19.1699L1 12.7812C1 11.4326 1.49364 10.1352 2.38914 9.12695L7.08354 3.84573C8.1265 2.67287 9.62505 2.00003 11.1944 2.00003H20.8819C21.6895 2.00003 22.4156 2.44877 22.7764 3.17092C22.9229 3.46342 23.0001 3.79103 23.0001 4.11817V21Z" fill="white"/>
<path d="M21.8818 3.61814C21.6918 3.23681 21.3085 3 20.8818 3H11.1943C9.91066 3 8.68455 3.55031 7.83105 4.51027L3.13619 9.79148C2.54636 10.456 1.99994 11.2441 1.99994 12.5C1.99994 12.7763 2.22358 13 2.49995 13H21.4999C21.7763 13 22 12.7763 22 12.5V4.11816C22 3.94528 21.9589 3.77245 21.8818 3.61814ZM21 12H21H3.04C3.13178 11.4707 3.38814 11.0142 3.88375 10.4556L8.5781 5.17481C9.24217 4.42823 10.1958 3.99998 11.1943 3.99998H20.8818C20.9283 3.99998 20.9668 4.02342 21 4.11816V12Z" fill="white"/>
<path d="M21.5 15H18.5C18.2236 15 18 15.2236 18 15.5C18 15.7764 18.2236 16 18.5 16H21.5C21.7764 16 22 15.7764 22 15.5C22 15.2236 21.7764 15 21.5 15Z" fill="white"/>
<path d="M10.8536 5.1465C10.6582 4.95117 10.3418 4.95117 10.1465 5.1465L9.14656 6.14648C8.95123 6.34181 8.95123 6.65821 9.14656 6.8535C9.24415 6.95118 9.37212 6.99998 9.50004 6.99998C9.62796 6.99998 9.75588 6.95114 9.85357 6.8535L10.8536 5.85351C11.0489 5.65818 11.0489 5.34178 10.8536 5.1465Z" fill="white"/>
<path d="M12.8536 5.1465C12.6582 4.95117 12.3418 4.95117 12.1465 5.1465L9.1465 8.1465C8.95117 8.34182 8.95117 8.65823 9.1465 8.85351C9.24414 8.95115 9.37211 9 9.50003 9C9.62795 9 9.75587 8.95115 9.85356 8.85351L12.8536 5.85351C13.0489 5.65818 13.0489 5.34178 12.8536 5.1465Z" fill="white"/>
<path d="M21.5 18H3.50002C3.22364 18 3 18.2236 3 18.5C3 18.7764 3.22364 19 3.50002 19H21.5C21.7764 19 22 18.7764 22 18.5C22 18.2236 21.7764 18 21.5 18Z" fill="white"/>
</g>
<defs>
<clipPath id="clip0_1409_158">
<rect width="24" height="24" fill="white"/>
</clipPath>
</defs>
</svg>
