<svg width="20" height="20" viewBox="0 0 20 20" fill="none" xmlns="http://www.w3.org/2000/svg">
<g clip-path="url(#clip0_3069_830)">
<path d="M13.6163 12.6667H6.38299C6.08122 12.6664 5.81168 12.8553 5.70899 13.139C5.60631 13.4228 5.69256 13.7405 5.92464 13.9333L7.00498 14.8333C7.13374 14.9409 7.29617 14.9999 7.46398 15H12.5353C12.703 15 12.8654 14.9409 12.994 14.8333L14.0747 13.9333C14.3067 13.7405 14.393 13.4228 14.2903 13.139C14.1876 12.8553 13.9181 12.6664 13.6163 12.6667ZM13.6496 13.4214L12.569 14.3214C12.5596 14.329 12.5477 14.333 12.5356 14.3327H7.46464C7.45247 14.333 7.44059 14.3289 7.4313 14.321L6.35064 13.421C6.33279 13.4087 6.32643 13.3853 6.33564 13.3656C6.34083 13.3445 6.36064 13.3304 6.3823 13.3323H13.6156C13.6373 13.3304 13.6571 13.3445 13.6623 13.3656C13.6718 13.3852 13.6657 13.4088 13.6479 13.4213H13.6496V13.4214Z" fill="black"/>
<path d="M16.0096 12.8333L14.9256 13.7333C14.6927 13.9259 14.6059 14.244 14.7087 14.5281C14.8116 14.8122 15.0818 15.0011 15.3839 15H18C18.3681 15 18.6666 14.7015 18.6666 14.3333V13.3333C18.6666 12.9651 18.3681 12.6667 18 12.6667H16.4683C16.3007 12.6671 16.1385 12.7261 16.0096 12.8333ZM18 13.3333V14.3333H15.384C15.3622 14.3355 15.3422 14.3213 15.337 14.3C15.3278 14.2809 15.3342 14.2579 15.352 14.2463L16.4363 13.3443C16.4455 13.3364 16.4575 13.3322 16.4696 13.3326L18 13.3333Z" fill="black"/>
<path d="M3.99033 12.8333C3.86202 12.7263 3.70041 12.6674 3.53333 12.6667H1.99999C1.63179 12.6667 1.33331 12.9652 1.33331 13.3334V14.3334C1.33331 14.7016 1.63179 15 1.99999 15H4.61531C4.91733 15.0009 5.18737 14.812 5.29018 14.528C5.393 14.2441 5.30649 13.9261 5.07398 13.7334L3.99033 12.8333ZM4.66301 14.3C4.65779 14.3213 4.63778 14.3355 4.616 14.3333H1.99999V13.3333H3.53333C3.5455 13.3329 3.55741 13.3371 3.56666 13.345L4.65133 14.247C4.66741 14.2596 4.67229 14.2818 4.66301 14.3Z" fill="black"/>
<path fill-rule="evenodd" clip-rule="evenodd" d="M4.33332 16H1.99998C1.8159 16 1.66666 16.1492 1.66666 16.3333C1.66666 16.5174 1.8159 16.6666 1.99998 16.6666H4.33332C4.5174 16.6666 4.66664 16.5174 4.66664 16.3333C4.66664 16.1492 4.5174 16 4.33332 16Z" fill="black"/>
<path fill-rule="evenodd" clip-rule="evenodd" d="M18 16H15.6666C15.4826 16 15.3333 16.1492 15.3333 16.3333C15.3333 16.5174 15.4826 16.6666 15.6666 16.6666H18C18.1841 16.6666 18.3333 16.5174 18.3333 16.3333C18.3333 16.1492 18.1841 16 18 16Z" fill="black"/>
<path fill-rule="evenodd" clip-rule="evenodd" d="M13 16H6.99998C6.8159 16 6.66666 16.1492 6.66666 16.3333C6.66666 16.5174 6.8159 16.6666 6.99998 16.6666H13C13.1841 16.6666 13.3333 16.5174 13.3333 16.3333C13.3333 16.1492 13.1841 16 13 16Z" fill="black"/>
<path d="M20 9.66666C20 9.11439 19.5523 8.66667 19 8.66667H18.3333C18.0427 8.66775 17.7671 8.79586 17.579 9.01734L16.9533 7.14268C16.799 6.67826 16.448 6.30537 15.9937 6.12336C15.9937 6.08169 16 6.0417 16 6.00004C16 2.68628 13.3137 0 9.99999 0C6.68627 0 4.00002 2.68628 4.00002 6C4.00002 6.04167 4.00536 6.08166 4.00635 6.12332C3.55239 6.30501 3.20146 6.67741 3.047 7.14133L2.42101 9.01734C2.23286 8.79586 1.95728 8.66775 1.66667 8.66667H0.999997C0.447722 8.66667 2.44594e-06 9.11439 2.44594e-06 9.66666C2.44594e-06 10.2189 0.447722 10.6667 0.999997 10.6667H1.52865L0.295332 11.9C0.105773 12.0876 -0.000588083 12.3433 2.44594e-06 12.61V17C0.00174123 17.4222 0.268562 17.7979 0.666677 17.9387V19C0.666677 19.5523 1.1144 20 1.66667 20H4.00002C4.55229 20 5.00001 19.5523 5.00001 19V18H15V19C15 19.5523 15.4477 20 16 20H18.3333C18.8856 20 19.3333 19.5523 19.3333 19V17.9387C19.7314 17.7979 19.9982 17.4222 20 17V12.61C20.0006 12.3438 19.8946 12.0885 19.7057 11.901L18.4723 10.6677H19C19.2654 10.6677 19.5199 10.5622 19.7075 10.3744C19.895 10.1867 20.0003 9.93204 20 9.66666ZM16.3203 7.35235L17.204 10H14.4593C15.2526 9.11911 15.7658 8.02194 15.9333 6.84836C16.1142 6.96926 16.2502 7.14638 16.3203 7.35235ZM9.99999 0.666674C12.9455 0.666674 15.3333 3.05448 15.3333 6C15.3333 8.94553 12.9455 11.3333 9.99999 11.3333C7.05446 11.3333 4.66666 8.94553 4.66666 6C4.67017 3.05592 7.05594 0.670152 9.99999 0.666674ZM3.68001 7.35067C3.75029 7.14533 3.88614 6.9688 4.06668 6.84833C4.23423 8.02194 4.74733 9.11908 5.54067 9.99998H2.79599L3.68001 7.35067ZM0.999997 9.99998C0.815917 9.99998 0.666677 9.85074 0.666677 9.66666C0.666677 9.48258 0.815917 9.33334 0.999997 9.33334H1.66667C1.85075 9.33334 1.99999 9.48258 1.99999 9.66666V9.99998H0.999997ZM4.33334 19C4.33334 19.1841 4.1841 19.3333 4.00002 19.3333H1.66667C1.48259 19.3333 1.33335 19.1841 1.33335 19V18H4.33334V19ZM18.6667 19C18.6667 19.1841 18.5174 19.3333 18.3333 19.3333H16C15.8159 19.3333 15.6667 19.1841 15.6667 19V18H18.6667V19ZM19.2333 12.3723C19.2972 12.4349 19.3332 12.5206 19.3333 12.61V17C19.3333 17.1841 19.1841 17.3333 19 17.3333H0.999997C0.815917 17.3333 0.666677 17.1841 0.666677 17V12.61C0.666775 12.5206 0.702797 12.4349 0.766673 12.3723L2.47133 10.6667H6.23799C8.43167 12.4444 11.5703 12.4444 13.764 10.6667H17.5306L19.2333 12.3723ZM18 9.99998V9.66666C18 9.48258 18.1493 9.33334 18.3333 9.33334H19C19.1841 9.33334 19.3333 9.48258 19.3333 9.66666C19.3333 9.85074 19.1841 9.99998 19 9.99998H18Z" fill="black"/>
<path d="M7.03334 5.82799C7.21014 5.82829 7.37978 5.75811 7.50468 5.63298L7.67967 5.45799L8.40501 6.18333L8.23835 6.34999C7.29117 6.2471 6.43927 6.92982 6.33333 7.87667C6.32349 8.0886 6.42788 8.28961 6.60691 8.40342C6.78597 8.51726 7.01224 8.52651 7.2 8.42766C7.41768 8.31166 7.49999 8.39433 7.55268 8.45066C7.60533 8.50699 7.68866 8.58399 7.57469 8.79599C7.47548 8.9782 7.47945 9.19912 7.58509 9.37766C7.69076 9.5562 7.88255 9.66597 8.08999 9.66666H8.11C8.39231 9.64983 8.66399 9.55308 8.89334 9.38767C9.42052 9.02472 9.70821 8.40348 9.644 7.76666L9.81667 7.59367L11.6943 9.47132C11.9554 9.73224 12.3785 9.73224 12.6397 9.47132L13.1093 8.99998C13.3687 8.73979 13.3687 8.31884 13.1093 8.05865L11.2317 6.18132L11.7587 5.65398C12.2645 5.71779 12.7714 5.54345 13.131 5.18199C13.43 4.90732 13.6162 4.53129 13.6533 4.12697V4.12464C13.6635 3.91258 13.5592 3.71131 13.3801 3.59733C13.2009 3.48336 12.9745 3.47421 12.7867 3.57329C12.5687 3.68962 12.4843 3.60429 12.4323 3.55196C12.3803 3.49963 12.2953 3.41463 12.4147 3.2003C12.5127 3.01324 12.5039 2.78818 12.3917 2.60931C12.2847 2.42897 12.0867 2.32271 11.8773 2.33331C11.5949 2.3502 11.3231 2.44708 11.0937 2.61263C10.5638 2.97748 10.2766 3.60334 10.3454 4.24295L9.82001 4.76861L9.09468 4.04328L9.39067 3.7473C9.56041 3.57745 9.6257 3.32946 9.56162 3.09807C9.49752 2.86665 9.31393 2.68762 9.081 2.62933L7.94935 2.34633C7.72209 2.29013 7.48201 2.3566 7.31601 2.52165L5.855 3.98298C5.72991 4.10801 5.65964 4.27762 5.65964 4.45449C5.65964 4.63135 5.72991 4.80096 5.855 4.92599L6.56233 5.63331C6.68716 5.75834 6.85667 5.82842 7.03334 5.82799ZM12.6367 8.52799L12.1667 8.99998L10.2883 7.12332L10.76 6.65165L12.6367 8.52799ZM10.9393 4.59234C11.0216 4.51016 11.0551 4.39104 11.0277 4.27802C10.9373 3.84988 11.1131 3.40938 11.4733 3.16103C11.5609 3.09847 11.6585 3.05142 11.762 3.02203C11.621 3.36572 11.7005 3.76045 11.9634 4.02284C12.2264 4.28523 12.6213 4.36381 12.9646 4.22205C12.9052 4.40839 12.7993 4.57656 12.657 4.71071C12.4162 4.95683 12.0623 5.05538 11.729 4.96903C11.6151 4.94013 11.4944 4.9733 11.4113 5.05637L9.05134 7.41638C8.96988 7.49781 8.93622 7.61552 8.96233 7.72772C9.04832 8.15418 8.87198 8.59088 8.51399 8.83805C8.4261 8.90061 8.32811 8.94762 8.22434 8.97705C8.37597 8.63573 8.29582 8.23587 8.02435 7.97939C7.86083 7.80301 7.63151 7.70236 7.391 7.70138C7.26387 7.70246 7.13813 7.72759 7.02035 7.77539C7.07993 7.58901 7.18589 7.42084 7.32834 7.28673C7.57236 7.03894 7.93111 6.94209 8.26666 7.03339C8.38099 7.06302 8.50248 7.02991 8.586 6.94639L10.9393 4.59234ZM9.34867 5.23999L8.87668 5.71198L8.15134 4.98665L8.62334 4.51465L9.34867 5.23999ZM7.78767 2.99299L8.921 3.27468L7.03334 5.16168L6.32602 4.45468L7.78767 2.99299Z" fill="black"/>
</g>
<defs>
<clipPath id="clip0_3069_830">
<rect width="20" height="20" fill="white"/>
</clipPath>
</defs>
</svg>
