<svg width="24" height="22" viewBox="0 0 24 22" fill="none" xmlns="http://www.w3.org/2000/svg">
<path d="M23.6709 1.72364C23.1395 0.660656 22.0705 0 20.8813 0H11.1923C9.337 0 7.56621 0.794906 6.33358 2.18166L1.63849 7.46292C0.579254 8.65383 -0.00387128 10.1875 1.93438e-05 11.8457L0.836082 18.2989H0.836551C0.956176 19.2237 1.38546 20.0963 2.04522 20.7559C2.84758 21.5582 3.91418 22.0001 5.04911 22.0001H21.9996C23.1029 22 24 21.103 24 20V3.11817C24 2.63672 23.8863 2.15433 23.6709 1.72364ZM23.0001 20H23C23 20.5513 22.5513 21 22.0001 21H5.05225C4.18507 21 3.36916 20.6621 2.75585 20.0488C2.25147 19.5444 1.92335 18.8774 1.83203 18.1699L1 11.7812C1 10.4326 1.49364 9.13523 2.38914 8.12695L7.08354 2.84573C8.1265 1.67287 9.62505 1.00003 11.1944 1.00003H20.8819C21.6895 1.00003 22.4156 1.44877 22.7764 2.17092C22.9229 2.46342 23.0001 2.79103 23.0001 3.11817V20Z" fill="white"/>
</svg>
