<svg width="20" height="20" viewBox="0 0 20 20" fill="none" xmlns="http://www.w3.org/2000/svg">
<g clip-path="url(#clip0_3069_850)">
<path d="M17.9664 1.9168H17.0137V1.12773C17.0137 0.505859 16.5074 0 15.8848 0C15.2629 0 14.757 0.505859 14.757 1.12773V1.9168H13.0906V1.12773C13.0906 0.505859 12.5844 0 11.9617 0C11.3399 0 10.834 0.505859 10.834 1.12773V1.9168H9.16759V1.12773C9.16759 0.505859 8.66134 0 8.03868 0C7.41603 0 6.90978 0.505859 6.90978 1.12773V1.9168H5.24337V1.12773C5.24298 0.505859 4.73712 0 4.11525 0C3.49259 0 2.98634 0.505859 2.98634 1.12773V1.9168H2.03361C1.23048 1.9168 0.576965 2.57031 0.576965 3.37344V18.5434C0.576965 19.3465 1.23048 20 2.03361 20H17.9664C18.7695 20 19.4231 19.3465 19.4231 18.5434V3.37344C19.4231 2.57031 18.7695 1.9168 17.9664 1.9168ZM15.3824 1.12773C15.3824 0.850781 15.6078 0.625391 15.8848 0.625391C16.1621 0.625391 16.3879 0.850781 16.3879 1.12773V3.33008C16.3879 3.60742 16.1621 3.8332 15.8848 3.8332C15.6078 3.8332 15.3824 3.60742 15.3824 3.33008V1.12773ZM11.4594 1.12773C11.4594 0.850781 11.6848 0.625391 11.9617 0.625391C12.2391 0.625391 12.4649 0.850781 12.4649 1.12773V3.33008C12.4649 3.60742 12.2391 3.8332 11.9617 3.8332C11.6848 3.8332 11.4594 3.60742 11.4594 3.33008V1.12773ZM7.53517 1.12773C7.53517 0.850781 7.76095 0.625391 8.03829 0.625391C8.31564 0.625391 8.54142 0.850781 8.54142 1.12773V3.33008C8.54142 3.60742 8.31564 3.8332 8.03829 3.8332C7.76095 3.8332 7.53517 3.60742 7.53517 3.33008V1.12773ZM3.61212 1.12773C3.61212 0.850781 3.8379 0.625391 4.11525 0.625391C4.3922 0.625391 4.61759 0.850781 4.61759 1.12773V3.33008C4.61759 3.60742 4.3922 3.8332 4.11525 3.8332C3.8379 3.8332 3.61212 3.60742 3.61212 3.33008V1.12773ZM2.03361 2.54258H2.98634V3.33047C2.98634 3.95312 3.49259 4.45938 4.11525 4.45938C4.73712 4.45938 5.24298 3.95312 5.24298 3.33047V2.54258H6.90939V3.33047C6.90939 3.95312 7.41564 4.45938 8.03829 4.45938C8.66095 4.45938 9.1672 3.95312 9.1672 3.33047V2.54258H10.8336V3.33047C10.8336 3.95312 11.3395 4.45938 11.9613 4.45938C12.584 4.45938 13.0902 3.95312 13.0902 3.33047V2.54258H14.7567V3.33047C14.7567 3.95312 15.2625 4.45938 15.8844 4.45938C16.507 4.45938 17.0133 3.95312 17.0133 3.33047V2.54258H17.966C18.4242 2.54258 18.7969 2.91523 18.7969 3.37344V5.44336H1.20275V3.37344C1.20275 2.91523 1.5754 2.54258 2.03361 2.54258ZM17.9664 19.3742H2.03361C1.5754 19.3742 1.20275 19.0016 1.20275 18.5434V6.06914H18.7977V18.5434C18.7973 19.0016 18.4246 19.3742 17.9664 19.3742ZM11.0086 12.4012C11.0086 12.5738 10.8688 12.7141 10.6957 12.7141H8.78556C8.6129 12.7141 8.47267 12.5742 8.47267 12.4012V10.491C8.47267 10.3184 8.61251 10.1781 8.78556 10.1781C8.95861 10.1781 9.09845 10.318 9.09845 10.491V12.0883H10.6957C10.8688 12.0883 11.0086 12.2285 11.0086 12.4012ZM15.8016 10.402H13.5297C13.1563 9.51562 12.5461 8.75625 11.7543 8.19609C10.8828 7.57969 9.85626 7.25391 8.78556 7.25391C5.94728 7.25391 3.63829 9.56289 3.63829 12.4012C3.63829 15.2395 5.94728 17.5484 8.78556 17.5484C9.59767 17.5484 10.3961 17.3547 11.1125 16.9922V17.6297C11.1125 17.9391 11.3637 18.1906 11.6723 18.1906H15.8012C16.1106 18.1906 16.3621 17.9391 16.3621 17.6297V16.9797C16.3621 16.7223 16.1867 16.5055 15.9492 16.4402V15.6906C15.9492 15.4184 15.8285 15.1793 15.6102 15.0184L14.8621 14.4641C14.8039 14.4215 14.777 14.3676 14.777 14.2953C14.777 14.2238 14.8047 14.1687 14.8629 14.1258L15.6094 13.5727C15.8285 13.4113 15.9492 13.1723 15.9492 12.9V12.1516C16.1867 12.0867 16.3621 11.8695 16.3621 11.6121V10.9621C16.3625 10.6535 16.1109 10.402 15.8016 10.402ZM15.7367 11.5469H11.7383V11.0277H11.9457H11.9469H15.7363V11.5469H15.7367ZM11.5246 12.152V12.9004C11.5246 13.1648 11.6387 13.3977 11.8453 13.5582C11.3672 14.8313 10.1641 15.6723 8.78556 15.6723C6.98165 15.6723 5.51407 14.2047 5.51407 12.4008C5.51407 10.5977 6.98165 9.13047 8.78556 9.13047C9.83595 9.13047 10.8082 9.63125 11.4199 10.4625C11.2379 10.5551 11.1125 10.7441 11.1125 10.9625V11.6125C11.1129 11.8703 11.2879 12.0871 11.5246 12.152ZM4.26447 12.4012C4.26447 9.90781 6.29298 7.87969 8.78595 7.87969C10.5113 7.87969 12.0871 8.87695 12.8418 10.402H12.1301C11.427 9.22734 10.1629 8.50508 8.78595 8.50508C6.63712 8.50508 4.88868 10.2527 4.88868 12.4012C4.88868 14.55 6.63673 16.2984 8.78595 16.2984C9.63868 16.2984 10.4485 16.0281 11.1277 15.5164C11.668 15.1094 12.0969 14.5609 12.3645 13.9434L12.6125 14.127C12.6699 14.1691 12.6977 14.2242 12.6977 14.2957C12.6977 14.368 12.6707 14.4219 12.6117 14.4652L11.8652 15.0184C11.6461 15.1797 11.5254 15.4187 11.5254 15.691V15.998C10.743 16.5949 9.77618 16.923 8.78634 16.923C6.29259 16.9227 4.26447 14.8945 4.26447 12.4012ZM15.7367 17.5648H11.7383V17.0457H15.7367V17.5648ZM15.2379 13.0699L14.4914 13.623C14.2723 13.7844 14.1516 14.0234 14.1516 14.2957C14.1516 14.568 14.2723 14.807 14.4906 14.968L15.2387 15.5223C15.2969 15.5648 15.3238 15.6187 15.3238 15.691V16.4203H12.1504V16.1523V15.6914C12.1504 15.6191 12.1774 15.5652 12.2363 15.5219L12.9828 14.9688C13.202 14.8074 13.3227 14.5684 13.3227 14.2961C13.3227 14.0238 13.202 13.7848 12.9836 13.6238L12.2356 13.0695C12.1774 13.0266 12.1504 12.973 12.1504 12.9008V12.1727H15.3238V12.9008C15.3238 12.973 15.2969 13.0266 15.2379 13.0699Z" fill="black"/>
</g>
<defs>
<clipPath id="clip0_3069_850">
<rect width="20" height="20" fill="white"/>
</clipPath>
</defs>
</svg>
