<svg width="28" height="28" viewBox="0 0 28 28" fill="none" xmlns="http://www.w3.org/2000/svg">
<g clip-path="url(#clip0_1409_370)">
<path d="M14 6.7522C10.0035 6.7522 6.7522 10.0035 6.7522 14C6.7522 17.9965 10.0035 21.2478 14 21.2478C17.9965 21.2478 21.2478 17.9965 21.2478 14C21.2478 10.0035 17.9965 6.7522 14 6.7522ZM14 20.3728C10.4861 20.3728 7.6272 17.5139 7.6272 14C7.6272 10.4861 10.4861 7.6272 14 7.6272C17.5139 7.6272 20.3728 10.4861 20.3728 14C20.3728 17.5139 17.5139 20.3728 14 20.3728Z" fill="#949495"/>
<path d="M5.27177 14.0001C5.27177 11.0449 6.74983 8.31305 9.22572 6.69208C9.42781 6.55984 9.48442 6.28876 9.35197 6.08646C9.21974 5.88458 8.94887 5.82776 8.74635 5.9602C6.02287 7.7431 4.39677 10.7488 4.39677 14.0001C4.39677 14.4712 4.43485 14.9381 4.5023 15.3997L3.67814 14.5963C3.5049 14.428 3.22825 14.4314 3.05928 14.6042C2.89073 14.7773 2.89436 15.0544 3.06718 15.2231L4.86912 16.9795C4.87168 16.9874 4.87334 16.9956 4.87593 17.0034C4.93638 17.1876 5.1075 17.3044 5.29143 17.3044C5.33671 17.3044 5.38286 17.2972 5.42814 17.2822C5.65758 17.2068 5.78255 16.9594 5.70692 16.73C5.4181 15.8522 5.27177 14.9337 5.27177 14.0001Z" fill="#949495"/>
<path d="M27.0573 15.3374C27.0764 15.1479 27.09 14.9572 27.1009 14.7661C27.1028 14.7335 27.1064 14.7014 27.108 14.6688C27.1191 14.4468 27.125 14.2239 27.125 14C27.125 13.7761 27.1191 13.5532 27.108 13.3311C27.1064 13.2993 27.1029 13.268 27.1011 13.2362C27.0901 13.044 27.0764 12.8524 27.0573 12.6619C27.0565 12.655 27.0554 12.6483 27.0547 12.6414C26.7489 9.64911 25.4366 6.87511 23.2806 4.71936C21.1249 2.56342 18.3509 1.25106 15.3586 0.945255C15.3517 0.944561 15.345 0.943466 15.3381 0.942745C15.1476 0.923573 14.956 0.909901 14.7638 0.898926C14.732 0.89711 14.7007 0.893585 14.6689 0.891983C14.4468 0.880901 14.2239 0.875 14 0.875C13.7761 0.875 13.5532 0.880901 13.3311 0.891983C13.2993 0.893585 13.268 0.89711 13.2362 0.898926C13.044 0.909901 12.8524 0.923573 12.6619 0.942745C12.655 0.943466 12.6483 0.944561 12.6414 0.945255C9.64911 1.25106 6.87511 2.56342 4.71936 4.71936C2.56342 6.87511 1.25106 9.64911 0.945255 12.6414C0.944561 12.6483 0.943466 12.655 0.942745 12.6619C0.923573 12.8524 0.909901 13.044 0.898926 13.2362C0.89711 13.268 0.893585 13.2993 0.891983 13.3311C0.880901 13.5532 0.875 13.7761 0.875 14C0.875 14.2239 0.880901 14.4468 0.891983 14.6689C0.893585 14.7007 0.89711 14.732 0.898926 14.7638C0.909901 14.956 0.923573 15.1476 0.942745 15.3381C0.943466 15.345 0.944561 15.3517 0.945255 15.3586C1.25106 18.3509 2.56342 21.1249 4.71936 23.2806C6.87511 25.4366 9.64911 26.7489 12.6414 27.0547C12.6483 27.0554 12.655 27.0565 12.6619 27.0573C12.8524 27.0764 13.044 27.0901 13.2362 27.1011C13.268 27.1029 13.2993 27.1064 13.3311 27.108C13.5532 27.1191 13.7761 27.125 14 27.125C14.2239 27.125 14.4468 27.1191 14.6689 27.108C14.7007 27.1064 14.732 27.1029 14.7638 27.1011C14.956 27.0901 15.1476 27.0764 15.3381 27.0573C15.345 27.0565 15.3517 27.0554 15.3586 27.0547C18.3509 26.7489 21.1249 25.4366 23.2806 23.2806C25.4347 21.1266 26.7466 18.3551 27.0538 15.3657C27.0548 15.3562 27.0563 15.3469 27.0573 15.3374ZM26.2342 14.6242C26.2327 14.6544 26.2293 14.6842 26.2275 14.7143C26.2172 14.8934 26.2048 15.0719 26.1868 15.2489C26.1861 15.2557 26.185 15.2624 26.1843 15.2692C25.5904 21.0125 21.0125 25.5904 15.2692 26.1843C15.2624 26.185 15.2557 26.1861 15.2489 26.1868C15.0719 26.2048 14.8934 26.2172 14.7143 26.2275C14.6842 26.2293 14.6544 26.2327 14.6242 26.2342C14.4174 26.2446 14.2093 26.25 14 26.25C13.7907 26.25 13.5826 26.2446 13.3758 26.2342C13.3456 26.2327 13.3158 26.2293 13.2857 26.2275C13.1066 26.2172 12.9281 26.2048 12.7511 26.1868C12.7443 26.1861 12.7376 26.185 12.7308 26.1843C6.9875 25.5904 2.40964 21.0125 1.81572 15.2692C1.81502 15.2624 1.8139 15.2557 1.81323 15.2489C1.79523 15.0719 1.78282 14.8934 1.77246 14.7143C1.77075 14.6842 1.76733 14.6544 1.76583 14.6242C1.75539 14.4174 1.75 14.2093 1.75 14C1.75 13.7907 1.75539 13.5826 1.76583 13.3758C1.76733 13.3456 1.77075 13.3158 1.77246 13.2857C1.78282 13.1066 1.79523 12.9281 1.81323 12.7511C1.8139 12.7443 1.81502 12.7376 1.81572 12.7308C2.40964 6.9875 6.9875 2.40964 12.7308 1.81572C12.7376 1.81502 12.7443 1.8139 12.7511 1.81323C12.9281 1.79523 13.1066 1.78282 13.2857 1.77246C13.3158 1.77075 13.3456 1.76733 13.3758 1.76583C13.5826 1.75539 13.7907 1.75 14 1.75C14.2093 1.75 14.4174 1.75539 14.6242 1.76583C14.6544 1.76733 14.6842 1.77075 14.7143 1.77246C14.8934 1.78282 15.0719 1.79523 15.2489 1.81323C15.2557 1.8139 15.2624 1.81502 15.2692 1.81572C21.0125 2.40964 25.5904 6.9875 26.1843 12.7308C26.185 12.7376 26.1861 12.7443 26.1868 12.7511C26.2048 12.9281 26.2172 13.1066 26.2275 13.2857C26.2293 13.3158 26.2327 13.3456 26.2342 13.3758C26.2446 13.5826 26.25 13.7907 26.25 14C26.25 14.2093 26.2446 14.4174 26.2342 14.6242Z" fill="#949495"/>
<path d="M15.2595 9.04956H12.7405C12.4989 9.04956 12.303 9.24545 12.303 9.48706V19.0728C12.303 19.3144 12.4989 19.5103 12.7405 19.5103H15.2595C15.5011 19.5103 15.697 19.3144 15.697 19.0728V9.48706C15.697 9.24545 15.5011 9.04956 15.2595 9.04956ZM14.822 18.6353H13.178V9.92456H14.822V18.6353Z" fill="#949495"/>
<path d="M14 5.88596C14.8113 5.88596 15.4714 5.22586 15.4714 4.41431C15.4714 3.60297 14.8113 2.94287 14 2.94287C13.1887 2.94287 12.5286 3.60297 12.5286 4.41431C12.5286 5.22586 13.1887 5.88596 14 5.88596ZM14 3.81787C14.329 3.81787 14.5964 4.08533 14.5964 4.41431C14.5964 4.74329 14.329 5.01096 14 5.01096C13.671 5.01096 13.4036 4.74329 13.4036 4.41431C13.4036 4.08533 13.671 3.81787 14 3.81787Z" fill="#949495"/>
<path d="M19.7374 6.18169C19.1639 6.75527 19.1639 7.6888 19.7374 8.26281C20.0243 8.54949 20.4012 8.69283 20.778 8.69283C21.1548 8.69283 21.5317 8.54949 21.8183 8.2626C22.0965 7.98467 22.2494 7.6151 22.2494 7.22204C22.2494 6.82897 22.0963 6.4594 21.8186 6.18169C21.2627 5.62585 20.2933 5.62542 19.7374 6.18169ZM21.1997 7.64394C20.9673 7.87637 20.5887 7.87637 20.3563 7.64394C20.1237 7.41131 20.1237 7.03298 20.3561 6.80035C20.4689 6.68755 20.6186 6.6256 20.778 6.6256C20.9371 6.6256 21.0869 6.68755 21.1997 6.80056C21.3125 6.91314 21.3744 7.06289 21.3744 7.22204C21.3744 7.3814 21.3125 7.53115 21.1997 7.64394Z" fill="#949495"/>
<path d="M17.5933 5.65405C17.8349 5.65405 18.0308 5.45816 18.0308 5.21655C18.0308 4.97495 17.8349 4.77905 17.5933 4.77905H17.5888C17.3472 4.77905 17.1537 4.97495 17.1537 5.21655C17.1537 5.45816 17.3517 5.65405 17.5933 5.65405Z" fill="#949495"/>
<path d="M10.6075 5.88599C10.8491 5.88599 11.045 5.69009 11.045 5.44849C11.045 5.20688 10.8491 5.01099 10.6075 5.01099H10.603C10.3614 5.01099 10.1678 5.20688 10.1678 5.44849C10.1678 5.69009 10.3659 5.88599 10.6075 5.88599Z" fill="#949495"/>
</g>
<defs>
<clipPath id="clip0_1409_370">
<rect width="28" height="28" fill="white"/>
</clipPath>
</defs>
</svg>
