<svg width="22" height="22" viewBox="0 0 22 22" fill="none" xmlns="http://www.w3.org/2000/svg">
<path d="M13.9517 12.2222L13.9517 11.4644L20.3134 11.4644C20.4366 11.4644 20.5547 11.4155 20.6418 11.3284C20.7289 11.2413 20.7778 11.1232 20.7778 11C20.7778 10.8768 20.7289 10.7587 20.6418 10.6716C20.5547 10.5845 20.4366 10.5355 20.3134 10.5355L13.9517 10.5355L13.9517 9.77776C13.9501 9.32444 13.7693 8.89015 13.4488 8.5696C13.1282 8.24905 12.6939 8.06826 12.2406 8.06665L9.77783 8.06665C9.32451 8.06826 8.89022 8.24905 8.56967 8.5696C8.24913 8.89015 8.06833 9.32444 8.06672 9.77776L8.06672 10.5539L1.68672 10.5539C1.56354 10.5539 1.44541 10.6028 1.35831 10.6899C1.27121 10.777 1.22228 10.8951 1.22228 11.0183C1.22228 11.1415 1.27121 11.2596 1.35831 11.3467C1.44541 11.4338 1.56354 11.4828 1.68672 11.4828L8.04839 11.4828L8.04839 12.2222C8.05 12.6755 8.23079 13.1098 8.55134 13.4304C8.87189 13.7509 9.30618 13.9317 9.7595 13.9333L12.2223 13.9333C12.4483 13.9349 12.6724 13.8919 12.8818 13.8067C13.0911 13.7215 13.2816 13.5958 13.4423 13.4369C13.603 13.2779 13.7307 13.0888 13.8181 12.8803C13.9055 12.6719 13.9509 12.4482 13.9517 12.2222ZM9.77783 13.0166C9.67282 13.0192 9.56839 13.0003 9.47087 12.9613C9.37334 12.9223 9.28476 12.8638 9.21048 12.7896C9.13621 12.7153 9.07778 12.6267 9.03875 12.5292C8.99971 12.4317 8.98088 12.3272 8.98339 12.2222L8.98339 9.77776C8.98088 9.67275 8.99971 9.56832 9.03875 9.47079C9.07778 9.37327 9.13621 9.28469 9.21048 9.21041C9.28476 9.13614 9.37334 9.07771 9.47087 9.03867C9.56839 8.99964 9.67282 8.98081 9.77783 8.98332L12.2223 8.98332C12.3273 8.98081 12.4317 8.99964 12.5292 9.03867C12.6268 9.07771 12.7153 9.13614 12.7896 9.21041C12.8639 9.28469 12.9223 9.37327 12.9614 9.47079C13.0004 9.56832 13.0192 9.67275 13.0167 9.77776L13.0167 12.2222C13.0192 12.3272 13.0004 12.4317 12.9614 12.5292C12.9223 12.6267 12.8639 12.7153 12.7896 12.7896C12.7153 12.8638 12.6268 12.9223 12.5292 12.9613C12.4317 13.0003 12.3273 13.0192 12.2223 13.0166L9.77783 13.0166Z" fill="black"/>
<path d="M7.11944 19.0728L7.11944 18.2967L20.3133 18.2967C20.4281 18.2836 20.534 18.2287 20.6109 18.1425C20.6878 18.0562 20.7303 17.9448 20.7303 17.8292C20.7303 17.7137 20.6878 17.6022 20.6109 17.516C20.534 17.4298 20.4281 17.3749 20.3133 17.3617L7.11944 17.3617L7.11944 16.5856C7.11944 16.1334 6.93981 15.6997 6.62006 15.38C6.30031 15.0602 5.86663 14.8806 5.41444 14.8806L2.92722 14.8806C2.47502 14.8806 2.04135 15.0602 1.7216 15.38C1.40185 15.6997 1.22222 16.1334 1.22222 16.5856L1.22222 19.0728C1.22222 19.525 1.40185 19.9587 1.7216 20.2785C2.04135 20.5982 2.47502 20.7778 2.92722 20.7778L5.41444 20.7778C5.86663 20.7778 6.30031 20.5982 6.62006 20.2785C6.93981 19.9587 7.11944 19.525 7.11944 19.0728ZM2.92722 19.8489C2.72138 19.8489 2.52397 19.7672 2.37842 19.6216C2.23288 19.4761 2.15111 19.2787 2.15111 19.0728L2.15111 16.5856C2.15111 16.3798 2.23288 16.1824 2.37842 16.0368C2.52397 15.8913 2.72138 15.8095 2.92722 15.8095L5.41444 15.8095C5.62028 15.8095 5.81768 15.8913 5.96323 16.0368C6.10878 16.1824 6.19055 16.3798 6.19055 16.5856L6.19055 19.0728C6.19055 19.2787 6.10878 19.4761 5.96323 19.6216C5.81768 19.7672 5.62028 19.8489 5.41444 19.8489L2.92722 19.8489Z" fill="black"/>
<path d="M20.7778 5.41439L20.7778 2.92717C20.7778 2.47497 20.5982 2.0413 20.2784 1.72155C19.9587 1.4018 19.525 1.22217 19.0728 1.22217L16.5856 1.22217C16.1334 1.22217 15.6997 1.4018 15.38 1.72155C15.0602 2.0413 14.8806 2.47497 14.8806 2.92717L14.8806 3.70328L1.68672 3.70328C1.57194 3.71642 1.46601 3.77133 1.38911 3.85755C1.3122 3.94376 1.2697 4.05525 1.2697 4.17078C1.2697 4.28631 1.3122 4.3978 1.38911 4.48401C1.46601 4.57022 1.57194 4.62513 1.68672 4.63828L14.8806 4.63828L14.8806 5.41439C14.8806 5.63829 14.9247 5.86001 15.0104 6.06687C15.0961 6.27373 15.2217 6.46168 15.38 6.62001C15.5383 6.77833 15.7263 6.90392 15.9331 6.98961C16.14 7.07529 16.3617 7.11939 16.5856 7.11939L19.0728 7.11939C19.525 7.11939 19.9587 6.93976 20.2784 6.62001C20.5982 6.30026 20.7778 5.86658 20.7778 5.41439ZM16.5856 6.1905C16.3798 6.1905 16.1824 6.10873 16.0368 5.96318C15.8913 5.81763 15.8095 5.62023 15.8095 5.41439L15.8095 2.92717C15.8095 2.72133 15.8913 2.52392 16.0368 2.37837C16.1824 2.23283 16.3798 2.15106 16.5856 2.15106L19.0728 2.15106C19.2787 2.15106 19.4761 2.23283 19.6216 2.37837C19.7672 2.52392 19.8489 2.72133 19.8489 2.92717L19.8489 5.41439C19.8489 5.62023 19.7672 5.81763 19.6216 5.96318C19.4761 6.10873 19.2787 6.1905 19.0728 6.1905L16.5856 6.1905Z" fill="black"/>
</svg>
