<svg width="18" height="18" viewBox="0 0 18 18" fill="none" xmlns="http://www.w3.org/2000/svg">
<g clip-path="url(#clip0_0_623)">
<path d="M7.39341 15.8034C7.36197 16.0132 7.23442 16.1962 7.04851 16.2982C6.86261 16.4004 6.63977 16.4099 6.4459 16.3238L3.577 15.0565C3.43489 14.9939 3.36418 14.8333 3.41389 14.6861L4.85349 10.4087C5.08388 9.7339 5.77065 9.32694 6.47322 9.44887L6.92316 9.5296C7.69369 9.66402 8.21433 10.3914 8.09282 11.1643L7.39341 15.8034ZM6.68796 15.7749C6.71075 15.7856 6.73725 15.7845 6.75908 15.7718C6.78174 15.7599 6.79725 15.7375 6.80041 15.712L7.50174 11.0767C7.51616 10.9769 7.51272 10.8753 7.49144 10.7767L6.98425 11.1775C6.73931 11.3685 6.55656 11.628 6.45935 11.9232L5.36012 15.19L6.68796 15.7749ZM6.81867 10.1223L6.36887 10.0416C6.32054 10.0329 6.27153 10.0287 6.22237 10.0287C5.86114 10.0296 5.54013 10.2595 5.42287 10.6012L4.06977 14.6204L4.80969 14.9471L5.89107 11.7338C6.02507 11.3277 6.27661 10.9704 6.61382 10.7075L7.16371 10.2725C7.06155 10.197 6.94361 10.1457 6.81867 10.1223Z" fill="#949495"/>
<path d="M17.231 2.84905L12.7521 4.16879C12.6915 4.18677 12.6352 4.21684 12.5868 4.25721L11.007 5.57337L10.7523 5.78633L8.68826 16.5149C8.58391 17.0602 8.23654 17.5283 7.74459 17.7859C7.25265 18.0433 6.67008 18.0622 6.16248 17.8372L3.28452 16.5658C3.00415 16.8979 2.54158 17.0113 2.13929 16.8466L0.621298 16.2239C0.110126 16.0144 -0.134405 15.4303 0.0748405 14.9192L2.83939 8.17083L2.63426 7.93385C2.25161 7.49064 2.2998 6.82144 2.74191 6.43754L5.90504 3.69702C6.11799 3.51263 6.39548 3.4205 6.67626 3.44082C6.95718 3.46114 7.21846 3.59226 7.40272 3.80522L7.9143 4.39698L9.06405 3.43903H9.06584L11.1954 1.70685C11.3045 1.61788 11.4304 1.5517 11.5655 1.51216L16.4173 0.0821697C16.9792 -0.0828657 17.5686 0.238418 17.7343 0.800115L17.9491 1.52932C18.0292 1.79953 17.9985 2.09047 17.8638 2.33816C17.7291 2.58571 17.5015 2.76956 17.231 2.84905ZM7.65315 5.01332L6.9488 4.19872C6.86875 4.10618 6.75521 4.0492 6.63301 4.04027C6.51095 4.03149 6.39026 4.07158 6.29772 4.15163L3.13459 6.89105C2.94237 7.05787 2.9215 7.34867 3.08777 7.5413L3.41344 7.91792C3.48759 8.00346 3.50736 8.12346 3.46452 8.22808L0.62981 15.145C0.546057 15.3495 0.643951 15.5831 0.848392 15.6669L2.36694 16.2893C2.46525 16.3295 2.5755 16.3291 2.67353 16.288C2.77143 16.247 2.849 16.1686 2.88923 16.0703C2.91985 15.9953 2.97944 15.9359 3.05468 15.9055C3.12978 15.8752 3.21395 15.8764 3.28809 15.9092L6.40481 17.2862C6.74532 17.4367 7.1358 17.4237 7.46546 17.2509C7.79526 17.0782 8.02826 16.7646 8.09856 16.399L10.1828 5.56555C10.196 5.49758 10.2322 5.43621 10.2853 5.39186L10.3795 5.31333L9.23046 4.08119L8.07151 5.04641C7.94601 5.15076 7.75997 5.13552 7.65315 5.01223V5.01332ZM17.3738 1.69971L17.1596 0.969956C17.1251 0.852427 17.0452 0.75357 16.9377 0.694943C16.8302 0.636453 16.7039 0.622997 16.5865 0.657734L11.7377 2.08511C11.6789 2.10241 11.6243 2.13111 11.5769 2.16969L9.69454 3.69936L10.8409 4.92916L12.2029 3.79382C12.3141 3.70087 12.4432 3.6318 12.5822 3.59103L17.0618 2.27225C17.3061 2.20017 17.4456 1.94397 17.3738 1.69971Z" fill="#949495"/>
<path d="M15.8999 10.3474C15.3393 10.3601 14.7979 10.143 14.4014 9.74648C14.0049 9.34995 13.7876 8.80858 13.8004 8.24784C13.8004 7.29168 14.9624 5.56498 15.4468 5.00617C15.5638 4.88013 15.728 4.80859 15.8999 4.80859C16.0719 4.80859 16.2361 4.88013 16.3531 5.00617C16.8375 5.56498 17.9995 7.29168 17.9995 8.24784C18.0121 8.80858 17.795 9.34995 17.3985 9.74648C17.002 10.143 16.4606 10.3601 15.8999 10.3474ZM15.8999 5.39844C15.3709 6.0086 14.4003 7.55351 14.4003 8.24784C14.3864 8.64972 14.5399 9.03924 14.8243 9.32359C15.1085 9.60794 15.4981 9.76144 15.8999 9.74757C16.3018 9.76144 16.6913 9.60794 16.9756 9.32359C17.26 9.03924 17.4135 8.64972 17.3996 8.24784C17.3996 7.55378 16.4288 6.00888 15.8999 5.39844Z" fill="#949495"/>
<path d="M9.40032 5.63272C9.47749 5.65249 9.5438 5.70205 9.58444 5.77057C9.62508 5.83922 9.63675 5.92119 9.61685 5.99835L9.46691 6.58572C9.43286 6.71835 9.31341 6.81117 9.17652 6.81131C9.1514 6.81144 9.12641 6.80829 9.10211 6.80197C8.9416 6.76106 8.84467 6.59767 8.88558 6.43716L9.03551 5.84965C9.05515 5.77249 9.10458 5.70631 9.17295 5.66567C9.24133 5.62503 9.32316 5.61308 9.40032 5.63272Z" fill="#949495"/>
<path d="M9.14355 7.56711L8.71847 9.36671C8.68648 9.50195 8.56565 9.59765 8.4267 9.59765C8.40336 9.59779 8.38029 9.59504 8.35764 9.58955C8.19672 9.55165 8.09677 9.3906 8.13425 9.22955L8.5592 7.42995C8.58391 7.3256 8.66231 7.24226 8.76501 7.2115C8.86771 7.18061 8.97906 7.20697 9.05719 7.28043C9.13517 7.35402 9.16813 7.46358 9.14355 7.56793V7.56711Z" fill="#949495"/>
</g>
<defs>
<clipPath id="clip0_0_623">
<rect width="18" height="18" fill="white" transform="matrix(-1 0 0 1 18 0)"/>
</clipPath>
</defs>
</svg>
