<svg width="16" height="16" viewBox="0 0 16 16" fill="none" xmlns="http://www.w3.org/2000/svg">
<path d="M12.9257 6.16895C12.8967 6.11765 12.8545 6.07498 12.8036 6.04529C12.7526 6.0156 12.6947 5.99995 12.6357 5.99995H8.26908L9.00116 0.406369C9.00902 0.331508 8.99145 0.256181 8.95129 0.192517C8.91113 0.128853 8.85072 0.0805566 8.77977 0.0554039C8.70883 0.0302511 8.63148 0.0297056 8.56019 0.0538553C8.48889 0.0780049 8.4278 0.125444 8.38675 0.188536L3.07641 9.49204C3.04536 9.54254 3.02834 9.60042 3.02711 9.6597C3.02588 9.71898 3.04048 9.77751 3.06941 9.82926C3.09834 9.88101 3.14055 9.92412 3.19169 9.95412C3.24283 9.98412 3.30104 9.99995 3.36033 9.99995H7.66175L7.08158 15.602C7.07588 15.6766 7.09529 15.7509 7.13673 15.8132C7.17817 15.8755 7.23925 15.9222 7.31026 15.9457C7.38127 15.9693 7.45812 15.9685 7.52859 15.9433C7.59906 15.9182 7.65911 15.8702 7.69916 15.807L12.9217 6.50454C12.952 6.45395 12.9684 6.39624 12.9691 6.33728C12.9698 6.27833 12.9548 6.22024 12.9257 6.16895Z" fill="#249B41"/>
</svg>
