<svg width="28" height="24" viewBox="0 0 28 24" fill="none" xmlns="http://www.w3.org/2000/svg">
<path d="M14.0001 12.4738C13.612 12.4685 13.231 12.3686 12.8902 12.1826C12.5494 11.9967 12.2592 11.7304 12.0447 11.4068C11.8303 11.0833 11.698 10.7122 11.6595 10.326C11.621 9.93969 11.6773 9.54985 11.8236 9.19029C11.848 9.13308 11.8834 9.08124 11.9278 9.03774C11.9722 8.99424 12.0248 8.95995 12.0825 8.93682C12.1402 8.91368 12.2019 8.90218 12.2641 8.90295C12.3262 8.90373 12.3876 8.91677 12.4448 8.94133C12.5019 8.9659 12.5536 9.0015 12.5969 9.04609C12.6402 9.09068 12.6743 9.14339 12.6972 9.20119C12.7201 9.25899 12.7314 9.32074 12.7304 9.38291C12.7293 9.44507 12.7161 9.50642 12.6913 9.56344C12.5717 9.85098 12.55 10.1699 12.6296 10.471C12.7093 10.772 12.8858 11.0385 13.132 11.2293C13.3782 11.4201 13.6803 11.5245 13.9917 11.5265C14.3031 11.5285 14.6065 11.4279 14.8551 11.2404C15.1037 11.0528 15.2837 10.7886 15.3672 10.4885C15.4507 10.1885 15.4331 9.86933 15.3172 9.58028C15.2013 9.29123 14.9934 9.04836 14.7258 8.88918C14.4581 8.72999 14.1455 8.66333 13.8361 8.69949C13.7745 8.70677 13.712 8.70182 13.6522 8.68492C13.5925 8.66802 13.5366 8.6395 13.4879 8.60099C13.4392 8.56248 13.3985 8.51474 13.3683 8.46051C13.338 8.40627 13.3188 8.3466 13.3116 8.28492C13.3045 8.22323 13.3096 8.16074 13.3266 8.10102C13.3436 8.0413 13.3722 7.98553 13.4108 7.93689C13.4495 7.88825 13.4973 7.8477 13.5516 7.81757C13.6059 7.78743 13.6656 7.7683 13.7273 7.76127C14.0471 7.72414 14.3711 7.75273 14.6795 7.84527C14.9878 7.93782 15.2741 8.09238 15.5206 8.29946C15.7671 8.50655 15.9687 8.76181 16.1131 9.04958C16.2574 9.33736 16.3415 9.65159 16.3601 9.973C16.3787 10.2944 16.3315 10.6163 16.2213 10.9188C16.1111 11.2213 15.9403 11.4981 15.7193 11.7322C15.4983 11.9664 15.2319 12.153 14.9363 12.2805C14.6406 12.408 14.3221 12.4738 14.0001 12.4738ZM14.4226 17.5856L15.5675 15.2654C16.7859 14.8943 17.8336 14.1037 18.5248 13.0339C19.2159 11.964 19.506 10.684 19.3434 9.4207C19.1681 8.0631 18.4825 6.82316 17.426 5.95279C16.3694 5.08242 15.0212 4.64691 13.6551 4.73474C12.2891 4.82256 11.0077 5.42713 10.0713 6.42563C9.13488 7.42412 8.61372 8.74164 8.61368 10.1105C8.60495 11.2608 8.97005 12.3827 9.65402 13.3076C10.338 14.2324 11.3038 14.9101 12.4062 15.2386L13.5776 17.5856C13.6168 17.6641 13.6771 17.7301 13.7517 17.7763C13.8264 17.8224 13.9124 17.8469 14.0001 17.8469C14.0879 17.8469 14.1739 17.8224 14.2485 17.7763C14.3231 17.7301 14.3834 17.6641 14.4226 17.5856ZM14.5075 5.69689C15.4919 5.81229 16.4097 6.25259 17.1158 6.94815C17.8219 7.64371 18.276 8.55483 18.4061 9.53739C18.5407 10.5798 18.3018 11.6361 17.7319 12.5192C17.162 13.4022 16.2978 14.055 15.2926 14.3618C15.1758 14.3969 15.0674 14.4554 14.9739 14.5337C14.8804 14.612 14.8038 14.7085 14.7488 14.8173L14.0001 16.3168L13.2515 14.8168C13.1964 14.7082 13.1198 14.6118 13.0264 14.5336C12.933 14.4555 12.8247 14.3971 12.7081 14.362C11.6896 14.0523 10.8161 13.3871 10.2467 12.4876C9.67736 11.5881 9.44988 10.5141 9.60572 9.46098C9.76156 8.40788 10.2904 7.44575 11.0959 6.74971C11.9013 6.05366 12.93 5.66999 13.9946 5.66852C14.1659 5.6685 14.3372 5.67797 14.5075 5.69689ZM28 17.4585C28 15.055 25.1821 12.9812 20.462 11.9108C20.4015 11.8971 20.3388 11.8954 20.2777 11.9058C20.2165 11.9163 20.158 11.9387 20.1055 11.9718C20.053 12.0048 20.0075 12.0479 19.9717 12.0986C19.9358 12.1493 19.9103 12.2065 19.8966 12.267C19.8829 12.3276 19.8813 12.3902 19.8918 12.4514C19.9024 12.5125 19.9248 12.571 19.958 12.6235C19.9911 12.6759 20.0343 12.7214 20.085 12.7571C20.1357 12.7929 20.193 12.8183 20.2535 12.832C24.3855 13.7693 27.0553 15.5853 27.0553 17.4585C27.0553 20.3312 21.0769 22.7582 14.0001 22.7582C6.92337 22.7582 0.944673 20.3312 0.944673 17.4585C0.944673 15.5784 3.62188 13.7605 7.76518 12.8276C7.8257 12.814 7.88293 12.7885 7.93362 12.7528C7.98431 12.7171 8.02747 12.6717 8.06062 12.6192C8.09377 12.5668 8.11628 12.5084 8.12684 12.4472C8.13741 12.3861 8.13583 12.3235 8.1222 12.263C8.10857 12.2025 8.08316 12.1453 8.04741 12.0946C8.01166 12.0439 7.96628 12.0007 7.91385 11.9676C7.86142 11.9344 7.80298 11.9119 7.74186 11.9013C7.68073 11.8908 7.61813 11.8924 7.55761 11.906C2.89583 12.9556 0 15.0832 0 17.4585C0 20.96 6.1496 23.7029 14.0001 23.7029C21.8504 23.7029 28 20.96 28 17.4585ZM20.7526 8.13836C20.899 7.67938 20.9381 7.19293 20.867 6.71644C20.7958 6.23996 20.6163 5.78614 20.3423 5.38992C20.0682 4.9937 19.7069 4.66564 19.2862 4.43097C18.8654 4.1963 18.3965 4.06129 17.9153 4.03633C17.7907 4.03148 17.6691 4.07541 17.5763 4.15878C17.4836 4.24215 17.427 4.3584 17.4186 4.48283C17.4153 4.5448 17.4242 4.6068 17.4449 4.66531C17.4656 4.72381 17.4976 4.77766 17.5392 4.82379C17.5807 4.86993 17.6308 4.90743 17.6868 4.93417C17.7428 4.9609 17.8036 4.97635 17.8655 4.97962C18.2024 4.99694 18.5309 5.09136 18.8255 5.2556C19.1202 5.41984 19.3732 5.64952 19.5651 5.92695C19.7571 6.20438 19.8827 6.52216 19.9325 6.85582C19.9823 7.18947 19.9548 7.5301 19.8522 7.85146C19.8142 7.97086 19.8251 8.10048 19.8826 8.21181C19.9401 8.32314 20.0395 8.40706 20.1589 8.44511C20.2783 8.48315 20.408 8.47221 20.5193 8.41468C20.6306 8.35716 20.7145 8.25776 20.7526 8.13836ZM22.7254 8.51083C22.9166 7.79627 22.9515 7.04887 22.8277 6.3196C22.704 5.59032 22.4244 4.8963 22.0081 4.28485C21.5918 3.6734 21.0486 3.15889 20.4155 2.77639C19.7823 2.39388 19.0742 2.15238 18.3392 2.06834C18.2149 2.05434 18.0901 2.09022 17.9922 2.16811C17.8943 2.24601 17.8313 2.35955 17.817 2.48383C17.8027 2.60812 17.8383 2.733 17.916 2.83108C17.9937 2.92916 18.1071 2.99243 18.2313 3.00701C18.8315 3.07546 19.4098 3.27254 19.9268 3.58479C20.4439 3.89705 20.8876 4.31715 21.2275 4.81643C21.5675 5.31572 21.7958 5.88245 21.8968 6.47797C21.9979 7.0735 21.9693 7.68381 21.813 8.26729C21.7969 8.32725 21.7927 8.38981 21.8008 8.45139C21.8088 8.51297 21.8289 8.57235 21.86 8.62614C21.891 8.67993 21.9323 8.72707 21.9816 8.76486C22.0309 8.80265 22.0872 8.83034 22.1472 8.84636C22.2072 8.86238 22.2697 8.8664 22.3313 8.8582C22.3928 8.85 22.4522 8.82973 22.5059 8.79856C22.5596 8.7674 22.6067 8.72594 22.6443 8.67657C22.682 8.62719 22.7096 8.57088 22.7254 8.51083ZM24.7905 8.91537C25.033 7.9311 25.0664 6.9069 24.8884 5.90894C24.7104 4.91097 24.3251 3.96144 23.7573 3.12168C23.1895 2.28193 22.4518 1.57061 21.592 1.0337C20.7321 0.496788 19.7692 0.146215 18.7655 0.00462834C18.704 -0.00403388 18.6415 -0.000513334 18.5814 0.0149891C18.5214 0.0304916 18.465 0.0576724 18.4154 0.0949795C18.3658 0.132287 18.3241 0.178989 18.2926 0.232421C18.2611 0.285853 18.2404 0.344968 18.2318 0.406391C18.2231 0.467813 18.2266 0.53034 18.2421 0.590402C18.2576 0.650464 18.2848 0.706884 18.3221 0.756441C18.3594 0.805999 18.4061 0.847722 18.4596 0.879231C18.513 0.910739 18.5721 0.931414 18.6335 0.940076C19.5065 1.06314 20.3439 1.36798 21.0918 1.83489C21.8396 2.30179 22.4811 2.92038 22.975 3.6507C23.4688 4.38101 23.8039 5.2068 23.9587 6.07471C24.1135 6.94262 24.0845 7.83335 23.8735 8.68935C23.8435 8.81098 23.8631 8.93953 23.9279 9.04674C23.9927 9.15396 24.0974 9.23105 24.219 9.26109C24.2561 9.27013 24.2942 9.27469 24.3325 9.27469C24.438 9.27455 24.5404 9.2391 24.6234 9.17398C24.7064 9.10886 24.7653 9.0178 24.7905 8.91537Z" fill="#949495"/>
</svg>
