<svg width="20" height="20" viewBox="0 0 20 20" fill="none" xmlns="http://www.w3.org/2000/svg">
<path d="M12.28 11.14C12.08 10.94 11.76 10.94 11.58 11.14L10.1 12.62C9.90001 12.82 9.90001 13.14 10.1 13.32C10.3 13.52 10.62 13.52 10.8 13.32L11.44 12.68V17.28C11.44 17.56 11.66 17.78 11.94 17.78C12.22 17.78 12.44 17.56 12.44 17.28V12.68L13.08 13.32C13.18 13.42 13.3 13.46 13.44 13.46C13.58 13.46 13.7 13.42 13.8 13.32C14 13.12 14 12.8 13.8 12.62L12.28 11.14Z" fill="#D9E821"/>
<path d="M9.20001 15.46L8.56001 16.1V11.5C8.56001 11.22 8.34001 11 8.06001 11C7.78001 11 7.56001 11.22 7.56001 11.5V16.1L6.92001 15.46C6.72001 15.26 6.40001 15.26 6.22001 15.46C6.02001 15.66 6.02001 15.98 6.22001 16.16L7.70001 17.64C7.80001 17.74 7.92001 17.78 8.06001 17.78C8.20001 17.78 8.32001 17.74 8.42001 17.64L9.90001 16.16C10.1 15.96 10.1 15.64 9.90001 15.46C9.72001 15.26 9.40001 15.26 9.20001 15.46Z" fill="#D9E821"/>
<path d="M16.62 6.82001C16.62 6.76001 16.62 6.68001 16.62 6.62001C16.62 4.18001 14.64 2.20001 12.2 2.20001C10.62 2.20001 9.16 3.06001 8.38 4.42001C8.16 4.38001 7.94 4.36001 7.72 4.36001C6.18 4.36001 4.82 5.30001 4.26 6.70001C4.24 6.70001 4.22 6.70001 4.2 6.70001C2.44 6.70001 1 8.14001 1 9.92001C1 11.7 2.44 13.14 4.22 13.14H4.78C5.06 13.14 5.28 12.92 5.28 12.64C5.28 12.36 5.06 12.14 4.78 12.14H4.22C3 12.14 2 11.14 2 9.92001C2 8.70001 3 7.70001 4.22 7.70001C4.34 7.70001 4.44 7.70001 4.54 7.72001C4.8 7.76001 5.04 7.60001 5.1 7.36001C5.42 6.18001 6.5 5.36001 7.72 5.36001C8 5.36001 8.26 5.40001 8.5 5.48001C8.74 5.56001 9 5.44001 9.1 5.20001C9.66 3.98001 10.88 3.20001 12.2 3.20001C14.08 3.20001 15.62 4.74001 15.62 6.62001C15.62 6.80001 15.6 6.98001 15.58 7.14001C15.56 7.28001 15.6 7.42001 15.68 7.52001C15.76 7.62001 15.88 7.70001 16.02 7.72001C17.14 7.84001 18 8.78001 18 9.92001C18 11.14 17 12.14 15.78 12.14H15.22C14.94 12.14 14.72 12.36 14.72 12.64C14.72 12.92 14.94 13.14 15.22 13.14H15.78C17.56 13.14 19 11.7 19 9.92001C19 8.44001 18 7.18001 16.62 6.82001Z" fill="#D9E821"/>
</svg>
