<svg width="32" height="32" viewBox="0 0 32 32" fill="none" xmlns="http://www.w3.org/2000/svg">
<path d="M21 1.625C20.3101 1.625 19.6392 1.705 18.9912 1.84715C18.6789 1.7042 18.3403 1.625 18 1.625H4C2.69045 1.625 1.625 2.69045 1.625 4V28C1.625 29.3095 2.69045 30.375 4 30.375H18C19.3095 30.375 20.375 29.3095 20.375 28V20.3433C20.5825 20.3571 20.789 20.375 21 20.375C26.1694 20.375 30.375 16.1694 30.375 11C30.375 5.83055 26.1694 1.625 21 1.625ZM19.625 28C19.625 28.896 18.896 29.625 18 29.625H4C3.104 29.625 2.375 28.896 2.375 28V4C2.375 3.104 3.104 2.375 4 2.375H17.3292C16.5725 2.69825 15.8712 3.1238 15.2318 3.625H4C3.79295 3.625 3.625 3.79295 3.625 4V27C3.625 27.2071 3.79295 27.375 4 27.375H18C18.2071 27.375 18.375 27.2071 18.375 27V19.994C18.7806 20.1126 19.1987 20.1995 19.625 20.2626V28ZM10 10.375H11.6567C11.6429 10.5825 11.625 10.7891 11.625 11C11.625 11.2109 11.6429 11.4175 11.6567 11.625H4.375V10.375H8C8.20705 10.375 8.375 10.2071 8.375 10V4.375H9.625V10C9.625 10.2071 9.79295 10.375 10 10.375ZM7.625 9.625H4.375V4.375H7.625V9.625ZM4.375 23.2414L12.625 19.4922V26.625H4.375V23.2414ZM17.625 19.7364V26.625H15.375V18.4822C16.0593 18.998 16.8138 19.4219 17.625 19.7364ZM14.625 26.625H13.375V18.9099C13.375 18.7824 13.3103 18.6635 13.2031 18.5947C13.0964 18.5256 12.9609 18.5161 12.8449 18.5686L4.375 22.4177V21.2414L13.1551 17.2512C13.2891 17.1904 13.375 17.0569 13.375 16.9099V16.4342C13.7433 16.9494 14.1625 17.4237 14.625 17.8542V26.625ZM12.625 16.6684L4.375 20.4178V12.375H11.7374C11.8851 13.3729 12.188 14.3188 12.625 15.189V16.6684ZM11.7374 9.625H10.375V4.375H14.373C12.9835 5.7649 12.0384 7.59145 11.7374 9.625ZM21 19.625C16.2442 19.625 12.375 15.7558 12.375 11C12.375 6.24415 16.2442 2.375 21 2.375C25.7558 2.375 29.625 6.24415 29.625 11C29.625 15.7558 25.7558 19.625 21 19.625ZM23.5259 7.1946L16.753 9.84475C16.3382 10.0071 16.0928 10.3989 16.1282 10.8431C16.1636 11.2872 16.4678 11.635 16.9031 11.7297L19.6689 12.331L20.2703 15.0969C20.365 15.5322 20.7129 15.8364 21.1569 15.8718C21.1852 15.874 21.2134 15.8752 21.2414 15.8752C21.6501 15.8752 22.0031 15.6355 22.1552 15.2471L24.8053 8.4741C24.9506 8.103 24.8659 7.6975 24.5842 7.41575C24.3027 7.134 23.8979 7.0486 23.5259 7.1946ZM24.1072 8.2007L21.4571 14.9736C21.399 15.1221 21.2706 15.1292 21.2166 15.1243C21.1636 15.1199 21.0371 15.0933 21.0032 14.9378L20.3505 11.9363C20.3193 11.7928 20.2073 11.6807 20.0637 11.6495L17.0623 10.9969C16.9067 10.9629 16.8801 10.8365 16.8757 10.7835C16.8716 10.7305 16.8779 10.6012 17.0264 10.543L23.7994 7.89285C23.8321 7.88015 23.8621 7.87505 23.8895 7.87505C23.9718 7.87505 24.0291 7.92145 24.054 7.9461C24.087 7.97905 24.1583 8.07005 24.1072 8.2007Z" fill="black"/>
</svg>
