<svg width="24" height="24" viewBox="0 0 24 24" fill="none" xmlns="http://www.w3.org/2000/svg">
<path fill-rule="evenodd" clip-rule="evenodd" d="M8.10414 4.9567C7.12808 5.89638 6.5 7.29986 6.5 9.15789C6.5 10.3814 7.15581 11.8845 8.09016 13.3808C9.01287 14.8584 10.1572 16.252 11.0325 17.2382C11.5571 17.8293 12.4429 17.8293 12.9675 17.2382C13.8428 16.252 14.9871 14.8584 15.9098 13.3808C16.8442 11.8845 17.5 10.3814 17.5 9.15789C17.5 7.29986 16.8719 5.89638 15.8959 4.9567C14.9159 4.0133 13.5463 3.5 12 3.5C10.4537 3.5 9.08406 4.0133 8.10414 4.9567ZM7.41058 4.2363C8.60223 3.08905 10.2326 2.5 12 2.5C13.7674 2.5 15.3978 3.08905 16.5894 4.2363C17.7849 5.38726 18.5 7.06274 18.5 9.15789C18.5 10.678 17.7108 12.3847 16.758 13.9104C15.7936 15.4549 14.6087 16.8955 13.7154 17.902C12.793 18.9414 11.207 18.9414 10.2846 17.902C9.39129 16.8955 8.20638 15.4549 7.24196 13.9104C6.28918 12.3847 5.5 10.678 5.5 9.15789C5.5 7.06274 6.21507 5.38726 7.41058 4.2363Z" fill="#D9E821"/>
<path fill-rule="evenodd" clip-rule="evenodd" d="M12 6.5C11.1716 6.5 10.5 7.17157 10.5 8C10.5 8.82843 11.1716 9.5 12 9.5C12.8284 9.5 13.5 8.82843 13.5 8C13.5 7.17157 12.8284 6.5 12 6.5ZM9.5 8C9.5 6.61929 10.6193 5.5 12 5.5C13.3807 5.5 14.5 6.61929 14.5 8C14.5 9.38071 13.3807 10.5 12 10.5C10.6193 10.5 9.5 9.38071 9.5 8Z" fill="#D9E821"/>
<path fill-rule="evenodd" clip-rule="evenodd" d="M8.9685 15.6817H9.5V16.6817H9.03169C7.60779 16.8641 6.42309 17.1705 5.60766 17.5416C5.1958 17.729 4.90331 17.9217 4.72091 18.1024C4.54 18.2817 4.5 18.4144 4.5 18.5C4.5 18.612 4.57362 18.8107 4.9258 19.0709C5.26819 19.3239 5.79561 19.5728 6.49228 19.7905C7.87968 20.2241 9.82705 20.5 12 20.5C14.173 20.5 16.1203 20.2241 17.5077 19.7905C18.2044 19.5728 18.7318 19.3239 19.0742 19.0709C19.4264 18.8107 19.5 18.612 19.5 18.5C19.5 18.4144 19.46 18.2817 19.2791 18.1024C19.0967 17.9217 18.8042 17.729 18.3923 17.5416C17.5769 17.1705 16.3922 16.8641 14.9683 16.6817H14.5V15.6817H15.0315L15.0627 15.6857C16.5568 15.8747 17.8608 16.201 18.8065 16.6314C19.2782 16.846 19.686 17.0978 19.983 17.3921C20.2815 17.6879 20.5 18.061 20.5 18.5C20.5 19.0783 20.1259 19.5372 19.6684 19.8752C19.2012 20.2205 18.557 20.5103 17.806 20.745C16.298 21.2162 14.2453 21.5 12 21.5C9.75468 21.5 7.70204 21.2162 6.19401 20.745C5.44297 20.5103 4.79881 20.2205 4.33156 19.8752C3.8741 19.5372 3.5 19.0783 3.5 18.5C3.5 18.061 3.71852 17.6879 4.01701 17.3921C4.31401 17.0978 4.7218 16.846 5.19346 16.6314C6.13916 16.201 7.44315 15.8747 8.93725 15.6857L8.9685 15.6817Z" fill="#D9E821"/>
</svg>
