<svg width="21" height="20" viewBox="0 0 21 20" fill="none" xmlns="http://www.w3.org/2000/svg">
<g clip-path="url(#clip0_0_169)">
<path d="M0 4.9157V6.23665C7.60093 6.23665 13.7633 12.3991 13.7633 20H15.0843L20.065 0.361944C20.1176 0.148487 19.9258 -0.0433147 19.7123 0.00927616L0 4.9157ZM14.6419 16.4486C13.321 10.9977 9.02707 6.6945 3.57927 5.36426L18.3882 1.67672L14.6419 16.4486Z" fill="#D9E821"/>
<path d="M7.8577 20H6.5553C6.5553 16.3836 3.6133 13.4447 0 13.4447V12.1423C4.33411 12.1423 7.8577 15.669 7.8577 20Z" fill="#D9E821"/>
<path d="M11.4617 20H10.1593C10.1593 14.3976 5.60248 9.84073 0 9.84073V8.53833C6.32019 8.53833 11.4617 13.6799 11.4617 20Z" fill="#D9E821"/>
<path d="M2.56456 4.98374L18.8399 1.03943L14.5862 17.6829L12.1206 12.8755L9.71692 9.94585L7.06572 7.63494L2.31708 5.72311L2.56456 4.98374Z" fill="#D9E821"/>
</g>
<defs>
<clipPath id="clip0_0_169">
<rect width="20.0742" height="20" fill="white"/>
</clipPath>
</defs>
</svg>
