<svg width="16" height="16" viewBox="0 0 16 16" fill="none" xmlns="http://www.w3.org/2000/svg">
<g clip-path="url(#clip0_0_141)">
<path d="M4.72728 7.99998C4.72728 7.59833 4.40166 7.27271 4.00001 7.27271H1.09092C0.689272 7.27271 0.363647 7.59833 0.363647 7.99998C0.363647 8.40163 0.689272 8.72725 1.09092 8.72725H4.00001C4.40166 8.72725 4.72728 8.40163 4.72728 7.99998Z" fill="#F5AD01"/>
<path d="M14.9091 7.27271H13.4546C13.0529 7.27271 12.7273 7.59833 12.7273 7.99998C12.7273 8.40163 13.0529 8.72725 13.4546 8.72725H14.9091C15.3108 8.72725 15.6364 8.40163 15.6364 7.99998C15.6364 7.59833 15.3108 7.27271 14.9091 7.27271Z" fill="#F5AD01"/>
<path d="M8.36363 4.36364C8.76527 4.36364 9.0909 4.03801 9.0909 3.63636V0.727273C9.0909 0.325624 8.76527 0 8.36363 0C7.96198 0 7.63635 0.325624 7.63635 0.727273V3.63636C7.63635 4.03801 7.96198 4.36364 8.36363 4.36364Z" fill="#F5AD01"/>
<path d="M8.36369 11.6364C7.96204 11.6364 7.63641 11.962 7.63641 12.3636V15.2727C7.63641 15.6744 7.96204 16 8.36369 16C8.76533 16 9.09096 15.6744 9.09096 15.2727V12.3636C9.09096 11.962 8.76533 11.6364 8.36369 11.6364Z" fill="#F5AD01"/>
<path d="M3.7353 2.34313C3.45137 2.0591 2.99087 2.05915 2.70679 2.34313C2.42277 2.62715 2.42277 3.08761 2.70679 3.37164L4.76386 5.42875C4.90587 5.57076 5.092 5.64179 5.27809 5.64179C5.46417 5.64179 5.65036 5.57076 5.79232 5.4288C6.07634 5.14478 6.07634 4.68431 5.79232 4.40029L3.7353 2.34313Z" fill="#F5AD01"/>
<path d="M11.9634 10.5714C11.6795 10.2874 11.2189 10.2874 10.9349 10.5714C10.6509 10.8554 10.6509 11.3159 10.9349 11.5999L12.992 13.6569C13.1341 13.7989 13.3202 13.8699 13.5063 13.8699C13.6925 13.8699 13.8786 13.7989 14.0205 13.6569C14.3046 13.3729 14.3046 12.9124 14.0205 12.6284L11.9634 10.5714Z" fill="#F5AD01"/>
<path d="M4.76381 10.5713L2.70679 12.6283C2.42277 12.9123 2.42277 13.3728 2.70679 13.6568C2.8488 13.7988 3.03494 13.8698 3.22107 13.8698C3.4072 13.8698 3.59334 13.7988 3.7353 13.6568L5.79232 11.5998C6.07634 11.3158 6.07634 10.8553 5.79232 10.5713C5.5083 10.2873 5.04779 10.2873 4.76381 10.5713Z" fill="#F5AD01"/>
</g>
<defs>
<clipPath id="clip0_0_141">
<rect width="16" height="16" fill="white"/>
</clipPath>
</defs>
</svg>
