<svg width="22" height="22" viewBox="0 0 22 22" fill="none" xmlns="http://www.w3.org/2000/svg">
<g clip-path="url(#clip0_3069_893)">
<path d="M17.6458 17.4167H2.52083C1.13117 17.4167 0 16.2864 0 14.8959V6.18752C0 4.79694 1.13117 3.66669 2.52083 3.66669H17.6458C19.0355 3.66669 20.1667 4.79694 20.1667 6.18752V6.41669H20.3876C21.2722 6.41669 21.9917 7.13627 21.9917 8.02085V13.0625C21.9917 13.9471 21.2722 14.6667 20.3876 14.6667H20.1667V14.8959C20.1667 16.2864 19.0355 17.4167 17.6458 17.4167ZM2.52083 5.04169C1.88925 5.04169 1.375 5.55594 1.375 6.18752V14.8959C1.375 15.5274 1.88925 16.0417 2.52083 16.0417H17.6458C18.2774 16.0417 18.7917 15.5274 18.7917 14.8959V13.9792C18.7917 13.5997 19.0997 13.2917 19.4792 13.2917H20.3876C20.5141 13.2917 20.6167 13.189 20.6167 13.0625V8.02085C20.6167 7.89435 20.5141 7.79169 20.3876 7.79169H19.4792C19.0997 7.79169 18.7917 7.48369 18.7917 7.10419V6.18752C18.7917 5.55594 18.2774 5.04169 17.6458 5.04169H2.52083Z" fill="black"/>
<path d="M3.4375 14.6667C3.058 14.6667 2.75 14.3587 2.75 13.9792V7.10419C2.75 6.72469 3.058 6.41669 3.4375 6.41669C3.817 6.41669 4.125 6.72469 4.125 7.10419V13.9792C4.125 14.3587 3.817 14.6667 3.4375 14.6667Z" fill="black"/>
</g>
<defs>
<clipPath id="clip0_3069_893">
<rect width="22" height="22" fill="white"/>
</clipPath>
</defs>
</svg>
