<svg width="16" height="16" viewBox="0 0 16 16" fill="none" xmlns="http://www.w3.org/2000/svg">
<g clip-path="url(#clip0_0_868)">
<path d="M11.195 8.00014C11.195 6.23289 9.76229 4.80019 7.99503 4.80019C6.22778 4.80019 4.79523 6.23289 4.79523 8.00014C4.79523 9.7674 6.22778 11.2 7.99503 11.2C9.76229 11.2 11.195 9.7674 11.195 8.00014Z" fill="black"/>
<path d="M15.5201 8.48012H14.4502C14.2097 11.6752 11.6703 14.215 8.4752 14.4558V15.52C8.4752 15.7851 8.26018 16 7.9952 16C7.73007 16 7.51519 15.7851 7.51519 15.52V14.4558C4.31992 14.215 1.78044 11.6752 1.53992 8.48012H0.480008C0.214883 8.48012 0 8.26509 0 8.00012C0 7.73499 0.214883 7.52011 0.480008 7.52011H1.53992C1.78044 4.32499 4.31992 1.78521 7.51504 1.5444V0.479946C7.51504 0.214821 7.72993 -6.10352e-05 7.99505 -6.10352e-05C8.26003 -6.10352e-05 8.47491 0.214821 8.47491 0.479946V1.5444C11.6702 1.78506 14.2097 4.32484 14.4502 7.52011H15.5201C15.7852 7.52011 16.0001 7.73499 16.0001 8.00012C16.0001 8.26509 15.7852 8.48012 15.5201 8.48012ZM7.99505 2.48039C4.9467 2.48054 2.47562 4.95191 2.47562 8.00026C2.47577 11.0488 4.94714 13.5198 7.99549 13.5198C11.044 13.5198 13.5152 11.0485 13.5152 8.00012C13.5116 4.95294 11.0422 2.48376 7.99505 2.48039Z" fill="black"/>
</g>
<defs>
<clipPath id="clip0_0_868">
<rect width="16" height="16" fill="white" transform="matrix(1 0 0 -1 0 16)"/>
</clipPath>
</defs>
</svg>
