<svg width="20" height="20" viewBox="0 0 20 20" fill="none" xmlns="http://www.w3.org/2000/svg">
<g clip-path="url(#clip0_0_887)">
<path d="M11.5902 0.620047C11.2484 0.0279799 10.4887 -0.175613 9.8967 0.16626C9.60991 0.331845 9.40475 0.599187 9.31909 0.919068C9.25936 1.14192 9.2628 1.37164 9.32624 1.5875L7.54332 3.58315C7.39957 3.74405 7.41347 3.99096 7.57437 4.13471C7.73527 4.27846 7.98222 4.26448 8.12589 4.10366L9.71284 2.32734L12.1447 6.53954L14.5766 10.7517L6.19883 12.4985L4.44978 9.46906L4.01119 8.70945L5.78395 6.72517C5.9277 6.56427 5.9138 6.31736 5.7529 6.17361C5.592 6.02986 5.34505 6.04384 5.20138 6.20466L3.28201 8.35297L1.43167 9.42128C0.76988 9.80335 0.296484 10.4203 0.0987121 11.1584C-0.0990602 11.8965 0.00242362 12.6675 0.384492 13.3293C0.76656 13.9911 1.38351 14.4645 2.12163 14.6623C2.36815 14.7283 2.61823 14.761 2.86674 14.761C3.28522 14.761 3.69896 14.668 4.08295 14.486L4.57681 15.3414C4.77849 15.6907 5.14564 15.8862 5.52263 15.8862C5.70454 15.8862 5.88864 15.8404 6.05762 15.7447L8.29386 19.618C8.43515 19.8627 8.69237 19.9997 8.95655 19.9997C9.086 19.9997 9.21721 19.9668 9.33714 19.8975L10.834 19.0333C11.064 18.9005 11.2066 18.6627 11.2154 18.3972C11.2242 18.1317 11.0977 17.8849 10.8769 17.7372L10.4337 17.4406L8.60538 14.2738C9.11971 13.9711 9.29538 13.3074 8.99643 12.7896L8.95702 12.7213L15.025 11.4562C15.2617 11.7035 15.5883 11.8388 15.9223 11.8388C16.1324 11.8388 16.3453 11.7854 16.5401 11.673C17.132 11.3312 17.3356 10.5715 16.9938 9.97944L11.5902 0.620047ZM2.32386 13.9076C1.7873 13.7638 1.33882 13.4197 1.06109 12.9387C0.783356 12.4576 0.709568 11.8972 0.853356 11.3606C0.997144 10.8241 1.34124 10.3757 1.82234 10.0979L3.38865 9.19355L4.42849 10.9946L5.46833 12.7956L3.90193 13.6999C3.4208 13.9776 2.86038 14.0514 2.32386 13.9076ZM9.92373 18.0393L10.419 18.3708L8.96175 19.2122L6.73442 15.3544L7.92902 14.6647L9.80272 17.91C9.8326 17.9618 9.87397 18.006 9.92373 18.0393ZM8.31991 13.1803C8.40507 13.3277 8.35437 13.517 8.20691 13.6021L7.87675 13.7927C7.87671 13.7927 7.87668 13.7927 7.87664 13.7928C7.8766 13.7928 7.87656 13.7928 7.87652 13.7929L6.00567 14.873C6.00559 14.873 6.00551 14.8731 6.00544 14.8731C6.00536 14.8732 6.00532 14.8732 6.00524 14.8732L5.6752 15.0638C5.52778 15.1489 5.33856 15.0982 5.25337 14.9507L4.76447 14.104L6.14282 13.3081L8.15183 12.8893L8.31991 13.1803ZM16.1495 10.9965C16.0434 11.0577 15.9198 11.074 15.8016 11.0423C15.6833 11.0105 15.5844 10.9347 15.5232 10.8286L10.1195 1.46922C10.0583 1.36317 10.042 1.23957 10.0737 1.12129C10.1053 1.00301 10.1812 0.904107 10.2873 0.842897C10.3593 0.801335 10.438 0.781569 10.5158 0.781569C10.6744 0.781569 10.8288 0.863795 10.9137 1.01075L16.3174 10.3701C16.4437 10.5891 16.3685 10.8701 16.1495 10.9965Z" fill="black"/>
<path d="M15.5342 4.5825C15.6066 4.70782 15.7379 4.77786 15.8729 4.77786C15.9391 4.77786 16.0063 4.76098 16.0678 4.72547L18.5915 3.2684C18.7784 3.16055 18.8424 2.92165 18.7345 2.73481C18.6266 2.54797 18.3877 2.48395 18.2009 2.59184L15.6772 4.04891C15.4904 4.15676 15.4263 4.39567 15.5342 4.5825Z" fill="black"/>
<path d="M14.7456 3.27452C14.8071 3.31003 14.8742 3.3269 14.9405 3.3269C15.0755 3.3269 15.2068 3.25687 15.2791 3.13155L16.4816 1.0489C16.5895 0.862061 16.5254 0.623154 16.3386 0.515303C16.1517 0.407412 15.9129 0.471436 15.805 0.658272L14.6026 2.74093C14.4947 2.92772 14.5587 3.16667 14.7456 3.27452Z" fill="black"/>
<path d="M18.8167 5.52893H16.9149C16.6992 5.52893 16.5243 5.70381 16.5243 5.91956C16.5243 6.1353 16.6992 6.31018 16.9149 6.31018H18.8167C19.0324 6.31018 19.2073 6.1353 19.2073 5.91956C19.2073 5.70381 19.0324 5.52893 18.8167 5.52893Z" fill="black"/>
<path d="M19.8859 1.95344C19.8129 1.88079 19.7125 1.83899 19.6098 1.83899C19.5066 1.83899 19.4062 1.88079 19.3332 1.95344C19.2606 2.0261 19.2188 2.12688 19.2188 2.22961C19.2188 2.33235 19.2605 2.43313 19.3332 2.50579C19.4062 2.57844 19.5066 2.62024 19.6098 2.62024C19.7125 2.62024 19.8129 2.57844 19.8859 2.50579C19.9586 2.43313 20 2.33235 20 2.22961C20 2.12688 19.9586 2.0261 19.8859 1.95344Z" fill="black"/>
<path d="M6.6637 5.54453C6.76647 5.54453 6.86682 5.50313 6.93987 5.43047C7.01252 5.35781 7.05393 5.25703 7.05393 5.1543C7.05393 5.05117 7.01252 4.95078 6.93987 4.87773C6.86725 4.80508 6.76647 4.76367 6.6637 4.76367C6.56057 4.76367 6.46018 4.80508 6.38756 4.87773C6.31452 4.95078 6.27307 5.05117 6.27307 5.1543C6.27307 5.25703 6.31452 5.35781 6.38756 5.43047C6.46018 5.50313 6.56096 5.54453 6.6637 5.54453Z" fill="black"/>
</g>
<defs>
<clipPath id="clip0_0_887">
<rect width="20" height="20" fill="white"/>
</clipPath>
</defs>
</svg>
