<svg width="20" height="19" viewBox="0 0 20 19" fill="none" xmlns="http://www.w3.org/2000/svg">
<path fill-rule="evenodd" clip-rule="evenodd" d="M8.47627 0.245607C9.46641 -0.081869 10.5336 -0.081869 11.5237 0.245607C12.5098 0.57173 13.2841 1.34521 14.0618 2.43195C14.8371 3.51509 15.6938 5.02532 16.7979 6.97206L16.8413 7.04849C17.9457 8.99554 18.8023 10.5057 19.3362 11.7303C19.8725 12.9611 20.1397 14.0236 19.9266 15.0444C19.7119 16.0721 19.1827 17.0069 18.4119 17.7133C17.643 18.418 16.596 18.7152 15.2778 18.858C13.967 19 12.2523 19 10.0454 19H9.95469C7.74773 19 6.03305 19 4.72225 18.858C3.40397 18.7152 2.35701 18.418 1.58811 17.7133C0.817321 17.0069 0.288075 16.0721 0.0734425 15.0444C-0.13972 14.0236 0.127442 12.9611 0.66386 11.7303C1.19769 10.5057 2.05428 8.99554 3.15868 7.04848L3.20203 6.97206C4.30624 5.02532 5.16286 3.51509 5.93811 2.43195C6.71593 1.34521 7.49017 0.57173 8.47627 0.245607ZM11.0842 1.56506C10.3793 1.33197 9.62064 1.33197 8.9158 1.56506C8.36148 1.74841 7.80411 2.21929 7.07417 3.23913C6.34674 4.25546 5.52556 5.70132 4.39503 7.69446C3.26456 9.68742 2.44488 11.1345 1.94373 12.2842C1.4417 13.4359 1.31593 14.1693 1.43953 14.7612C1.59545 15.5078 1.97911 16.1826 2.53276 16.6901C2.96759 17.0886 3.64513 17.3429 4.87306 17.4759C6.09949 17.6087 7.73823 17.6098 9.99999 17.6098C12.2618 17.6098 13.9004 17.6087 15.127 17.4759C16.3549 17.3429 17.0324 17.0886 17.4672 16.6901C18.0209 16.1826 18.4045 15.5078 18.5604 14.7612C18.6841 14.1693 18.5583 13.4359 18.0563 12.2842C17.5551 11.1345 16.7354 9.68742 15.605 7.69446C14.4744 5.70132 13.6533 4.25546 12.9258 3.23913C12.1959 2.21929 11.6386 1.74841 11.0842 1.56506Z" fill="black"/>
<path fill-rule="evenodd" clip-rule="evenodd" d="M9.06232 13.2073C9.06232 12.6955 9.47878 12.2805 9.99255 12.2805H10.0009C10.5147 12.2805 10.9312 12.6955 10.9312 13.2073C10.9312 13.7192 10.5147 14.1342 10.0009 14.1342H9.99255C9.47878 14.1342 9.06232 13.7192 9.06232 13.2073Z" fill="black"/>
<path fill-rule="evenodd" clip-rule="evenodd" d="M9.99998 11.1219C9.61468 11.1219 9.30231 10.8107 9.30231 10.4268V6.71947C9.30231 6.33557 9.61468 6.02435 9.99998 6.02435C10.3853 6.02435 10.6977 6.33557 10.6977 6.71947V10.4268C10.6977 10.8107 10.3853 11.1219 9.99998 11.1219Z" fill="black"/>
</svg>
