<svg width="26" height="26" viewBox="0 0 26 26" fill="none" xmlns="http://www.w3.org/2000/svg">
<path d="M13 3.3605C10.0009 3.3605 7.28129 4.57678 5.30581 6.54082C5.29723 6.54836 5.28631 6.55096 5.27825 6.55902C5.27019 6.56708 5.26759 6.578 5.26005 6.58658C3.29627 8.5618 2.07999 11.2814 2.07999 14.2805C2.07999 16.9185 3.03289 19.4646 4.76423 21.4513C4.97483 21.6939 5.33987 21.7199 5.58297 21.5137L7.86499 19.5803C8.11537 19.3695 8.14267 18.9922 7.92583 18.747C6.83799 17.5131 6.23947 15.9263 6.23947 14.2802C6.23947 10.5524 9.27185 7.51998 12.9997 7.51998C14.5514 7.51998 16.068 8.05922 17.2684 9.03734C17.8656 9.52484 18.6074 8.61978 18.0073 8.13098C16.7502 7.1058 15.198 6.49558 13.5847 6.37546V4.55988C18.6885 4.86512 22.75 9.10182 22.75 14.2805C22.75 16.4393 22.0347 18.531 20.7246 20.2303L19.3315 19.0557C20.3666 17.6847 20.9302 16.0111 20.9302 14.2805C20.9302 13.5112 20.8197 12.7494 20.6019 12.0159C20.3788 11.2689 19.2621 11.6145 19.4805 12.3495C19.6656 12.974 19.76 13.6237 19.76 14.2805C19.76 15.9258 19.162 17.5118 18.0757 18.745C17.8602 18.9886 17.8843 19.3658 18.1373 19.579L20.4232 21.5069C20.6671 21.7134 21.0327 21.6845 21.2412 21.4438C22.9686 19.4587 23.92 16.9146 23.92 14.2805C23.92 8.25916 19.0213 3.3605 13 3.3605ZM7.82859 8.28126L6.54237 6.9953C8.12707 5.58896 10.1678 4.6943 12.415 4.55988V6.37962C10.6686 6.50832 9.07971 7.20122 7.82859 8.28126ZM6.67159 19.0588L5.28059 20.2371C4.08641 18.6904 3.39143 16.8176 3.27417 14.8655H5.09365C5.20597 16.3868 5.75223 17.842 6.67159 19.0588ZM5.09937 13.6955H3.27963C3.41405 11.4481 4.30871 9.40732 5.71505 7.82262L7.00127 9.10832C5.92097 10.3597 5.22781 11.9488 5.09937 13.6955Z" fill="black"/>
<path d="M14.3239 17.258C14.8746 16.7065 19.4314 10.7315 19.9493 10.0521C20.3497 9.52639 19.6999 8.84675 19.1594 9.21127C17.9847 9.99361 12.096 13.9264 11.5438 14.4786C10.7775 15.2448 10.7775 16.4918 11.5438 17.258C12.3084 18.0227 13.5559 18.0258 14.3239 17.258ZM12.3708 15.3057C12.6267 15.0535 14.7077 13.6201 16.8558 12.1667C15.2745 14.2217 13.7519 16.1748 13.4966 16.4307C12.7522 17.1753 11.6262 16.0503 12.3708 15.3057Z" fill="black"/>
<path d="M10.9868 20.423H15.0132C15.7874 20.423 15.7874 19.253 15.0132 19.253H10.9868C10.2125 19.253 10.2125 20.423 10.9868 20.423Z" fill="black"/>
<path d="M17.9239 21.4695H8.07638C7.3021 21.4695 7.3021 22.6395 8.07638 22.6395H17.9239C18.6979 22.6395 18.6979 21.4695 17.9239 21.4695Z" fill="black"/>
</svg>
