<svg width="24" height="24" viewBox="0 0 24 24" fill="none" xmlns="http://www.w3.org/2000/svg">
<path d="M6 13.6H1.6C1.1758 13.5995 0.76911 13.4308 0.469155 13.1308C0.1692 12.8309 0.000476422 12.4242 0 12V1.6C0.000476422 1.1758 0.1692 0.76911 0.469155 0.469155C0.76911 0.1692 1.1758 0.000476422 1.6 0H12C12.4242 0.000476422 12.8309 0.1692 13.1308 0.469155C13.4308 0.76911 13.5995 1.1758 13.6 1.6V8.4H12.8V1.6C12.7997 1.3879 12.7154 1.18457 12.5654 1.03459C12.4154 0.884617 12.2121 0.800251 12 0.8H1.6C1.3879 0.800251 1.18457 0.884617 1.03459 1.03459C0.884617 1.18457 0.800251 1.3879 0.8 1.6V12C0.800251 12.2121 0.884617 12.4154 1.03459 12.5654C1.18457 12.7154 1.3879 12.7997 1.6 12.8H6V13.6Z" fill="#949495"/>
<path d="M5.20002 12.0001H2.80002C2.69394 12.0001 2.5922 11.958 2.51718 11.8829C2.44217 11.8079 2.40002 11.7062 2.40002 11.6001V2.0001C2.40002 1.89401 2.44217 1.79227 2.51718 1.71725C2.5922 1.64224 2.69394 1.6001 2.80002 1.6001H7.60002C8.5548 1.6001 9.47048 1.97938 10.1456 2.65451C10.8207 3.32964 11.2 4.24532 11.2 5.2001C11.2 6.15488 10.8207 7.07055 10.1456 7.74568C9.47048 8.42081 8.5548 8.8001 7.60002 8.8001H5.60002V11.6001C5.60002 11.7062 5.55788 11.8079 5.48287 11.8829C5.40785 11.958 5.30611 12.0001 5.20002 12.0001ZM3.20002 11.2001H4.80002V8.4001C4.80002 8.29401 4.84217 8.19227 4.91718 8.11725C4.9922 8.04224 5.09394 8.0001 5.20002 8.0001H7.60002C8.34263 8.0001 9.05482 7.7051 9.57992 7.18C10.105 6.65489 10.4 5.9427 10.4 5.2001C10.4 4.45749 10.105 3.7453 9.57992 3.2202C9.05482 2.6951 8.34263 2.4001 7.60002 2.4001H3.20002V11.2001ZM7.60002 6.4001H5.20002C5.09394 6.4001 4.9922 6.35795 4.91718 6.28294C4.84217 6.20793 4.80002 6.10618 4.80002 6.0001V4.4001C4.80002 4.29401 4.84217 4.19227 4.91718 4.11725C4.9922 4.04224 5.09394 4.0001 5.20002 4.0001H7.60002C7.91828 4.0001 8.22351 4.12653 8.44855 4.35157C8.67359 4.57661 8.80002 4.88184 8.80002 5.2001C8.80002 5.51836 8.67359 5.82358 8.44855 6.04862C8.22351 6.27367 7.91828 6.4001 7.60002 6.4001ZM5.60002 5.6001H7.60002C7.70611 5.6001 7.80785 5.55795 7.88287 5.48294C7.95788 5.40792 8.00002 5.30618 8.00002 5.2001C8.00002 5.09401 7.95788 4.99227 7.88287 4.91725C7.80785 4.84224 7.70611 4.8001 7.60002 4.8001H5.60002V5.6001Z" fill="#949495"/>
<path d="M23.4828 15.7171C23.1656 15.3984 22.7381 15.2137 22.2887 15.2013L20.6529 10.2939C20.5469 9.97518 20.3432 9.69796 20.0707 9.50158C19.7982 9.30521 19.4708 9.19967 19.1349 9.19995H9.66493C9.32905 9.19967 9.00162 9.30521 8.72914 9.50158C8.45665 9.69796 8.25295 9.97518 8.14698 10.2939L6.51118 15.2013C6.05256 15.2152 5.61741 15.4072 5.29796 15.7366C4.97852 16.066 4.79988 16.5068 4.79993 16.9656V19.9999C4.8004 20.4241 4.96913 20.8308 5.26908 21.1308C5.56904 21.4307 5.97573 21.5995 6.39993 21.5999H9.19993V23.1999H6.79993V22.3999H5.99993V23.1999C6.00018 23.412 6.08454 23.6154 6.23452 23.7654C6.38449 23.9153 6.58783 23.9997 6.79993 23.9999H9.19993C9.41202 23.9997 9.61536 23.9153 9.76533 23.7654C9.91531 23.6154 9.99967 23.412 9.99993 23.1999V21.5999H18.7999V23.1999C18.8002 23.412 18.8845 23.6154 19.0345 23.7654C19.1845 23.9153 19.3878 23.9997 19.5999 23.9999H21.9999C22.212 23.9997 22.4154 23.9153 22.5653 23.7654C22.7153 23.6154 22.7997 23.412 22.7999 23.1999V21.5493C23.1432 21.4602 23.4471 21.2597 23.6643 20.9794C23.8814 20.699 23.9995 20.3546 23.9999 19.9999V16.9656C24.0006 16.7336 23.9552 16.5039 23.8664 16.2895C23.7776 16.0752 23.6472 15.8807 23.4828 15.7171ZM9.66493 9.99995H19.1349C19.3029 9.99983 19.4666 10.0526 19.6029 10.1508C19.7391 10.249 19.841 10.3876 19.894 10.547L19.9783 10.8H8.82158L8.90588 10.547C8.95888 10.3876 9.06074 10.249 9.19699 10.1508C9.33325 10.0526 9.49697 9.99983 9.66493 9.99995ZM8.55493 11.6H20.2449L21.4449 15.2H7.35493L8.55493 11.6ZM21.9999 23.1999H19.5999V21.5999H21.9999L22.0003 23.1999H21.9999ZM23.1999 19.9999C23.1997 20.212 23.1153 20.4154 22.9653 20.5654C22.8154 20.7153 22.612 20.7997 22.3999 20.7999H6.39993C6.18783 20.7997 5.98449 20.7153 5.83452 20.5654C5.68454 20.4154 5.60018 20.212 5.59993 19.9999V16.9656C5.59994 16.7095 5.70168 16.4639 5.88277 16.2828C6.06386 16.1017 6.30947 16 6.56558 16H22.2343C22.4904 16 22.736 16.1017 22.9171 16.2828C23.0982 16.4639 23.1999 16.7095 23.1999 16.9656V19.9999Z" fill="#949495"/>
<path d="M8.00003 16.8C7.68358 16.8 7.37423 16.8939 7.11111 17.0697C6.84799 17.2455 6.64292 17.4954 6.52182 17.7878C6.40072 18.0801 6.36903 18.4018 6.43077 18.7122C6.49251 19.0226 6.64489 19.3077 6.86865 19.5314C7.09242 19.7552 7.37751 19.9076 7.68788 19.9693C7.99825 20.031 8.31996 19.9994 8.61232 19.8783C8.90468 19.7572 9.15457 19.5521 9.33038 19.289C9.50619 19.0258 9.60002 18.7165 9.60002 18.4C9.59955 17.9758 9.43082 17.5692 9.13087 17.2692C8.83091 16.9692 8.42423 16.8005 8.00003 16.8ZM8.00003 19.2C7.8418 19.2 7.68713 19.1531 7.55557 19.0652C7.42401 18.9773 7.32147 18.8524 7.26092 18.7062C7.20037 18.56 7.18453 18.3992 7.2154 18.244C7.24626 18.0888 7.32246 17.9462 7.43434 17.8344C7.54622 17.7225 7.68877 17.6463 7.84395 17.6154C7.99914 17.5846 8.15999 17.6004 8.30617 17.6609C8.45235 17.7215 8.5773 17.824 8.6652 17.9556C8.75311 18.0872 8.80002 18.2418 8.80002 18.4C8.79977 18.6121 8.71541 18.8155 8.56543 18.9655C8.41546 19.1154 8.21212 19.1998 8.00003 19.2Z" fill="#949495"/>
<path d="M20.8001 16.8C20.4836 16.8 20.1743 16.8939 19.9112 17.0697C19.648 17.2455 19.443 17.4954 19.3219 17.7878C19.2008 18.0801 19.1691 18.4018 19.2308 18.7122C19.2926 19.0226 19.4449 19.3077 19.6687 19.5314C19.8925 19.7552 20.1776 19.9076 20.4879 19.9693C20.7983 20.031 21.12 19.9994 21.4124 19.8783C21.7047 19.7572 21.9546 19.5521 22.1304 19.289C22.3062 19.0258 22.4001 18.7165 22.4001 18.4C22.3996 17.9758 22.2309 17.5692 21.9309 17.2692C21.631 16.9692 21.2243 16.8005 20.8001 16.8ZM20.8001 19.2C20.6418 19.2 20.4872 19.1531 20.3556 19.0652C20.2241 18.9773 20.1215 18.8524 20.061 18.7062C20.0004 18.56 19.9846 18.3992 20.0154 18.244C20.0463 18.0888 20.1225 17.9462 20.2344 17.8344C20.3463 17.7225 20.4888 17.6463 20.644 17.6154C20.7992 17.5846 20.96 17.6004 21.1062 17.6609C21.2524 17.7215 21.3773 17.824 21.4653 17.9556C21.5532 18.0872 21.6001 18.2418 21.6001 18.4C21.5998 18.6121 21.5155 18.8155 21.3655 18.9655C21.2155 19.1154 21.0122 19.1998 20.8001 19.2Z" fill="#949495"/>
<path d="M10.4 17.2H18.4V18H10.4V17.2Z" fill="#949495"/>
<path d="M10.4 18.8H18.4V19.6H10.4V18.8Z" fill="#949495"/>
</svg>
