<svg width="20" height="20" viewBox="0 0 20 20" fill="none" xmlns="http://www.w3.org/2000/svg">
<g clip-path="url(#clip0_3069_875)">
<path d="M16.2106 4.33885L12.7353 10.2388L13.5941 11.0988L19.2635 1.47532C19.4118 1.22356 19.3529 0.901202 19.1247 0.718849C18.8976 0.53532 18.5706 0.547085 18.3565 0.744732L10.5129 8.0165L11.3447 8.84944L16.2106 4.33885Z" fill="black"/>
<path d="M9.98825 14.9023L7.9306 11.8764C7.8306 11.7294 7.66825 11.6353 7.4906 11.6212C7.3106 11.607 7.13766 11.6753 7.01531 11.8047L3.53884 15.5153L6.67884 9.17527L5.80001 8.29645L0.716482 18.5623C0.58707 18.8235 0.668246 19.1412 0.908246 19.307C1.0106 19.3776 1.12707 19.4117 1.24354 19.4117C1.40119 19.4117 1.55766 19.3482 1.67295 19.2259L7.37178 13.1459L9.53766 16.3317C9.6506 16.4976 9.83883 16.5941 10.0424 16.5882C10.2447 16.5823 10.4282 16.4729 10.5306 16.2988L11.7435 14.24L10.8847 13.3812L9.98825 14.9023Z" fill="black"/>
<path d="M19.2395 18.4075L1.59247 0.760458C1.3627 0.530694 0.990231 0.530694 0.760584 0.760458C0.530937 0.990223 0.530937 1.36258 0.760584 1.59234L18.4076 19.2394C18.6374 19.4692 19.0099 19.4692 19.2395 19.2394C19.3543 19.1245 19.4118 18.974 19.4118 18.8234C19.4118 18.6728 19.3543 18.5223 19.2395 18.4074V18.4075Z" fill="black"/>
</g>
<defs>
<clipPath id="clip0_3069_875">
<rect width="20" height="20" fill="white"/>
</clipPath>
</defs>
</svg>
