<svg width="20" height="20" viewBox="0 0 20 20" fill="none" xmlns="http://www.w3.org/2000/svg">
<path d="M11.4688 18.5312H3.58552C3.22766 18.5312 2.93754 18.2411 2.93754 17.8833C2.93754 17.5254 3.22766 17.2353 3.58552 17.2353H6.95372C6.2431 16.7903 5.60236 16.2437 5.05216 15.6158H0.64797C0.290118 15.6157 0 15.3256 0 14.9677C0 14.6099 0.290118 14.3198 0.64797 14.3198H4.11477C3.36719 13.0519 2.93751 11.5753 2.93751 10C2.93751 8.16705 3.51872 6.46728 4.5063 5.07513H2.66778C2.30993 5.07513 2.01981 4.78501 2.01981 4.42716C2.01981 4.06931 2.30993 3.77919 2.66778 3.77919H5.63728C6.0413 3.4002 6.48212 3.06013 6.95372 2.76477H0.714806C0.356954 2.76477 0.0668361 2.47466 0.0668361 2.1168C0.0668361 1.75895 0.356954 1.46883 0.714806 1.46883H11.4688C16.173 1.46883 20 5.29595 20 10.0001C20 14.7042 16.1729 18.5312 11.4688 18.5312ZM11.4688 2.7647C7.47923 2.7647 4.23352 6.0104 4.23352 9.99998C4.23352 13.9896 7.47923 17.2353 11.4688 17.2353C15.4583 17.2353 18.704 13.9896 18.704 10C18.704 6.01048 15.4584 2.7647 11.4688 2.7647Z" fill="#949495"/>
<path d="M11.4687 15.2927C8.55033 15.2927 6.17603 12.9184 6.17603 10C6.17603 8.25966 7.02052 6.7129 8.32115 5.74767C8.33306 5.73759 8.3449 5.72743 8.35775 5.71818C8.3722 5.70767 8.38701 5.69786 8.40197 5.68872C9.26775 5.0711 10.3265 4.70735 11.4687 4.70735C12.6109 4.70735 13.6697 5.0711 14.5355 5.68872C14.5505 5.69786 14.5653 5.70767 14.5797 5.71818C14.5925 5.72751 14.6044 5.73767 14.6163 5.74767C15.9169 6.7129 16.7614 8.25963 16.7614 10C16.7614 12.9184 14.3871 15.2927 11.4687 15.2927ZM12.1167 13.9439C13.3812 13.7369 14.448 12.9345 15.0187 11.8348L13.3407 11.2896C13.0492 11.7114 12.6191 12.0301 12.1167 12.1797V13.9439H12.1167ZM12.4471 10.0001C12.4471 9.4606 12.0082 9.02174 11.4687 9.02174C10.9293 9.02174 10.4904 9.46057 10.4904 10.0001C10.4904 10.5395 10.9293 10.9784 11.4687 10.9784C12.0082 10.9784 12.4471 10.5395 12.4471 10.0001ZM10.8207 13.9439V12.1797C10.3183 12.0301 9.88822 11.7114 9.59674 11.2896L7.9188 11.8348C8.48951 12.9345 9.55627 13.7369 10.8207 13.9439ZM8.62759 7.19197C7.91361 7.91431 7.472 8.90654 7.472 10.0001C7.472 10.2048 7.48755 10.406 7.5174 10.6026L9.19588 10.0572C9.19541 10.0381 9.19439 10.0192 9.19439 10.0001C9.19439 9.48068 9.36978 9.0017 9.66392 8.61838L8.62759 7.19197ZM11.4687 6.00333C10.8242 6.00333 10.2149 6.15685 9.67517 6.42908L10.7117 7.85572C10.9487 7.77181 11.2034 7.72568 11.4687 7.72568C11.7341 7.72568 11.9888 7.77181 12.2257 7.85572L13.2623 6.42908C12.7226 6.15693 12.1133 6.00333 11.4687 6.00333ZM14.3098 7.19197L13.2735 8.61834C13.5676 9.00166 13.743 9.48064 13.743 10C13.743 10.0192 13.7421 10.0381 13.7415 10.0572L15.42 10.6026C15.4499 10.406 15.4654 10.2048 15.4654 10C15.4655 8.90654 15.0239 7.91435 14.3098 7.19197Z" fill="#949495"/>
</svg>
