<svg width="28" height="28" viewBox="0 0 28 28" fill="none" xmlns="http://www.w3.org/2000/svg">
<path d="M27.8633 13.2035L26.9299 12.2701C26.8424 12.1826 26.7238 12.1334 26.6 12.1334H25.2C24.9423 12.1334 24.7333 12.3424 24.7333 12.6001V14.9334H23.8V11.6667C23.8 11.409 23.591 11.2001 23.3333 11.2001H20.3163L18.5897 8.60775C18.5028 8.47755 18.3565 8.39961 18.2 8.40008H15.4V7.46675H18.6667C18.9244 7.46675 19.1333 7.2578 19.1333 7.00008V5.13341C19.1333 4.8757 18.9244 4.66675 18.6667 4.66675H9.33333C9.07562 4.66675 8.86667 4.8757 8.86667 5.13341V7.00008C8.86667 7.2578 9.07562 7.46675 9.33333 7.46675H12.6V8.40008H9.8C9.64402 8.40008 9.4983 8.47796 9.41173 8.60775L7.68367 11.2001H5.13333C4.87562 11.2001 4.66667 11.409 4.66667 11.6667V14.4667H3.73333V11.6667C3.73333 11.409 3.52438 11.2001 3.26667 11.2001H1.4C1.24402 11.2001 1.0983 11.278 1.01173 11.4077L0.0784 12.8077C0.0274167 12.8845 0.000175 12.9746 0 13.0667V14.4667C0.000175 14.5589 0.0274167 14.649 0.0784 14.7257L0.933333 16.0067V20.0667C0.933333 20.3245 1.14228 20.5334 1.4 20.5334H3.26667C3.52438 20.5334 3.73333 20.3245 3.73333 20.0667V17.2667H4.66667V20.0667C4.66667 20.3245 4.87562 20.5334 5.13333 20.5334H7.68367L9.41033 23.1257C9.49719 23.2559 9.64349 23.3339 9.8 23.3334H23.3333C23.591 23.3334 23.8 23.1245 23.8 22.8667V18.6667H24.7333V21.9334C24.7333 22.1911 24.9423 22.4001 25.2 22.4001H26.6C26.7238 22.4001 26.8424 22.3508 26.9299 22.2633L27.8633 21.33C27.9508 21.2425 28 21.1239 28 21.0001V13.5334C28 13.4096 27.9508 13.291 27.8633 13.2035ZM2.8 14.9334V19.6001H1.86667V15.8667C1.86649 15.7746 1.83925 15.6845 1.78827 15.6077L0.933333 14.3267V13.2067L1.64967 12.1334H2.8V14.9334ZM4.66667 16.3334H3.73333V15.4001H4.66667V16.3334ZM9.8 6.53341V5.60008H18.2V6.53341H9.8ZM14.4667 7.46675V8.40008H13.5333V7.46675H14.4667ZM21 22.4001H10.0497L8.323 19.8077C8.23614 19.6775 8.08984 19.5996 7.93333 19.6001H5.6V12.1334H7.93333C8.08932 12.1334 8.23503 12.0555 8.3216 11.9257L10.0497 9.33341H17.9503L19.677 11.9257C19.7639 12.0559 19.9102 12.1339 20.0667 12.1334H21V22.4001ZM22.8667 15.4001V22.4001H21.9333V12.1334H22.8667V15.4001ZM24.7333 17.7334H23.8V15.8667H24.7333V17.7334ZM27.0667 20.8069L26.4068 21.4667H25.6667V13.0667H26.4068L27.0667 13.7266V20.8069Z" fill="#949495"/>
<path d="M18.0773 15.0846C17.9889 14.9882 17.8641 14.9334 17.7333 14.9334H15.5152L16.3221 11.3013C16.378 11.0497 16.2194 10.8005 15.9678 10.7445C15.819 10.7115 15.6635 10.7531 15.5512 10.8561L9.95117 15.9895C9.76124 16.1636 9.74846 16.4589 9.92265 16.6488C10.0111 16.7452 10.1359 16.8001 10.2666 16.8001H12.4847L11.6778 20.4321C11.622 20.6837 11.7806 20.933 12.0322 20.9889C12.1809 21.022 12.3364 20.9803 12.4488 20.8773L18.0488 15.744C18.2387 15.5698 18.2515 15.2746 18.0773 15.0846ZM12.9103 19.188L13.5221 16.4347C13.578 16.1831 13.4194 15.9337 13.1678 15.8779C13.1346 15.8705 13.1007 15.8667 13.0666 15.8667H11.4664L15.0896 12.5455L14.4778 15.2988C14.4219 15.5504 14.5805 15.7997 14.8321 15.8556C14.8653 15.863 14.8992 15.8667 14.9333 15.8667H16.5335L12.9103 19.188Z" fill="#949495"/>
<path d="M7.46666 14.9333H6.53333V18.6667H7.46666V14.9333Z" fill="#949495"/>
<path d="M7.46666 13.0667H6.53333V14H7.46666V13.0667Z" fill="#949495"/>
</svg>
