<svg width="28" height="28" viewBox="0 0 28 28" fill="none" xmlns="http://www.w3.org/2000/svg">
<path d="M3.49257 22.4683C3.54175 22.498 3.5963 22.5177 3.6531 22.5263C3.70991 22.5349 3.76785 22.5323 3.82363 22.5185C3.87941 22.5047 3.93193 22.4801 3.97819 22.446C4.02446 22.412 4.06355 22.3691 4.09326 22.3199L5.08398 20.6793L13.5625 24.7745V26.4688C13.5625 26.5848 13.6086 26.6961 13.6906 26.7781C13.7727 26.8602 13.884 26.9062 14 26.9062C14.116 26.9062 14.2273 26.8602 14.3094 26.7781C14.3914 26.6961 14.4375 26.5848 14.4375 26.4688V24.7745L22.916 20.6789L23.9068 22.3195C23.9365 22.3687 23.9756 22.4115 24.0218 22.4456C24.0681 22.4797 24.1206 22.5043 24.1764 22.5181C24.2322 22.5318 24.2901 22.5345 24.3469 22.5259C24.4037 22.5172 24.4583 22.4975 24.5074 22.4678C24.5566 22.4381 24.5995 22.399 24.6335 22.3527C24.6676 22.3065 24.6922 22.254 24.706 22.1982C24.7198 22.1424 24.7224 22.0845 24.7138 22.0277C24.7052 21.9709 24.6855 21.9163 24.6558 21.8671L16.8792 8.98712C17.221 8.49291 17.4296 7.91891 17.4849 7.32056C17.5402 6.72221 17.4403 6.1197 17.1949 5.57121C16.9495 5.02271 16.5668 4.54675 16.0838 4.18927C15.6008 3.8318 15.0338 3.60487 14.4375 3.53041V1.53125C14.4375 1.41522 14.3914 1.30394 14.3094 1.22189C14.2273 1.13984 14.116 1.09375 14 1.09375C13.884 1.09375 13.7727 1.13984 13.6906 1.22189C13.6086 1.30394 13.5625 1.41522 13.5625 1.53125V3.53041C12.9662 3.60483 12.3991 3.83175 11.916 4.18926C11.433 4.54676 11.0502 5.02278 10.8048 5.57134C10.5593 6.1199 10.4595 6.72248 10.5148 7.32089C10.5702 7.91931 10.7789 8.49334 11.1208 8.98756L3.34426 21.8676C3.31455 21.9167 3.29483 21.9713 3.2862 22.0281C3.27758 22.0849 3.28023 22.1428 3.29401 22.1986C3.30778 22.2544 3.3324 22.3069 3.36647 22.3532C3.40054 22.3994 3.44339 22.4385 3.49257 22.4683ZM5.53832 19.9266L6.41332 18.4765L13.5625 21.9308V23.8028L5.53832 19.9266ZM11.7362 9.66131C12.2529 10.1036 12.8878 10.3848 13.5625 10.4702V20.9589L6.86876 17.724L11.7362 9.66131ZM16.2643 9.66131L21.1313 17.724L14.4375 20.9589V10.4702C15.1122 10.3847 15.7471 10.1035 16.2639 9.66131H16.2643ZM14.4375 23.8028V21.9308L21.5863 18.4765L22.4613 19.9266L14.4375 23.8028ZM14 4.375C14.5192 4.375 15.0267 4.52895 15.4584 4.81739C15.8901 5.10583 16.2265 5.5158 16.4252 5.99546C16.6239 6.47511 16.6759 7.00291 16.5746 7.51211C16.4733 8.02131 16.2233 8.48904 15.8562 8.85616C15.489 9.22327 15.0213 9.47328 14.5121 9.57456C14.0029 9.67585 13.4751 9.62386 12.9955 9.42518C12.5158 9.2265 12.1058 8.89005 11.8174 8.45837C11.529 8.02669 11.375 7.51918 11.375 7C11.3758 6.30404 11.6526 5.6368 12.1447 5.14468C12.6368 4.65256 13.304 4.37575 14 4.375Z" fill="black"/>
<path d="M5.55753 2.36406C5.45351 2.31266 5.33333 2.30468 5.22343 2.34189C5.11353 2.3791 5.02291 2.45844 4.9715 2.56246C4.28757 3.94152 3.93358 5.46069 3.93747 7.00003C3.9397 8.53779 4.2933 10.0547 4.97128 11.435C4.99649 11.4868 5.0317 11.5331 5.07488 11.5713C5.11806 11.6095 5.16836 11.6388 5.22289 11.6575C5.27742 11.6762 5.33511 11.6839 5.39263 11.6802C5.45016 11.6766 5.5064 11.6615 5.5581 11.6361C5.60981 11.6106 5.65597 11.5751 5.69394 11.5318C5.7319 11.4884 5.76092 11.4379 5.77933 11.3833C5.79773 11.3287 5.80516 11.271 5.80118 11.2135C5.79721 11.1559 5.78191 11.0998 5.75616 11.0482C5.13734 9.78832 4.81456 8.40369 4.81247 7.00003C4.8089 5.59518 5.13189 4.20872 5.75594 2.95009C5.80734 2.84606 5.81531 2.72588 5.7781 2.61598C5.7409 2.50608 5.66155 2.41546 5.55753 2.36406Z" fill="black"/>
<path d="M7.52017 3.32892C7.41631 3.27735 7.29623 3.26911 7.1863 3.30603C7.07637 3.34294 6.9856 3.42199 6.93392 3.5258C6.39789 4.60524 6.12091 5.79479 6.12498 6.99999C6.12631 8.20377 6.4038 9.3912 6.93611 10.4709C6.9891 10.5722 7.07965 10.6488 7.18839 10.6842C7.29713 10.7196 7.4154 10.711 7.51788 10.6603C7.62037 10.6095 7.69892 10.5207 7.73671 10.4128C7.77451 10.3048 7.76855 10.1864 7.72011 10.0828C7.24756 9.12377 7.00121 8.06914 6.99998 6.99999C6.99639 5.93004 7.2422 4.87399 7.71792 3.91561C7.7435 3.86411 7.75867 3.80807 7.76257 3.75071C7.76647 3.69334 7.75903 3.63576 7.74066 3.58127C7.7223 3.52679 7.69337 3.47645 7.65554 3.43315C7.6177 3.38985 7.5717 3.35443 7.52017 3.32892Z" fill="black"/>
<path d="M9.48235 4.29365C9.37849 4.24207 9.25841 4.23383 9.14848 4.27075C9.03855 4.30766 8.94778 4.38671 8.8961 4.49052C8.50916 5.27029 8.30933 6.12953 8.31248 7.00002C8.31399 7.86962 8.51421 8.72737 8.89785 9.50777C8.92241 9.56058 8.95727 9.60796 9.00039 9.64712C9.0435 9.68628 9.094 9.71644 9.14893 9.73582C9.20385 9.75521 9.26209 9.76343 9.32023 9.76001C9.37838 9.75659 9.43525 9.7416 9.48752 9.7159C9.5398 9.69021 9.58641 9.65434 9.62464 9.6104C9.66286 9.56645 9.69193 9.51532 9.71013 9.45999C9.72833 9.40466 9.7353 9.34626 9.73064 9.2882C9.72597 9.23014 9.70975 9.1736 9.68294 9.1219C9.35819 8.46162 9.18871 7.73583 9.18748 7.00002C9.18482 6.26465 9.35349 5.53876 9.6801 4.8799C9.73162 4.77593 9.73972 4.65576 9.70264 4.54582C9.66555 4.43587 9.58631 4.34517 9.48235 4.29365Z" fill="black"/>
<path d="M22.4437 11.6342C22.5479 11.6854 22.668 11.6931 22.7778 11.6557C22.8877 11.6183 22.9781 11.5388 23.0293 11.4347C23.707 10.0545 24.0604 8.53762 24.0625 6.99998C24.0663 5.46065 23.7123 3.94149 23.0285 2.56241C22.9766 2.45913 22.886 2.38055 22.7765 2.34384C22.6669 2.30712 22.5472 2.31525 22.4436 2.36644C22.34 2.41764 22.2609 2.50774 22.2235 2.61708C22.1861 2.72642 22.1935 2.84612 22.244 2.95004C22.8681 4.20867 23.1911 5.59513 23.1875 6.99998C23.1853 8.40367 22.8626 9.78833 22.244 11.0484C22.2187 11.1 22.2037 11.156 22.2 11.2134C22.1963 11.2707 22.204 11.3283 22.2225 11.3827C22.241 11.4371 22.2701 11.4873 22.3081 11.5304C22.3461 11.5736 22.3921 11.6089 22.4437 11.6342Z" fill="black"/>
<path d="M20.4778 10.6689C20.5293 10.6944 20.5853 10.7095 20.6426 10.7133C20.7 10.7172 20.7575 10.7097 20.8119 10.6913C20.8664 10.6729 20.9167 10.644 20.9599 10.6062C21.0032 10.5684 21.0386 10.5224 21.0641 10.4709C21.5962 9.39116 21.8736 8.20376 21.875 7.00001C21.8788 5.79507 21.6016 4.60583 21.0656 3.52669C21.0125 3.42544 20.9218 3.349 20.8131 3.31374C20.7043 3.27848 20.5861 3.2872 20.4836 3.33804C20.3812 3.38888 20.3028 3.47779 20.2651 3.58574C20.2274 3.69369 20.2335 3.8121 20.282 3.91563C20.7578 4.87401 21.0036 5.93006 21 7.00001C20.9988 8.06918 20.7523 9.12384 20.2796 10.0828C20.2282 10.1868 20.2202 10.307 20.2574 10.4169C20.2945 10.5268 20.3738 10.6174 20.4778 10.6689Z" fill="black"/>
<path d="M18.5165 9.70704C18.5681 9.73242 18.6242 9.74739 18.6815 9.7511C18.7389 9.75481 18.7964 9.74718 18.8508 9.72866C18.9052 9.71013 18.9554 9.68107 18.9986 9.64313C19.0417 9.60519 19.077 9.55912 19.1024 9.50754C19.4858 8.72714 19.6859 7.8695 19.6875 7.00001C19.6905 6.12982 19.4907 5.27089 19.1039 4.49139C19.0786 4.4395 19.0433 4.39313 19.0001 4.35494C18.9568 4.31675 18.9064 4.28749 18.8518 4.26886C18.7972 4.25022 18.7394 4.24258 18.6818 4.24636C18.6243 4.25015 18.568 4.26529 18.5163 4.29091C18.4646 4.31654 18.4185 4.35214 18.3806 4.39566C18.3427 4.43919 18.3138 4.48978 18.2955 4.54453C18.2773 4.59927 18.27 4.65709 18.2742 4.71464C18.2784 4.7722 18.2939 4.82836 18.3199 4.87989C18.6465 5.53875 18.8152 6.26464 18.8125 7.00001C18.8112 7.73582 18.6417 8.46159 18.317 9.12189C18.266 9.22596 18.2583 9.34603 18.2957 9.45574C18.3331 9.56545 18.4126 9.65583 18.5165 9.70704Z" fill="black"/>
<path d="M14 8.75C14.3461 8.75 14.6845 8.64737 14.9722 8.45507C15.26 8.26278 15.4843 7.98947 15.6168 7.6697C15.7492 7.34993 15.7839 6.99806 15.7164 6.65859C15.6489 6.31913 15.4822 6.00731 15.2374 5.76256C14.9927 5.51782 14.6809 5.35115 14.3414 5.28363C14.0019 5.2161 13.6501 5.25076 13.3303 5.38321C13.0105 5.51566 12.7372 5.73997 12.5449 6.02775C12.3526 6.31554 12.25 6.65388 12.25 7C12.2507 7.46392 12.4353 7.90863 12.7633 8.23667C13.0914 8.56471 13.5361 8.74931 14 8.75ZM14 6.125C14.1731 6.125 14.3422 6.17632 14.4861 6.27247C14.63 6.36861 14.7422 6.50527 14.8084 6.66515C14.8746 6.82504 14.8919 7.00097 14.8582 7.17071C14.8244 7.34044 14.7411 7.49635 14.6187 7.61872C14.4963 7.74109 14.3404 7.82443 14.1707 7.85819C14.001 7.89195 13.825 7.87462 13.6652 7.8084C13.5053 7.74217 13.3686 7.63002 13.2725 7.48613C13.1763 7.34223 13.125 7.17306 13.125 7C13.125 6.76794 13.2172 6.54538 13.3813 6.38128C13.5454 6.21719 13.7679 6.125 14 6.125Z" fill="black"/>
</svg>
