<svg width="18" height="18" viewBox="0 0 18 18" fill="none" xmlns="http://www.w3.org/2000/svg">
<path d="M10.0116 7.02826C10.0116 6.19557 10.6893 5.5179 11.5224 5.5179C12.355 5.5179 13.0327 6.1954 13.0327 7.02826C13.0327 7.26798 12.8385 7.46222 12.5988 7.46222C12.359 7.46222 12.1648 7.26798 12.1648 7.02826C12.1648 6.67397 11.8766 6.38582 11.5224 6.38582C11.1681 6.38582 10.8796 6.67397 10.8796 7.02826C10.8796 7.26798 10.6853 7.46222 10.4456 7.46222C10.2059 7.46222 10.0116 7.2678 10.0116 7.02826ZM5.19954 7.02357C5.19954 6.19089 5.87722 5.51321 6.71025 5.51321C7.54293 5.51321 8.22061 6.19071 8.22061 7.02357C8.22061 7.26329 8.02637 7.45753 7.78665 7.45753C7.54693 7.45753 7.35269 7.26329 7.35269 7.02357C7.35269 6.66928 7.06454 6.38113 6.71025 6.38113C6.35579 6.38113 6.06747 6.66928 6.06747 7.02357C6.06747 7.26329 5.87323 7.45753 5.63351 7.45753C5.39379 7.45753 5.19954 7.26329 5.19954 7.02357ZM5.18062 12.6531C5.82462 11.1026 7.39625 10.1009 9.18417 10.1009C10.9346 10.1009 12.4969 11.0976 13.1639 12.6404C13.2782 12.9044 13.1568 13.2108 12.8926 13.325C12.6288 13.4396 12.3226 13.3176 12.2084 13.0537C11.706 11.8928 10.5192 11.1424 9.18435 11.1424C7.81859 11.1424 6.6245 11.8919 6.14263 13.0525C6.05948 13.2528 5.86559 13.3736 5.66163 13.3736C5.59497 13.3736 5.52745 13.3608 5.462 13.3337C5.19607 13.2237 5.07005 12.9188 5.18062 12.6531ZM14.8357 18H3.16444C1.41975 18 0 16.5804 0 14.8357V3.16444C0 1.41957 1.41975 0 3.16444 0H14.8354C16.5804 0 17.9998 1.41957 17.9998 3.16444V14.8354C18.0002 16.5804 16.5804 18 14.8357 18ZM3.16444 1.48918C2.2408 1.48918 1.48918 2.2408 1.48918 3.16444V14.8354C1.48918 15.759 2.2408 16.5106 3.16444 16.5106H14.8354C15.759 16.5106 16.5106 15.759 16.5106 14.8354V3.16444C16.5106 2.2408 15.759 1.48918 14.8354 1.48918H3.16444Z" fill="#E92E19"/>
</svg>
