<svg width="18" height="18" viewBox="0 0 18 18" fill="none" xmlns="http://www.w3.org/2000/svg">
<path d="M3.48749 11.4835H2.2753C2.05158 11.4836 1.83707 11.5726 1.67887 11.7308C1.52068 11.889 1.43173 12.1035 1.43155 12.3272V16.0313C1.43173 16.255 1.52068 16.4695 1.67887 16.6277C1.83707 16.7859 2.05158 16.8748 2.2753 16.875H3.48749C3.71106 16.8744 3.92529 16.7853 4.08338 16.6272C4.24147 16.4691 4.33058 16.2548 4.33124 16.0313V12.3272C4.33058 12.1036 4.24147 11.8894 4.08338 11.7313C3.92529 11.5732 3.71106 11.4841 3.48749 11.4835Z" fill="#D9E821"/>
<path d="M7.56561 8.13373H6.35342C6.12985 8.13438 5.91562 8.22348 5.75752 8.38158C5.59943 8.53967 5.51033 8.7539 5.50967 8.97748V16.0312C5.51033 16.2548 5.59943 16.469 5.75753 16.6271C5.91562 16.7852 6.12985 16.8743 6.35342 16.875H7.56561C7.78933 16.8748 8.00384 16.7858 8.16203 16.6277C8.32023 16.4695 8.40918 16.2549 8.40936 16.0312V8.97748C8.40918 8.75376 8.32023 8.53925 8.16204 8.38105C8.00384 8.22286 7.78933 8.1339 7.56561 8.13373Z" fill="#D9E821"/>
<path d="M11.6465 4.47748H10.4344C10.3235 4.47733 10.2137 4.49905 10.1113 4.5414C10.0089 4.58375 9.91579 4.6459 9.83741 4.72428C9.75903 4.80266 9.69688 4.89573 9.65453 4.99816C9.61218 5.1006 9.59046 5.21038 9.59061 5.32123V16.0312C9.59079 16.2549 9.67974 16.4695 9.83794 16.6277C9.99613 16.7858 10.2106 16.8748 10.4344 16.875H11.6465C11.8701 16.8743 12.0844 16.7852 12.2424 16.6271C12.4005 16.469 12.4896 16.2548 12.4903 16.0312V5.32123C12.4901 5.09751 12.4012 4.883 12.243 4.7248C12.0848 4.56661 11.8703 4.47766 11.6465 4.47748Z" fill="#D9E821"/>
<path d="M15.7247 1.125H14.5125C14.2889 1.12566 14.0747 1.21476 13.9166 1.37285C13.7585 1.53094 13.6694 1.74518 13.6687 1.96875V16.0312C13.6694 16.2548 13.7585 16.4691 13.9166 16.6271C14.0747 16.7852 14.2889 16.8743 14.5125 16.875H15.7247C15.9484 16.8748 16.1629 16.7859 16.3211 16.6277C16.4793 16.4695 16.5682 16.255 16.5684 16.0312V1.96875C16.5682 1.74503 16.4793 1.53052 16.3211 1.37232C16.1629 1.21413 15.9484 1.12517 15.7247 1.125Z" fill="#D9E821"/>
</svg>
