<svg width="18" height="18" viewBox="0 0 18 18" fill="none" xmlns="http://www.w3.org/2000/svg">
<path d="M14.3229 3.56874C9.64201 -1.14069 1.517 2.14992 1.48843 8.86322C1.49012 10.5882 2.08343 12.2603 3.16931 13.6006C3.22155 13.6649 3.29722 13.7059 3.37966 13.7144C3.4621 13.723 3.54457 13.6984 3.60891 13.6462C3.67326 13.5939 3.71421 13.5183 3.72277 13.4358C3.73133 13.3534 3.70678 13.2709 3.65454 13.2066C2.72827 12.0603 2.19296 10.6479 2.12687 9.17565H3.96581C4.04869 9.17565 4.12817 9.14273 4.18678 9.08412C4.24538 9.02552 4.27831 8.94603 4.27831 8.86315C4.27831 8.78027 4.24538 8.70079 4.18678 8.64218C4.12817 8.58358 4.04869 8.55065 3.96581 8.55065H2.12133C2.1932 6.94177 2.82886 5.40947 3.91696 4.22216L5.21918 5.52438C5.2482 5.55339 5.28264 5.57641 5.32055 5.59211C5.35847 5.60782 5.3991 5.6159 5.44013 5.6159C5.48116 5.6159 5.5218 5.60782 5.55971 5.59211C5.59762 5.57641 5.63206 5.55339 5.66108 5.52438C5.69009 5.49536 5.71311 5.46092 5.72881 5.42301C5.74451 5.3851 5.7526 5.34447 5.7526 5.30343C5.7526 5.2624 5.74451 5.22177 5.72881 5.18386C5.71311 5.14595 5.69009 5.1115 5.66108 5.08248L4.35883 3.78024C5.54617 2.69206 7.07854 2.05635 8.6875 1.98449V3.82882C8.68905 3.91068 8.72266 3.98865 8.7811 4.04599C8.83954 4.10333 8.91814 4.13544 9.00001 4.13544C9.08187 4.13544 9.16047 4.10332 9.21891 4.04598C9.27734 3.98864 9.31095 3.91066 9.3125 3.82881V1.98449C10.9215 2.05635 12.4538 2.69206 13.6412 3.78024L12.3389 5.08249C12.2822 5.14147 12.2508 5.22035 12.2516 5.30219C12.2524 5.38403 12.2853 5.46229 12.3432 5.52016C12.401 5.57803 12.4793 5.61089 12.5611 5.61167C12.643 5.61246 12.7219 5.58111 12.7808 5.52436L14.083 4.22215C15.1711 5.40946 15.8068 6.94177 15.8787 8.55065H14.0342C13.9523 8.55221 13.8743 8.58581 13.817 8.64425C13.7597 8.70269 13.7276 8.78129 13.7276 8.86316C13.7276 8.94503 13.7597 9.02362 13.817 9.08206C13.8744 9.14049 13.9523 9.1741 14.0342 9.17565H15.8731C15.807 10.6479 15.2717 12.0603 14.3455 13.2066C14.3196 13.2384 14.3003 13.2751 14.2885 13.3144C14.2768 13.3537 14.273 13.395 14.2772 13.4358C14.2815 13.4766 14.2937 13.5162 14.3132 13.5523C14.3328 13.5884 14.3592 13.6203 14.3911 13.6462C14.423 13.672 14.4596 13.6914 14.4989 13.7031C14.5383 13.7148 14.5795 13.7186 14.6203 13.7144C14.6612 13.7102 14.7007 13.6979 14.7368 13.6784C14.7729 13.6589 14.8048 13.6324 14.8307 13.6005C16.0004 12.1611 16.5958 10.3396 16.502 8.48718C16.4082 6.63478 15.632 4.88269 14.3229 3.56874Z" fill="black"/>
<path d="M9 7.82264C8.83343 7.82379 8.66964 7.86543 8.52275 7.94398L6.70386 6.12509C6.64486 6.06843 6.566 6.03715 6.48421 6.03798C6.40241 6.03881 6.3242 6.07167 6.26636 6.12951C6.20852 6.18735 6.17567 6.26557 6.17485 6.34736C6.17403 6.42916 6.20531 6.50801 6.26198 6.567L8.0808 8.38582C7.98102 8.58118 7.9457 8.80313 7.97992 9.0198C8.01413 9.23648 8.11612 9.43675 8.27123 9.59186C8.42635 9.74697 8.62662 9.84895 8.8433 9.88316C9.05998 9.91736 9.28193 9.88204 9.47728 9.78225L10.0376 10.3426C10.0962 10.4011 10.1757 10.4338 10.2584 10.4338C10.3412 10.4337 10.4206 10.4008 10.4791 10.3422C10.5376 10.2837 10.5706 10.2043 10.5706 10.1216C10.5707 10.0388 10.5379 9.95936 10.4795 9.90073L9.91921 9.34045C10.0006 9.18221 10.0401 9.00575 10.0339 8.82791C10.0277 8.65007 9.97609 8.47679 9.88391 8.32458C9.79173 8.17237 9.66209 8.04632 9.50735 7.95845C9.35261 7.87058 9.17794 7.82382 9 7.82264ZM8.58435 8.86313C8.58599 8.75397 8.63051 8.64984 8.70828 8.57323C8.78605 8.49662 8.89084 8.45368 9.00001 8.45368C9.10918 8.45369 9.21397 8.49663 9.29174 8.57325C9.3695 8.64986 9.41401 8.75399 9.41565 8.86315C9.41401 8.9723 9.3695 9.07643 9.29172 9.15304C9.21395 9.22965 9.10916 9.2726 8.99999 9.27259C8.89082 9.27259 8.78604 9.22964 8.70827 9.15303C8.6305 9.07642 8.58599 8.97229 8.58435 8.86313Z" fill="black"/>
<path d="M9 13.585H6.48291C6.40108 13.5866 6.32315 13.6202 6.26585 13.6786C6.20855 13.7371 6.17645 13.8156 6.17645 13.8975C6.17646 13.9793 6.20856 14.0579 6.26586 14.1163C6.32317 14.1747 6.40111 14.2084 6.48293 14.21H9C9.08183 14.2084 9.15976 14.1747 9.21706 14.1163C9.27437 14.0579 9.30647 13.9793 9.30647 13.8975C9.30647 13.8156 9.27437 13.737 9.21706 13.6786C9.15976 13.6202 9.08183 13.5866 9 13.585Z" fill="black"/>
<path d="M11.2812 13.585H10.3306C10.2487 13.5865 10.1707 13.6201 10.1134 13.6786C10.0561 13.737 10.0239 13.8156 10.0239 13.8975C10.0239 13.9793 10.0561 14.0579 10.1134 14.1164C10.1707 14.1748 10.2487 14.2084 10.3306 14.21H11.2812C11.363 14.2084 11.4409 14.1747 11.4982 14.1163C11.5556 14.0579 11.5877 13.9793 11.5877 13.8975C11.5877 13.8156 11.5556 13.737 11.4982 13.6786C11.4409 13.6202 11.363 13.5866 11.2812 13.585Z" fill="black"/>
<path d="M9 0.25C6.68015 0.252602 4.45607 1.17531 2.81569 2.81569C1.17531 4.45607 0.252602 6.68015 0.25 9C0.730547 20.6081 17.2712 20.6047 17.75 8.99993C17.7474 6.6801 16.8247 4.45603 15.1843 2.81566C13.5439 1.1753 11.3198 0.2526 9 0.25ZM9 17.125C6.84586 17.1226 4.78063 16.2658 3.25742 14.7426C1.73421 13.2194 0.877412 11.1541 0.875 9C1.32122 -1.77894 16.6804 -1.7758 17.125 9.00006C17.1226 11.1542 16.2658 13.2194 14.7426 14.7426C13.2194 16.2658 11.1541 17.1226 9 17.125Z" fill="black"/>
</svg>
