<svg width="25" height="15" viewBox="0 0 25 15" fill="none" xmlns="http://www.w3.org/2000/svg">
<path d="M12.5 0.0488281C17.2765 0.0488281 21.6081 2.6621 24.8044 6.90676C25.0652 7.25452 25.0652 7.74035 24.8044 8.0881C21.6081 12.3379 17.2765 14.9511 12.5 14.9511C7.72348 14.9511 3.39189 12.3379 0.195612 8.09322C-0.0652027 7.74546 -0.0652027 7.25963 0.195612 6.91187C3.39189 2.6621 7.72348 0.0488281 12.5 0.0488281ZM12.1574 12.747C15.3281 12.9464 17.9465 10.3332 17.747 7.15735C17.5834 4.53896 15.461 2.41663 12.8426 2.25298C9.67193 2.05353 7.05354 4.66681 7.25299 7.84263C7.42175 10.4559 9.54408 12.5782 12.1574 12.747ZM12.3159 10.3229C14.024 10.4303 15.4355 9.02397 15.323 7.31588C15.236 5.90441 14.0905 4.76398 12.679 4.67192C10.9709 4.56453 9.55943 5.97089 9.67193 7.67898C9.76399 9.09557 10.9095 10.236 12.3159 10.3229Z" fill="#949495"/>
</svg>
