<svg width="14" height="14" viewBox="0 0 14 14" fill="none" xmlns="http://www.w3.org/2000/svg">
<g clip-path="url(#clip0_4656_721)">
<path d="M5.75041 12.2915C5.72595 12.4547 5.62674 12.5971 5.48215 12.6764C5.33756 12.7559 5.16424 12.7632 5.01345 12.6963L2.78209 11.7106C2.67156 11.6619 2.61656 11.537 2.65522 11.4225L3.77491 8.09568C3.9541 7.57081 4.48826 7.25429 5.0347 7.34912L5.38465 7.41191C5.98396 7.51646 6.3889 8.08223 6.29439 8.68335L5.75041 12.2915ZM5.20172 12.2693C5.21945 12.2777 5.24006 12.2768 5.25704 12.267C5.27466 12.2577 5.28673 12.2403 5.28918 12.2204L5.83466 8.61521C5.84588 8.53758 5.84321 8.45855 5.82665 8.38188L5.43217 8.6936C5.24166 8.84214 5.09953 9.04397 5.02392 9.27357L4.16896 11.8144L5.20172 12.2693ZM5.30339 7.87292L4.95354 7.81013C4.91595 7.8034 4.87783 7.80009 4.8396 7.80009C4.55864 7.80084 4.30896 7.9796 4.21776 8.2454L3.16536 11.3714L3.74084 11.6255L4.58192 9.12631C4.68614 8.81042 4.88178 8.53256 5.14406 8.32806L5.57175 7.98975C5.4923 7.93101 5.40056 7.89107 5.30339 7.87292Z" fill="black"/>
<path d="M13.4019 2.21596L9.91829 3.24242C9.8712 3.25641 9.82741 3.2798 9.78972 3.3112L8.561 4.33488L8.3629 4.50051L6.75754 12.8449C6.67638 13.2691 6.4062 13.6331 6.02357 13.8335C5.64095 14.0337 5.18784 14.0484 4.79304 13.8734L2.55463 12.8845C2.33656 13.1429 1.97679 13.2311 1.6639 13.1029L0.483232 12.6186C0.0856543 12.4557 -0.104538 12.0014 0.0582094 11.6038L2.20842 6.35512L2.04887 6.1708C1.75125 5.82609 1.78873 5.3056 2.13259 5.00701L4.59281 2.8755C4.75844 2.73208 4.97426 2.66042 5.19265 2.67623C5.41114 2.69203 5.61436 2.79402 5.75767 2.95965L6.15557 3.41991L7.04982 2.67484H7.05121L8.70751 1.32758C8.79241 1.25838 8.89034 1.20691 8.99542 1.17616L12.769 0.0639437C13.206 -0.0644172 13.6645 0.18547 13.7934 0.622346L13.9604 1.1895C14.0227 1.39967 13.9988 1.62595 13.8941 1.8186C13.7893 2.01114 13.6122 2.15413 13.4019 2.21596ZM5.95245 3.89929L5.40462 3.2657C5.34236 3.19373 5.25405 3.14941 5.15901 3.14247C5.06407 3.13563 4.9702 3.16682 4.89823 3.22908L2.43801 5.35974C2.28851 5.48949 2.27227 5.71567 2.4016 5.86549L2.6549 6.15842C2.71257 6.22495 2.72795 6.31828 2.69463 6.39965L0.489853 11.7795C0.424711 11.9385 0.500852 12.1203 0.659862 12.1854L1.84095 12.6695C1.91741 12.7008 2.00317 12.7004 2.07941 12.6685C2.15555 12.6366 2.21589 12.5756 2.24718 12.4991C2.27099 12.4408 2.31734 12.3946 2.37586 12.371C2.43427 12.3474 2.49974 12.3484 2.5574 12.3739L4.98152 13.4449C5.24636 13.5619 5.55007 13.5518 5.80647 13.4174C6.06298 13.2831 6.2442 13.0392 6.29888 12.7548L7.91994 4.32879C7.93019 4.27593 7.95838 4.2282 7.99971 4.1937L8.07297 4.13262L7.17925 3.17429L6.27784 3.92502C6.18023 4.00618 6.03553 3.99433 5.95245 3.89843V3.89929ZM13.5129 1.32203L13.3463 0.754444C13.3195 0.663032 13.2574 0.586144 13.1738 0.540545C13.0902 0.495053 12.9919 0.484587 12.9006 0.511605L9.12933 1.62179C9.08362 1.63524 9.04112 1.65756 9.00428 1.68757L7.5402 2.87731L8.43178 3.83382L9.49113 2.95078C9.57763 2.87849 9.67801 2.82477 9.78619 2.79305L13.2703 1.76734C13.4603 1.71128 13.5688 1.51201 13.5129 1.32203Z" fill="black"/>
<path d="M12.3665 8.04804C11.9305 8.05787 11.5094 7.88903 11.201 7.58063C10.8926 7.27222 10.7237 6.85115 10.7336 6.41502C10.7336 5.67134 11.6374 4.32835 12.0141 3.89372C12.1051 3.79569 12.2328 3.74005 12.3665 3.74005C12.5003 3.74005 12.6281 3.79569 12.7191 3.89372C13.0958 4.32835 13.9996 5.67134 13.9996 6.41502C14.0094 6.85115 13.8406 7.27222 13.5321 7.58063C13.2237 7.88903 12.8027 8.05787 12.3665 8.04804ZM12.3665 4.19882C11.9551 4.67339 11.2002 5.87499 11.2002 6.41502C11.1894 6.72759 11.3088 7.03055 11.53 7.25172C11.751 7.47288 12.0541 7.59227 12.3665 7.58148C12.6791 7.59227 12.9821 7.47288 13.2032 7.25172C13.4244 7.03055 13.5438 6.72759 13.533 6.41502C13.533 5.8752 12.7779 4.6736 12.3665 4.19882Z" fill="black"/>
<path d="M7.31136 4.38097C7.37137 4.39635 7.42295 4.4349 7.45456 4.48819C7.48617 4.54158 7.49525 4.60533 7.47977 4.66535L7.36315 5.12219C7.33667 5.22535 7.24376 5.29754 7.13729 5.29765C7.11775 5.29776 7.09831 5.2953 7.07941 5.29039C6.95458 5.25856 6.87918 5.13149 6.91101 5.00665L7.02762 4.5497C7.04289 4.48968 7.08133 4.43821 7.13452 4.4066C7.1877 4.37499 7.25134 4.3657 7.31136 4.38097Z" fill="black"/>
<path d="M7.11167 5.88553L6.78105 7.28522C6.75616 7.39041 6.66219 7.46484 6.55412 7.46484C6.53596 7.46494 6.51802 7.46281 6.5004 7.45854C6.37525 7.42906 6.2975 7.3038 6.32666 7.17854L6.65717 5.77885C6.67639 5.69769 6.73737 5.63287 6.81725 5.60894C6.89713 5.58492 6.98373 5.60542 7.0445 5.66255C7.10515 5.71979 7.13078 5.80501 7.11167 5.88617V5.88553Z" fill="black"/>
</g>
<defs>
<clipPath id="clip0_4656_721">
<rect width="14" height="14" fill="white" transform="matrix(-1 0 0 1 14 0)"/>
</clipPath>
</defs>
</svg>
