<svg width="15" height="15" viewBox="0 0 15 15" fill="none" xmlns="http://www.w3.org/2000/svg">
<path d="M7.49998 0C3.35626 0 0 3.35627 0 7.5C0 11.6437 3.35626 15 7.49998 15C11.6437 15 15 11.6438 15 7.5C15 3.35623 11.6437 0 7.49998 0ZM1.50001 7.5C1.50001 4.18501 4.185 1.49998 7.50002 1.49998C8.88753 1.49998 10.1588 1.97624 11.175 2.76374L2.76374 11.175C1.97624 10.1588 1.50001 8.88751 1.50001 7.5ZM7.49998 13.5C6.11247 13.5 4.84122 13.0238 3.825 12.2363L12.2362 3.82501C13.0237 4.84127 13.5 6.11252 13.5 7.5C13.5 10.815 10.815 13.5 7.49998 13.5Z" fill="#E92E19"/>
</svg>
