<svg width="275" height="51" viewBox="0 0 275 51" fill="none" xmlns="http://www.w3.org/2000/svg">
<g clip-path="url(#clip0_0_296)">
<path d="M73.8024 43.1672H69.5258V21.1013H62.0098V17.4437H81.3426V21.1013H73.8024V43.1672Z" fill="white"/>
<path d="M83.3442 43.1672V23.2557H87.5082V26.3666H87.7333C87.886 25.9164 88.1594 25.4261 88.5532 24.9036C88.9471 24.3811 89.5018 23.9309 90.2172 23.545C90.9327 23.1592 91.841 22.9743 92.9503 22.9743C93.2237 22.9743 93.4809 22.9823 93.714 23.0065C93.9471 23.0306 94.1642 23.0547 94.3651 23.0949V26.7846C94.1803 26.7364 93.923 26.6962 93.5934 26.6721C93.2639 26.6479 92.9262 26.6319 92.5725 26.6319C91.4552 26.6319 90.5227 26.8328 89.7831 27.2428C89.0436 27.6528 88.4889 28.2074 88.1272 28.9229C87.7655 29.6383 87.5806 30.4341 87.5806 31.3264V43.1753H83.3442V43.1672Z" fill="white"/>
<path d="M103.055 43.4727C101.133 43.4727 99.5659 42.9261 98.3521 41.8248C97.1383 40.7235 96.5354 39.2444 96.5354 37.3875C96.5354 35.627 97.1383 34.2042 98.336 33.119C99.5338 32.0338 101.286 31.4872 103.585 31.4872H108.617V29.6222C108.617 28.4807 108.28 27.6367 107.597 27.0901C106.913 26.5434 106.005 26.2701 104.863 26.2701C104.108 26.2701 103.489 26.3666 102.998 26.5595C102.508 26.7524 102.122 27.0177 101.849 27.3473C101.576 27.6769 101.375 28.0708 101.262 28.5209H97.283C97.3473 27.693 97.5483 26.9373 97.8939 26.2541C98.2396 25.5708 98.7299 24.9759 99.365 24.4856C100 23.9952 100.788 23.6094 101.72 23.3441C102.653 23.0788 103.746 22.9502 104.992 22.9502C106.415 22.9502 107.709 23.1672 108.891 23.6013C110.072 24.0354 111.013 24.7428 111.72 25.7235C112.428 26.7042 112.773 28.0225 112.773 29.6785V43.1672H108.794V40.5869H108.609C108.32 41.0852 107.934 41.5595 107.444 42.0016C106.953 42.4438 106.351 42.7975 105.627 43.0627C104.904 43.328 104.051 43.4647 103.055 43.4647V43.4727ZM104.333 40.2332C105.137 40.2332 105.86 40.0643 106.503 39.7348C107.146 39.4052 107.653 38.955 108.039 38.3843C108.424 37.8135 108.609 37.1705 108.609 36.447V34.3007H104.236C103.015 34.3007 102.13 34.574 101.568 35.1126C101.005 35.6512 100.732 36.3425 100.732 37.1865C100.732 38.2315 101.101 38.9952 101.833 39.4936C102.564 39.992 103.4 40.2412 104.333 40.2412V40.2332Z" fill="white"/>
<path d="M117.05 34.5981V31.7122C117.05 29.9277 117.404 28.3842 118.103 27.0659C118.802 25.7476 119.799 24.7347 121.085 24.0032C122.372 23.2717 123.891 22.91 125.635 22.91C127.38 22.91 128.778 23.2154 129.944 23.8344C131.11 24.4534 131.994 25.2492 132.613 26.2379C133.232 27.2267 133.545 28.2878 133.577 29.4293H129.622C129.558 29.0032 129.397 28.5531 129.14 28.0788C128.883 27.6045 128.481 27.2106 127.942 26.881C127.404 26.5515 126.664 26.3907 125.74 26.3907C124.285 26.3907 123.167 26.881 122.404 27.8617C121.64 28.8424 121.254 30.1527 121.254 31.8006V34.59C121.254 36.2621 121.656 37.5884 122.452 38.5691C123.248 39.5498 124.349 40.0402 125.756 40.0402C126.648 40.0402 127.364 39.9116 127.91 39.6624C128.457 39.4132 128.875 39.0675 129.156 38.6334C129.438 38.1994 129.63 37.717 129.727 37.1945H133.682C133.642 38.3119 133.328 39.3489 132.733 40.3135C132.138 41.2781 131.254 42.0498 130.081 42.6286C128.907 43.2074 127.428 43.5048 125.643 43.5048C123.859 43.5048 122.347 43.1431 121.061 42.4196C119.775 41.6961 118.794 40.6672 118.095 39.3408C117.396 38.0145 117.05 36.4309 117.05 34.59V34.5981Z" fill="white"/>
<path d="M141.986 36.045V43.1672H137.822V16.0933H141.986V31.881H142.171L149.502 23.2556H154.269L146.729 31.881L154.775 43.1672H149.839L143.602 34.3328L141.978 36.045H141.986Z" fill="white"/>
<path d="M168.666 17.4518C170.474 17.4518 172.026 17.7814 173.32 18.4325C174.614 19.0836 175.603 20.0081 176.294 21.1897C176.986 22.3714 177.331 23.7701 177.331 25.3618C177.331 26.5836 177.114 27.6688 176.688 28.6335C176.262 29.5981 175.691 30.41 174.976 31.0772C174.261 31.7444 173.465 32.2428 172.605 32.5643L177.806 43.1753H172.998L168.384 33.2878H163.055V43.1753H158.834V17.4598H168.666V17.4518ZM163.055 29.8875H167.95C169.534 29.8875 170.756 29.5177 171.624 28.7862C172.492 28.0547 172.926 26.9614 172.926 25.5145C172.926 24.0675 172.492 22.918 171.616 22.1302C170.74 21.3425 169.558 20.9566 168.063 20.9566H163.055V29.8875Z" fill="white"/>
<path d="M190.45 22.918C192.187 22.918 193.714 23.2798 195.048 23.9952C196.383 24.7106 197.42 25.7396 198.167 27.082C198.915 28.4245 199.285 30.0241 199.285 31.8891V34.4695C199.285 36.3907 198.915 38.0306 198.167 39.3811C197.42 40.7315 196.383 41.7605 195.048 42.4598C193.714 43.1592 192.187 43.5129 190.45 43.5129C188.714 43.5129 187.146 43.1592 185.828 42.4598C184.51 41.7605 183.465 40.7315 182.709 39.3891C181.953 38.0466 181.576 36.4148 181.576 34.4936V31.9132C181.576 30.0884 181.953 28.5129 182.709 27.1624C183.465 25.8119 184.51 24.7749 185.844 24.0354C187.179 23.2958 188.714 22.9261 190.45 22.9261V22.918ZM190.474 26.2862C189.47 26.2862 188.626 26.5434 187.934 27.0499C187.243 27.5563 186.712 28.2476 186.351 29.1238C185.989 30 185.804 30.9888 185.804 32.1061V34.3328C185.804 35.4502 185.973 36.447 186.318 37.3151C186.664 38.1833 187.187 38.8746 187.886 39.3811C188.585 39.8875 189.445 40.1367 190.474 40.1367C191.503 40.1367 192.355 39.8875 193.039 39.3811C193.722 38.8746 194.228 38.1913 194.574 37.3151C194.92 36.4389 195.089 35.4502 195.089 34.3328V32.1061C195.089 30.9888 194.912 29.992 194.55 29.1238C194.188 28.2556 193.674 27.5563 192.982 27.0499C192.291 26.5434 191.463 26.2862 190.466 26.2862H190.474Z" fill="white"/>
<path d="M220.523 23.2556V43.1672H216.415V39.8553H216.19C216.013 40.3939 215.683 40.9405 215.201 41.4952C214.719 42.0498 214.076 42.5161 213.272 42.9019C212.468 43.2878 211.479 43.4727 210.314 43.4727C208.979 43.4727 207.814 43.2476 206.801 42.8055C205.788 42.3633 205 41.6559 204.429 40.6993C203.859 39.7428 203.569 38.4807 203.569 36.9212V23.2637H207.749V35.828C207.749 36.881 207.934 37.709 208.304 38.3038C208.674 38.8987 209.156 39.3247 209.751 39.5659C210.346 39.8071 210.997 39.9357 211.704 39.9357C212.581 39.9357 213.368 39.7428 214.068 39.3489C214.767 38.955 215.314 38.4325 215.724 37.7653C216.134 37.0981 216.335 36.3505 216.335 35.5225V23.2556H220.515H220.523Z" fill="white"/>
<path d="M227.171 23.3843V18.4084H231.262V23.3843H235.708V26.664H231.262V37.2348C231.262 38.3119 231.495 39.0434 231.953 39.4293C232.412 39.8151 233.199 40 234.317 40C234.606 40 234.912 39.992 235.233 39.9679C235.555 39.9438 235.796 39.9357 235.957 39.9196V43.119C235.796 43.1431 235.426 43.1753 234.855 43.2235C234.285 43.2717 233.762 43.2878 233.28 43.2878C231.672 43.2878 230.418 43.0868 229.518 42.6849C228.617 42.283 227.999 41.656 227.645 40.8119C227.291 39.9679 227.114 38.8827 227.114 37.5643V26.656H224.084V23.3762H227.171V23.3843Z" fill="white"/>
<path d="M247.798 43.5048C246.005 43.5048 244.446 43.1511 243.127 42.4438C241.809 41.7364 240.788 40.7074 240.073 39.373C239.357 38.0386 238.995 36.4309 238.995 34.5579V31.865C238.995 29.9839 239.373 28.3762 240.129 27.0418C240.884 25.7074 241.905 24.6865 243.192 23.9791C244.478 23.2717 245.933 22.918 247.556 22.918C249.18 22.918 250.7 23.2878 251.978 24.0193C253.256 24.7508 254.253 25.7878 254.984 27.1222C255.716 28.4566 256.077 30.0322 256.077 31.873V34.2122H243.151V35.1929C243.151 36.6158 243.553 37.7975 244.365 38.746C245.177 39.6946 246.319 40.1688 247.782 40.1688C248.513 40.1688 249.156 40.0643 249.719 39.8553C250.282 39.6463 250.74 39.373 251.085 39.0274C251.431 38.6817 251.656 38.3039 251.753 37.8859H255.844C255.78 38.4647 255.579 39.0756 255.233 39.7348C254.888 40.3939 254.389 40.9968 253.746 41.5756C253.103 42.1544 252.283 42.6126 251.294 42.9823C250.306 43.3521 249.14 43.529 247.798 43.529V43.5048ZM243.143 31.4711H251.978V31.2058C251.978 30.201 251.793 29.3248 251.431 28.5772C251.069 27.8296 250.555 27.2508 249.896 26.8328C249.237 26.4148 248.457 26.2139 247.573 26.2139C246.688 26.2139 245.901 26.4229 245.233 26.8328C244.566 27.2428 244.052 27.8296 243.69 28.5772C243.328 29.3248 243.143 30.201 243.143 31.2058V31.4711Z" fill="white"/>
<path d="M260.394 18.4164C260.892 18.4164 261.302 18.5209 261.632 18.7218C261.961 18.9228 262.211 19.1961 262.379 19.5337C262.548 19.8714 262.637 20.2411 262.637 20.6511C262.637 21.0611 262.548 21.4309 262.379 21.7685C262.211 22.1061 261.953 22.3714 261.616 22.5643C261.278 22.7572 260.86 22.8617 260.37 22.8617H259.22V24.8553H257.677V18.4244H260.394V18.4164ZM261.077 20.6511C261.077 20.3135 260.981 20.0563 260.796 19.8794C260.611 19.7026 260.362 19.6141 260.04 19.6141H259.228V21.6961H260.04C260.257 21.6961 260.442 21.6559 260.595 21.5755C260.748 21.4952 260.868 21.3746 260.957 21.2218C261.045 21.0691 261.085 20.8762 261.085 20.6591L261.077 20.6511Z" fill="#D9E821"/>
<path d="M266.182 18.4164C266.688 18.4164 267.122 18.5048 267.476 18.6817C267.83 18.8585 268.095 19.0997 268.28 19.4132C268.465 19.7267 268.553 20.0964 268.553 20.5225C268.553 20.8521 268.489 21.1415 268.368 21.3907C268.248 21.6399 268.095 21.8408 267.918 21.9936C267.741 22.1463 267.572 22.2669 267.404 22.3312L268.682 24.8472H266.969L265.884 22.5482H264.992V24.8472H263.473V18.4164H266.19H266.182ZM264.984 21.455H265.932C266.238 21.455 266.479 21.3826 266.664 21.2299C266.849 21.0772 266.945 20.844 266.945 20.5386C266.945 20.2331 266.849 19.9919 266.656 19.8312C266.463 19.6704 266.222 19.59 265.94 19.59H264.976V21.463L264.984 21.455Z" fill="#D9E821"/>
<path d="M275 22.0177C275 22.6206 274.887 23.135 274.662 23.5852C274.437 24.0353 274.116 24.373 273.69 24.6061C273.264 24.8392 272.749 24.9678 272.146 24.9678C271.543 24.9678 271.029 24.8472 270.603 24.6061C270.177 24.3649 269.847 24.0273 269.622 23.5852C269.397 23.1431 269.285 22.6206 269.285 22.0177V21.2701C269.285 20.6591 269.397 20.1366 269.622 19.6865C269.847 19.2363 270.177 18.8987 270.603 18.6656C271.029 18.4324 271.543 18.3038 272.146 18.3038C272.749 18.3038 273.272 18.4244 273.69 18.6656C274.108 18.9067 274.437 19.2524 274.662 19.6865C274.887 20.1206 275 20.6511 275 21.262V22.0096V22.0177ZM273.416 21.254C273.416 20.8842 273.36 20.5707 273.256 20.3215C273.151 20.0723 272.998 19.8874 272.805 19.7588C272.613 19.6302 272.387 19.5739 272.138 19.5739C271.889 19.5739 271.656 19.6382 271.463 19.7588C271.27 19.8794 271.125 20.0723 271.013 20.3215C270.9 20.5707 270.852 20.8842 270.852 21.254V22.0257C270.852 22.3955 270.908 22.709 271.013 22.9582C271.117 23.2074 271.27 23.4003 271.463 23.5209C271.656 23.6415 271.881 23.7058 272.138 23.7058C272.395 23.7058 272.613 23.6415 272.805 23.5209C272.998 23.4003 273.143 23.2074 273.256 22.9582C273.368 22.709 273.416 22.3955 273.416 22.0257V21.254Z" fill="#D9E821"/>
<path d="M50.0161 0.0243707L0 12.4761V15.8282C19.2846 15.8282 34.9196 31.4633 34.9196 50.7478H38.2717L50.9084 0.916654C51.045 0.378068 50.5547 -0.112285 50.0161 0.0243707Z" fill="#D9E821"/>
<path d="M0 30.8119V34.1157C9.17203 34.1157 16.6399 41.5756 16.6399 50.7556H19.9437C19.9437 39.7588 10.9968 30.8199 0.00803859 30.8199L0 30.8119Z" fill="#D9E821"/>
<path d="M0 21.664V24.9679C14.2122 24.9679 25.7797 36.5354 25.7797 50.7476H29.0836C29.0836 34.7106 16.037 21.664 0 21.664Z" fill="#D9E821"/>
</g>
<defs>
<clipPath id="clip0_0_296">
<rect width="275" height="50.7476" fill="white"/>
</clipPath>
</defs>
</svg>
