<svg width="18" height="18" viewBox="0 0 18 18" fill="none" xmlns="http://www.w3.org/2000/svg">
<path d="M18 10.2527C18 7.79394 17.0086 5.56271 15.4049 3.93675C15.3924 3.92011 15.3791 3.90382 15.3639 3.88865C15.3487 3.87349 15.3325 3.86015 15.3159 3.8477C13.6899 2.24404 11.4587 1.25269 9 1.25269C6.54132 1.25269 4.31009 2.2441 2.68407 3.8477C2.66742 3.86021 2.65119 3.87354 2.63603 3.88865C2.62086 3.90382 2.60752 3.92005 2.59501 3.93675C0.991416 5.56271 0 7.79394 0 10.2527C0 12.6564 0.935941 14.916 2.63538 16.6159C2.63561 16.6161 2.63585 16.6164 2.63609 16.6167C2.63626 16.6168 2.63638 16.617 2.63656 16.6171C2.63679 16.6173 2.63703 16.6175 2.63727 16.6178C2.72367 16.7042 2.83692 16.7473 2.95017 16.7473C3.06348 16.7473 3.17679 16.7041 3.26319 16.6177C3.27057 16.6103 3.27724 16.6024 3.28397 16.5946L4.64795 15.2306C4.82081 15.0577 4.82081 14.7775 4.64795 14.6046C4.4751 14.4318 4.19483 14.4318 4.02203 14.6046L2.95761 15.669C1.71643 14.2879 0.996374 12.5496 0.897344 10.6953H2.40268C2.64712 10.6953 2.8453 10.4972 2.8453 10.2527C2.8453 10.0082 2.64712 9.81006 2.40268 9.81006H0.897462C1.00039 7.90549 1.76311 6.17359 2.9605 4.83917L4.02203 5.9007C4.10843 5.9871 4.22174 6.0303 4.33499 6.0303C4.44824 6.0303 4.56155 5.9871 4.64795 5.9007C4.82081 5.72778 4.82081 5.44757 4.64795 5.27471L3.58649 4.21312C4.92096 3.01574 6.6528 2.25301 8.55738 2.15015V3.65542C8.55738 3.89992 8.75555 4.09804 9 4.09804C9.24445 4.09804 9.44262 3.89992 9.44262 3.65542V2.15015C11.3472 2.25301 13.079 3.0158 14.4135 4.21318L13.352 5.27471C13.1791 5.44763 13.1791 5.72784 13.352 5.9007C13.4384 5.9871 13.5517 6.0303 13.665 6.0303C13.7782 6.0303 13.8915 5.9871 13.9779 5.9007L15.0394 4.83917C16.2368 6.17365 16.9996 7.90549 17.1025 9.81006H15.5972C15.3528 9.81006 15.1546 10.0082 15.1546 10.2527C15.1546 10.4972 15.3528 10.6953 15.5972 10.6953H17.1025C17.0035 12.5496 16.2835 14.2879 15.0423 15.6691L13.9779 14.6046C13.8051 14.4318 13.5248 14.4318 13.352 14.6046C13.1791 14.7775 13.1791 15.0577 13.352 15.2306L14.738 16.6166C14.8244 16.703 14.9377 16.7462 15.051 16.7462C15.1075 16.7462 15.1642 16.7354 15.2175 16.7138C15.2708 16.6922 15.3207 16.6598 15.364 16.6166C17.0638 14.9167 18 12.6566 18 10.2527Z" fill="black"/>
<path d="M11.0335 5.17678C10.8064 5.08584 10.5489 5.19608 10.458 5.42306L9.17894 8.61584C9.11933 8.60947 9.05972 8.6051 9.00006 8.6051C8.37708 8.6051 7.81436 8.95017 7.53138 9.50563C7.23559 10.0863 7.31136 10.7801 7.73392 11.3614C7.77712 11.4208 7.83141 11.4752 7.89126 11.5187C8.23456 11.7683 8.61799 11.9002 9.00006 11.9002C9.62303 11.9002 10.1858 11.5551 10.4687 10.9996C10.7645 10.419 10.6888 9.72523 10.2665 9.14434C10.2233 9.08473 10.1689 9.0302 10.1089 8.98653C10.0766 8.96304 10.0436 8.94162 10.0106 8.92025L11.2797 5.75219C11.3706 5.52533 11.2604 5.26767 11.0335 5.17678ZM9.67987 10.5978C9.54879 10.855 9.28829 11.0149 9 11.0149C8.81091 11.0149 8.62058 10.9488 8.43409 10.8185C8.22163 10.5135 8.17991 10.1827 8.32019 9.90742C8.45121 9.65017 8.7117 9.49035 9.00006 9.49035C9.09201 9.49035 9.18419 9.50628 9.27614 9.53727C9.27915 9.53851 9.28192 9.5401 9.28499 9.54134C9.29467 9.54518 9.3044 9.5483 9.31414 9.55143C9.39854 9.58383 9.48258 9.62845 9.56591 9.68664C9.77831 9.99169 9.82009 10.3225 9.67987 10.5978Z" fill="black"/>
</svg>
