<svg width="22" height="22" viewBox="0 0 22 22" fill="none" xmlns="http://www.w3.org/2000/svg">
<path d="M19.8751 3.03633L12.3126 19.5363C12.2493 19.6745 12.142 19.7879 12.0074 19.8586C11.8729 19.9294 11.7187 19.9535 11.569 19.9273C11.4192 19.9011 11.2824 19.826 11.1799 19.7138C11.0773 19.6016 11.0149 19.4585 11.0023 19.307L10.3629 11.6368L2.69272 10.9974C2.54123 10.9849 2.39818 10.9224 2.28595 10.8199C2.17372 10.7174 2.09863 10.5805 2.07243 10.4308C2.04622 10.2811 2.07038 10.1269 2.14113 9.99233C2.21188 9.85779 2.32522 9.75048 2.46344 9.6872L18.9634 2.1247C19.091 2.06624 19.2334 2.04822 19.3715 2.07304C19.5096 2.09786 19.6368 2.16434 19.736 2.26356C19.8352 2.36278 19.9017 2.48997 19.9265 2.62808C19.9513 2.76618 19.9335 2.90877 19.8751 3.03633Z" fill="black"/>
</svg>
