<svg width="20" height="20" viewBox="0 0 20 20" fill="none" xmlns="http://www.w3.org/2000/svg">
<g clip-path="url(#clip0_4347_149)">
<path d="M17.6003 2.39944C16.0529 0.852185 13.9919 0 11.798 0V1.49157C13.5936 1.49157 15.2802 2.18863 16.5457 3.45398C17.8112 4.71934 18.5083 6.40531 18.5083 8.20116H20C20 6.00706 19.1477 3.9467 17.6003 2.39944Z" fill="black"/>
<path d="M15.49 4.50955C14.506 3.52461 13.1948 2.98218 11.798 2.98218V4.47375C12.796 4.47375 13.7323 4.86106 14.4354 5.56409C15.1385 6.26712 15.5258 7.20283 15.5258 8.20119H17.0176C17.0176 6.80458 16.4746 5.49349 15.49 4.50955Z" fill="black"/>
<path d="M9.68776 11.3658L10.8493 10.2044C11.1511 10.3466 11.4699 10.438 11.7976 10.438C12.3709 10.438 12.9437 10.2203 13.3798 9.78374C14.2524 8.91117 14.2524 7.49219 13.3798 6.61962C12.5071 5.74705 11.088 5.74705 10.2153 6.61962C9.52964 7.30525 9.40284 8.31952 9.79467 9.14983L8.63311 10.3113L2.29479 3.97357L1.78363 4.69152C-0.737877 8.22803 -0.558374 13.0637 2.1486 16.4103V16.4113C5.36873 20.3694 11.1521 21.1774 15.3081 18.2146L16.0266 17.7025L9.68876 11.3653L9.68776 11.3658Z" fill="black"/>
</g>
<defs>
<clipPath id="clip0_4347_149">
<rect width="20" height="20" fill="white"/>
</clipPath>
</defs>
</svg>
