<svg width="20" height="20" viewBox="0 0 20 20" fill="none" xmlns="http://www.w3.org/2000/svg">
<g clip-path="url(#clip0_4259_156)">
<path d="M19.735 9.64183L17.4907 7.93797C17.2878 7.7839 17.016 7.75776 16.7876 7.8716C16.5599 7.98442 16.4157 8.21705 16.4157 8.47168V9.51424H15.7518V8.46057C15.7518 8.09048 15.4518 7.7904 15.0818 7.7904H13.748V5.30213C13.748 4.93196 13.4479 4.63196 13.078 4.63196H10.994V3.92075H11.555C11.925 3.92075 12.2251 3.62068 12.2251 3.25065C12.2251 2.88062 11.925 2.58069 11.555 2.58069H7.22625C6.85629 2.58069 6.55621 2.88062 6.55621 3.25065C6.55621 3.62068 6.85629 3.92075 7.22625 3.92075H7.78765V4.63196H5.19732C4.82729 4.63196 4.52722 4.93196 4.52722 5.30213V6.61003H3.21865C2.84855 6.61003 2.54855 6.91003 2.54855 7.28006V8.81286H1.34V6.91172C1.34 6.54169 1.03999 6.24169 0.669965 6.24169C0.299937 6.24162 0 6.54169 0 6.91165V13.9201C0 14.2901 0.299937 14.5901 0.670032 14.5901C1.04006 14.5901 1.34006 14.2901 1.34006 13.9201V12.0189H2.54868V13.5902C2.54868 13.9603 2.84869 14.2603 3.21878 14.2603H4.90375L7.26769 17.1715C7.39494 17.3282 7.58605 17.4191 7.78779 17.4191H15.082C15.452 17.4191 15.7519 17.119 15.7519 16.749V15.8637H16.4158V16.749C16.4158 17.0108 16.5681 17.2483 16.8057 17.3578C16.8953 17.3989 16.9909 17.4191 17.0858 17.4191C17.2428 17.4191 17.3979 17.3638 17.5219 17.2577L19.7663 15.3341C19.9148 15.2067 20.0001 15.0209 20.0001 14.8253V10.1753C20 9.96608 19.9019 9.76847 19.735 9.64183Z" fill="#D9E821"/>
</g>
<defs>
<clipPath id="clip0_4259_156">
<rect width="20" height="20" fill="white"/>
</clipPath>
</defs>
</svg>
