<svg width="20" height="20" viewBox="0 0 20 20" fill="none" xmlns="http://www.w3.org/2000/svg">
<path d="M10 14.17C9.14346 14.17 8.44908 14.8653 8.44908 15.7215C8.44908 16.5778 9.14346 17.2725 10 17.2725C10.8563 17.2725 11.551 16.5778 11.551 15.7215C11.551 14.8653 10.8563 14.17 10 14.17ZM19.2985 6.64966C16.9388 4.23091 13.645 2.72778 10 2.72778C6.35439 2.72778 3.06096 4.23122 0.701581 6.64997C0.340019 7.02091 0.368144 7.64091 0.734394 8.00716L1.03908 8.31216C1.40533 8.67841 1.96439 8.64622 2.32502 8.27466C4.27096 6.26935 6.99221 5.0206 10 5.0206C13.0078 5.0206 15.7291 6.26903 17.675 8.27403C18.0353 8.6456 18.5947 8.67747 18.9606 8.31153L19.2656 8.00653C19.6316 7.64091 19.6597 7.0206 19.2985 6.64966ZM10 10.8759C8.60314 10.8759 7.34533 11.4715 6.46127 12.4212C6.10846 12.8003 6.18846 13.4606 6.55471 13.8268L6.93377 14.2065C7.30002 14.5728 7.72752 14.4562 8.06408 14.0625C8.53189 13.5162 9.22533 13.1684 10 13.1684C10.7744 13.1684 11.4681 13.5156 11.936 14.0625C12.2722 14.4562 12.7 14.5722 13.066 14.2065L13.4456 13.8268C13.8116 13.4606 13.8916 12.8003 13.5388 12.4212C12.6547 11.4715 11.3969 10.8759 10 10.8759ZM10 7.05872C7.54971 7.05872 5.33846 8.07778 3.76283 9.71372C3.40377 10.0865 3.44658 10.719 3.81283 11.0853L4.12971 11.4028C4.49596 11.769 5.03002 11.7165 5.38627 11.3406C6.54658 10.1178 8.18439 9.35247 9.99971 9.35247C11.815 9.35247 13.4528 10.1178 14.6131 11.3406C14.9694 11.7165 15.5038 11.7684 15.8697 11.4028L16.1869 11.0853C16.5528 10.7197 16.5963 10.0872 16.2369 9.71403C14.6616 8.0781 12.45 7.05872 10 7.05872Z" fill="#6A6B6D"/>
</svg>
