<svg width="24" height="24" viewBox="0 0 24 24" fill="none" xmlns="http://www.w3.org/2000/svg">
<g clip-path="url(#clip0_4277_469)">
<path fill-rule="evenodd" clip-rule="evenodd" d="M13.8695 2.40068L18.7885 10.9207L23.7076 19.4407C24.0975 20.1162 24.0975 20.9238 23.7076 21.5993C23.3176 22.2749 22.6181 22.6787 21.8381 22.6787H2.16196C1.38199 22.6787 0.682518 22.2749 0.292531 21.5994C-0.0975104 20.9239 -0.0975104 20.1162 0.292531 19.4407L5.21154 10.9207L10.1306 2.40068C10.5206 1.72518 11.2201 1.32135 12 1.32135C12.7801 1.32135 13.4795 1.72518 13.8695 2.40068ZM12 17.2215C12.5447 17.2215 12.9862 17.663 12.9862 18.2076C12.9862 18.7523 12.5447 19.1937 12 19.1937C11.4554 19.1937 11.0139 18.7523 11.0139 18.2076C11.0139 17.663 11.4554 17.2215 12 17.2215ZM12.0005 6.33005C12.6629 6.33005 13.264 6.87556 13.2277 7.55726L12.7894 15.797H11.3431L10.7733 7.55726C10.7268 6.88392 11.3256 6.33005 12.0005 6.33005Z" fill="black"/>
</g>
<defs>
<clipPath id="clip0_4277_469">
<rect width="24" height="24" fill="white"/>
</clipPath>
</defs>
</svg>
