<svg width="20" height="20" viewBox="0 0 20 20" fill="none" xmlns="http://www.w3.org/2000/svg">
<g clip-path="url(#clip0_4259_179)">
<path d="M5.01483 10.6081H4.11792C3.88263 10.6081 3.67023 10.7482 3.57715 10.9639L1.09424 16.7453L6.99085 13.7337C6.28497 12.757 5.58658 11.6797 5.01483 10.6081Z" fill="#D9E821"/>
<path d="M16.4228 10.9639C16.3298 10.7482 16.1173 10.6081 15.8821 10.6081H14.9852C13.9055 12.6314 12.3325 14.7223 11.3318 15.8727C10.6281 16.6799 9.37106 16.679 8.6684 15.8727C8.59653 15.7901 8.22131 15.3557 7.7045 14.6877L6.64142 15.2309L10.6627 19.2444L18.2823 15.2942L16.4228 10.9639Z" fill="#D9E821"/>
<path d="M0.368803 18.4349L0.0480632 19.1818C-0.117952 19.5683 0.166471 20 0.588682 20H9.22348C9.2775 19.9599 9.27811 19.9623 9.56802 19.812L5.54077 15.7932L0.368803 18.4349Z" fill="#D9E821"/>
<path d="M19.952 19.1818L18.7471 16.3763L11.7574 20H19.4113C19.8326 20 20.1183 19.5691 19.952 19.1818Z" fill="#D9E821"/>
<path d="M10.5883 5.2861C10.5883 4.96231 10.3243 4.6991 10 4.6991C9.67563 4.6991 9.4118 4.96231 9.4118 5.2861C9.4118 5.60974 9.67563 5.87311 10 5.87311C10.3243 5.87311 10.5883 5.60974 10.5883 5.2861Z" fill="#D9E821"/>
<path d="M10.4439 15.0632C10.6419 14.8358 15.2939 9.45467 15.2939 5.75563C15.2939 -1.87193 4.70612 -1.96501 4.70612 5.75563C4.70612 9.45467 9.35806 14.8358 9.55612 15.0632C9.79065 15.3322 10.2098 15.3319 10.4439 15.0632ZM8.23532 5.28612C8.23532 4.31505 9.02695 3.5251 10 3.5251C10.9729 3.5251 11.7645 4.31505 11.7645 5.28612C11.7645 6.25703 10.9729 7.04698 10 7.04698C9.02695 7.04698 8.23532 6.25703 8.23532 5.28612Z" fill="#D9E821"/>
</g>
<defs>
<clipPath id="clip0_4259_179">
<rect width="20" height="20" fill="white"/>
</clipPath>
</defs>
</svg>
