<svg width="20" height="20" viewBox="0 0 20 20" fill="none" xmlns="http://www.w3.org/2000/svg">
<g clip-path="url(#clip0_4259_735)">
<path fill-rule="evenodd" clip-rule="evenodd" d="M6.09296 10.7816H7.68475L6.88436 8.91052L6.09296 10.7816Z" fill="#6A6B6D"/>
<path fill-rule="evenodd" clip-rule="evenodd" d="M16.0938 0H3.90625C1.74883 0 0 1.74883 0 3.90625V16.0938C0 18.2512 1.74883 20 3.90625 20H16.0938C18.2512 20 20 18.2512 20 16.0938V3.90625C20 1.74883 18.2512 0 16.0938 0ZM9.23047 13.2953C8.91367 13.2953 8.67188 13.1188 8.56055 12.848L8.15039 11.8801H5.62813L5.21875 12.848C5.10664 13.1188 4.85586 13.2953 4.54805 13.2953C4.1668 13.2953 3.86875 13.0066 3.86875 12.6625C3.86875 12.523 3.90586 12.3738 3.96211 12.2625L6.20469 7.2168C6.36328 6.86367 6.57773 6.69531 6.88438 6.69531C7.19102 6.69531 7.41484 6.86367 7.56406 7.2168L9.8168 12.2625C9.87227 12.3738 9.90937 12.523 9.90937 12.6625C9.90937 13.0066 9.61133 13.2953 9.23008 13.2953H9.23047ZM14.0367 12.0016C14.5301 12.0016 14.8379 11.759 14.9402 11.7035C15.0426 11.6383 15.2102 11.5078 15.4801 11.5078C15.8152 11.5078 16.132 11.7313 16.132 12.1316C16.132 12.4945 15.8992 12.7176 15.4992 12.9602C15.1262 13.1738 14.6426 13.323 14.0191 13.323C12.3621 13.323 10.7145 11.9641 10.7145 9.99961C10.7145 8.03516 12.3805 6.67695 14 6.67695C14.6328 6.67695 15.1363 6.83555 15.5082 7.03984C15.8805 7.28164 16.132 7.51445 16.132 7.86836C16.132 8.26875 15.8152 8.49219 15.4801 8.49219C15.2195 8.49219 15.0426 8.36172 14.9402 8.29648C14.8379 8.24023 14.5301 7.99844 14.0188 7.99844C13.0227 7.99844 12.1852 8.88281 12.1852 9.99961C12.1852 11.1164 13.0137 12.0012 14.0367 12.0012V12.0016Z" fill="#6A6B6D"/>
</g>
<defs>
<clipPath id="clip0_4259_735">
<rect width="20" height="20" fill="white"/>
</clipPath>
</defs>
</svg>
