<svg width="20" height="20" viewBox="0 0 20 20" fill="none" xmlns="http://www.w3.org/2000/svg">
<g clip-path="url(#clip0_4259_186)">
<path d="M11.2109 6.52344H8.78906V8.86719H11.2109C11.857 8.86719 12.3828 8.34133 12.3828 7.69531C12.3828 7.0493 11.857 6.52344 11.2109 6.52344Z" fill="#D9E821"/>
<path d="M17.0703 0H2.92969C1.31434 0 0 1.31434 0 2.92969V17.0703C0 18.6857 1.31434 20 2.92969 20H17.0703C18.6857 20 20 18.6857 20 17.0703V2.92969C20 1.31434 18.6857 0 17.0703 0ZM11.2109 11.2109H8.78906V15.3125C8.78906 15.6361 8.52672 15.8984 8.20312 15.8984H7.03125C6.70766 15.8984 6.44531 15.6361 6.44531 15.3125V11.2109V5.35156V4.76562C6.44531 4.44203 6.70766 4.17969 7.03125 4.17969H11.2109C13.1496 4.17969 14.7266 5.75668 14.7266 7.69531C14.7266 9.63395 13.1496 11.2109 11.2109 11.2109Z" fill="#D9E821"/>
</g>
<defs>
<clipPath id="clip0_4259_186">
<rect width="20" height="20" fill="white"/>
</clipPath>
</defs>
</svg>
