<svg width="30" height="30" viewBox="0 0 30 30" fill="none" xmlns="http://www.w3.org/2000/svg">
<g clip-path="url(#clip0_4259_228)">
<path d="M29.7029 15.553C29.3392 15.2316 28.7837 15.2662 28.4624 15.6299L28.4482 15.6459V15.03C28.4482 11.4379 27.0493 8.06077 24.5091 5.52064C21.9692 2.98073 18.5921 1.58203 15 1.58203C12.8302 1.58203 10.6741 2.11121 8.76456 3.11211C6.91702 4.08051 5.29539 5.48928 4.07499 7.18644C3.79163 7.58035 3.88135 8.12966 4.27549 8.41302C4.66962 8.69661 5.21894 8.60688 5.5023 8.21275C6.56385 6.73646 7.97423 5.51102 9.58075 4.66897C11.2395 3.79944 13.1133 3.33985 15 3.33985C21.446 3.33985 26.6904 8.58422 26.6904 15.0302V15.6462L26.676 15.6301C26.3546 15.2662 25.7991 15.2319 25.4354 15.5532C25.0715 15.8746 25.0372 16.4301 25.3585 16.7938L26.9103 18.5507C27.0772 18.7395 27.3171 18.8475 27.5691 18.8475C27.8211 18.8475 28.0609 18.7395 28.2278 18.5507L29.7796 16.7938C30.1012 16.4298 30.0669 15.8744 29.7029 15.553Z" fill="black"/>
<path d="M25.7245 21.644C25.3304 21.3606 24.7813 21.4501 24.4977 21.8442C23.4361 23.3203 22.0258 24.5457 20.4192 25.388C18.7605 26.2575 16.8864 26.7171 15 26.7171C8.55399 26.7171 3.30961 21.4728 3.30961 15.0268V14.4108L3.32403 14.4271C3.64538 14.7908 4.20087 14.8253 4.56457 14.5038C4.92849 14.1824 4.96282 13.6269 4.64147 13.2632L3.08965 11.5063C2.92257 11.3175 2.68293 11.2092 2.43093 11.2092C2.17893 11.2092 1.93883 11.3175 1.77221 11.5063L0.220155 13.2632C-0.101195 13.6271 -0.066863 14.1824 0.29706 14.5038C0.464144 14.6516 0.67174 14.7242 0.878649 14.7242C1.12172 14.7242 1.36388 14.6237 1.5376 14.4271L1.55179 14.4108V15.0268C1.55179 18.6191 2.95072 21.996 5.49086 24.5361C8.03076 27.0763 11.4079 28.475 15 28.475C17.1696 28.475 19.3259 27.9458 21.2354 26.9449C23.0827 25.9765 24.7044 24.5675 25.9248 22.8705C26.2081 22.4764 26.1186 21.9273 25.7245 21.644Z" fill="black"/>
<path d="M6.33085 17.2788C6.27043 17.5038 6.30201 17.7436 6.41874 17.9455L8.17656 20.9903C8.29306 21.1922 8.48509 21.3394 8.71008 21.3998C8.9353 21.46 9.17517 21.4286 9.37705 21.3119L10.6695 20.5658C11.1857 20.969 11.7576 21.3 12.3633 21.5458V23.0361C12.3633 23.5213 12.7567 23.915 13.2422 23.915H16.7578C17.243 23.915 17.6367 23.5213 17.6367 23.0361V21.5458C18.2423 21.3 18.8143 20.969 19.3304 20.5658L20.6229 21.3119C20.8246 21.4284 21.0647 21.46 21.2897 21.3998C21.5149 21.3394 21.7069 21.1922 21.8234 20.9903L23.5812 17.9455C23.6977 17.7436 23.7293 17.5038 23.6691 17.2788C23.6087 17.0536 23.4613 16.8615 23.2597 16.745L21.9644 15.9973C22.0088 15.6764 22.0313 15.3516 22.0313 15.0268C22.0313 14.6981 22.0084 14.3701 21.9628 14.0456L23.2597 13.2969C23.4615 13.1804 23.6087 12.9884 23.6691 12.7632C23.7293 12.5379 23.6977 12.2981 23.5812 12.0962L21.8234 9.05161C21.5808 8.63138 21.0432 8.48742 20.6229 8.73003L19.322 9.48122C18.8079 9.08091 18.2389 8.75223 17.6367 8.50779V7.00586C17.6367 6.52063 17.2433 6.12695 16.7578 6.12695H13.2422C12.7567 6.12695 12.3633 6.52063 12.3633 7.00586V8.50779C11.7613 8.75223 11.1921 9.08091 10.6782 9.48122L9.37705 8.73003C8.95682 8.48719 8.41917 8.63138 8.17656 9.05161L6.41874 12.0962C6.30224 12.2981 6.27066 12.5382 6.33085 12.7632C6.39128 12.9884 6.53845 13.1804 6.74032 13.2969L8.03717 14.0456C7.99162 14.3701 7.96873 14.6981 7.96873 15.0268C7.96873 15.3516 7.99116 15.6761 8.03557 15.9973L6.74055 16.745C6.53845 16.8615 6.39128 17.0536 6.33085 17.2788ZM15 12.3901C16.4561 12.3901 17.6367 13.5707 17.6367 15.0268C17.6367 16.483 16.4561 17.6635 15 17.6635C13.5436 17.6635 12.3633 16.483 12.3633 15.0268C12.3633 13.5707 13.5438 12.3901 15 12.3901Z" fill="black"/>
</g>
<defs>
<clipPath id="clip0_4259_228">
<rect width="30" height="30" fill="white"/>
</clipPath>
</defs>
</svg>
