<svg width="16" height="16" viewBox="0 0 16 16" fill="none" xmlns="http://www.w3.org/2000/svg">
<path d="M1.5 7.988C1.50198 6.2647 2.18744 4.61255 3.406 3.394C4.62455 2.17544 6.2767 1.48998 8 1.488C8.90181 1.47912 9.79543 1.65969 10.623 2.01802C11.4506 2.37635 12.1938 2.90446 12.8044 3.56817C13.415 4.23188 13.8794 5.0164 14.1676 5.87095C14.4558 6.72551 14.5614 7.63106 14.4775 8.529C14.4721 8.59446 14.4539 8.65823 14.4239 8.71665C14.3938 8.77507 14.3526 8.827 14.3025 8.86948C14.2524 8.91197 14.1944 8.94416 14.1319 8.96424C14.0693 8.98432 14.0035 8.99188 13.938 8.9865C13.8725 8.98111 13.8088 8.96289 13.7504 8.93286C13.6919 8.90284 13.64 8.8616 13.5975 8.8115C13.555 8.7614 13.5228 8.70343 13.5028 8.64089C13.4827 8.57835 13.4751 8.51246 13.4805 8.447C13.5291 7.69192 13.4243 6.93482 13.1722 6.22139C12.9201 5.50797 12.5261 4.85303 12.0139 4.29611C11.5017 3.73919 10.882 3.29184 10.1921 2.98108C9.5022 2.67032 8.7565 2.50258 8 2.488C6.5418 2.48959 5.14377 3.06956 4.11267 4.10067C3.08156 5.13177 2.50159 6.5298 2.5 7.988C2.51458 8.74446 2.68231 9.49011 2.99304 10.18C3.30377 10.8698 3.75107 11.4895 4.30794 12.0017C4.8648 12.5139 5.51968 12.908 6.23305 13.16C6.94641 13.4121 7.70346 13.5171 8.4585 13.4685C8.59084 13.4584 8.72184 13.5007 8.82318 13.5864C8.92451 13.6722 8.98804 13.7943 9 13.9265C9.00718 14.0579 8.96376 14.187 8.87867 14.2873C8.79358 14.3877 8.67328 14.4516 8.5425 14.466C5.95 14.868 1.5 12.6545 1.5 7.988Z" fill="white"/>
<path d="M8 14.488C6.2895 14.488 5 11.6935 5 7.988C5 4.2825 6.2895 1.488 8 1.488C9.829 1.488 10.8895 4.4975 10.991 7.4705C10.9933 7.53613 10.9826 7.60156 10.9596 7.66306C10.9366 7.72457 10.9016 7.78093 10.8568 7.82894C10.812 7.87695 10.7582 7.91566 10.6984 7.94287C10.6387 7.97007 10.5741 7.98524 10.5085 7.9875C10.4426 7.991 10.3767 7.98118 10.3147 7.9586C10.2526 7.93603 10.1958 7.90117 10.1476 7.85612C10.0994 7.81107 10.0607 7.75676 10.034 7.69642C10.0073 7.63609 9.99298 7.57098 9.992 7.505C9.8895 4.55 8.8605 2.488 8 2.488C7.056 2.488 6 4.838 6 7.988C6 11.138 7.056 13.488 8 13.488C8.13261 13.488 8.25979 13.5407 8.35355 13.6344C8.44732 13.7282 8.5 13.8554 8.5 13.988C8.5 14.1206 8.44732 14.2478 8.35355 14.3416C8.25979 14.4353 8.13261 14.488 8 14.488Z" fill="white"/>
<path d="M13.5 6.48801H2.5C2.36739 6.48801 2.24021 6.43533 2.14645 6.34156C2.05268 6.24779 2 6.12061 2 5.98801C2 5.8554 2.05268 5.72822 2.14645 5.63445C2.24021 5.54069 2.36739 5.48801 2.5 5.48801H13.5C13.6326 5.48801 13.7598 5.54069 13.8536 5.63445C13.9473 5.72822 14 5.8554 14 5.98801C14 6.12061 13.9473 6.24779 13.8536 6.34156C13.7598 6.43533 13.6326 6.48801 13.5 6.48801Z" fill="white"/>
<path d="M8 10.488H2.5C2.36739 10.488 2.24021 10.4353 2.14645 10.3416C2.05268 10.2478 2 10.1206 2 9.98801C2 9.8554 2.05268 9.72822 2.14645 9.63445C2.24021 9.54068 2.36739 9.48801 2.5 9.48801H8C8.13261 9.48801 8.25979 9.54068 8.35355 9.63445C8.44732 9.72822 8.5 9.8554 8.5 9.98801C8.5 10.1206 8.44732 10.2478 8.35355 10.3416C8.25979 10.4353 8.13261 10.488 8 10.488Z" fill="white"/>
<path d="M11.5 14.488C10.9067 14.488 10.3266 14.312 9.83329 13.9824C9.33994 13.6528 8.95543 13.1842 8.72836 12.636C8.5013 12.0879 8.44189 11.4847 8.55765 10.9027C8.6734 10.3208 8.95912 9.78623 9.37868 9.36667C9.79824 8.94711 10.3328 8.66139 10.9147 8.54564C11.4967 8.42988 12.0999 8.48929 12.6481 8.71635C13.1962 8.94342 13.6648 9.32793 13.9944 9.82128C14.3241 10.3146 14.5 10.8946 14.5 11.488C14.4991 12.2834 14.1827 13.0459 13.6203 13.6083C13.0579 14.1707 12.2954 14.4871 11.5 14.488ZM11.5 9.48799C11.1044 9.48799 10.7178 9.60529 10.3889 9.82505C10.06 10.0448 9.80362 10.3572 9.65224 10.7226C9.50087 11.0881 9.46126 11.4902 9.53843 11.8782C9.6156 12.2661 9.80608 12.6225 10.0858 12.9022C10.3655 13.1819 10.7219 13.3724 11.1098 13.4496C11.4978 13.5267 11.8999 13.4871 12.2654 13.3358C12.6308 13.1844 12.9432 12.928 13.1629 12.5991C13.3827 12.2702 13.5 11.8836 13.5 11.488C13.5 10.9576 13.2893 10.4489 12.9142 10.0738C12.5391 9.69871 12.0304 9.48799 11.5 9.48799Z" fill="white"/>
<path d="M9.64652 10.3535C9.55544 10.2592 9.50504 10.1329 9.50618 10.0018C9.50732 9.87071 9.55991 9.7453 9.65261 9.6526C9.74532 9.55989 9.87072 9.50731 10.0018 9.50617C10.1329 9.50503 10.2592 9.55543 10.3535 9.64651L13.3535 12.6465C13.4446 12.7408 13.495 12.8671 13.4939 12.9982C13.4927 13.1293 13.4401 13.2547 13.3474 13.3474C13.2547 13.4401 13.1293 13.4927 12.9982 13.4938C12.8671 13.495 12.7408 13.4446 12.6465 13.3535L9.64652 10.3535Z" fill="white"/>
</svg>
