<svg width="20" height="20" viewBox="0 0 20 20" fill="none" xmlns="http://www.w3.org/2000/svg">
<path d="M15.8333 7.29167C14.1083 7.29167 12.7083 5.89167 12.7083 4.16667C12.7083 2.44167 14.1083 1.04167 15.8333 1.04167C17.5583 1.04167 18.9583 2.44167 18.9583 4.16667C18.9583 5.89167 17.5583 7.29167 15.8333 7.29167ZM15.8333 2.29167C14.8 2.29167 13.9583 3.13334 13.9583 4.16667C13.9583 5.20001 14.8 6.04167 15.8333 6.04167C16.8667 6.04167 17.7083 5.20001 17.7083 4.16667C17.7083 3.13334 16.8667 2.29167 15.8333 2.29167Z" fill="black"/>
<path d="M10 11.4583H5.83333C5.49167 11.4583 5.20833 11.175 5.20833 10.8333C5.20833 10.4917 5.49167 10.2083 5.83333 10.2083H10C10.3417 10.2083 10.625 10.4917 10.625 10.8333C10.625 11.175 10.3417 11.4583 10 11.4583Z" fill="black"/>
<path d="M13.3333 14.7917H5.83333C5.49167 14.7917 5.20833 14.5083 5.20833 14.1667C5.20833 13.825 5.49167 13.5417 5.83333 13.5417H13.3333C13.675 13.5417 13.9583 13.825 13.9583 14.1667C13.9583 14.5083 13.675 14.7917 13.3333 14.7917Z" fill="black"/>
<path d="M12.5 18.9583H7.5C2.975 18.9583 1.04167 17.025 1.04167 12.5V7.5C1.04167 2.97501 2.975 1.04167 7.5 1.04167H11.6667C12.0083 1.04167 12.2917 1.32501 12.2917 1.66667C12.2917 2.00834 12.0083 2.29167 11.6667 2.29167H7.5C3.65833 2.29167 2.29167 3.65834 2.29167 7.5V12.5C2.29167 16.3417 3.65833 17.7083 7.5 17.7083H12.5C16.3417 17.7083 17.7083 16.3417 17.7083 12.5V8.33334C17.7083 7.99167 17.9917 7.70834 18.3333 7.70834C18.675 7.70834 18.9583 7.99167 18.9583 8.33334V12.5C18.9583 17.025 17.025 18.9583 12.5 18.9583Z" fill="black"/>
</svg>
