<svg width="18" height="15" viewBox="0 0 18 15" fill="none" xmlns="http://www.w3.org/2000/svg">
<path d="M5.96857 4.27856C6.40034 4.14469 6.64233 3.68455 6.50907 3.25081C6.37581 2.81706 5.91776 2.57396 5.48599 2.70783C3.66433 3.27262 1.91616 4.36265 0.290326 5.74185C-0.054917 6.0347 -0.098454 6.55325 0.193085 6.9001C0.484619 7.24694 1.00083 7.29067 1.34607 6.99774C2.86577 5.70865 4.4227 4.75784 5.96857 4.27856Z" fill="#F5AD01"/>
<path d="M12.514 2.70783C12.0822 2.57396 11.6241 2.81706 11.4909 3.25081C11.3577 3.68455 11.5997 4.14469 12.0314 4.27856C13.5773 4.75783 15.1343 5.70857 16.6539 6.99766C16.9992 7.29059 17.5154 7.24678 17.8069 6.90001C18.0985 6.55317 18.0549 6.03462 17.7097 5.74177C16.0839 4.3626 14.3356 3.27261 12.514 2.70783Z" fill="#F5AD01"/>
<path d="M10.6761 6.93873C10.8153 6.50681 11.2766 6.27002 11.7065 6.40982C12.8316 6.77566 13.8995 7.37977 14.8554 8.21574C15.1962 8.51376 15.232 9.03297 14.9352 9.37529C14.6386 9.7177 14.1217 9.75362 13.781 9.45559C12.9872 8.76141 12.1123 8.26957 11.2026 7.97376C10.7727 7.83404 10.537 7.37056 10.6761 6.93873Z" fill="#F5AD01"/>
<path d="M7.32182 6.9702C7.46444 7.40097 7.23245 7.86626 6.80369 8.00952C5.90249 8.31058 5.02063 8.79576 4.20061 9.47121C3.85119 9.75905 3.33567 9.70784 3.04915 9.3568C2.76264 9.00576 2.81363 8.48787 3.16305 8.20004C4.13156 7.40229 5.18879 6.81675 6.28723 6.44969C6.71601 6.30643 7.17921 6.53944 7.32182 6.9702Z" fill="#F5AD01"/>
<path d="M7.85324 10.1348C8.04273 10.5469 7.86379 11.0353 7.45356 11.2257C7.10424 11.3878 6.78446 11.6072 6.51037 11.8825C6.19084 12.2036 5.67281 12.2036 5.35328 11.8825C5.03377 11.5616 5.03377 11.0412 5.35328 10.7202C5.7708 10.3008 6.25224 9.97233 6.76742 9.73332C7.17764 9.54297 7.66383 9.72272 7.85324 10.1348Z" fill="#F5AD01"/>
<path d="M10.1468 10.1348C10.3362 9.72272 10.8223 9.54297 11.2326 9.73332C11.7478 9.97233 12.2292 10.3008 12.6467 10.7202C12.9662 11.0412 12.9662 11.5616 12.6467 11.8825C12.3272 12.2036 11.8091 12.2036 11.4896 11.8825C11.2155 11.6072 10.8957 11.3878 10.5464 11.2257C10.1362 11.0353 9.95727 10.5469 10.1468 10.1348Z" fill="#F5AD01"/>
<path d="M10.5596 0.327287C9.63459 -0.109085 8.36707 -0.109109 7.44203 0.327295C6.85793 0.602842 6.6904 1.22025 6.77041 1.69802L8.3957 11.4036C8.44545 11.7004 8.70121 11.9178 9.00083 11.9178C9.30045 11.9178 9.55629 11.7004 9.60596 11.4036L11.2313 1.69804C11.3113 1.22025 11.1437 0.602826 10.5596 0.327287Z" fill="#F5AD01"/>
<path d="M9.00008 12.5343C8.32221 12.5343 7.77281 13.0863 7.77281 13.7671C7.77281 14.448 8.32221 15 9.00008 15H9.00973C9.68751 15 10.237 14.448 10.237 13.7671C10.237 13.0863 9.68751 12.5343 9.00973 12.5343H9.00008Z" fill="#F5AD01"/>
</svg>
