<svg width="40" height="40" viewBox="0 0 40 40" fill="none" xmlns="http://www.w3.org/2000/svg">
<circle cx="20" cy="20" r="19.5" fill="black" stroke="#D9E821"/>
<path d="M14.7525 14.9787C15.5001 14.748 15.9191 13.9549 15.6883 13.2073C15.4576 12.4597 14.6645 12.0406 13.9169 12.2714C10.7627 13.2449 7.73578 15.1237 4.92066 17.5009C4.32288 18.0056 4.2475 18.8994 4.75229 19.4972C5.25708 20.0951 6.15088 20.1704 6.74867 19.6655C9.38 17.4436 12.0758 15.8048 14.7525 14.9787Z" fill="#949495"/>
<path d="M26.0858 12.2714C25.3382 12.0406 24.545 12.4597 24.3144 13.2073C24.0836 13.9549 24.5026 14.748 25.2502 14.9787C27.9269 15.8048 30.6228 17.4435 33.254 19.6654C33.8518 20.1703 34.7456 20.0948 35.2503 19.4971C35.7552 18.8993 35.6797 18.0055 35.082 17.5007C32.267 15.1236 29.2398 13.2448 26.0858 12.2714Z" fill="#949495"/>
<path d="M22.9035 19.5639C23.1444 18.8194 23.9432 18.4113 24.6875 18.6522C26.6357 19.2828 28.4847 20.3241 30.1398 21.7649C30.73 22.2786 30.7919 23.1735 30.2781 23.7636C29.7644 24.3538 28.8695 24.4157 28.2794 23.902C26.905 22.7055 25.3901 21.8577 23.8151 21.3479C23.0706 21.107 22.6625 20.3082 22.9035 19.5639Z" fill="#949495"/>
<path d="M17.0955 19.618C17.3425 20.3605 16.9408 21.1625 16.1984 21.4094C14.638 21.9283 13.111 22.7646 11.6912 23.9288C11.0862 24.4249 10.1936 24.3367 9.69745 23.7316C9.20136 23.1266 9.28965 22.2339 9.89466 21.7378C11.5716 20.3628 13.4022 19.3535 15.3041 18.7209C16.0466 18.4739 16.8486 18.8756 17.0955 19.618Z" fill="#949495"/>
<path d="M18.0158 25.0727C18.3439 25.783 18.0341 26.6248 17.3237 26.9529C16.7189 27.2323 16.1652 27.6105 15.6906 28.0851C15.1374 28.6385 14.2404 28.6385 13.6871 28.0851C13.1339 27.5319 13.1339 26.6349 13.6871 26.0817C14.4101 25.3587 15.2437 24.7926 16.1357 24.3807C16.846 24.0526 17.6878 24.3624 18.0158 25.0727Z" fill="#949495"/>
<path d="M21.9869 25.0727C22.3148 24.3624 23.1566 24.0526 23.8669 24.3807C24.759 24.7926 25.5926 25.3587 26.3155 26.0817C26.8687 26.6349 26.8687 27.5319 26.3155 28.0851C25.7623 28.6385 24.8653 28.6385 24.3121 28.0851C23.8375 27.6105 23.2837 27.2323 22.6789 26.9529C21.9686 26.6248 21.6588 25.783 21.9869 25.0727Z" fill="#949495"/>
<path d="M22.7018 8.16824C21.1001 7.41611 18.9054 7.41606 17.3037 8.16826C16.2924 8.64319 16.0023 9.70737 16.1408 10.5309L18.955 27.2595C19.0411 27.7711 19.484 28.1458 20.0028 28.1458C20.5216 28.1458 20.9645 27.7711 21.0505 27.2595L23.8647 10.5309C24.0033 9.70737 23.7132 8.64317 22.7018 8.16824Z" fill="#D9E821"/>
<path d="M20.0015 29.2084C18.8278 29.2084 17.8765 30.1598 17.8765 31.3334C17.8765 32.5069 18.8278 33.4584 20.0015 33.4584H20.0182C21.1917 33.4584 22.1432 32.5069 22.1432 31.3334C22.1432 30.1598 21.1917 29.2084 20.0182 29.2084H20.0015Z" fill="#D9E821"/>
</svg>
