<svg width="20" height="20" viewBox="0 0 20 20" fill="none" xmlns="http://www.w3.org/2000/svg">
<g clip-path="url(#clip0_2750_343)">
<path d="M12.7344 8.24219C12.7344 7.05754 11.7706 6.09375 10.5859 6.09375H7.65625C7.44055 6.09375 7.26562 6.26867 7.26562 6.48438V10C7.26562 10.2157 7.44055 10.3906 7.65625 10.3906H10.5859C11.7706 10.3906 12.7344 9.42684 12.7344 8.24219ZM8.04688 6.875H10.5859C11.3398 6.875 11.9531 7.48832 11.9531 8.24219C11.9531 8.99605 11.3398 9.60938 10.5859 9.60938H8.04688V6.875Z" fill="black"/>
<path d="M15.0781 8.24219C15.0781 5.7652 13.0629 3.75 10.5859 3.75H5.3125C5.0968 3.75 4.92188 3.92492 4.92188 4.14062V15.8594C4.92188 16.0751 5.0968 16.25 5.3125 16.25H7.65625C7.87195 16.25 8.04688 16.0751 8.04688 15.8594V12.7344H10.5859C13.0629 12.7344 15.0781 10.7192 15.0781 8.24219ZM7.65625 11.9531C7.44055 11.9531 7.26562 12.128 7.26562 12.3438V15.4688H5.70312V4.53125H10.5859C12.6321 4.53125 14.2969 6.19598 14.2969 8.24219C14.2969 10.2884 12.6321 11.9531 10.5859 11.9531H7.65625Z" fill="black"/>
<path d="M10 20C10.2157 20 10.3906 19.8251 10.3906 19.6094C10.3906 19.3936 10.2157 19.2188 10 19.2188C9.78426 19.2188 9.60938 19.3936 9.60938 19.6094C9.60938 19.8251 9.78426 20 10 20Z" fill="black"/>
<path d="M18.4375 0H1.5625C0.700938 0 0 0.700938 0 1.5625V18.4375C0 19.2991 0.700938 20 1.5625 20H8.24219C8.45789 20 8.63281 19.8251 8.63281 19.6094C8.63281 19.3937 8.45789 19.2188 8.24219 19.2188H1.5625C1.13172 19.2188 0.78125 18.8683 0.78125 18.4375V1.5625C0.78125 1.13172 1.13172 0.78125 1.5625 0.78125H18.4375C18.8683 0.78125 19.2188 1.13172 19.2188 1.5625V18.4375C19.2188 18.8683 18.8683 19.2188 18.4375 19.2188H11.7578C11.5421 19.2188 11.3672 19.3937 11.3672 19.6094C11.3672 19.8251 11.5421 20 11.7578 20H18.4375C19.2991 20 20 19.2991 20 18.4375V1.5625C20 0.700938 19.2991 0 18.4375 0Z" fill="black"/>
</g>
<defs>
<clipPath id="clip0_2750_343">
<rect width="20" height="20" fill="white"/>
</clipPath>
</defs>
</svg>
