<svg width="35" height="11" viewBox="0 0 35 11" fill="none" xmlns="http://www.w3.org/2000/svg">
<path d="M0.873047 6.47949V5.38574H3.66211C4.36849 5.38574 4.91536 5.20345 5.30273 4.83887C5.6901 4.46973 5.88379 3.96159 5.88379 3.31445V3.30078C5.88379 2.64909 5.6901 2.14095 5.30273 1.77637C4.91536 1.41178 4.36849 1.22949 3.66211 1.22949H0.873047V0.135742H3.97656C4.59635 0.135742 5.14323 0.267904 5.61719 0.532227C6.09115 0.796549 6.46257 1.16569 6.73145 1.63965C7.00488 2.11361 7.1416 2.66276 7.1416 3.28711V3.30078C7.1416 3.92513 7.00488 4.47656 6.73145 4.95508C6.46257 5.43359 6.09115 5.80729 5.61719 6.07617C5.14323 6.34505 4.59635 6.47949 3.97656 6.47949H0.873047ZM0.257812 10V0.135742H1.48828V10H0.257812ZM10.7578 10.1299C10.293 10.1299 9.8737 10.041 9.5 9.86328C9.13086 9.68555 8.83691 9.43262 8.61816 9.10449C8.40397 8.77637 8.29688 8.389 8.29688 7.94238V7.92871C8.29688 7.49121 8.40169 7.11751 8.61133 6.80762C8.82096 6.49316 9.1263 6.24707 9.52734 6.06934C9.92839 5.8916 10.4137 5.78678 10.9834 5.75488L13.6904 5.59082V6.54102L11.127 6.70508C10.5664 6.73698 10.1562 6.85319 9.89648 7.05371C9.64128 7.25423 9.51367 7.53678 9.51367 7.90137V7.91504C9.51367 8.28874 9.65495 8.5804 9.9375 8.79004C10.2201 8.99512 10.5755 9.09766 11.0039 9.09766C11.4095 9.09766 11.7695 9.0179 12.084 8.8584C12.3984 8.69434 12.6445 8.47331 12.8223 8.19531C13.0046 7.91732 13.0957 7.60286 13.0957 7.25195V4.95508C13.0957 4.49935 12.9567 4.15299 12.6787 3.91602C12.4053 3.67448 11.9928 3.55371 11.4414 3.55371C10.9993 3.55371 10.637 3.63346 10.3545 3.79297C10.0719 3.94792 9.88281 4.16895 9.78711 4.45605L9.78027 4.47656H8.59082L8.59766 4.43555C8.66146 4.04818 8.82096 3.71094 9.07617 3.42383C9.33594 3.13216 9.6709 2.90658 10.0811 2.74707C10.4912 2.58301 10.9583 2.50098 11.4824 2.50098C12.084 2.50098 12.5921 2.59896 13.0068 2.79492C13.4261 2.99089 13.7428 3.27344 13.957 3.64258C14.1758 4.00716 14.2852 4.44466 14.2852 4.95508V10H13.0957V8.91309H12.9863C12.8314 9.17285 12.6423 9.39388 12.4189 9.57617C12.2002 9.75846 11.9518 9.89746 11.6738 9.99316C11.3958 10.0843 11.0905 10.1299 10.7578 10.1299ZM18.9883 10.1299C18.4414 10.1299 17.9583 10.0479 17.5391 9.88379C17.1198 9.71517 16.7826 9.48047 16.5273 9.17969C16.2767 8.87891 16.1286 8.52572 16.083 8.12012H17.2998C17.4001 8.42546 17.596 8.67155 17.8877 8.8584C18.1794 9.04525 18.5599 9.13867 19.0293 9.13867C19.362 9.13867 19.6536 9.09082 19.9043 8.99512C20.1595 8.89486 20.36 8.76042 20.5059 8.5918C20.6517 8.41862 20.7246 8.22038 20.7246 7.99707V7.9834C20.7246 7.73275 20.6243 7.52083 20.4238 7.34766C20.2233 7.16992 19.8952 7.02637 19.4395 6.91699L18.2979 6.64355C17.8376 6.53418 17.4593 6.3929 17.1631 6.21973C16.8669 6.04199 16.6481 5.82552 16.5068 5.57031C16.3656 5.31055 16.2949 5.00521 16.2949 4.6543V4.64746C16.2949 4.2373 16.4134 3.87044 16.6504 3.54688C16.8919 3.22331 17.2201 2.9681 17.6348 2.78125C18.0495 2.5944 18.5166 2.50098 19.0361 2.50098C19.5511 2.50098 20.0068 2.58301 20.4033 2.74707C20.8044 2.90658 21.1257 3.13444 21.3672 3.43066C21.6133 3.72689 21.7637 4.07552 21.8184 4.47656H20.6494C20.5719 4.1849 20.3942 3.94792 20.1162 3.76562C19.8382 3.58333 19.4759 3.49219 19.0293 3.49219C18.7376 3.49219 18.4779 3.54004 18.25 3.63574C18.0221 3.72689 17.8421 3.85449 17.71 4.01855C17.5778 4.18262 17.5117 4.37402 17.5117 4.59277V4.60645C17.5117 4.77051 17.555 4.91634 17.6416 5.04395C17.7282 5.17155 17.8626 5.2832 18.0449 5.37891C18.2272 5.47461 18.4619 5.55892 18.749 5.63184L19.8838 5.90527C20.5765 6.07389 21.0915 6.31543 21.4287 6.62988C21.7705 6.94434 21.9414 7.36589 21.9414 7.89453V7.9082C21.9414 8.3457 21.8115 8.73307 21.5518 9.07031C21.292 9.40299 20.9388 9.66276 20.4922 9.84961C20.0501 10.0365 19.5488 10.1299 18.9883 10.1299ZM26.3369 10.0547C25.5804 10.0547 25.0312 9.90202 24.6895 9.59668C24.3522 9.29134 24.1836 8.78776 24.1836 8.08594V3.61523H23.0215V2.63086H24.1836V0.723633H25.4141V2.63086H27.0273V3.61523H25.4141V7.78516C25.4141 8.2181 25.4961 8.53027 25.6602 8.72168C25.8242 8.90853 26.0977 9.00195 26.4805 9.00195C26.5853 9.00195 26.6742 8.99967 26.7471 8.99512C26.8245 8.99056 26.918 8.98372 27.0273 8.97461V9.98633C26.9134 10.0046 26.7995 10.0205 26.6855 10.0342C26.5716 10.0479 26.4554 10.0547 26.3369 10.0547ZM31.7168 10.1299C31.015 10.1299 30.4111 9.97493 29.9053 9.66504C29.404 9.35514 29.0166 8.91764 28.7432 8.35254C28.4743 7.78288 28.3398 7.11296 28.3398 6.34277V6.33594C28.3398 5.57487 28.4743 4.90723 28.7432 4.33301C29.0166 3.75879 29.4017 3.3099 29.8984 2.98633C30.3952 2.66276 30.9762 2.50098 31.6416 2.50098C32.3115 2.50098 32.8857 2.65592 33.3643 2.96582C33.8473 3.27572 34.2165 3.70866 34.4717 4.26465C34.7314 4.81608 34.8613 5.45866 34.8613 6.19238V6.65723H28.9551V5.70703H34.2529L33.665 6.5752V6.10352C33.665 5.52474 33.5785 5.0485 33.4053 4.6748C33.2321 4.30111 32.9928 4.02311 32.6875 3.84082C32.3822 3.65397 32.0312 3.56055 31.6348 3.56055C31.2383 3.56055 30.8828 3.65853 30.5684 3.85449C30.2585 4.0459 30.0124 4.33073 29.8301 4.70898C29.6478 5.08724 29.5566 5.55208 29.5566 6.10352V6.5752C29.5566 7.09928 29.6455 7.54818 29.8232 7.92188C30.001 8.29102 30.2539 8.57585 30.582 8.77637C30.9102 8.97233 31.2975 9.07031 31.7441 9.07031C32.0768 9.07031 32.3662 9.02474 32.6123 8.93359C32.8584 8.84245 33.0612 8.72624 33.2207 8.58496C33.3802 8.44368 33.4919 8.30013 33.5557 8.1543L33.583 8.09277H34.7725L34.7588 8.14746C34.695 8.39811 34.5811 8.64193 34.417 8.87891C34.2575 9.11133 34.0501 9.32324 33.7949 9.51465C33.5397 9.7015 33.2367 9.85189 32.8857 9.96582C32.5394 10.0752 32.1497 10.1299 31.7168 10.1299Z" fill="#1A73E9"/>
</svg>
