<svg width="20" height="20" viewBox="0 0 20 20" fill="none" xmlns="http://www.w3.org/2000/svg">
<path d="M16.8412 8.03347L5.95418 1.8912C5.59863 1.68802 5.19561 1.58263 4.78612 1.58576C4.37662 1.58889 3.97526 1.70043 3.62286 1.90902C3.27954 2.10538 2.99431 2.3891 2.79614 2.73138C2.59797 3.07366 2.49392 3.46229 2.49457 3.8578V16.1423C2.49392 16.5378 2.59797 16.9265 2.79614 17.2688C2.99431 17.611 3.27954 17.8948 3.62286 18.0911C3.9753 18.2996 4.37664 18.4111 4.78612 18.4142C5.19559 18.4174 5.5986 18.312 5.95418 18.1089L16.8412 11.9667C17.1923 11.7722 17.485 11.4872 17.6888 11.1414C17.8925 10.7955 18 10.4015 18 10.0001C18 9.59867 17.8925 9.2046 17.6888 8.85877C17.485 8.51294 17.1923 8.22798 16.8412 8.03347Z" fill="#D9E821"/>
</svg>
