<svg width="18" height="18" viewBox="0 0 18 18" fill="none" xmlns="http://www.w3.org/2000/svg">
<path d="M9.79135 7.06909V6.46187L9.00002 5.9433L8.20868 6.46187V7.06909C8.20868 7.61285 8.52017 8.10006 9.00002 8.33194C9.47986 8.10006 9.79135 7.61285 9.79135 7.06909Z" fill="#1A73E9"/>
<path d="M15.9568 11.2016V11.1892L18 9.03519L16.5755 5.22266L16.2854 5.16465C13.699 4.64736 11.1523 3.46122 9.47293 1.99179L8.99996 1.5779L8.52703 1.99176C6.84763 3.46122 4.30088 4.64736 1.71452 5.16465L1.42439 5.22266L0 9.03519L2.04324 11.1892V11.2016H15.9568ZM7.14566 7.06909V5.88753L9 4.67241L10.8543 5.88753V7.06909C10.8543 8.13228 10.1767 9.07247 9.16806 9.4087L9 9.46472L8.83194 9.4087C7.82332 9.07247 7.14566 8.13228 7.14566 7.06909Z" fill="#1A73E9"/>
<path d="M2.04321 12.2646V13.245C2.04321 14.9969 3.46849 16.4222 5.22039 16.4222H12.7796C14.5315 16.4222 15.9567 14.9969 15.9567 13.245V12.2646H2.04321Z" fill="#1A73E9"/>
</svg>
