<svg width="40" height="44" viewBox="0 0 40 44" fill="none" xmlns="http://www.w3.org/2000/svg">
<path d="M29.9657 19.0334V10.7126C29.9657 10.4744 29.8557 10.2544 29.7 10.0803L20.3712 0.284126C20.1971 0.10097 19.9495 0 19.7023 0H4.91165C2.18109 0 0 2.22671 0 4.95761V32.9257C0 35.6566 2.18109 37.8467 4.91165 37.8467H16.5866C18.7949 41.5122 22.8089 43.968 27.3814 43.968C34.3275 43.968 40 38.3231 40 31.3679C40.0094 25.2922 35.6472 20.2155 29.9657 19.0334ZM20.6187 3.21662L26.8775 9.80518H22.8179C21.6083 9.80518 20.6187 8.80655 20.6187 7.59692V3.21662ZM4.91165 36.0138C3.19817 36.0138 1.8329 34.6392 1.8329 32.9257V4.95761C1.8329 3.23474 3.19817 1.8329 4.91165 1.8329H18.7858V7.59692C18.7858 9.82363 20.5912 11.6381 22.8179 11.6381H28.1328V18.7949C27.8581 18.7858 27.638 18.7583 27.3998 18.7583C24.2017 18.7583 21.2601 19.9864 19.0425 21.9109H7.40437C6.90019 21.9109 6.48793 22.3231 6.48793 22.827C6.48793 23.3312 6.90019 23.7434 7.40437 23.7434H17.338C16.6873 24.6599 16.1465 25.5763 15.7252 26.5844H7.40437C6.90019 26.5844 6.48793 26.9966 6.48793 27.5008C6.48793 28.0047 6.90019 28.4173 7.40437 28.4173H15.1294C14.9003 29.3337 14.7812 30.3508 14.7812 31.3679C14.7812 33.0173 15.1019 34.6486 15.6792 36.0232H4.91165V36.0138ZM27.3908 42.1445C21.4527 42.1445 16.6232 37.315 16.6232 31.3769C16.6232 25.4388 21.4433 20.6093 27.3908 20.6093C33.338 20.6093 38.158 25.4388 38.158 31.3769C38.158 37.315 33.3289 42.1445 27.3908 42.1445Z" fill="black"/>
<path d="M7.40436 19.1527H16.6873C17.1914 19.1527 17.6037 18.7401 17.6037 18.2363C17.6037 17.7321 17.1914 17.3198 16.6873 17.3198H7.40436C6.90018 17.3198 6.48792 17.7321 6.48792 18.2363C6.48792 18.7401 6.90018 19.1527 7.40436 19.1527Z" fill="black"/>
<path d="M32.0824 31.1844L28.3163 35.244V25.2372C28.3163 24.7331 27.9037 24.3208 27.3998 24.3208C26.8957 24.3208 26.4834 24.7331 26.4834 25.2372V35.244L22.6895 31.1844C22.3413 30.8181 21.7549 30.7906 21.3883 31.1388C21.0216 31.487 20.9941 32.0643 21.3426 32.431L26.7035 38.195C26.8776 38.3781 27.1157 38.4882 27.3723 38.4882C27.629 38.4882 27.8671 38.3781 28.0412 38.195L33.4114 32.431C33.7596 32.0643 33.7412 31.4779 33.3745 31.1388C32.9988 30.7906 32.4309 30.8181 32.0824 31.1844Z" fill="black"/>
</svg>
