<svg width="18" height="18" viewBox="0 0 18 18" fill="none" xmlns="http://www.w3.org/2000/svg">
<path d="M16.203 3.525C16.098 3.495 15.987 3.525 15.909 3.603L14.448 5.064L13.203 4.797L12.936 3.555L14.4 2.091C14.475 2.016 14.505 1.905 14.475 1.8C14.448 1.695 14.364 1.614 14.259 1.59C13.242 1.338 12.192 1.626 11.451 2.364C10.701 3.117 10.419 4.191 10.686 5.211L9.54602 6.354L11.649 8.457L12.789 7.314C13.806 7.587 14.883 7.302 15.639 6.549C16.374 5.811 16.665 4.761 16.413 3.744C16.386 3.639 16.305 3.555 16.203 3.525Z" fill="#1A73E9"/>
<path d="M4.15502 14.601C4.17002 14.589 4.18802 14.577 4.20302 14.562C4.41302 14.352 4.41302 14.007 4.20302 13.797C4.02602 13.62 3.73502 13.599 3.52802 13.728C3.49502 13.749 3.46502 13.77 3.43802 13.797C3.22802 14.007 3.22802 14.352 3.43802 14.562C3.63002 14.751 3.94802 14.76 4.15502 14.601Z" fill="#1A73E9"/>
<path d="M3.825 16.5C4.443 16.5 5.028 16.26 5.466 15.819C5.952 15.336 6.195 14.655 6.132 13.971L8.457 11.649L6.354 9.54601L4.032 11.868C3.351 11.805 2.667 12.051 2.184 12.537C1.743 12.975 1.5 13.557 1.5 14.178C1.5 14.799 1.743 15.381 2.181 15.819C2.619 16.26 3.204 16.5 3.825 16.5ZM3.015 13.371C3.444 12.942 4.197 12.942 4.629 13.371C5.073 13.815 5.073 14.541 4.629 14.985C4.413 15.201 4.128 15.318 3.822 15.318C3.516 15.318 3.231 15.201 3.015 14.985C2.571 14.541 2.571 13.815 3.015 13.371Z" fill="#1A73E9"/>
<path d="M14.664 13.596L15.798 14.733C15.87 14.805 15.972 14.835 16.071 14.814C16.17 14.793 16.254 14.724 16.29 14.631C16.728 13.527 16.47 12.273 15.633 11.433C14.937 10.737 13.929 10.434 12.966 10.623L7.37999 5.037C7.56599 4.074 7.26299 3.066 6.56699 2.37C5.72999 1.53 4.47299 1.272 3.37199 1.71C3.27599 1.749 3.20699 1.83 3.18899 1.929C3.16799 2.028 3.19799 2.13 3.26999 2.202L4.40699 3.339C4.54799 3.48 4.62599 3.672 4.62599 3.873C4.62599 4.074 4.54799 4.263 4.40699 4.407C4.11298 4.701 3.63299 4.701 3.33899 4.407L2.20199 3.27C2.12999 3.198 2.02799 3.168 1.92899 3.186C1.82999 3.207 1.74899 3.276 1.71299 3.372C1.27199 4.473 1.52999 5.73 2.36999 6.567C3.06599 7.263 4.07399 7.566 5.03699 7.38L10.623 12.966C10.437 13.929 10.74 14.937 11.433 15.633C12.003 16.2 12.759 16.5 13.533 16.5C13.902 16.5 14.274 16.431 14.631 16.29C14.724 16.254 14.793 16.17 14.814 16.071C14.835 15.972 14.805 15.87 14.733 15.798L13.596 14.664C13.452 14.52 13.374 14.331 13.374 14.13C13.374 13.929 13.452 13.737 13.596 13.596C13.881 13.311 14.379 13.311 14.664 13.596Z" fill="#1A73E9"/>
</svg>
