<svg width="20" height="20" viewBox="0 0 20 20" fill="none" xmlns="http://www.w3.org/2000/svg">
<g clip-path="url(#clip0_4576_5479)">
<path d="M20 12.8022V18.8235C20 19.4733 19.4733 20 18.8236 20H15.705C16.3221 16.218 15.4631 14.0504 12.9945 13.8259C10.5857 13.607 8.22594 15.7059 5.82926 20H1.17652C0.526797 20 3.93391e-05 19.4733 3.93391e-05 18.8235V16.3603C2.08266 15.8677 3.63914 14.7197 4.63191 12.9327C5.25086 11.8186 5.42977 11.0856 5.60391 9.58906C5.69617 8.79609 5.7691 8.44781 5.95711 8.05277C6.09902 7.75457 6.30203 7.47109 6.5925 7.18066C7.13906 6.6341 7.78754 6.39324 8.84316 6.26019C9.00957 6.23922 9.13062 6.22621 9.45578 6.19301C11.0617 6.0291 11.7617 5.835 12.4749 5.12184C13.5194 4.07734 13.8793 2.36316 13.6133 0H18.8236C19.4733 0 20 0.526718 20 1.17648V6.30844C16.4121 5.49113 14.4118 6.04879 14.4118 8.23531C14.4118 10.2756 16.3289 11.7649 20 12.8022ZM20 11.5773C17.0104 10.685 15.5883 9.54144 15.5883 8.23531C15.5883 7.09086 16.913 6.76152 20 7.51629V11.5773ZM14.5124 20H7.18422C9.2491 16.4743 11.1748 14.8418 12.8879 14.9976C14.5083 15.1449 15.0961 16.6983 14.5124 20ZM12.4288 0C12.6857 2.1068 12.4033 3.52957 11.6429 4.28996C11.1893 4.74355 10.6761 4.88586 9.33625 5.02262C9.00144 5.0568 8.87492 5.07039 8.69598 5.09297C7.40535 5.25566 6.5277 5.58164 5.76055 6.34879C5.37707 6.73227 5.09551 7.12539 4.89473 7.54727C4.63484 8.09336 4.54176 8.53781 4.43527 9.45309C4.2775 10.809 4.12988 11.4138 3.60344 12.3614C2.81828 13.7747 1.62773 14.6984 0 15.1464V1.17648C3.90625e-05 0.526718 0.526758 0 1.17652 0H12.4288Z" fill="#D9E821"/>
</g>
<defs>
<clipPath id="clip0_4576_5479">
<rect width="20" height="20" fill="white"/>
</clipPath>
</defs>
</svg>
