<svg width="17" height="18" viewBox="0 0 17 18" fill="none" xmlns="http://www.w3.org/2000/svg">
<path fill-rule="evenodd" clip-rule="evenodd" d="M11.3974 13.3478C10.1956 14.3193 8.6657 14.9011 7 14.9011C3.13401 14.9011 0 11.7671 0 7.90112C0 4.03513 3.13401 0.901123 7 0.901123C10.866 0.901123 14 4.03513 14 7.90112C14 9.5669 13.4182 11.0967 12.4467 12.2985C12.4759 12.3202 12.5038 12.3443 12.5303 12.3708L16.5303 16.3708C16.8232 16.6637 16.8232 17.1386 16.5303 17.4315C16.2374 17.7243 15.7626 17.7243 15.4697 17.4315L11.4697 13.4315C11.4432 13.405 11.4191 13.377 11.3974 13.3478ZM12.5 7.90112C12.5 10.9387 10.0376 13.4011 7 13.4011C3.96243 13.4011 1.5 10.9387 1.5 7.90112C1.5 4.86356 3.96243 2.40112 7 2.40112C10.0376 2.40112 12.5 4.86356 12.5 7.90112Z" fill="#949495"/>
</svg>
