<svg width="20" height="20" viewBox="0 0 20 20" fill="none" xmlns="http://www.w3.org/2000/svg">
<path d="M2.01404 8.9956C2.01404 11.4618 2.86654 13.7215 4.41435 15.3578C5.80529 16.8287 7.68435 17.964 9.99998 18.7334C12.3156 17.964 14.1947 16.8284 15.5856 15.3578C17.1334 13.7215 17.9859 11.4618 17.9859 8.9956V2.59279C13.3331 3.38404 10.7237 1.84997 9.99998 1.33185C9.27623 1.84997 6.66623 3.38404 2.01404 2.59279V8.9956ZM2.95154 4.00997C2.95154 3.92279 2.9881 3.83935 3.05216 3.77997C3.11654 3.72091 3.20373 3.6906 3.28966 3.69841C3.70716 3.73279 4.12248 3.75029 4.52466 3.75029C7.06654 3.75029 8.82373 3.08372 9.85029 2.52466C9.94373 2.47404 10.0559 2.47404 10.1494 2.52466C11.1762 3.08372 12.9337 3.75029 15.475 3.75029C15.8772 3.75029 16.2925 3.73279 16.71 3.69841C16.7969 3.6906 16.8831 3.72091 16.9475 3.77997C17.0115 3.83904 17.0481 3.92279 17.0481 4.00997V8.9956C17.0481 11.2215 16.2865 13.2522 14.9044 14.7134C13.7022 15.9843 12.0878 16.9909 10.1059 17.705C10.0719 17.7175 10.0356 17.7234 9.99998 17.7234C9.96435 17.7234 9.92841 17.7172 9.89404 17.705C7.91185 16.9909 6.29748 15.9847 5.0956 14.7137C3.7131 13.2522 2.95185 11.2215 2.95185 8.99591V4.01029L2.95154 4.00997Z" fill="black"/>
<path d="M9.99998 17.0781C11.8406 16.4006 13.3375 15.4606 14.4503 14.2841C15.7225 12.9391 16.4231 11.0613 16.4231 8.99563V4.34594C16.1031 4.36563 15.7853 4.37563 15.475 4.37563C12.9206 4.37563 11.1075 3.72907 9.99967 3.15344C8.89217 3.72907 7.07936 4.37563 4.52436 4.37563C4.21405 4.37563 3.89623 4.36563 3.57623 4.34594V8.99563C3.57623 11.0609 4.27686 12.9391 5.54905 14.2841C6.66217 15.4609 8.15905 16.4003 9.99936 17.0781H9.99998Z" fill="black"/>
</svg>
