<svg width="22" height="22" viewBox="0 0 22 22" fill="none" xmlns="http://www.w3.org/2000/svg">
<g clip-path="url(#clip0_2750_340)">
<path d="M18.535 3.46497C17.0447 1.97471 15.146 0.959839 13.0789 0.548683C11.0118 0.137527 8.86921 0.348556 6.92206 1.15508C4.97491 1.96161 3.31065 3.32742 2.13972 5.07979C0.968793 6.83216 0.343792 8.8924 0.34375 11C0.34375 11.0911 0.379966 11.1786 0.444432 11.243C0.508898 11.3075 0.596332 11.3437 0.6875 11.3437H4.85246C4.94363 11.3437 5.03106 11.3075 5.09553 11.243C5.15999 11.1786 5.19621 11.0911 5.19621 11C5.19621 7.79966 7.79969 5.19619 11 5.19619C14.2003 5.19619 16.8038 7.79966 16.8038 11C16.8038 11.0911 16.84 11.1786 16.9045 11.243C16.9689 11.3075 17.0564 11.3437 17.1475 11.3437H21.3125C21.4037 11.3437 21.4911 11.3075 21.5556 11.243C21.62 11.1786 21.6562 11.0911 21.6562 11C21.66 9.60002 21.3861 8.21322 20.8504 6.91984C20.3146 5.62646 19.5276 4.45218 18.535 3.46497ZM4.51773 10.6562H1.03727C1.11871 8.25139 2.07041 5.95789 3.71551 4.20189L6.17547 6.66013C5.18044 7.7623 4.59508 9.17336 4.51773 10.6562ZM6.66016 6.17544L4.20191 3.71591C5.95791 2.07081 8.25141 1.11912 10.6562 1.03767V4.51814C9.17344 4.59536 7.76239 5.18057 6.66016 6.17544ZM11.3438 4.51771V1.03724C13.7486 1.11881 16.0422 2.07066 17.7981 3.71591L15.3398 6.17544C14.2377 5.18041 12.8266 4.59505 11.3438 4.51771ZM17.4823 10.6562C17.4049 9.17336 16.8196 7.7623 15.8245 6.66013L18.2845 4.20017C19.93 5.95661 20.8817 8.25079 20.9627 10.6562H17.4823ZM11.9062 9.23396C11.8143 9.07497 11.6822 8.94295 11.5231 8.85117C11.3641 8.75939 11.1836 8.71107 11 8.71107C10.8164 8.71107 10.6359 8.75939 10.4769 8.85117C10.3178 8.94295 10.1857 9.07497 10.0938 9.23396L3.82809 20.087C3.73632 20.246 3.68802 20.4264 3.68803 20.61C3.68805 20.7936 3.73637 20.974 3.82816 21.133C3.91994 21.292 4.05196 21.4241 4.21094 21.5159C4.36992 21.6078 4.55026 21.6561 4.73387 21.6562H17.2661C17.4497 21.6561 17.6301 21.6078 17.7891 21.5159C17.948 21.4241 18.0801 21.292 18.1718 21.133C18.2636 20.974 18.312 20.7936 18.312 20.61C18.312 20.4264 18.2637 20.246 18.1719 20.087L11.9062 9.23396ZM17.5781 20.7895C17.5478 20.8451 17.5028 20.8912 17.448 20.9229C17.3932 20.9545 17.3307 20.9703 17.2674 20.9687H4.73387C4.67092 20.9687 4.60909 20.9521 4.55459 20.9206C4.50008 20.8891 4.45482 20.8439 4.42334 20.7894C4.39187 20.7349 4.37528 20.673 4.37526 20.6101C4.37523 20.5471 4.39177 20.4853 4.4232 20.4308L10.6893 9.57771C10.7208 9.52319 10.7661 9.47792 10.8207 9.44645C10.8752 9.41498 10.937 9.39841 11 9.39841C11.063 9.39841 11.1248 9.41498 11.1793 9.44645C11.2339 9.47792 11.2792 9.52319 11.3107 9.57771L17.5768 20.4308C17.6098 20.4848 17.6273 20.5468 17.6273 20.6101C17.6273 20.6735 17.6098 20.7355 17.5768 20.7895H17.5781ZM11 12.1769C10.8209 12.1763 10.6437 12.2136 10.4801 12.2864C10.3164 12.3591 10.17 12.4656 10.0504 12.5988C9.93078 12.7321 9.8407 12.8892 9.78605 13.0597C9.7314 13.2303 9.71342 13.4104 9.73328 13.5884L10.0629 16.6289C10.0848 16.8332 10.1816 17.0222 10.3345 17.1594C10.4875 17.2967 10.6858 17.3725 10.8913 17.3722H11.1087C11.3142 17.3725 11.5125 17.2967 11.6655 17.1594C11.8184 17.0222 11.9152 16.8332 11.9371 16.6289L12.2676 13.5893C12.2876 13.4112 12.2697 13.2308 12.215 13.0601C12.1604 12.8894 12.0703 12.7322 11.9505 12.5988C11.8308 12.4654 11.6842 12.3589 11.5204 12.2861C11.3566 12.2134 11.1792 12.1762 11 12.1769ZM11.5831 13.5141L11.2531 16.5537C11.2492 16.5894 11.2322 16.6224 11.2054 16.6462C11.1785 16.67 11.1438 16.683 11.1079 16.6826H10.8904C10.8545 16.683 10.8198 16.67 10.7929 16.6462C10.766 16.6224 10.749 16.5894 10.7452 16.5537L10.4152 13.5141C10.4057 13.4319 10.4138 13.3487 10.4389 13.27C10.464 13.1912 10.5056 13.1187 10.5609 13.0572C10.6162 12.9958 10.684 12.9468 10.7597 12.9135C10.8354 12.8803 10.9173 12.8635 11 12.8644C11.0826 12.8636 11.1644 12.8805 11.2399 12.9138C11.3155 12.9471 11.3831 12.9961 11.4383 13.0576C11.4934 13.119 11.5349 13.1915 11.5598 13.2702C11.5848 13.3489 11.5927 13.4321 11.5831 13.5141ZM11 17.8943C10.7896 17.8943 10.5839 17.9567 10.4089 18.0736C10.234 18.1905 10.0976 18.3567 10.0171 18.5511C9.93655 18.7455 9.91549 18.9594 9.95654 19.1658C9.99759 19.3722 10.0989 19.5617 10.2477 19.7105C10.3965 19.8593 10.5861 19.9606 10.7924 20.0017C10.9988 20.0427 11.2127 20.0217 11.4071 19.9411C11.6015 19.8606 11.7677 19.7242 11.8846 19.5493C12.0015 19.3743 12.0639 19.1686 12.0639 18.9582C12.0636 18.6762 11.9514 18.4057 11.7519 18.2063C11.5525 18.0069 11.2821 17.8947 11 17.8943ZM11 19.3359C10.9256 19.3359 10.8528 19.3138 10.7909 19.2725C10.729 19.2311 10.6807 19.1723 10.6522 19.1035C10.6238 19.0348 10.6163 18.9591 10.6308 18.8861C10.6454 18.8131 10.6812 18.746 10.7338 18.6933C10.7865 18.6407 10.8536 18.6049 10.9266 18.5903C10.9996 18.5758 11.0753 18.5833 11.144 18.6118C11.2128 18.6402 11.2716 18.6885 11.313 18.7504C11.3543 18.8123 11.3764 18.8851 11.3764 18.9595C11.3763 19.0593 11.3366 19.155 11.266 19.2255C11.1955 19.2961 11.0998 19.3358 11 19.3359Z" fill="black"/>
</g>
<defs>
<clipPath id="clip0_2750_340">
<rect width="22" height="22" fill="white"/>
</clipPath>
</defs>
</svg>
