<svg width="24" height="24" viewBox="0 0 24 24" fill="none" xmlns="http://www.w3.org/2000/svg">
<g clip-path="url(#clip0_4576_6162)">
<path d="M19.6422 10.531H19.1377V11.5769C19.1377 11.5769 19.6014 11.5767 19.6422 11.5767C19.9386 11.5767 20.1891 11.3373 20.1891 11.0538C20.1891 10.7704 19.9386 10.531 19.6422 10.531Z" fill="#D9E821"/>
<path d="M13.9945 10.531C13.1844 10.531 12.5254 11.19 12.5254 12C12.5254 12.81 13.1844 13.469 13.9945 13.469C14.8045 13.469 15.4635 12.81 15.4635 12C15.4635 11.19 14.8045 10.531 13.9945 10.531Z" fill="#D9E821"/>
<path d="M16.9705 0H7.02947L0 7.02942V16.9706L7.02947 24H16.9705L24 16.9706V7.02942L16.9705 0ZM6.501 13.3925C6.34753 14.2785 5.5118 14.9217 4.51392 14.9217C3.72459 14.9217 2.98289 14.6028 2.47898 14.0467L3.52102 13.1024C3.75534 13.361 4.12655 13.5154 4.51392 13.5154C4.88133 13.5154 5.08997 13.2988 5.11533 13.1525C5.12653 13.0878 5.1563 12.916 4.77834 12.774C4.53352 12.6819 4.35262 12.6376 4.17769 12.5948C3.90984 12.5292 3.63286 12.4614 3.31505 12.2548C2.75142 11.8885 2.56102 11.2675 2.57077 10.8084C2.58544 10.1147 3.06173 9.47452 3.75591 9.21548C4.92928 8.77758 5.87283 9.47845 6.43659 9.89719L5.59814 11.0261C4.76855 10.41 4.51519 10.4331 4.24753 10.533C4.05337 10.6055 3.97837 10.7587 3.97673 10.8383C3.975 10.9193 4.01105 11.0301 4.08136 11.0757C4.19344 11.1486 4.27959 11.172 4.51209 11.2289C4.70695 11.2766 4.94953 11.336 5.27297 11.4576C6.16458 11.7926 6.64659 12.5521 6.501 13.3925ZM10.8521 10.531H9.64772V14.8753H8.24147V10.531H7.04672V9.12473H10.8522V10.531H10.8521ZM13.9944 14.8753C12.409 14.8753 11.1191 13.5854 11.1191 12C11.1191 10.4146 12.409 9.12473 13.9944 9.12473C15.5798 9.12473 16.8697 10.4146 16.8697 12C16.8697 13.5854 15.5798 14.8753 13.9944 14.8753ZM19.6423 12.9829C19.599 12.9829 19.1358 12.9831 19.1358 12.9831V14.8753H17.7295V9.12473H19.6423C20.7193 9.12473 21.5954 9.99014 21.5954 11.0538C21.5954 12.1175 20.7193 12.9829 19.6423 12.9829Z" fill="#D9E821"/>
</g>
<defs>
<clipPath id="clip0_4576_6162">
<rect width="24" height="24" fill="white"/>
</clipPath>
</defs>
</svg>
