<svg width="30" height="30" viewBox="0 0 30 30" fill="none" xmlns="http://www.w3.org/2000/svg">
<g clip-path="url(#clip0_4638_253)">
<path d="M11.3853 17.6151C11.4857 17.4157 11.5809 17.2141 11.6724 17.0109C11.8688 17.2576 11.6761 17.5971 11.3853 17.6151Z" fill="#E4E4E4"/>
<path d="M20.5292 6.77303C16.1634 9.92304 11.7849 13.0618 7.45427 16.2613C7.22639 16.4292 6.3988 16.915 6.33883 17.0949C6.2084 17.4869 6.32609 17.8588 6.71964 17.9974L13.1904 17.936L15.8486 24.125C16.3253 24.5066 16.9085 24.251 17.0465 23.6798L21.3553 7.52118C21.452 6.97019 21.0787 6.62685 20.5292 6.77303ZM16.2001 21.7472L16.0322 21.6512L14.06 17.0289C14.0195 16.9629 13.8096 16.7995 13.7646 16.7995H8.77961L19.461 9.00172L16.2001 21.7472ZM20.5292 6.77303C16.1634 9.92304 11.7849 13.0618 7.45427 16.2613C7.22639 16.4292 6.3988 16.915 6.33883 17.0949C6.2084 17.4869 6.32609 17.8588 6.71964 17.9974L13.1904 17.936L15.8486 24.125C16.3253 24.5066 16.9085 24.251 17.0465 23.6798L21.3553 7.52118C21.452 6.97019 21.0787 6.62685 20.5292 6.77303ZM16.2001 21.7472L16.0322 21.6512L14.06 17.0289C14.0195 16.9629 13.8096 16.7995 13.7646 16.7995H8.77961L19.461 9.00172L16.2001 21.7472ZM15 0C6.71589 0 0 6.71606 0 15.0004C0 23.2847 6.71589 30 15 30C23.2841 30 30 23.2847 30 15.0004C30 6.71606 23.2841 0 15 0ZM14.9993 28.7878C7.38531 28.7878 1.21214 22.6153 1.21214 15.0011C1.21214 7.38699 7.38531 1.21367 14.9993 1.21367C22.6132 1.21367 28.7864 7.38624 28.7864 15.0011C28.7864 22.616 22.6132 28.7878 14.9993 28.7878ZM20.5292 6.77303C16.1634 9.92304 11.7849 13.0618 7.45427 16.2613C7.22639 16.4292 6.3988 16.915 6.33883 17.0949C6.2084 17.4869 6.32609 17.8588 6.71964 17.9974L13.1904 17.936L15.8486 24.125C16.3253 24.5066 16.9085 24.251 17.0465 23.6798L21.3553 7.52118C21.452 6.97019 21.0787 6.62685 20.5292 6.77303ZM16.2001 21.7472L16.0322 21.6512L14.06 17.0289C14.0195 16.9629 13.8096 16.7995 13.7646 16.7995H8.77961L19.461 9.00172L16.2001 21.7472ZM20.5292 6.77303C16.1634 9.92304 11.7849 13.0618 7.45427 16.2613C7.22639 16.4292 6.3988 16.915 6.33883 17.0949C6.2084 17.4869 6.32609 17.8588 6.71964 17.9974L13.1904 17.936L15.8486 24.125C16.3253 24.5066 16.9085 24.251 17.0465 23.6798L21.3553 7.52118C21.452 6.97019 21.0787 6.62685 20.5292 6.77303ZM16.2001 21.7472L16.0322 21.6512L14.06 17.0289C14.0195 16.9629 13.8096 16.7995 13.7646 16.7995H8.77961L19.461 9.00172L16.2001 21.7472Z" fill="black"/>
<path d="M20.5292 6.77303C16.1634 9.92304 11.7848 13.0618 7.45422 16.2613C7.22633 16.4292 6.39874 16.915 6.33877 17.0949C6.20834 17.4869 6.32603 17.8588 6.71958 17.9975L13.1903 17.936L15.8485 24.125C16.3253 24.5066 16.9085 24.251 17.0464 23.6798L21.3553 7.52118C21.452 6.97019 21.0787 6.62685 20.5292 6.77303ZM16.2001 21.7472L16.0322 21.6512L14.0599 17.0289C14.0194 16.9629 13.8095 16.7995 13.7646 16.7995H8.77955L19.461 9.00172L16.2001 21.7472Z" fill="black"/>
</g>
<defs>
<clipPath id="clip0_4638_253">
<rect width="30" height="30" fill="white"/>
</clipPath>
</defs>
</svg>
