<svg width="17" height="17" viewBox="0 0 17 17" fill="none" xmlns="http://www.w3.org/2000/svg">
<path d="M11.802 7.84912C11.7422 8.41357 11.6504 8.91872 11.4851 9.59291C11.4013 9.9361 11.068 10.1759 10.6746 10.1759H10.5922C10.432 10.1759 10.2823 10.1351 10.1553 10.0646C10.0159 11.0509 9.69595 12.1305 9.41644 12.95C9.38434 13.0441 9.29592 13.1074 9.19647 13.1074H7.80267C7.70316 13.1074 7.61468 13.044 7.58264 12.9498C7.30336 12.1291 6.98372 11.0489 6.8442 10.0647C6.71736 10.1351 6.56791 10.1759 6.40794 10.1759H6.32454C5.93121 10.1759 5.59789 9.93607 5.51401 9.59272C5.34797 8.91092 5.25616 8.40587 5.19712 7.84932C5.08593 6.7915 5.15595 5.96252 5.41115 5.31482C5.66492 4.67082 6.0971 4.19761 6.72706 3.8755C6.43278 3.49649 6.257 3.02132 6.257 2.50564C6.257 1.27048 7.26302 0.265625 8.49957 0.265625C9.73612 0.265625 10.7422 1.27048 10.7422 2.50564C10.7422 3.02132 10.5664 3.49646 10.2721 3.8755C10.9021 4.19764 11.3343 4.67085 11.588 5.31482C11.8433 5.96255 11.9133 6.79153 11.8021 7.84912H11.802ZM8.82955 14.8322L7.66392 13.8011C7.45789 13.6189 7.14313 13.6382 6.96087 13.8441C6.77862 14.0502 6.79791 14.3649 7.00394 14.5472L7.11258 14.6433C6.10221 14.5483 5.17893 14.3492 4.43136 14.0601C3.54238 13.7162 2.99011 13.2647 2.99011 12.8817C2.99011 12.561 3.38802 12.1808 4.0545 11.8646C4.59422 11.6086 5.28332 11.4036 6.05845 11.2643C6.04965 11.2261 6.04075 11.1879 6.03235 11.1502C5.57212 11.0804 5.16595 10.848 4.88701 10.5086C4.42044 10.6369 3.9955 10.7902 3.62758 10.9647C2.27741 11.6052 1.99402 12.3607 1.99402 12.8817C1.99402 13.7224 2.73199 14.4708 4.072 14.9891C4.957 15.3314 6.05297 15.5594 7.24074 15.6538L7.00391 15.8633C6.79788 16.0456 6.77859 16.3603 6.96084 16.5664C7.05929 16.6776 7.19635 16.7344 7.33408 16.7344C7.45135 16.7344 7.56912 16.6932 7.66388 16.6094L8.82951 15.5783C8.93639 15.4838 8.99759 15.348 8.99759 15.2053C8.99759 15.0626 8.93639 14.9268 8.82951 14.8323L8.82955 14.8322ZM13.372 10.9646C13.0039 10.7901 12.5789 10.6369 12.1123 10.5086C11.8335 10.8477 11.4275 11.0802 10.9674 11.15C10.959 11.1877 10.9498 11.2262 10.941 11.2643C11.7162 11.4036 12.4053 11.6086 12.9451 11.8646C13.6119 12.1808 14.01 12.5611 14.01 12.8817C14.01 13.4847 12.6502 14.2878 10.3746 14.588C10.1019 14.6239 9.91001 14.8742 9.946 15.1469C9.97907 15.3975 10.193 15.5798 10.4391 15.5798C10.4608 15.5798 10.4828 15.5784 10.5049 15.5755C11.7394 15.4127 12.8079 15.1055 13.5948 14.6872C14.7612 14.0672 15.0061 13.3632 15.0061 12.8817C15.0061 12.3607 14.7226 11.6052 13.372 10.9647V10.9646Z" fill="#1A73E9"/>
</svg>
