<svg width="22" height="22" viewBox="0 0 22 22" fill="none" xmlns="http://www.w3.org/2000/svg">
<path d="M21.6462 11.8009C21.6802 12.6132 21.3906 13.4057 20.841 14.0047C20.2914 14.6037 19.5266 14.9602 18.7144 14.9961C18.6669 14.9983 18.6195 14.9994 18.5722 14.9994C18.3564 14.9992 18.1413 14.9759 17.9305 14.9297C17.305 15.8954 16.4848 16.72 15.5225 17.3506C14.5601 17.9812 13.4768 18.404 12.3416 18.592C12.2074 18.9864 11.9395 19.3215 11.5844 19.5394C11.2293 19.7573 10.8092 19.8443 10.3967 19.7853C9.98425 19.7263 9.60537 19.525 9.32556 19.2163C9.04575 18.9076 8.8826 18.5108 8.8643 18.0946C8.846 17.6783 8.97371 17.2687 9.22535 16.9367C9.47699 16.6046 9.83675 16.3709 10.2424 16.2759C10.6481 16.1809 11.0742 16.2307 11.4471 16.4166C11.82 16.6025 12.1162 16.9128 12.2846 17.2939C13.8827 16.9984 15.3264 16.1514 16.3641 14.9006C17.4018 13.6499 17.9676 12.0746 17.9631 10.4495C17.9631 6.61 14.8395 3.48639 11 3.48639C7.16056 3.48639 4.03694 6.61 4.03694 10.4495C4.03673 11.6367 4.34015 12.8043 4.91836 13.8412C4.93796 13.8754 4.95267 13.9122 4.96206 13.9505C5.01791 14.1057 5.01194 14.2765 4.94538 14.4274C4.87883 14.5784 4.75679 14.698 4.60452 14.7614C4.23166 14.9184 3.83119 14.9992 3.42666 14.9991C3.37905 14.9991 3.33134 14.998 3.28353 14.9958C2.47171 14.9595 1.70742 14.6028 1.15823 14.0038C0.609038 13.4048 0.319779 12.6125 0.353876 11.8006C0.367583 11.4769 0.359934 11.188 0.352458 10.9086C0.345497 10.6456 0.338235 10.3736 0.35018 10.0898C0.385831 9.29708 0.726842 8.54887 1.30179 8.00191C1.87674 7.45496 2.64102 7.15169 3.43456 7.15562C4.70884 4.2401 7.62011 2.19733 11 2.19733C14.38 2.19733 17.2913 4.2401 18.5655 7.15566C19.3592 7.15114 20.1237 7.45415 20.6987 8.00111C21.2738 8.54808 21.6147 9.2965 21.6498 10.0894C21.6618 10.3736 21.6546 10.6455 21.6476 10.9086C21.6402 11.1879 21.6325 11.4769 21.6462 11.8009ZM16.4057 10.4495C16.4054 11.2776 16.2149 12.0947 15.8489 12.8375C15.4828 13.5804 14.9511 14.2293 14.2946 14.7342C13.6381 15.239 12.8745 15.5864 12.0625 15.7494C11.2506 15.9124 10.412 15.8868 9.61154 15.6745L7.42352 16.9381C7.31312 17.0018 7.1863 17.0314 7.05908 17.0231C6.93187 17.0147 6.80998 16.9689 6.70884 16.8913C6.6077 16.8137 6.53184 16.7078 6.49086 16.5871C6.44989 16.4663 6.44564 16.3362 6.47864 16.213L7.03784 14.127C6.11178 13.126 5.59651 11.8131 5.59456 10.4495C5.59456 7.46796 8.01933 5.04255 11 5.04255C13.9807 5.04255 16.4057 7.46796 16.4057 10.4495ZM9.4972 10.4495C9.4972 10.2785 9.42929 10.1146 9.30842 9.99372C9.18754 9.87285 9.02361 9.80494 8.85266 9.80494H8.85159C8.72417 9.80518 8.59967 9.84318 8.49384 9.91415C8.388 9.98512 8.30558 10.0859 8.25698 10.2037C8.20838 10.3214 8.19579 10.451 8.22079 10.576C8.2458 10.7009 8.30728 10.8156 8.39747 10.9057C8.48765 10.9957 8.6025 11.0569 8.72749 11.0817C8.85249 11.1065 8.98202 11.0936 9.09972 11.0448C9.21743 10.996 9.31802 10.9134 9.38878 10.8074C9.45955 10.7015 9.49732 10.5769 9.49732 10.4495H9.4972ZM11.6447 10.4495C11.6446 10.4284 11.6435 10.4073 11.6413 10.3863C11.6392 10.3652 11.6361 10.3443 11.6318 10.3236C11.628 10.3029 11.6228 10.2825 11.6163 10.2626C11.6104 10.2424 11.6031 10.2226 11.5953 10.2028C11.5876 10.1831 11.5781 10.1646 11.5682 10.1461C11.5584 10.1275 11.5477 10.1095 11.536 10.092C11.5243 10.0743 11.5116 10.0572 11.4982 10.0408C11.4849 10.0244 11.4707 10.0088 11.4557 9.99401C11.4411 9.97897 11.4252 9.96479 11.4088 9.95104C11.3925 9.93815 11.3753 9.92526 11.3577 9.91365C11.3402 9.902 11.3221 9.89125 11.3036 9.88143C11.285 9.87155 11.2657 9.86252 11.2464 9.85436C11.227 9.84626 11.2072 9.83923 11.1871 9.8333C11.1469 9.8204 11.1054 9.81204 11.0634 9.80838C11.0002 9.8023 10.9366 9.80534 10.8743 9.8174C10.8536 9.82164 10.8331 9.82694 10.8129 9.8333C10.7928 9.83921 10.773 9.84624 10.7536 9.85436C10.7343 9.86252 10.7149 9.87155 10.6965 9.88143C10.678 9.89131 10.6599 9.90205 10.6423 9.91365C10.6246 9.92526 10.6075 9.93815 10.5916 9.95104C10.5749 9.96479 10.5594 9.97897 10.5443 9.99401C10.5293 10.0088 10.515 10.0244 10.5018 10.0408C10.4885 10.0572 10.476 10.0743 10.4644 10.092C10.4526 10.1094 10.4417 10.1275 10.4318 10.1461C10.4219 10.1645 10.4129 10.1835 10.4051 10.2028C10.3969 10.2224 10.3898 10.2423 10.3836 10.2626C10.3776 10.2823 10.3725 10.303 10.3682 10.3236C10.3639 10.3443 10.3608 10.3652 10.3587 10.3863C10.3566 10.4074 10.3557 10.4284 10.3557 10.4495C10.3557 10.4705 10.3566 10.492 10.3587 10.5131C10.3608 10.534 10.364 10.5548 10.3682 10.5754C10.3725 10.596 10.3776 10.6166 10.3836 10.6368C10.3898 10.6569 10.3969 10.6767 10.4051 10.6961C10.4129 10.7156 10.4218 10.7347 10.4318 10.7533C10.4416 10.7717 10.4528 10.7898 10.4644 10.8074C10.476 10.8249 10.4885 10.8419 10.5018 10.8581C10.5152 10.8746 10.5294 10.8903 10.5443 10.9054C10.5594 10.92 10.5749 10.9346 10.5916 10.9479C10.6078 10.9613 10.6247 10.9738 10.6423 10.9853C10.6599 10.9969 10.6779 11.0081 10.6965 11.018C10.7338 11.0374 10.7727 11.0535 10.8129 11.0661C10.8331 11.0721 10.8537 11.0772 10.8743 11.0815C10.9157 11.09 10.9579 11.0942 11.0002 11.094C11.1709 11.0936 11.3346 11.0258 11.4557 10.9054C11.4854 10.8752 11.5123 10.8424 11.536 10.8074C11.5476 10.7898 11.5584 10.7717 11.5682 10.7533C11.5781 10.7348 11.5872 10.7155 11.5953 10.6961C11.6035 10.6768 11.6104 10.6566 11.6163 10.6368C11.6228 10.6167 11.6279 10.5962 11.6318 10.5754C11.636 10.5548 11.6392 10.534 11.6413 10.5131C11.6434 10.4919 11.6446 10.4707 11.6446 10.4494L11.6447 10.4495ZM13.7931 10.4495C13.7931 10.2785 13.7252 10.1146 13.6043 9.99372C13.4835 9.87285 13.3195 9.80494 13.1486 9.80494H13.1473C13.0199 9.80519 12.8954 9.8432 12.7896 9.91417C12.6838 9.98514 12.6014 10.0859 12.5528 10.2037C12.5042 10.3215 12.4916 10.451 12.5166 10.576C12.5416 10.7009 12.6031 10.8157 12.6933 10.9057C12.7835 10.9957 12.8983 11.0569 13.0233 11.0817C13.1483 11.1065 13.2778 11.0936 13.3955 11.0448C13.5132 10.996 13.6138 10.9134 13.6846 10.8074C13.7554 10.7015 13.7931 10.5769 13.7931 10.4495Z" fill="black"/>
</svg>
