<svg width="136" height="25" viewBox="0 0 136 25" fill="none" xmlns="http://www.w3.org/2000/svg">
<g clip-path="url(#clip0_0_946)">
<path d="M36.3575 21.2656H34.2508V10.3952H30.5481V8.59338H40.0721V10.3952H36.3575V21.2656Z" fill="white"/>
<path d="M41.0581 21.2657V11.4565H43.1094V12.9891H43.2203C43.2956 12.7673 43.4302 12.5258 43.6242 12.2684C43.8183 12.0109 44.0915 11.7892 44.444 11.5991C44.7964 11.409 45.2439 11.3179 45.7904 11.3179C45.925 11.3179 46.0518 11.3219 46.1666 11.3338C46.2815 11.3457 46.3884 11.3575 46.4874 11.3773V13.195C46.3963 13.1713 46.2696 13.1515 46.1072 13.1396C45.9448 13.1277 45.7785 13.1198 45.6043 13.1198C45.0538 13.1198 44.5945 13.2188 44.2301 13.4207C43.8658 13.6227 43.5926 13.8959 43.4144 14.2484C43.2361 14.6008 43.1451 14.9929 43.1451 15.4325V21.2696H41.0581V21.2657Z" fill="white"/>
<path d="M50.7683 21.4161C49.8218 21.4161 49.0496 21.1468 48.4516 20.6043C47.8536 20.0618 47.5566 19.3331 47.5566 18.4183C47.5566 17.5511 47.8536 16.8501 48.4437 16.3155C49.0338 15.7809 49.8971 15.5116 51.0296 15.5116H53.5086V14.5929C53.5086 14.0306 53.3423 13.6148 53.0057 13.3455C52.6691 13.0762 52.2216 12.9415 51.6593 12.9415C51.287 12.9415 50.9821 12.9891 50.7406 13.0841C50.499 13.1791 50.3089 13.3098 50.1743 13.4722C50.0396 13.6346 49.9406 13.8286 49.8852 14.0504H47.9249C47.9566 13.6425 48.0556 13.2702 48.2259 12.9336C48.3962 12.597 48.6377 12.304 48.9506 12.0624C49.2634 11.8208 49.6515 11.6308 50.1109 11.5001C50.5703 11.3694 51.1088 11.306 51.7226 11.306C52.4236 11.306 53.0612 11.413 53.6433 11.6268C54.2254 11.8406 54.6887 12.1891 55.0372 12.6723C55.3857 13.1554 55.556 13.8048 55.556 14.6206V21.2656H53.5958V19.9945H53.5047C53.3621 20.24 53.172 20.4736 52.9305 20.6914C52.6889 20.9092 52.3919 21.0835 52.0355 21.2142C51.6791 21.3448 51.2593 21.4122 50.7683 21.4122V21.4161ZM51.3979 19.8202C51.7939 19.8202 52.1503 19.737 52.4671 19.5747C52.784 19.4123 53.0334 19.1906 53.2235 18.9094C53.4136 18.6282 53.5047 18.3114 53.5047 17.955V16.8977H51.3504C50.7485 16.8977 50.3129 17.0323 50.0357 17.2976C49.7584 17.563 49.6238 17.9035 49.6238 18.3193C49.6238 18.8341 49.806 19.2104 50.1663 19.4559C50.5267 19.7014 50.9385 19.8242 51.3979 19.8242V19.8202Z" fill="white"/>
<path d="M57.6627 17.0442V15.6225C57.6627 14.7434 57.837 13.9831 58.1815 13.3336C58.526 12.6842 59.0171 12.1852 59.6507 11.8248C60.2843 11.4645 61.0327 11.2863 61.8921 11.2863C62.7514 11.2863 63.4405 11.4367 64.0147 11.7417C64.5889 12.0466 65.0245 12.4386 65.3294 12.9257C65.6344 13.4128 65.7888 13.9356 65.8046 14.4979H63.8563C63.8246 14.288 63.7454 14.0662 63.6187 13.8326C63.492 13.5989 63.294 13.4049 63.0286 13.2425C62.7633 13.0802 62.399 13.001 61.9436 13.001C61.2268 13.001 60.6763 13.2425 60.3001 13.7257C59.9239 14.2088 59.7338 14.8543 59.7338 15.6661V17.0403C59.7338 17.864 59.9318 18.5174 60.3239 19.0005C60.7159 19.4836 61.2585 19.7252 61.9515 19.7252C62.3911 19.7252 62.7435 19.6618 63.0128 19.5391C63.2821 19.4163 63.488 19.246 63.6266 19.0322C63.7652 18.8183 63.8602 18.5807 63.9078 18.3233H65.8561C65.8363 18.8738 65.6819 19.3846 65.3888 19.8598C65.0958 20.335 64.6602 20.7152 64.082 21.0003C63.5038 21.2855 62.7752 21.432 61.896 21.432C61.0169 21.432 60.2724 21.2538 59.6388 20.8974C59.0052 20.541 58.5221 20.0341 58.1775 19.3807C57.833 18.7272 57.6627 17.9471 57.6627 17.0403V17.0442Z" fill="white"/>
<path d="M69.947 17.757V21.2657H67.8956V7.9281H69.947V15.7057H70.038L73.6496 11.4565H75.998L72.2834 15.7057L76.2474 21.2657H73.816L70.7429 16.9135L69.943 17.757H69.947Z" fill="white"/>
<path d="M83.0905 8.59735C83.9815 8.59735 84.7458 8.75971 85.3834 9.08048C86.021 9.40125 86.508 9.85666 86.8486 10.4388C87.1892 11.0209 87.3595 11.71 87.3595 12.4941C87.3595 13.096 87.2525 13.6306 87.0427 14.1058C86.8328 14.581 86.5516 14.981 86.1992 15.3097C85.8467 15.6384 85.4547 15.8839 85.0309 16.0423L87.5931 21.2696H85.225L82.9519 16.3987H80.3264V21.2696H78.2473V8.60131H83.0905V8.59735ZM80.3264 14.7236H82.738C83.5182 14.7236 84.1201 14.5414 84.5478 14.1811C84.9755 13.8207 85.1893 13.2821 85.1893 12.5693C85.1893 11.8565 84.9755 11.2902 84.5438 10.9021C84.1122 10.514 83.5301 10.3239 82.7935 10.3239H80.3264V14.7236Z" fill="white"/>
<path d="M93.8222 11.2902C94.6776 11.2902 95.43 11.4684 96.0874 11.8209C96.7448 12.1733 97.2556 12.6802 97.6239 13.3415C97.9922 14.0029 98.1744 14.7909 98.1744 15.7097V16.9809C98.1744 17.9273 97.9922 18.7352 97.6239 19.4005C97.2556 20.0658 96.7448 20.5727 96.0874 20.9172C95.43 21.2617 94.6776 21.436 93.8222 21.436C92.9669 21.436 92.1947 21.2617 91.5452 20.9172C90.8957 20.5727 90.3809 20.0658 90.0087 19.4044C89.6364 18.7431 89.4503 17.9392 89.4503 16.9927V15.7216C89.4503 14.8226 89.6364 14.0464 90.0087 13.3811C90.3809 12.7159 90.8957 12.205 91.5531 11.8407C92.2105 11.4763 92.9669 11.2942 93.8222 11.2942V11.2902ZM93.8341 12.9495C93.3391 12.9495 92.9233 13.0762 92.5827 13.3257C92.2422 13.5752 91.9808 13.9158 91.8026 14.3474C91.6244 14.7791 91.5333 15.2661 91.5333 15.8166V16.9135C91.5333 17.464 91.6165 17.955 91.7868 18.3827C91.957 18.8104 92.2145 19.151 92.559 19.4005C92.9035 19.65 93.3272 19.7727 93.8341 19.7727C94.341 19.7727 94.7608 19.65 95.0974 19.4005C95.434 19.151 95.6835 18.8144 95.8538 18.3827C96.0241 17.9511 96.1072 17.464 96.1072 16.9135V15.8166C96.1072 15.2661 96.0201 14.7751 95.8419 14.3474C95.6637 13.9197 95.4102 13.5752 95.0697 13.3257C94.7291 13.0762 94.3212 12.9495 93.8302 12.9495H93.8341Z" fill="white"/>
<path d="M108.637 11.4565V21.2657H106.613V19.6341H106.502C106.415 19.8994 106.253 20.1687 106.015 20.442C105.778 20.7152 105.461 20.9449 105.065 21.135C104.669 21.3251 104.182 21.4162 103.608 21.4162C102.95 21.4162 102.376 21.3053 101.877 21.0875C101.378 20.8697 100.99 20.5212 100.709 20.0499C100.428 19.5787 100.285 18.9569 100.285 18.1887V11.4605H102.344V17.6501C102.344 18.1689 102.435 18.5768 102.618 18.8698C102.8 19.1629 103.037 19.3727 103.33 19.4916C103.624 19.6104 103.944 19.6737 104.293 19.6737C104.724 19.6737 105.112 19.5787 105.457 19.3846C105.802 19.1906 106.071 18.9332 106.273 18.6045C106.475 18.2758 106.574 17.9075 106.574 17.4996V11.4565H108.633H108.637Z" fill="white"/>
<path d="M111.912 11.5199V9.0686H113.928V11.5199H116.118V13.1356H113.928V18.3431C113.928 18.8738 114.042 19.2341 114.268 19.4242C114.494 19.6143 114.882 19.7054 115.432 19.7054C115.575 19.7054 115.725 19.7014 115.884 19.6895C116.042 19.6777 116.161 19.6737 116.24 19.6658V21.2419C116.161 21.2538 115.979 21.2696 115.698 21.2934C115.417 21.3171 115.159 21.3251 114.922 21.3251C114.13 21.3251 113.512 21.2261 113.068 21.0281C112.625 20.83 112.32 20.5212 112.146 20.1054C111.971 19.6895 111.884 19.1549 111.884 18.5055V13.1316H110.391V11.5159H111.912V11.5199Z" fill="white"/>
<path d="M122.073 21.432C121.19 21.432 120.422 21.2577 119.773 20.9093C119.123 20.5608 118.62 20.0539 118.268 19.3965C117.915 18.7391 117.737 17.9471 117.737 17.0244V15.6978C117.737 14.7711 117.923 13.9791 118.296 13.3217C118.668 12.6644 119.171 12.1614 119.804 11.813C120.438 11.4645 121.155 11.2902 121.955 11.2902C122.755 11.2902 123.503 11.4724 124.133 11.8328C124.762 12.1931 125.253 12.704 125.614 13.3613C125.974 14.0187 126.152 14.7949 126.152 15.7018V16.8541H119.785V17.3373C119.785 18.0382 119.983 18.6203 120.383 19.0876C120.782 19.5549 121.345 19.7886 122.066 19.7886C122.426 19.7886 122.743 19.7371 123.02 19.6341C123.297 19.5312 123.523 19.3965 123.693 19.2262C123.863 19.0559 123.974 18.8698 124.022 18.6639H126.038C126.006 18.949 125.907 19.25 125.737 19.5747C125.566 19.8994 125.321 20.1964 125.004 20.4816C124.687 20.7667 124.283 20.9924 123.796 21.1746C123.309 21.3568 122.735 21.4439 122.073 21.4439V21.432ZM119.781 15.5038H124.133V15.3731C124.133 14.8781 124.042 14.4464 123.863 14.0781C123.685 13.7098 123.432 13.4247 123.107 13.2188C122.782 13.0129 122.398 12.9139 121.963 12.9139C121.527 12.9139 121.139 13.0168 120.81 13.2188C120.482 13.4207 120.228 13.7098 120.05 14.0781C119.872 14.4464 119.781 14.8781 119.781 15.3731V15.5038Z" fill="white"/>
<path d="M128.279 9.07251C128.524 9.07251 128.726 9.12399 128.889 9.22299C129.051 9.322 129.174 9.45664 129.257 9.62296C129.34 9.78928 129.384 9.97145 129.384 10.1734C129.384 10.3754 129.34 10.5575 129.257 10.7239C129.174 10.8902 129.047 11.0209 128.881 11.1159C128.715 11.211 128.509 11.2624 128.267 11.2624H127.701V12.2445H126.94V9.07647H128.279V9.07251ZM128.616 10.1734C128.616 10.0071 128.568 9.88037 128.477 9.79324C128.386 9.70612 128.263 9.66256 128.105 9.66256H127.705V10.6882H128.105C128.212 10.6882 128.303 10.6684 128.378 10.6288C128.453 10.5892 128.513 10.5298 128.556 10.4546C128.6 10.3793 128.62 10.2843 128.62 10.1774L128.616 10.1734Z" fill="#D9E821"/>
<path d="M131.13 9.07251C131.38 9.07251 131.594 9.11607 131.768 9.20319C131.942 9.29031 132.073 9.40912 132.164 9.56356C132.255 9.718 132.298 9.90017 132.298 10.1101C132.298 10.2724 132.267 10.415 132.207 10.5377C132.148 10.6605 132.073 10.7595 131.986 10.8347C131.898 10.91 131.815 10.9694 131.732 11.0011L132.362 12.2406H131.518L130.984 11.108H130.544V12.2406H129.796V9.07251H131.134H131.13ZM130.54 10.5694H131.007C131.158 10.5694 131.277 10.5338 131.368 10.4585C131.459 10.3833 131.506 10.2685 131.506 10.118C131.506 9.96749 131.459 9.84869 131.364 9.76948C131.269 9.69028 131.15 9.65068 131.011 9.65068H130.536V10.5734L130.54 10.5694Z" fill="#D9E821"/>
<path d="M135.474 10.8466C135.474 11.1437 135.419 11.3971 135.308 11.6189C135.197 11.8406 135.039 12.007 134.829 12.1218C134.619 12.2366 134.366 12.3 134.069 12.3C133.772 12.3 133.518 12.2406 133.308 12.1218C133.098 12.003 132.936 11.8367 132.825 11.6189C132.714 11.4011 132.659 11.1437 132.659 10.8466V10.4784C132.659 10.1774 132.714 9.91999 132.825 9.69822C132.936 9.47646 133.098 9.31014 133.308 9.19529C133.518 9.08045 133.772 9.01709 134.069 9.01709C134.366 9.01709 134.623 9.07649 134.829 9.19529C135.035 9.3141 135.197 9.48438 135.308 9.69822C135.419 9.91207 135.474 10.1734 135.474 10.4744V10.8427V10.8466ZM134.694 10.4704C134.694 10.2883 134.667 10.1338 134.615 10.0111C134.564 9.88831 134.488 9.79723 134.393 9.73386C134.298 9.6705 134.187 9.64278 134.065 9.64278C133.942 9.64278 133.827 9.67446 133.732 9.73386C133.637 9.79327 133.566 9.88831 133.51 10.0111C133.455 10.1338 133.431 10.2883 133.431 10.4704V10.8506C133.431 11.0328 133.459 11.1872 133.51 11.31C133.562 11.4327 133.637 11.5278 133.732 11.5872C133.827 11.6466 133.938 11.6783 134.065 11.6783C134.191 11.6783 134.298 11.6466 134.393 11.5872C134.488 11.5278 134.56 11.4327 134.615 11.31C134.671 11.1872 134.694 11.0328 134.694 10.8506V10.4704Z" fill="#D9E821"/>
<path d="M24.6396 0.0120148L0 6.14618V7.79754C9.50024 7.79754 17.2026 15.4999 17.2026 25.0001H18.854L25.0792 0.451584C25.1465 0.186258 24.905 -0.0553066 24.6396 0.0120148Z" fill="#D9E821"/>
<path d="M0 15.179V16.8066C4.51845 16.8066 8.19737 20.4816 8.19737 25.004H9.82496C9.82496 19.5866 5.41739 15.183 0.00396008 15.183L0 15.179Z" fill="#D9E821"/>
<path d="M0 10.6724V12.3C7.00143 12.3 12.7 17.9986 12.7 25H14.3276C14.3276 17.0996 7.90036 10.6724 0 10.6724Z" fill="#D9E821"/>
</g>
<defs>
<clipPath id="clip0_0_946">
<rect width="135.474" height="25" fill="white"/>
</clipPath>
</defs>
</svg>
