<svg width="16" height="16" viewBox="0 0 16 16" fill="none" xmlns="http://www.w3.org/2000/svg">
<g clip-path="url(#clip0_2479_349)">
<path d="M9 9.8675V1.75C9 1.52019 8.95473 1.29262 8.86679 1.0803C8.77884 0.867984 8.64994 0.675066 8.48744 0.512563C8.32493 0.350061 8.13201 0.221157 7.91969 0.133211C7.70737 0.0452651 7.47981 0 7.25 0C7.02018 0 6.79262 0.0452651 6.5803 0.133211C6.36798 0.221157 6.17506 0.350061 6.01256 0.512563C5.85006 0.675066 5.72115 0.867984 5.63321 1.0803C5.54526 1.29262 5.5 1.52019 5.5 1.75V9.8675C4.88806 10.2479 4.41671 10.8172 4.1573 11.4894C3.89789 12.1616 3.86455 12.9001 4.06233 13.5929C4.26011 14.2857 4.67824 14.8953 5.25341 15.3292C5.82858 15.7632 6.52948 15.9979 7.25 15.9979C7.97051 15.9979 8.67141 15.7632 9.24659 15.3292C9.82176 14.8953 10.2399 14.2857 10.4377 13.5929C10.6354 12.9001 10.6021 12.1616 10.3427 11.4894C10.0833 10.8172 9.61194 10.2479 9 9.8675ZM7.25 15.515C6.62442 15.5143 6.01671 15.3063 5.52186 14.9236C5.02702 14.5408 4.67294 14.0049 4.51497 13.3996C4.357 12.7943 4.40405 12.1537 4.64876 11.578C4.89347 11.0023 5.32205 10.5238 5.8675 10.2175C5.90705 10.1964 5.94021 10.1652 5.96352 10.1269C5.98683 10.0886 5.99943 10.0448 6 10V1.75C6 1.41848 6.13169 1.10054 6.36611 0.866117C6.60054 0.631696 6.91848 0.5 7.25 0.5C7.58152 0.5 7.89946 0.631696 8.13388 0.866117C8.3683 1.10054 8.5 1.41848 8.5 1.75V10C8.50086 10.0425 8.51257 10.0841 8.534 10.1209C8.55544 10.1576 8.5859 10.1883 8.6225 10.21C9.17102 10.5141 9.60296 10.9919 9.85048 11.5682C10.098 12.1444 10.1471 12.7866 9.98996 13.3938C9.83287 14.001 9.47852 14.5388 8.98257 14.9228C8.48663 15.3067 7.87719 15.515 7.25 15.515Z" fill="black"/>
<path d="M7.49999 11.2225V3.66002C7.50923 3.62316 7.50995 3.58467 7.50208 3.54749C7.49421 3.51031 7.47797 3.47541 7.45459 3.44545C7.43121 3.41549 7.40131 3.39125 7.36716 3.37458C7.333 3.35791 7.2955 3.34924 7.25749 3.34924C7.21949 3.34924 7.18199 3.35791 7.14783 3.37458C7.11368 3.39125 7.08378 3.41549 7.0604 3.44545C7.03702 3.47541 7.02078 3.51031 7.01291 3.54749C7.00504 3.58467 7.00575 3.62316 7.01499 3.66002V11.2225C6.64721 11.2834 6.31578 11.4804 6.08652 11.7743C5.85726 12.0683 5.74695 12.4377 5.77749 12.8092C5.80803 13.1808 5.97719 13.5272 6.25137 13.7798C6.52556 14.0324 6.88471 14.1726 7.25749 14.1726C7.63028 14.1726 7.98943 14.0324 8.26362 13.7798C8.5378 13.5272 8.70696 13.1808 8.7375 12.8092C8.76804 12.4377 8.65773 12.0683 8.42847 11.7743C8.19921 11.4804 7.86778 11.2834 7.49999 11.2225ZM7.24999 13.685C7.05221 13.685 6.85887 13.6264 6.69442 13.5165C6.52997 13.4066 6.4018 13.2504 6.32611 13.0677C6.25043 12.885 6.23062 12.6839 6.26921 12.4899C6.30779 12.2959 6.40303 12.1178 6.54289 11.9779C6.68274 11.8381 6.86092 11.7428 7.0549 11.7042C7.24888 11.6656 7.44995 11.6855 7.63268 11.7611C7.8154 11.8368 7.97158 11.965 8.08146 12.1294C8.19134 12.2939 8.24999 12.4872 8.24999 12.685C8.24999 12.9502 8.14464 13.2046 7.9571 13.3921C7.76956 13.5797 7.51521 13.685 7.24999 13.685Z" fill="black"/>
<path d="M10.08 2.40998H11.83C11.8841 2.39643 11.932 2.36521 11.9663 2.32128C12.0006 2.27734 12.0192 2.22321 12.0192 2.16748C12.0192 2.11175 12.0006 2.05762 11.9663 2.01369C11.932 1.96975 11.8841 1.93853 11.83 1.92498H10.08C10.0431 1.91574 10.0047 1.91503 9.96747 1.9229C9.93029 1.93076 9.89539 1.947 9.86543 1.97038C9.83547 1.99376 9.81123 2.02367 9.79456 2.05782C9.77789 2.09197 9.76923 2.12948 9.76923 2.16748C9.76923 2.20548 9.77789 2.24299 9.79456 2.27714C9.81123 2.31129 9.83547 2.3412 9.86543 2.36458C9.89539 2.38796 9.93029 2.4042 9.96747 2.41206C10.0047 2.41993 10.0431 2.41922 10.08 2.40998Z" fill="black"/>
<path d="M10.08 4.01503H11.095C11.1491 4.00148 11.197 3.97026 11.2313 3.92632C11.2656 3.88239 11.2842 3.82826 11.2842 3.77253C11.2842 3.7168 11.2656 3.66267 11.2313 3.61873C11.197 3.5748 11.1491 3.54358 11.095 3.53003H10.08C10.0259 3.54358 9.97796 3.5748 9.94368 3.61873C9.9094 3.66267 9.89078 3.7168 9.89078 3.77253C9.89078 3.82826 9.9094 3.88239 9.94368 3.92632C9.97796 3.97026 10.0259 4.00148 10.08 4.01503Z" fill="black"/>
<path d="M11.8225 5.13747H10.0725C10.0354 5.1274 9.99651 5.126 9.95881 5.1334C9.9211 5.14079 9.88561 5.15678 9.85509 5.18011C9.82457 5.20345 9.79983 5.23351 9.78281 5.26795C9.76578 5.3024 9.75693 5.3403 9.75693 5.37872C9.75693 5.41714 9.76578 5.45505 9.78281 5.48949C9.79983 5.52394 9.82457 5.554 9.85509 5.57733C9.88561 5.60067 9.9211 5.61665 9.95881 5.62405C9.99651 5.63144 10.0354 5.63005 10.0725 5.61997H11.8225C11.8596 5.63005 11.8985 5.63144 11.9362 5.62405C11.9739 5.61665 12.0094 5.60067 12.0399 5.57733C12.0704 5.554 12.0951 5.52394 12.1122 5.48949C12.1292 5.45505 12.1381 5.41714 12.1381 5.37872C12.1381 5.3403 12.1292 5.3024 12.1122 5.26795C12.0951 5.23351 12.0704 5.20345 12.0399 5.18011C12.0094 5.15678 11.9739 5.14079 11.9362 5.1334C11.8985 5.126 11.8596 5.1274 11.8225 5.13747Z" fill="black"/>
<path d="M10.08 7.22749H11.095C11.1491 7.21394 11.197 7.18272 11.2313 7.13879C11.2656 7.09485 11.2842 7.04072 11.2842 6.98499C11.2842 6.92926 11.2656 6.87513 11.2313 6.8312C11.197 6.78726 11.1491 6.75604 11.095 6.74249H10.08C10.0259 6.75604 9.97796 6.78726 9.94368 6.8312C9.9094 6.87513 9.89078 6.92926 9.89078 6.98499C9.89078 7.04072 9.9094 7.09485 9.94368 7.13879C9.97796 7.18272 10.0259 7.21394 10.08 7.22749Z" fill="black"/>
<path d="M11.8225 8.34753H10.0725C10.0184 8.36107 9.97046 8.3923 9.93617 8.43623C9.90189 8.48017 9.88327 8.5343 9.88327 8.59003C9.88327 8.64576 9.90189 8.69989 9.93617 8.74382C9.97046 8.78776 10.0184 8.81898 10.0725 8.83253H11.8225C11.8594 8.84177 11.8978 8.84248 11.935 8.83461C11.9722 8.82674 12.0071 8.8105 12.0371 8.78712C12.067 8.76374 12.0913 8.73384 12.1079 8.69969C12.1246 8.66554 12.1333 8.62803 12.1333 8.59003C12.1333 8.55202 12.1246 8.51452 12.1079 8.48037C12.0913 8.44621 12.067 8.41631 12.0371 8.39293C12.0071 8.36955 11.9722 8.35331 11.935 8.34544C11.8978 8.33758 11.8594 8.33829 11.8225 8.34753Z" fill="black"/>
</g>
<defs>
<clipPath id="clip0_2479_349">
<rect width="16" height="16" fill="white"/>
</clipPath>
</defs>
</svg>
