<svg width="40" height="40" viewBox="0 0 40 40" fill="none" xmlns="http://www.w3.org/2000/svg">
<path d="M12.5 28.3333C12.04 28.3333 11.6666 27.96 11.6666 27.5V8.33333C11.6666 6.495 13.1616 5 15 5C16.8383 5 18.3333 6.495 18.3333 8.33333V25.8333C18.3333 26.2933 17.96 26.6667 17.5 26.6667C17.04 26.6667 16.6666 26.2933 16.6666 25.8333V8.33333C16.6666 7.41333 15.92 6.66667 15 6.66667C14.08 6.66667 13.3333 7.41333 13.3333 8.33333V27.5C13.3333 27.96 12.96 28.3333 12.5 28.3333Z" fill="#6C63FF"/>
<path d="M22.5 26.6667C22.04 26.6667 21.6666 26.2933 21.6666 25.8333V18.3333C21.6666 17.4133 20.92 16.6667 20 16.6667C19.08 16.6667 18.3333 17.4133 18.3333 18.3333C18.3333 18.7933 17.96 19.1667 17.5 19.1667C17.04 19.1667 16.6666 18.7933 16.6666 18.3333C16.6666 16.495 18.1616 15 20 15C21.8383 15 23.3333 16.495 23.3333 18.3333V25.8333C23.3333 26.2933 22.96 26.6667 22.5 26.6667Z" fill="#6C63FF"/>
<path d="M27.5 26.6667C27.04 26.6667 26.6666 26.2933 26.6666 25.8333V20C26.6666 19.08 25.92 18.3333 25 18.3333C24.08 18.3333 23.3333 19.08 23.3333 20C23.3333 20.46 22.96 20.8333 22.5 20.8333C22.04 20.8333 21.6666 20.46 21.6666 20C21.6666 18.1617 23.1616 16.6667 25 16.6667C26.8383 16.6667 28.3333 18.1617 28.3333 20V25.8333C28.3333 26.2933 27.96 26.6667 27.5 26.6667Z" fill="#6C63FF"/>
<path d="M25.8334 40H16.1884C13.3834 40 10.4901 38.7783 8.44506 36.7317C6.18839 34.4733 4.99672 31.2517 5.00172 27.4183C5.00339 24.2483 7.65506 21.6667 10.9101 21.6667H12.5001C12.9601 21.6667 13.3334 22.04 13.3334 22.5C13.3334 22.96 12.9601 23.3333 12.5001 23.3333H10.9101C8.57339 23.3333 6.67006 25.1683 6.66839 27.42C6.66506 30.85 7.66006 33.585 9.62339 35.5533C11.6717 37.6033 14.3567 38.3333 16.1884 38.3333H25.8334C29.0501 38.3333 31.6667 35.7167 31.6667 32.5V21.6667C31.6667 20.7467 30.9201 20 30.0001 20C29.0801 20 28.3334 20.7467 28.3334 21.6667C28.3334 22.1267 27.9601 22.5 27.5001 22.5C27.0401 22.5 26.6667 22.1267 26.6667 21.6667C26.6667 19.8283 28.1617 18.3333 30.0001 18.3333C31.8384 18.3333 33.3334 19.8283 33.3334 21.6667V32.5C33.3334 36.635 29.9684 40 25.8334 40Z" fill="#6C63FF"/>
<path d="M20.8333 13.8667C20.6483 13.8667 20.46 13.805 20.3066 13.6783C19.95 13.3867 19.8983 12.8633 20.19 12.5067C21.155 11.3233 21.6666 9.88 21.6666 8.33333C21.6666 4.65667 18.6766 1.66667 15 1.66667C11.3233 1.66667 8.33329 4.65667 8.33329 8.33333C8.33329 9.88 8.84496 11.3233 9.81163 12.5067C10.1033 12.8633 10.0516 13.3867 9.69496 13.6783C9.33996 13.9717 8.81496 13.9183 8.52329 13.5617C7.30829 12.0767 6.66663 10.2683 6.66663 8.33333C6.66663 3.73833 10.405 0 15 0C19.595 0 23.3333 3.73833 23.3333 8.33333C23.3333 10.2683 22.6916 12.0767 21.4783 13.5617C21.3133 13.7633 21.075 13.8667 20.8333 13.8667Z" fill="#6C63FF"/>
</svg>
