<svg width="53" height="19" viewBox="0 0 53 19" fill="none" xmlns="http://www.w3.org/2000/svg">
<g clip-path="url(#clip0_4356_839)">
<path d="M53 19H0C4.01447 19 7.57609 16.4204 8.93057 12.5739C11.5171 5.24224 18.4078 0 26.498 0C34.5881 0 41.4788 5.24224 44.0694 12.5739C45.4239 16.4204 48.9855 19 53 19Z" fill="black"/>
<path d="M33.7602 14.0144L27.0789 7.3332C26.9245 7.17881 26.7186 7.09406 26.4944 7.09406C26.2746 7.09406 26.0686 7.17881 25.9145 7.3332L19.2394 14.0081C19.085 14.1626 19 14.3685 19 14.5883C19 14.808 19.0849 15.0141 19.2394 15.1685L19.731 15.6601C19.8854 15.8145 20.0915 15.8998 20.3112 15.8998C20.531 15.8998 20.7369 15.8145 20.8915 15.6601L26.4967 10.0549L32.1081 15.6666C32.2625 15.8208 32.4685 15.906 32.6884 15.906C32.9081 15.906 33.114 15.8208 33.2685 15.6666L33.7602 15.1748C34.0799 14.8549 34.0799 14.3343 33.7602 14.0144Z" fill="#D9E821"/>
</g>
<defs>
<clipPath id="clip0_4356_839">
<rect width="53" height="19" fill="white"/>
</clipPath>
</defs>
</svg>
