<svg width="24" height="24" viewBox="0 0 24 24" fill="none" xmlns="http://www.w3.org/2000/svg">
<path fill-rule="evenodd" clip-rule="evenodd" d="M15.2419 6.56908C15.2442 7.48923 15.9937 8.23642 16.9134 8.23642H16.9176C17.8392 8.23408 18.5873 7.4822 18.585 6.56064C18.584 6.11439 18.4092 5.69486 18.0923 5.38033C17.7769 5.06626 17.3587 4.89376 16.9139 4.89376C16.9125 4.89376 16.9106 4.89376 16.9092 4.89376C15.9876 4.89564 15.24 5.64751 15.2419 6.56908ZM15.2104 12.1252V14.25C15.2104 14.3063 15.2583 14.3545 15.315 14.3545H18.4795C18.5409 14.3545 18.5873 14.3297 18.6206 14.2781C18.6544 14.2266 18.6586 14.1745 18.6337 14.1183C18.3909 13.568 18.0229 13.0969 17.5608 12.7416L17.1651 13.343C17.1131 13.4217 17.025 13.4695 16.9308 13.4695H16.9303C16.8361 13.4695 16.7479 13.4227 16.6959 13.3439L15.8329 12.0464C15.69 12.0295 15.5447 12.0211 15.3994 12.0211H15.315C15.2583 12.0206 15.2104 12.0685 15.2104 12.1252ZM9.16545 14.3541H12.9051C12.9965 14.3541 13.0739 14.2767 13.0739 14.1858V12.1894C13.0739 12.098 12.9965 12.0206 12.9051 12.0206H12.3173C10.8665 12.0206 9.63186 12.803 9.01311 14.1136C8.98686 14.1699 8.99014 14.2233 9.02342 14.2758C9.0567 14.3283 9.10311 14.3541 9.16545 14.3541ZM7.43014 18.5789C7.43014 17.5749 6.61311 16.7583 5.60951 16.7583C4.60592 16.7583 3.78936 17.5749 3.78936 18.5789C3.78936 19.583 4.60592 20.3995 5.60951 20.3995C6.61311 20.3995 7.43014 19.5825 7.43014 18.5789ZM20.1867 18.5789C20.1867 17.5749 19.3697 16.7583 18.3661 16.7583C17.3625 16.7583 16.5459 17.5749 16.5459 18.5789C16.5459 19.583 17.3625 20.3995 18.3661 20.3995C19.3697 20.3991 20.1867 19.5825 20.1867 18.5789ZM21.7462 14.587C21.967 14.6508 22.1761 14.7108 22.4072 14.8439C22.6162 14.9639 22.7222 15.2386 22.7222 15.6605V17.926C22.7222 18.5578 22.2079 19.0725 21.5756 19.0725H20.6972C20.7309 18.9131 20.7492 18.7481 20.7492 18.5789C20.7492 17.265 19.68 16.1958 18.3661 16.1958C17.0522 16.1958 15.9834 17.2645 15.9834 18.5789C15.9834 18.7481 16.0012 18.9131 16.035 19.0725H7.94061C7.97435 18.9131 7.99264 18.7481 7.99264 18.5789C7.99264 17.265 6.92342 16.1958 5.60951 16.1958C4.29561 16.1958 3.22686 17.2645 3.22686 18.5789C3.22686 18.7481 3.24467 18.9131 3.27842 19.0725H2.39998C1.76764 19.0725 1.25342 18.5583 1.25342 17.926V17.5116C1.25342 16.8267 1.57311 16.0992 2.10889 15.5653C2.58514 15.0905 3.16451 14.8289 3.74107 14.8289H3.7467C3.75561 14.8285 3.76545 14.8285 3.77482 14.8275L3.8967 14.8158C5.59311 14.6522 6.0492 14.6081 7.38092 13.1011C8.29451 12.0666 9.60232 11.2425 10.8787 10.8966C11.9029 10.6191 12.9539 10.4817 14.0925 10.4766C14.3334 10.4756 14.5486 10.477 14.7459 10.4813C14.9681 10.778 15.179 11.0635 15.3689 11.3489L15.4425 11.4591C15.4279 11.4591 15.4139 11.4581 15.3994 11.4581H15.315C14.947 11.4581 14.6479 11.7572 14.6479 12.1252V14.25C14.6479 14.6175 14.947 14.917 15.315 14.917H18.4795C18.7312 14.917 18.9548 14.7961 19.0922 14.5852C19.2295 14.3742 19.2501 14.1211 19.1484 13.891C18.8615 13.2408 18.4228 12.6853 17.8706 12.27L18.4453 11.3967C18.7008 11.5575 18.9469 11.7408 19.192 11.9536C19.4709 12.196 19.6434 12.4988 19.8619 12.8822C19.9354 13.0116 20.0114 13.1452 20.0972 13.2863C20.7089 14.2889 21.2362 14.4403 21.7462 14.587ZM13.6364 14.1858C13.6364 14.5889 13.3083 14.917 12.9051 14.917H9.16545C8.90998 14.917 8.68498 14.7933 8.54811 14.5772C8.41123 14.3611 8.39529 14.1052 8.50451 13.8741C9.21842 12.3614 10.6434 11.4586 12.3173 11.4586H12.9051C13.3083 11.4586 13.6364 11.7867 13.6364 12.1899V14.1858ZM19.1475 6.55923C19.1508 7.79111 18.1509 8.79564 16.919 8.79892C16.9172 8.79892 16.9153 8.79892 16.9134 8.79892C15.6844 8.79892 14.6826 7.80048 14.6794 6.57048C14.6765 5.33861 15.6764 4.33408 16.9078 4.3308H16.9139C18.1429 4.3308 19.1447 5.32923 19.1475 6.55923ZM15.8376 11.0372C15.6075 10.6917 15.3431 10.3392 15.0872 9.99798C14.2701 8.90908 13.4254 7.78314 13.4222 6.57376C13.4198 5.64142 13.7808 4.76345 14.4389 4.10251C15.0965 3.44158 15.9722 3.07595 16.905 3.07361H16.9139C17.8429 3.07361 18.7172 3.43455 19.3762 4.08986C20.0372 4.74751 20.4023 5.62361 20.4047 6.55595C20.4079 7.76533 19.5689 8.89548 18.757 9.98814C18.5029 10.3308 18.24 10.6847 18.0122 11.0311L16.9289 12.6769L15.8376 11.0372Z" fill="black"/>
</svg>
