<svg width="20" height="20" viewBox="0 0 20 20" fill="none" xmlns="http://www.w3.org/2000/svg">
<g clip-path="url(#clip0_3559_507)">
<path d="M2.71009 5.88445C3.79307 5.82485 4.47946 4.95678 5.08507 4.19067C5.49033 3.6783 5.90907 3.14827 6.25227 3.14827C6.84577 3.14827 7.2406 3.60064 7.82055 4.34492C8.36792 5.04795 8.9881 5.84492 10.0166 5.84492C11.0445 5.84492 11.6653 5.0483 12.2127 4.34527C12.7926 3.60064 13.1879 3.14827 13.7813 3.14827C14.1193 3.14827 14.5339 3.68595 14.935 4.20559C15.5341 4.98143 16.2128 5.86125 17.2916 5.91879C17.3269 5.92086 17.3623 5.92156 17.398 5.92156C18.1645 5.92156 18.9587 5.48235 19.8218 4.58105C20.0663 4.3259 20.0576 3.92068 19.8024 3.67627C19.5466 3.43151 19.1417 3.44053 18.8976 3.69568C18.2854 4.33492 17.7537 4.66597 17.3599 4.64101C16.8676 4.61468 16.4007 4.00903 15.9486 3.42354C15.3863 2.69485 14.7488 1.86877 13.7816 1.86877C12.5198 1.86877 11.7897 2.80578 11.2032 3.55908C10.7158 4.18516 10.3924 4.56542 10.0169 4.56542C9.64117 4.56542 9.31809 4.18512 8.83068 3.55908C8.24413 2.80578 7.51442 1.86877 6.25223 1.86877C5.28885 1.86877 4.64719 2.68067 4.08076 3.39721C3.62144 3.97821 3.14684 4.57898 2.6397 4.60671C2.25077 4.6348 1.70684 4.31379 1.09533 3.69467C0.847131 3.44264 0.441868 3.44022 0.190546 3.68877C-0.0611269 3.93696 -0.0639003 4.34223 0.184648 4.59355C1.08599 5.50661 1.91761 5.93644 2.71009 5.88445Z" fill="black"/>
<path d="M2.71041 11.9923C3.79339 11.9327 4.48009 11.0636 5.08539 10.2968C5.49065 9.78371 5.90974 9.25333 6.25259 9.25333C6.84574 9.25333 7.24092 9.7057 7.82052 10.4507C8.36788 11.1537 8.98842 11.951 10.0169 11.951C11.0448 11.951 11.6657 11.1541 12.213 10.4507C12.793 9.70605 13.1882 9.25333 13.7817 9.25333C14.1193 9.25333 14.5343 9.79101 14.935 10.3106C15.534 11.0868 16.2128 11.9666 17.2916 12.0242C17.3269 12.0259 17.3623 12.027 17.398 12.027C18.1644 12.027 18.9586 11.5867 19.8225 10.6851C20.0669 10.4299 20.0575 10.0247 19.8024 9.78027C19.5472 9.53656 19.1424 9.54488 18.8976 9.80039C18.2851 10.4403 17.7533 10.7627 17.3598 10.7464C16.8676 10.7204 16.4006 10.1144 15.9489 9.5293C15.3867 8.80025 14.7492 7.97418 13.782 7.97418C12.5201 7.97418 11.7901 8.91154 11.2035 9.66519C10.7158 10.2913 10.3927 10.6719 10.0173 10.6719C9.64184 10.6719 9.31841 10.2916 8.831 9.66519C8.24445 8.91154 7.51474 7.97418 6.25255 7.97418C5.28917 7.97418 4.64751 8.78674 4.08073 9.50399C3.62176 10.0853 3.14681 10.6865 2.64002 10.7145C2.23339 10.735 1.70716 10.4206 1.096 9.80144C0.847803 9.54942 0.442891 9.54735 0.190866 9.79519C-0.0608071 10.0434 -0.0635805 10.4487 0.184616 10.7003C1.08596 11.6141 1.91797 12.0373 2.71041 11.9923Z" fill="black"/>
<path d="M18.8977 15.905C18.2858 16.5446 17.7634 16.877 17.3599 16.851C16.8677 16.8247 16.4007 16.2191 15.949 15.6336C15.3867 14.9049 14.7492 14.0788 13.782 14.0788C12.5206 14.0788 11.7901 15.0158 11.2036 15.7688C10.7162 16.3945 10.3928 16.7747 10.0173 16.7747C9.64156 16.7747 9.31849 16.3948 8.83108 15.7684C8.24418 15.0155 7.51482 14.0788 6.25263 14.0788C5.28925 14.0788 4.64759 14.891 4.08116 15.6076C3.62183 16.1889 3.14692 16.7897 2.63975 16.8174C2.25113 16.842 1.70723 16.5245 1.09572 15.9057C0.847528 15.6537 0.442265 15.6513 0.190943 15.8998C-0.0607302 16.148 -0.0635036 16.5533 0.185045 16.8046C1.08635 17.7177 1.91801 18.1448 2.71045 18.0952C3.79343 18.0356 4.47982 17.1669 5.08543 16.4007C5.49069 15.888 5.90943 15.358 6.25263 15.358C6.84609 15.358 7.24096 15.8104 7.82091 16.5546C8.36828 17.2573 8.98881 18.0539 10.017 18.0539C11.0448 18.0539 11.6653 17.2573 12.2131 16.5546C12.7927 15.8104 13.1879 15.358 13.7817 15.358C14.1193 15.358 14.5343 15.8957 14.9354 16.4153C15.5341 17.1915 16.2128 18.071 17.2916 18.1285C17.3273 18.1306 17.3623 18.1313 17.398 18.1313C18.1645 18.1313 18.9587 17.6917 19.8226 16.7897C20.067 16.5346 20.0576 16.1293 19.8024 15.8849C19.5473 15.6408 19.1425 15.6495 18.8977 15.905Z" fill="black"/>
</g>
<defs>
<clipPath id="clip0_3559_507">
<rect width="20" height="20" fill="white"/>
</clipPath>
</defs>
</svg>
