<svg width="35" height="33" viewBox="0 0 35 33" fill="none" xmlns="http://www.w3.org/2000/svg">
<path d="M17.5004 22.9861C18.4789 22.9861 19.2991 23.8064 19.2991 24.7848C19.2991 25.7633 18.4789 26.5835 17.5004 26.5835C16.5579 26.5835 15.7017 25.7633 15.7448 24.828C15.7017 23.7992 16.5147 22.9861 17.5004 22.9861Z" fill="#D9E821"/>
<path d="M0.851688 29.3607C-0.277893 27.4109 -0.285091 25.087 0.837299 23.1444L12.1043 3.63215C13.2195 1.66797 15.2341 0.502411 17.4932 0.502411C19.7524 0.502411 21.7669 1.67516 22.8821 3.62495L34.1636 23.1588C35.286 25.123 35.2788 27.4613 34.142 29.4111C33.0196 31.3393 31.0123 32.4977 28.7675 32.4977H6.26217C4.0102 32.4977 1.98846 31.3249 0.851688 29.3607ZM3.29792 27.9505C3.92386 29.0298 5.03186 29.6701 6.26937 29.6701H28.7747C29.9978 29.6701 31.0986 29.0441 31.7101 27.9865C32.3289 26.9145 32.3361 25.6338 31.7173 24.5546L20.4359 5.02793C19.8244 3.95591 18.7307 3.32277 17.4932 3.32277C16.2629 3.32277 15.1621 3.96311 14.5506 5.03513L3.27633 24.5618C2.67197 25.6122 2.67916 26.8785 3.29792 27.9505Z" fill="#D9E821"/>
<path d="M17.9466 10.3593C18.8028 10.6039 19.3352 11.3809 19.3352 12.3235C19.292 12.8918 19.2561 13.4674 19.2129 14.0358C19.0906 16.2015 18.9683 18.3239 18.846 20.4895C18.8028 21.2234 18.2344 21.7558 17.5005 21.7558C16.7667 21.7558 16.1911 21.1874 16.1551 20.4464C16.1551 20.0003 16.1551 19.5902 16.1119 19.1369C16.0328 17.7483 15.9465 16.3597 15.8673 14.9711C15.8241 14.0718 15.745 13.1724 15.7018 12.2731C15.7018 11.9493 15.745 11.6615 15.8673 11.3737C16.2343 10.5679 17.0904 10.1578 17.9466 10.3593Z" fill="#D9E821"/>
</svg>
