<svg width="22" height="22" viewBox="0 0 22 22" fill="none" xmlns="http://www.w3.org/2000/svg">
<path d="M20.3901 14.4901C20.6554 13.8892 20.6976 13.2133 20.509 12.584L19.9206 10.6277C19.8556 10.4084 19.7402 10.2073 19.5837 10.0404C19.4272 9.87361 19.2339 9.74565 19.0191 9.66676C19.0191 9.66676 18.5966 9.51339 18.5809 9.51025C18.5813 9.97322 18.5394 10.4353 18.4557 10.8906C18.7669 11.0244 19.0166 11.2699 19.1557 11.5787C19.2947 11.8875 19.313 12.2373 19.2069 12.5589L18.6874 14.1145C18.6067 14.3476 18.6542 14.7218 18.313 14.7249C17.8764 14.7065 17.9964 14.194 18.0958 13.9142L18.6356 12.2979C18.6632 12.1784 18.6601 12.0538 18.6265 11.9358C18.5929 11.8178 18.53 11.7102 18.4436 11.6231C18.3572 11.536 18.2501 11.4722 18.1323 11.4377C18.0146 11.4033 17.89 11.3992 17.7703 11.4258C17.6524 11.4524 17.5423 11.5058 17.4484 11.5818C17.3545 11.6578 17.2793 11.7543 17.2288 11.8641C17.0097 12.2162 16.1419 13.6225 15.9079 14.0018C15.575 14.4443 15.3577 14.9629 15.2757 15.5105C15.1529 16.3432 15.5494 17.1053 15.8422 17.9332C16.0141 18.2808 16.0959 18.6662 16.08 19.0537L16.0081 19.4074C16.0081 19.4074 18.7948 19.3145 19.642 19.3198C19.7069 19.2854 19.7574 19.229 19.7844 19.1607C19.8114 19.0924 19.8131 19.0167 19.7891 18.9473L19.5168 18.1491C19.3098 17.54 19.3388 16.8755 19.5982 16.2868L20.3901 14.4901Z" fill="black"/>
<path d="M6.51778 14.7249C6.41732 14.4715 6.28022 14.2342 6.11088 14.0206C5.8716 13.6348 4.99784 12.2243 4.77436 11.864C4.70186 11.6896 4.56512 11.5496 4.39238 11.473C4.21964 11.3965 4.02409 11.3892 3.84613 11.4526C3.66816 11.5161 3.52137 11.6455 3.43606 11.8141C3.35076 11.9827 3.33347 12.1776 3.38775 12.3586C3.48981 12.7205 4.00267 14.0372 4.00341 14.3953C4.00577 14.4378 3.99941 14.4804 3.98472 14.5203C3.97002 14.5603 3.9473 14.5969 3.91794 14.6278C3.88859 14.6586 3.85323 14.6832 3.81404 14.6999C3.77485 14.7166 3.73266 14.7251 3.69006 14.7249C3.34911 14.7219 3.39596 14.3475 3.31578 14.1145L2.79618 12.5589C2.70379 12.2825 2.70358 11.9835 2.79558 11.707C2.88757 11.4304 3.06681 11.1912 3.30637 11.0252C3.38032 10.9723 3.46015 10.9282 3.54425 10.8937C3.49941 10.6525 3.46703 10.409 3.44722 10.1644C3.42816 9.94535 3.4188 9.72937 3.41906 9.51025C3.40339 9.51339 2.98085 9.66676 2.98085 9.66676C2.76613 9.74565 2.57281 9.87361 2.4163 10.0404C2.25979 10.2073 2.14443 10.4084 2.0794 10.6277L1.49095 12.584C1.30242 13.2133 1.34459 13.8892 1.60989 14.4901L2.4018 16.2868C2.66118 16.8755 2.69021 17.5401 2.48316 18.1491L2.21085 18.9473C2.19595 18.9937 2.19197 19.0429 2.1992 19.0911C2.20644 19.1393 2.2247 19.1852 2.25257 19.2252C2.28044 19.2652 2.31716 19.2982 2.35987 19.3216C2.40259 19.3451 2.45014 19.3584 2.49883 19.3605C2.86699 19.367 5.99192 19.4356 5.99192 19.4356L5.91681 19.0005C5.91426 18.6535 5.98911 18.3102 6.13592 17.9957C6.571 16.9132 7.02399 15.8022 6.51778 14.7249Z" fill="black"/>
<path d="M16.4588 11.9204C16.7547 11.3779 17.1531 10.7933 17.8422 10.7874C18.0278 9.78351 17.9901 8.75112 17.732 7.76343C17.4738 6.77574 17.0015 5.85696 16.3485 5.07225C15.6955 4.28753 14.8779 3.65612 13.9536 3.22278C13.0292 2.78945 12.0209 2.56482 11 2.56482C9.97914 2.56482 8.97078 2.78946 8.04645 3.22279C7.12212 3.65613 6.30447 4.28755 5.65149 5.07226C4.99851 5.85698 4.5262 6.77576 4.26806 7.76345C4.00992 8.75114 3.97227 9.78353 4.15779 10.7874C4.37697 10.7978 4.59027 10.8617 4.77905 10.9735C4.96783 11.0854 5.12634 11.2418 5.24073 11.429C5.43302 11.7352 6.41631 13.3283 6.63047 13.6701C7.0184 14.1888 7.26535 14.7992 7.34725 15.4417C8.44651 16.117 9.71142 16.4746 11.0016 16.4746C12.2917 16.4745 13.5566 16.117 14.6559 15.4417C14.7464 14.7866 15.0016 14.1652 15.3977 13.6357L16.4588 11.9204ZM11 4.50852C12.132 4.5094 13.2305 4.89303 14.1169 5.59707C15.0033 6.30112 15.6257 7.2842 15.8828 8.38663C15.6847 8.41756 15.4831 8.41756 15.285 8.38663C15.0155 8.34328 14.7571 8.24757 14.5244 8.10492C13.4452 7.59863 12.2673 7.33721 11.0753 7.33938C9.88318 7.34154 8.70633 7.60723 7.62894 8.11743C7.09984 8.4005 6.7541 8.46019 6.36441 8.29274C6.30909 8.26153 6.2273 8.2125 6.17322 8.18476C6.46467 7.12826 7.09464 6.19654 7.96651 5.53249C8.83839 4.86843 9.90402 4.50872 11 4.50852ZM6.255 11.1373C6.23558 11.0718 6.23289 11.0024 6.24716 10.9356C6.26143 10.8687 6.29222 10.8065 6.33671 10.7546C6.3812 10.7026 6.43798 10.6627 6.50186 10.6384C6.56575 10.614 6.63472 10.6061 6.70247 10.6152L7.30343 10.5495C7.49122 10.5282 7.68133 10.5559 7.85521 10.63C8.0291 10.704 8.18084 10.8219 8.29564 10.972L9.28474 12.2585C9.54095 12.537 9.59868 13.4039 9.68539 13.7546C9.69753 13.823 9.69109 13.8934 9.66675 13.9584C9.64242 14.0234 9.60107 14.0807 9.54703 14.1243C9.49299 14.1679 9.42824 14.1962 9.35953 14.2063C9.29083 14.2163 9.22068 14.2077 9.15642 14.1814C8.48177 13.9135 7.87313 13.5026 7.37229 12.9772C6.87145 12.4517 6.49029 11.8241 6.255 11.1373ZM11 11.4885C10.6176 11.4854 10.252 11.3314 9.98272 11.0599C9.71344 10.7885 9.56235 10.4216 9.56235 10.0393C9.56235 9.6569 9.71346 9.29003 9.98274 9.01859C10.252 8.74715 10.6177 8.59312 11 8.59006C11.3824 8.59313 11.748 8.74716 12.0173 9.01861C12.2866 9.29006 12.4377 9.65693 12.4377 10.0393C12.4377 10.4216 12.2865 10.7885 12.0173 11.0599C11.748 11.3314 11.3823 11.4854 11 11.4885ZM12.8436 14.1814C12.7793 14.2077 12.7092 14.2163 12.6404 14.2063C12.5717 14.1962 12.507 14.1679 12.453 14.1243C12.3989 14.0807 12.3576 14.0234 12.3332 13.9584C12.3089 13.8933 12.3025 13.823 12.3146 13.7546C12.4016 13.3989 12.4615 12.541 12.7121 12.2585L13.7043 10.972C13.8191 10.8219 13.9709 10.704 14.1448 10.63C14.3186 10.5559 14.5088 10.5282 14.6965 10.5494C14.7804 10.5589 15.3497 10.6205 15.4209 10.6292C15.4783 10.6357 15.5335 10.655 15.5825 10.6855C15.6315 10.7161 15.673 10.7573 15.7041 10.806C15.7352 10.8547 15.755 10.9097 15.762 10.967C15.7691 11.0244 15.7633 11.0825 15.745 11.1373C15.5097 11.8241 15.1285 12.4517 14.6277 12.9772C14.1268 13.5026 13.5182 13.9134 12.8436 14.1814Z" fill="black"/>
<path d="M11 9.21606C10.7833 9.21849 10.5762 9.30629 10.4238 9.46041C10.2714 9.61453 10.186 9.82253 10.186 10.0393C10.186 10.256 10.2715 10.464 10.4239 10.6181C10.5763 10.7722 10.7833 10.86 11 10.8625C11.2168 10.86 11.4238 10.7722 11.5762 10.6181C11.7286 10.464 11.8141 10.256 11.814 10.0393C11.814 9.82251 11.7286 9.61451 11.5762 9.4604C11.4238 9.30628 11.2167 9.21849 11 9.21606Z" fill="black"/>
</svg>
