<svg width="12" height="12" viewBox="0 0 12 12" fill="none" xmlns="http://www.w3.org/2000/svg">
<path fill-rule="evenodd" clip-rule="evenodd" d="M2.45563 2.96249C2.38581 3.04104 2.34865 3.14331 2.35174 3.24836C2.35484 3.35342 2.39795 3.45332 2.47227 3.52764C2.54658 3.60195 2.64648 3.64507 2.75154 3.64816C2.85659 3.65125 2.95886 3.61409 3.03742 3.54427C3.82029 2.76176 4.88188 2.32218 5.98875 2.32218C7.09565 2.32218 8.15725 2.76176 8.9401 3.54427C9.0187 3.61409 9.12095 3.65125 9.226 3.64816C9.33105 3.64507 9.43095 3.60195 9.50525 3.52764C9.5796 3.45332 9.6227 3.35342 9.6258 3.24836C9.6289 3.14331 9.59175 3.04104 9.5219 2.96249C8.58455 2.02602 7.31375 1.5 5.98875 1.5C4.66378 1.5 3.39299 2.02602 2.45563 2.96249ZM3.80846 4.28512C3.74074 4.36403 3.70532 4.4656 3.70929 4.56951C3.71325 4.67342 3.7563 4.772 3.82983 4.84553C3.90336 4.91906 4.00194 4.96211 4.10585 4.96607C4.20976 4.97004 4.31133 4.93462 4.39024 4.8669C4.81365 4.44363 5.38785 4.20584 5.9865 4.20584C6.5852 4.20584 7.1594 4.44363 7.5828 4.8669C7.6198 4.91003 7.6653 4.94505 7.7165 4.96976C7.76765 4.99447 7.8234 5.00835 7.8802 5.0105C7.93695 5.0127 7.9936 5.0031 8.0465 4.98235C8.0994 4.9616 8.14745 4.93015 8.18765 4.88997C8.22785 4.84979 8.2593 4.80173 8.28005 4.74883C8.30075 4.69592 8.31035 4.63929 8.3082 4.58251C8.30605 4.52572 8.29215 4.46999 8.26745 4.41882C8.24275 4.36764 8.2077 4.32212 8.1646 4.28512C7.5867 3.70789 6.8033 3.38366 5.9865 3.38366C5.16975 3.38366 4.38635 3.70789 3.80846 4.28512ZM4.5 6C3.94772 6 3.5 6.4477 3.5 7V10C3.5 10.5523 3.94772 11 4.5 11H7.5C8.0523 11 8.5 10.5523 8.5 10V7C8.5 6.4477 8.0523 6 7.5 6H4.5ZM4.5 10H5.5H6.5H7.5V9V8V7H6.5H5.5H4.5V8V9V10Z" fill="black"/>
</svg>
